# 3ds Max Wavefront OBJ Exporter v0.99 - (c)2007 guruware
# File Created: 26.12.2024 18:38:19

#
# object HojaIzquierda
#

v  0.0406 -0.0592 0.4388
v  0.0175 -0.0528 0.4479
v  0.0044 -0.0577 0.4626
v  0.0411 -0.0457 0.4377
v  0.0023 -0.0469 0.4625
v  -0.1163 -0.0563 0.4587
v  0.0411 -0.0035 0.4377
v  0.0583 -0.0528 0.3672
v  0.0044 -0.1039 0.4626
v  -0.1163 -0.1013 0.4587
v  0.0175 -0.1092 0.4479
v  0.0406 -0.1029 0.4388
v  0.1185 -0.2341 0.2029
v  0.0991 -0.2554 0.3569
v  0.1185 -0.1848 0.3848
v  0.0991 -0.3237 0.1557
v  0.1376 -0.2554 0.4036
v  -0.1655 -0.0449 0.3071
v  -0.1493 -0.0785 0.2896
v  -0.1655 -0.0764 0.3071
v  -0.1565 -0.0465 0.3613
v  -0.1711 -0.0518 0.3620
v  -0.1493 -0.0375 0.2896
v  -0.1656 -0.0339 0.3058
v  -0.1713 -0.0410 0.3620
v  -0.0995 -0.1130 0.3569
v  -0.1189 -0.1837 0.3422
v  -0.0667 -0.1840 0.3776
v  -0.0956 -0.0961 0.3606
v  -0.0537 -0.0006 0.3996
v  -0.0956 -0.0006 0.3606
v  0.1185 0.2318 0.2094
v  0.1185 0.1825 0.4081
v  0.0991 0.3214 0.1686
v  0.0991 0.2845 0.0785
v  0.1378 0.1257 0.1877
v  0.1376 0.2845 0.0785
v  0.1378 0.1421 0.2501
v  0.0752 0.1423 0.2485
v  0.2495 0.1257 0.1877
v  0.2495 -0.1281 0.1877
v  0.1378 -0.1281 0.1877
v  0.0002 0.0689 0.0000
v  -0.0210 0.0655 0.0000
v  -0.0119 0.0670 0.1515
v  0.0752 0.1104 0.2485
v  0.0740 0.1082 0.3597
v  0.0752 0.1133 0.2560
v  0.0605 0.1212 0.2556
v  0.0583 0.1163 0.3672
v  0.0760 0.0746 0.1593
v  0.0605 0.0800 0.1515
v  -0.0710 0.0856 0.1973
v  -0.0473 0.1076 0.2429
v  -0.0119 0.1212 0.2556
v  -0.0119 0.0800 0.1515
v  0.0689 0.0002 0.1551
v  0.0689 0.0002 0.0000
v  0.0677 0.0077 0.1551
v  0.0214 0.0655 0.0000
v  0.0002 0.0689 0.1515
v  0.0214 0.0655 0.1515
v  0.0655 0.0214 0.1540
v  0.0655 0.0214 0.0000
v  -0.0165 0.0663 0.1551
v  -0.0136 0.0240 0.1551
v  -0.0710 0.0330 0.1980
v  0.0752 -0.1033 0.2485
v  0.0760 -0.0675 0.1593
v  0.0605 0.0312 0.1515
v  -0.0473 0.0423 0.2429
v  -0.0119 0.0438 0.2556
v  -0.0554 0.0406 0.0000
v  -0.0651 0.0214 0.1551
v  -0.0554 0.0406 0.1551
v  -0.0667 0.2325 0.2022
v  -0.1189 0.2328 0.2495
v  -0.0667 0.1832 0.4009
v  -0.0473 0.1429 0.2429
v  -0.0995 0.1432 0.2710
v  -0.0995 0.0956 0.2710
v  -0.0791 -0.1060 0.3983
v  -0.0537 -0.1078 0.3996
v  -0.1294 -0.1060 0.4432
v  -0.0949 -0.0966 0.3627
v  -0.1565 -0.0966 0.3613
v  -0.0995 -0.0951 0.3569
v  -0.1155 -0.0785 0.2909
v  -0.1711 -0.0903 0.3620
v  -0.1294 -0.0512 0.4432
v  -0.1503 -0.0554 0.4249
v  -0.1141 -0.0456 0.4588
v  -0.1500 -0.0446 0.4263
v  -0.1503 -0.0975 0.4249
v  0.0023 -0.0022 0.4625
v  -0.0995 -0.1434 0.2710
v  -0.0667 -0.2333 0.1957
v  0.0558 0.1826 0.4065
v  -0.0479 0.1148 0.4053
v  0.0991 0.2531 0.4036
v  0.0752 0.1119 0.4111
v  0.1378 0.1118 0.4127
v  0.2070 0.0254 0.6789
v  0.2495 0.0512 0.6755
v  0.1922 0.0347 0.6801
v  -0.0234 0.1163 0.3858
v  0.0482 0.1163 0.3872
v  0.1700 0.0565 0.7168
v  0.1922 0.0347 1.4181
v  -0.0473 0.0460 0.2618
v  -0.0473 0.1136 0.3999
v  -0.0473 0.0000 0.3999
v  -0.0473 0.1142 0.2618
v  0.2495 0.1421 0.2501
v  0.1936 0.0839 0.7295
v  0.1185 0.0839 0.7295
v  0.1435 0.0347 0.6801
v  0.1280 0.0589 0.7168
v  0.1378 0.0512 0.6755
v  0.0371 0.1163 0.4091
v  0.0456 0.1121 0.4097
v  0.0704 0.1075 0.3799
v  0.0583 0.0599 0.3672
v  0.0424 0.1075 0.4353
v  0.1376 0.2531 0.4036
v  0.0991 0.1167 0.7834
v  0.1376 0.1167 0.7834
v  0.1478 0.0784 0.7536
v  0.1126 0.0831 0.7536
v  0.1478 0.0784 1.3797
v  0.1240 0.0619 1.4691
v  0.2070 0.0254 1.3946
v  0.1435 -0.0371 0.6801
v  0.1378 -0.0535 0.6755
v  0.1280 -0.0613 0.7168
v  0.1435 -0.0012 0.6801
v  0.2070 -0.0277 0.6789
v  0.2495 -0.0535 0.6755
v  0.1922 -0.0371 0.6801
v  0.1700 -0.0589 0.7168
v  0.1936 -0.0863 0.7295
v  0.1376 -0.1190 0.7834
v  0.0991 -0.1190 0.6822
v  0.1478 -0.0807 0.7536
v  0.1378 -0.1141 0.4127
v  0.1126 -0.0854 0.7536
v  0.2070 0.0077 1.3912
v  0.2070 -0.0277 1.3946
v  0.1126 -0.0854 1.3797
v  0.1922 -0.0012 1.4896
v  0.2070 -0.0012 1.4604
v  0.1565 0.0347 1.5600
v  0.1448 0.0168 1.1830
v  0.1448 -0.0012 1.1830
v  0.1460 -0.0012 1.6858
v  0.1126 0.0831 1.3797
v  0.1642 -0.0012 1.6876
v  0.1353 0.0408 1.5584
v  0.1478 -0.0807 1.3797
v  0.1353 -0.0431 1.5584
v  0.1573 -0.0371 1.5564
v  0.1922 -0.0371 1.4181
v  -0.0333 0.1135 0.4006
v  -0.0542 0.1148 0.3995
v  -0.0791 0.1130 0.3983
v  -0.0111 0.1163 0.3672
v  -0.0111 -0.1092 0.3672
v  0.0175 0.1163 0.4479
v  0.0752 -0.1062 0.2560
v  0.0419 0.0519 0.4363
v  0.0710 0.0519 0.3788
v  0.0175 0.0599 0.4479
v  0.0710 0.0116 0.3788
v  0.0419 0.0116 0.4363
v  0.0583 0.0035 0.3672
v  0.0611 0.0035 0.3659
v  -0.0537 0.0000 0.3996
v  -0.0956 0.1031 0.3606
v  -0.0956 0.0000 0.3606
v  -0.0473 0.0002 0.2429
v  -0.0473 -0.0006 0.3999
v  -0.0119 -0.1142 0.2556
v  -0.0002 0.1092 0.4624
v  0.0424 0.0687 0.4353
v  0.0704 0.0687 0.3799
v  -0.0002 0.0664 0.4624
v  0.0175 0.0035 0.4479
v  -0.0007 0.0528 0.4624
v  -0.0007 0.0104 0.4624
v  -0.1112 0.0516 0.4589
v  -0.1294 0.0583 0.4432
v  -0.1189 0.1835 0.3545
v  -0.1253 0.0828 0.2630
v  -0.0995 0.0976 0.2869
v  -0.1025 0.0965 0.2888
v  -0.0995 0.1128 0.3569
v  -0.0995 0.0512 0.2869
v  -0.0995 0.1022 0.3569
v  -0.1155 0.0856 0.2909
v  -0.1493 0.0856 0.2896
v  -0.1565 0.1037 0.3613
v  -0.0949 0.1037 0.3627
v  -0.1657 0.0837 0.3053
v  -0.1714 0.0980 0.3620
v  -0.1714 0.0584 0.3620
v  -0.1253 0.0447 0.2630
v  -0.0995 0.0002 0.2710
v  -0.0995 0.0001 0.3468
v  -0.0473 -0.0007 0.2429
v  -0.1025 0.0515 0.2888
v  -0.0995 0.0477 0.2710
v  -0.0977 0.0000 0.3530
v  -0.0995 -0.0007 0.2710
v  -0.0995 -0.0006 0.3468
v  -0.1437 0.0035 0.2898
v  -0.1493 0.0035 0.2896
v  -0.1493 0.0446 0.2896
v  -0.1657 0.0086 0.3052
v  -0.1657 0.0411 0.3052
v  -0.1657 0.0512 0.3053
v  -0.1656 -0.0017 0.3058
v  -0.0977 -0.0006 0.3530
v  -0.1714 0.0086 0.3620
v  -0.1565 0.0035 0.3613
v  -0.1714 0.0483 0.3620
v  -0.1565 0.0536 0.3613
v  -0.1713 -0.0017 0.3620
v  -0.1500 -0.0017 0.4263
v  -0.1294 0.1130 0.4432
v  -0.1117 0.1068 0.4589
v  -0.1499 0.1054 0.4268
v  -0.1117 0.0652 0.4589
v  -0.1499 0.0520 0.4269
v  -0.1499 0.0621 0.4268
v  -0.1141 -0.0022 0.4588
v  -0.1294 0.0035 0.4432
v  -0.1112 0.0104 0.4589
v  -0.1499 0.0086 0.4269
v  0.1378 -0.1445 0.2501
v  0.1376 -0.2869 0.0785
v  0.0991 -0.2869 0.0785
v  0.0558 -0.0402 0.1515
v  0.0558 -0.0402 0.0000
v  0.0605 -0.0309 0.1515
v  0.0002 -0.0685 0.1515
v  -0.0119 -0.0666 0.1515
v  0.0002 -0.0685 0.0000
v  0.0214 -0.0651 0.0000
v  0.0214 -0.0651 0.1515
v  -0.0210 -0.0651 0.1551
v  -0.0210 -0.0651 0.0000
v  0.0677 -0.0073 0.1551
v  0.0655 -0.0210 0.1540
v  -0.0119 -0.0730 0.1515
v  0.0605 -0.0730 0.1515
v  0.0605 -0.1142 0.2556
v  0.0655 -0.0210 0.0000
v  -0.0473 -0.1082 0.3999
v  -0.0119 -0.0666 0.1551
v  0.0752 -0.1443 0.2485
v  -0.0473 -0.1437 0.2429
v  0.1376 -0.3237 0.1686
v  0.2495 -0.1445 0.2501
v  0.0558 0.0406 0.0000
v  0.0558 0.0406 0.1515
v  0.0406 0.0558 0.0000
v  0.0406 0.0558 0.1515
v  -0.1189 -0.2330 0.2461
v  -0.0402 0.0558 0.1551
v  -0.0402 0.0558 0.0000
v  -0.0685 0.0002 0.1551
v  -0.0651 0.0214 0.0000
v  -0.0685 0.0002 0.0000
v  -0.0651 -0.0210 0.0000
v  -0.0651 -0.0210 0.1551
v  0.0406 -0.0554 0.0000
v  0.0406 -0.0554 0.1515
v  0.0752 -0.1139 0.4111
v  -0.0554 -0.0402 0.1551
v  -0.0554 -0.0402 0.0000
v  -0.0402 -0.0554 0.0000
v  -0.0402 -0.0554 0.1551
v  0.1376 0.3214 0.1686
v  0.0717 -0.0035 0.3774
v  0.0722 -0.0592 0.3763
v  0.0717 -0.0457 0.3774
v  0.0722 -0.1029 0.3763
v  0.0583 -0.1092 0.3672
v  0.0740 -0.1012 0.3597
v  -0.0473 -0.1134 0.4055
v  -0.0333 -0.1092 0.4006
v  -0.0473 -0.1087 0.4055
v  0.0006 -0.0700 0.1515
v  0.0220 -0.0670 0.1515
v  0.0000 0.0000 0.0000
# 295 vertices

vn 0.4217 0.6789 0.6010
vn 0.4641 -0.5367 0.7046
vn 0.0005 0.9498 0.3128
vn 0.5369 0.0000 0.8437
vn 0.3193 0.9338 0.1614
vn 0.3532 -0.9184 0.1785
vn -0.0310 -0.9487 0.3147
vn 0.4238 -0.6617 0.6185
vn 0.5480 0.0000 0.8365
vn -0.9529 0.2928 -0.0794
vn -0.3626 -0.8825 0.2995
vn -0.7322 0.0000 -0.6811
vn -0.3367 0.9379 0.0837
vn -0.3385 0.9372 0.0840
vn -0.3559 -0.9221 -0.1520
vn -0.3555 -0.9222 -0.1521
vn -0.5616 -0.0185 0.8272
vn -0.6813 0.0000 0.7320
vn -0.9698 -0.2365 -0.0587
vn -0.9811 -0.1790 0.0733
vn -0.9790 -0.1925 0.0675
vn 0.0000 -0.5666 -0.8240
vn -0.9807 -0.1892 0.0498
vn 0.0224 -0.4094 -0.9121
vn 0.0000 0.0000 -1.0000
vn -0.1570 0.9876 0.0000
vn 0.0257 0.0000 -0.9997
vn 0.4731 0.8796 0.0486
vn 0.4548 0.8279 -0.3282
vn 0.4739 0.8793 0.0485
vn 0.4562 0.8274 -0.3276
vn 0.4549 0.8279 -0.3281
vn -0.2385 0.9171 -0.3193
vn 0.0000 0.9298 -0.3681
vn -0.1942 0.9121 -0.3611
vn 0.9876 0.1570 0.0000
vn 0.1570 0.9876 0.0000
vn -0.1571 0.9876 -0.0000
vn 0.4498 0.0000 -0.8931
vn -0.1565 0.9877 -0.0000
vn -0.6023 -0.0415 -0.7972
vn -0.6188 0.0000 -0.7856
vn 1.0000 0.0000 0.0092
vn 0.8915 0.4531 0.0000
vn 0.4499 0.0000 -0.8931
vn 0.4500 -0.0000 -0.8930
vn -0.0017 -0.9791 0.2035
vn -0.0268 -0.9806 0.1941
vn -0.8915 0.4531 -0.0000
vn -0.6128 -0.0117 -0.7901
vn -0.6186 -0.0001 -0.7857
vn 0.2188 0.9471 0.2350
vn 0.0340 -0.4072 -0.9127
vn -0.4743 0.0000 -0.8804
vn -0.3457 0.9026 -0.2565
vn -0.0669 -0.9949 -0.0750
vn 0.0058 -0.9695 -0.2450
vn -0.6812 0.0000 0.7321
vn 0.0058 -0.9693 -0.2458
vn 0.0058 -0.9694 -0.2453
vn 0.0088 -0.9698 -0.2437
vn -0.3966 -0.8798 -0.2619
vn 0.0061 -0.9662 -0.2576
vn -0.3960 -0.8801 -0.2621
vn -0.9949 0.0000 -0.1009
vn -0.6565 0.3445 0.6711
vn -0.6594 -0.2101 0.7218
vn -0.9494 0.0000 0.3141
vn -0.3308 0.9296 0.1625
vn -0.3296 0.9300 0.1625
vn -0.0319 0.0000 0.9995
vn -0.3485 -0.9353 0.0620
vn -0.3499 -0.9347 0.0622
vn -0.0317 0.0000 0.9995
vn 0.0007 0.9493 0.3143
vn -0.0218 -0.9333 0.3586
vn -0.0218 -0.9336 0.3577
vn -0.0310 -0.9487 0.3145
vn -0.0784 -0.9931 -0.0878
vn -0.3967 -0.9175 0.0264
vn -0.3973 -0.9173 0.0265
vn -0.7042 0.0000 0.7100
vn -0.6936 -0.2664 0.6692
vn -0.9542 0.2821 -0.0997
vn -0.1804 -0.9493 0.2574
vn -0.0038 0.9706 0.2408
vn -0.0063 0.9707 0.2400
vn -0.0455 0.0519 0.9976
vn -0.9601 -0.2685 -0.0780
vn -0.0255 0.0573 0.9980
vn 0.0799 0.0000 0.9968
vn 0.0037 -0.9830 -0.1835
vn 0.7008 0.7134 0.0000
vn 1.0000 0.0000 0.0000
vn -0.2386 0.9172 -0.3192
vn 0.6120 0.7734 0.1653
vn -0.9409 -0.2391 -0.2399
vn -0.9273 -0.3557 -0.1168
vn 0.3307 -0.6147 0.7161
vn -0.0456 0.0519 0.9976
vn 0.2640 -0.7509 0.6053
vn -0.0454 0.0518 0.9976
vn 0.7215 0.0000 -0.6924
vn 0.4205 0.8820 0.2128
vn 0.4209 0.8818 0.2129
vn 0.4215 0.8815 0.2129
vn 0.4215 0.8815 0.2130
vn -0.0000 0.9411 0.3381
vn 0.4556 -0.4685 0.7569
vn 0.4145 -0.6501 0.6368
vn -0.0845 -0.6260 0.7752
vn -0.0000 -0.6644 0.7474
vn -0.8441 -0.5362 -0.0025
vn -0.9341 -0.0634 -0.3514
vn -0.9458 -0.2747 -0.1733
vn -0.9299 -0.3460 -0.1243
vn 0.5338 0.8456 0.0000
vn -0.9199 0.3624 -0.1499
vn -0.6254 0.0000 0.7803
vn 0.0799 -0.0000 0.9968
vn 0.4138 0.6505 0.6369
vn 0.2522 0.6889 0.6796
vn -0.7124 -0.6472 0.2715
vn -0.8603 0.4977 -0.1104
vn 0.6593 -0.7076 0.2542
vn 0.7379 0.2817 0.6133
vn 0.3303 0.6151 0.7159
vn -0.8600 0.4972 -0.1146
vn -0.9419 0.3098 -0.1299
vn -0.9421 0.3092 -0.1298
vn -0.8733 -0.3558 0.3328
vn -0.0845 0.6260 0.7752
vn -0.8782 0.4748 -0.0572
vn -0.3788 -0.8710 0.3129
vn -0.8418 0.5398 0.0001
vn 0.6623 0.6694 0.3365
vn 0.7627 0.5996 0.2422
vn 0.8725 0.4366 0.2195
vn -1.0000 0.0000 0.0025
vn -0.8810 -0.4731 -0.0000
vn 0.1337 0.9910 0.0000
vn 0.1306 0.9683 0.2130
vn 0.1763 0.9586 0.2234
vn 0.6202 0.7688 0.1560
vn 0.8076 0.5786 0.1142
vn -0.9633 -0.2682 -0.0072
vn -0.8447 -0.5352 -0.0043
vn -0.8763 -0.4818 -0.0028
vn 0.2474 0.9365 0.2487
vn -0.0313 0.9486 0.3149
vn 0.2547 0.9478 0.1921
vn 0.1337 -0.9910 0.0000
vn -0.8725 0.4886 -0.0048
vn -1.0000 0.0000 -0.0094
vn -0.9705 0.2411 0.0024
vn 0.2767 -0.9195 0.2792
vn 0.2746 -0.9429 0.1885
vn -0.8424 0.5388 -0.0000
vn 0.6200 -0.7689 0.1563
vn 0.5338 -0.8456 0.0000
vn 0.5929 -0.7468 0.3012
vn 0.7014 -0.7128 0.0000
vn 0.7002 -0.7140 0.0001
vn 0.7008 -0.7134 0.0000
vn 0.7871 -0.5512 0.2768
vn 0.9538 -0.2685 0.1348
vn 0.6589 -0.7336 0.1661
vn 0.0038 -0.9830 -0.1834
vn -0.6711 -0.1368 0.7286
vn -0.0747 0.9940 0.0804
vn -0.8323 0.0000 -0.5543
vn -0.0171 0.9998 -0.0086
vn 0.0000 1.0000 -0.0000
vn -0.0000 0.9990 0.0443
vn 0.1731 0.0000 0.9849
vn 0.9999 0.0000 0.0117
vn 0.3906 0.8991 0.1977
vn 0.3916 0.8986 0.1979
vn 0.3922 -0.8982 0.1985
vn 0.6731 0.0000 -0.7395
vn 0.4327 0.0000 0.9015
vn 0.0006 -1.0000 -0.0007
vn 0.0007 -1.0000 -0.0007
vn 0.0506 0.0000 -0.9987
vn 0.0501 0.0000 -0.9987
vn -1.0000 0.0000 0.0074
vn -0.8324 -0.0000 -0.5542
vn 0.6593 0.7076 0.2542
vn 0.7987 0.5791 0.1635
vn -0.9597 -0.2687 -0.0824
vn -0.9616 -0.2674 -0.0616
vn -0.9250 -0.3633 -0.1114
vn -1.0000 0.0000 -0.0000
vn 0.5174 0.3281 0.7903
vn 0.4213 0.8815 0.2129
vn 0.4213 -0.8816 0.2129
vn 0.4205 -0.8820 0.2128
vn 0.8923 0.0000 0.4515
vn 0.5187 -0.3406 0.7842
vn -0.0263 -0.9639 0.2650
vn 0.1301 -0.9642 0.2310
vn 0.4633 0.5442 0.6995
vn 0.8922 0.0000 0.4516
vn 0.3516 0.9191 0.1777
vn 0.3931 -0.8978 0.1987
vn 0.4945 0.3556 0.7931
vn 0.4953 -0.3593 0.7910
vn 0.5375 0.0000 0.8432
vn -0.0232 0.9102 0.4136
vn -0.0231 0.9098 0.4145
vn 0.5227 0.0000 0.8525
vn -0.3491 0.8482 0.3983
vn -0.0055 0.9706 0.2408
vn -0.6402 -0.3073 -0.7041
vn -0.4259 -0.4488 -0.7856
vn -0.4116 0.9041 -0.1147
vn -0.4115 0.9041 -0.1149
vn -0.6590 -0.1349 0.7400
vn -0.6855 -0.0033 0.7281
vn -0.6731 -0.1599 0.7221
vn -0.9701 -0.2289 -0.0809
vn -0.9558 -0.2660 -0.1249
vn 0.0088 0.9699 -0.2432
vn 0.0058 0.9695 -0.2448
vn 0.0058 0.9695 -0.2449
vn 0.0058 0.9695 -0.2450
vn -0.3544 0.8976 -0.2623
vn -0.3566 0.8969 -0.2617
vn -0.9949 0.0000 -0.1007
vn -0.7682 -0.0097 -0.6402
vn -0.7712 0.0000 -0.6366
vn -0.0007 -1.0000 -0.0013
vn 0.0007 1.0000 -0.0007
vn -0.7496 0.0000 0.6619
vn -0.0012 -1.0000 -0.0016
vn -0.0007 1.0000 -0.0014
vn 0.0479 -0.9753 0.2157
vn 0.0309 -0.9727 0.2300
vn 0.0053 -0.9798 0.1999
vn 0.5331 0.0000 0.8460
vn 0.0360 0.0000 -0.9994
vn -0.6904 0.0000 -0.7234
vn -0.6922 0.0000 -0.7217
vn -0.7045 0.0000 -0.7097
vn -0.6813 0.0001 0.7320
vn -0.0011 1.0000 -0.0015
vn 0.0006 1.0000 -0.0007
vn 0.9615 0.0000 -0.2749
vn 0.9702 0.0238 -0.2413
vn 0.9613 0.0000 -0.2755
vn 0.9614 0.0000 -0.2753
vn 0.9137 0.0000 -0.4064
vn -0.9949 0.0000 -0.1005
vn -0.3244 -0.9454 -0.0327
vn -0.3242 -0.9454 -0.0328
vn -0.3410 0.9278 -0.1513
vn -0.3425 0.9273 -0.1510
vn -0.3021 -0.9491 0.0891
vn -0.3005 -0.9496 0.0889
vn -0.3348 0.9417 -0.0339
vn -0.9949 0.0000 -0.1008
vn -0.3353 0.9415 -0.0338
vn -0.9493 0.0000 0.3143
vn -0.0214 0.9995 -0.0240
vn 0.0027 0.9934 -0.1147
vn -0.1635 0.9694 -0.1830
vn -0.0331 0.9142 0.4039
vn -0.0331 0.9140 0.4044
vn -0.3559 0.9344 0.0108
vn -0.3555 0.9346 0.0108
vn -0.6430 0.0000 0.7659
vn -0.6421 0.0918 0.7611
vn -0.0028 -0.9146 0.4044
vn -0.6348 0.0759 0.7690
vn -0.6329 -0.1172 0.7653
vn -0.6517 0.2287 0.7232
vn -0.0113 0.9340 0.3570
vn -0.0113 0.9340 0.3572
vn -0.0132 -0.9100 0.4144
vn -0.0132 -0.9102 0.4139
vn -0.6714 0.0000 0.7411
vn -0.3163 -0.9429 0.1047
vn -0.3167 -0.9427 0.1047
vn -0.9494 0.0000 0.3140
vn -0.6370 0.0000 0.7708
vn -0.3356 0.9403 0.0570
vn -0.3353 0.9404 0.0570
vn -0.6326 -0.0822 0.7701
vn -0.2948 -0.9434 0.1519
vn -0.2970 -0.9427 0.1520
vn -0.3267 0.9389 0.1082
vn -0.9813 0.1862 0.0489
vn 0.0000 0.5666 -0.8240
vn 0.8915 -0.4530 0.0000
vn -0.1571 -0.9876 -0.0000
vn 0.1570 -0.9876 0.0000
vn -0.1568 -0.9876 -0.0000
vn 0.9876 -0.1570 -0.0000
vn -0.1570 -0.9876 0.0000
vn 0.4562 -0.8274 -0.3276
vn -0.0000 0.0000 1.0000
vn 0.8915 -0.4531 0.0000
vn 0.9876 -0.1570 0.0000
vn 0.4500 0.0000 -0.8930
vn 0.4498 -0.0000 -0.8931
vn 0.0000 -0.9298 -0.3681
vn -0.9996 -0.0185 0.0203
vn 0.4564 -0.8273 -0.3275
vn -0.9799 0.1800 0.0860
vn -0.9813 0.1863 0.0495
vn 0.0429 0.4582 -0.8878
vn 0.0240 0.4617 -0.8867
vn 0.0364 0.4662 -0.8839
vn -0.0141 -0.9651 0.2616
vn -0.9634 0.2538 -0.0861
vn 0.8004 -0.5756 0.1673
vn 0.8693 -0.4575 -0.1872
vn 0.1429 -0.8931 -0.4266
vn 0.0000 -0.9255 -0.3787
vn -0.0931 -0.9561 0.2778
vn 0.8510 -0.5080 -0.1333
vn 0.8915 0.4530 0.0000
vn 0.7071 0.7071 0.0000
vn 0.4531 0.8915 0.0000
vn -0.9622 0.2424 -0.1243
vn -0.4531 0.8915 -0.0000
vn 0.3992 -0.8158 0.4186
vn -0.7071 0.7071 -0.0000
vn -0.9876 0.1570 -0.0000
vn -0.9876 -0.1570 -0.0000
vn -0.4465 0.3280 -0.8325
vn -0.6124 0.4678 -0.6373
vn 0.4531 -0.8915 0.0000
vn 0.7071 -0.7071 0.0000
vn 0.7825 -0.6089 0.1301
vn -0.0257 0.0000 0.9997
vn -0.8915 -0.4531 -0.0000
vn -0.7071 -0.7071 -0.0000
vn -0.0249 -0.3609 0.9323
vn -0.4531 -0.8915 -0.0000
vn 0.0000 0.9254 -0.3790
vn -0.0000 0.9603 0.2790
vn 0.8597 0.4727 -0.1936
vn 0.8663 0.4830 -0.1271
vn 0.8004 0.5756 0.1673
vn 0.0396 -0.4162 -0.9084
vn 0.3187 0.9340 0.1612
vn 0.6048 0.0000 -0.7963
vn 0.3506 0.9195 0.1775
vn 0.3523 -0.9188 0.1783
vn 0.0505 0.0000 -0.9987
vn -0.0000 -0.9990 0.0443
vn 0.4748 -0.8788 0.0483
vn 0.0131 0.9829 -0.1835
vn -0.0445 -0.3560 0.9334
vn -0.0377 -0.3676 0.9292
vn 0.0000 -1.0000 -0.0000
vn 0.3193 -0.9338 0.1614
vn 0.3187 -0.9340 0.1612
vn 0.5454 0.0000 -0.8382
vn 0.4739 -0.8793 0.0485
vn -0.6781 -0.1014 0.7279
vn -0.0229 -0.9994 0.0247
vn -0.6813 -0.0002 0.7320
vn -0.0670 -0.9949 -0.0750
vn -0.0670 -0.9949 -0.0749
vn -0.0673 -0.9949 -0.0757
vn -0.8324 0.0000 -0.5542
vn -0.0000 -0.0000 -1.0000
vn 0.0000 -0.0000 -1.0000
vn 0.9876 0.1570 -0.0000
vn -0.3615 0.8949 -0.2615
vn 0.7008 0.7134 -0.0000
vn -0.6855 -0.0032 0.7281
vn 0.0496 -0.9763 0.2108
vn -0.4035 0.9149 0.0076
vn 0.4327 -0.0000 0.9015
vn 0.0360 -0.0000 -0.9994
vn 0.9700 -0.0258 -0.2418
vn -0.0000 0.0000 -1.0000
# 380 vertex normals

vt 0.3631 0.3944 0.0000
vt 0.3670 0.4085 0.0000
vt 0.3640 0.4166 0.0000
vt 0.3307 0.4757 0.0000
vt 0.3264 0.4902 0.0000
vt 0.3271 0.4663 0.0000
vt 0.4940 0.6200 0.0000
vt 0.4197 0.6224 0.0000
vt 0.4116 0.6134 0.0000
vt 0.3004 0.4902 0.0000
vt 0.3975 0.6078 0.0000
vt 0.3865 0.5637 0.0000
vt 0.3176 0.3455 0.0000
vt 0.3172 0.3297 0.0000
vt 0.3539 0.3715 0.0000
vt 0.2851 0.9449 0.0000
vt 0.2875 0.8707 0.0000
vt 0.2941 0.9530 0.0000
vt 0.2997 0.9672 0.0000
vt 0.3355 0.4166 0.0000
vt 0.3430 0.0831 0.0000
vt 0.3562 0.1779 0.0000
vt 0.3127 0.1951 0.0000
vt 0.4473 0.0903 0.0000
vt 0.6000 0.0666 0.0000
vt 0.5713 0.0903 0.0000
vt 0.6621 0.6605 0.0000
vt 0.6721 0.6812 0.0000
vt 0.6621 0.6799 0.0000
vt 0.6360 0.4493 0.0000
vt 0.6694 0.4548 0.0000
vt 0.6355 0.4583 0.0000
vt 0.6801 0.4449 0.0000
vt 0.0093 0.3099 0.0000
vt 0.0101 0.3445 0.0000
vt 0.0010 0.3437 0.0000
vt 0.0206 0.3015 0.0000
vt 0.3452 0.5733 0.0000
vt 0.3408 0.5291 0.0000
vt 0.3625 0.5312 0.0000
vt 0.3464 0.5839 0.0000
vt 0.3641 0.6449 0.0000
vt 0.3402 0.6424 0.0000
vt 0.0562 0.0870 0.0000
vt 0.0866 0.2094 0.0000
vt 0.0010 0.0619 0.0000
vt 0.0237 0.0065 0.0000
vt 0.1215 0.0737 0.0000
vt 0.9896 0.8117 0.0000
vt 0.9659 0.8117 0.0000
vt 0.9658 0.7140 0.0000
vt 0.1114 0.1121 0.0000
vt 0.4165 0.3256 0.0000
vt 0.3899 0.3807 0.0000
vt 0.3780 0.3255 0.0000
vt 0.8970 0.7140 0.0000
vt 0.8970 0.5577 0.0000
vt 0.9658 0.5577 0.0000
vt 0.7728 0.8286 0.0000
vt 0.7597 0.8286 0.0000
vt 0.7653 0.7353 0.0000
vt 0.4165 0.3060 0.0000
vt 0.8314 0.8609 0.0000
vt 0.8329 0.7971 0.0000
vt 0.8419 0.7972 0.0000
vt 0.8331 0.7925 0.0000
vt 0.8409 0.8659 0.0000
vt 0.8345 0.7376 0.0000
vt 0.8442 0.7331 0.0000
vt 0.9242 0.7641 0.0000
vt 0.9086 0.7916 0.0000
vt 0.8865 0.7987 0.0000
vt 0.8888 0.7346 0.0000
vt 0.5827 0.4192 0.0000
vt 0.4872 0.4192 0.0000
vt 0.5827 0.4146 0.0000
vt 0.7859 0.8286 0.0000
vt 0.7728 0.7353 0.0000
vt 0.7859 0.7353 0.0000
vt 0.5820 0.4062 0.0000
vt 0.4872 0.4062 0.0000
vt 0.5665 0.6087 0.0000
vt 0.5730 0.5759 0.0000
vt 0.5678 0.6171 0.0000
vt 0.7625 0.7331 0.0000
vt 0.5178 0.6071 0.0000
vt 0.4824 0.6016 0.0000
vt 0.5160 0.5811 0.0000
vt 0.5188 0.5806 0.0000
vt 0.5188 0.5726 0.0000
vt 0.7334 0.8043 0.0000
vt 0.6784 0.6948 0.0000
vt 0.7334 0.7169 0.0000
vt 0.5805 0.4001 0.0000
vt 0.5634 0.5726 0.0000
vt 0.5634 0.6026 0.0000
vt 0.5641 0.2753 0.0000
vt 0.5200 0.2744 0.0000
vt 0.5697 0.2446 0.0000
vt 0.5573 0.2250 0.0000
vt 0.5637 0.4599 0.0000
vt 0.5755 0.5554 0.0000
vt 0.5637 0.5554 0.0000
vt 0.4824 0.5692 0.0000
vt 0.5746 0.8680 0.0000
vt 0.6049 0.8369 0.0000
vt 0.6969 0.8722 0.0000
vt 0.4920 0.3260 0.0000
vt 0.5039 0.3812 0.0000
vt 0.4920 0.3043 0.0000
vt 0.5241 0.3262 0.0000
vt 0.9401 0.8101 0.0000
vt 0.3247 0.8935 0.0000
vt 0.3239 0.9092 0.0000
vt 0.2970 0.8626 0.0000
vt 0.3466 0.8838 0.0000
vt 0.3475 0.8458 0.0000
vt 0.3479 0.8834 0.0000
vt 0.3441 0.5843 0.0000
vt 0.3501 0.8810 0.0000
vt 0.3908 0.8711 0.0000
vt 0.3916 0.8503 0.0000
vt 0.3808 0.8403 0.0000
vt 0.3470 0.8369 0.0000
vt 0.8729 0.9644 0.0000
vt 0.9049 0.9830 0.0000
vt 0.8704 0.9879 0.0000
vt 0.3648 0.4909 0.0000
vt 0.3680 0.4990 0.0000
vt 0.3654 0.5119 0.0000
vt 0.3297 0.3852 0.0000
vt 0.3263 0.3946 0.0000
vt 0.3257 0.3725 0.0000
vt 0.8341 0.9625 0.0000
vt 0.8314 0.9883 0.0000
vt 0.5968 0.4455 0.0000
vt 0.5856 0.4326 0.0000
vt 0.3372 0.4909 0.0000
vt 0.0085 0.3847 0.0000
vt 0.0196 0.3968 0.0000
vt 0.2996 0.4663 0.0000
vt 0.5021 0.6105 0.0000
vt 0.3124 0.3176 0.0000
vt 0.3414 0.2520 0.0000
vt 0.3538 0.2468 0.0000
vt 0.3083 0.8497 0.0000
vt 0.3395 0.5119 0.0000
vt 0.3343 0.4990 0.0000
vt 0.2946 0.5492 0.0000
vt 0.7047 0.8745 0.0000
vt 0.7266 0.8423 0.0000
vt 0.8168 0.8745 0.0000
vt 0.6974 0.9863 0.0000
vt 0.5751 0.9820 0.0000
vt 0.6978 0.9477 0.0000
vt 0.8304 0.6807 0.0000
vt 0.7549 0.6810 0.0000
vt 0.7665 0.6389 0.0000
vt 0.0430 0.2066 0.0000
vt 0.8689 0.6806 0.0000
vt 0.8423 0.6372 0.0000
vt 0.8808 0.6371 0.0000
vt 0.4451 0.7941 0.0000
vt 0.4292 0.8203 0.0000
vt 0.4393 0.7850 0.0000
vt 0.5948 0.6681 0.0000
vt 0.6556 0.5836 0.0000
vt 0.6389 0.6690 0.0000
vt 0.0472 0.9266 0.0000
vt 0.0606 0.4947 0.0000
vt 0.0606 0.9492 0.0000
vt 0.5305 0.5449 0.0000
vt 0.4889 0.4599 0.0000
vt 0.5588 0.4599 0.0000
vt 0.9082 0.8033 0.0000
vt 0.8812 0.3589 0.0000
vt 0.5860 0.3230 0.0000
vt 0.6192 0.3029 0.0000
vt 0.6556 0.6837 0.0000
vt 0.1472 0.4073 0.0000
vt 0.1775 0.3769 0.0000
vt 0.1626 0.3995 0.0000
vt 0.1674 0.3741 0.0000
vt 0.4259 0.7713 0.0000
vt 0.4091 0.7858 0.0000
vt 0.8188 0.6398 0.0000
vt 0.8241 0.6372 0.0000
vt 0.5801 0.6768 0.0000
vt 0.5801 0.5801 0.0000
vt 0.6373 0.6828 0.0000
vt 0.6917 0.4271 0.0000
vt 0.6839 0.4564 0.0000
vt 0.6839 0.4217 0.0000
vt 0.8492 0.9081 0.0000
vt 0.8332 0.8734 0.0000
vt 0.8478 0.8923 0.0000
vt 0.8530 0.8921 0.0000
vt 0.8467 0.8784 0.0000
vt 0.2815 0.6774 0.0000
vt 0.2578 0.4435 0.0000
vt 0.2815 0.4435 0.0000
vt 0.3889 0.7514 0.0000
vt 0.4125 0.7576 0.0000
vt 0.4096 0.7359 0.0000
vt 0.0338 0.9039 0.0000
vt 0.0338 0.5184 0.0000
vt 0.3889 0.7276 0.0000
vt 0.1477 0.4221 0.0000
vt 0.1608 0.8627 0.0000
vt 0.1271 0.4405 0.0000
vt 0.0664 0.5092 0.0000
vt 0.2217 0.3769 0.0000
vt 0.2319 0.3741 0.0000
vt 0.2366 0.3995 0.0000
vt 0.1996 0.3769 0.0000
vt 0.4778 0.7941 0.0000
vt 0.4937 0.8203 0.0000
vt 0.4836 0.7850 0.0000
vt 0.4970 0.7713 0.0000
vt 0.5139 0.7858 0.0000
vt 0.2722 0.4405 0.0000
vt 0.2722 0.3782 0.0000
vt 0.5860 0.2182 0.0000
vt 0.7866 0.1141 0.0000
vt 0.6192 0.2384 0.0000
vt 0.1317 0.9039 0.0000
vt 0.1553 0.8856 0.0000
vt 0.1183 0.9266 0.0000
vt 0.5340 0.7514 0.0000
vt 0.2692 0.2122 0.0000
vt 0.2515 0.4221 0.0000
vt 0.0991 0.9499 0.0000
vt 0.0773 0.5113 0.0000
vt 0.0991 0.5092 0.0000
vt 0.5104 0.7576 0.0000
vt 0.5134 0.7359 0.0000
vt 0.8339 0.0666 0.0000
vt 0.5528 0.1981 0.0000
vt 0.2515 0.8076 0.0000
vt 0.0828 0.4507 0.0000
vt 0.0828 0.4687 0.0000
vt 0.0606 0.4074 0.0000
vt 0.1886 0.6865 0.0000
vt 0.1996 0.6865 0.0000
vt 0.1996 0.9961 0.0000
vt 0.1477 0.8076 0.0000
vt 0.4107 0.0609 0.0000
vt 0.7963 0.0392 0.0000
vt 0.7963 0.0609 0.0000
vt 0.8513 0.0463 0.0000
vt 0.9073 0.0663 0.0000
vt 0.0828 0.3288 0.0000
vt 0.1738 0.9177 0.0000
vt 0.9063 0.0532 0.0000
vt 0.9859 0.0710 0.0000
vt 0.9848 0.0598 0.0000
vt 0.9695 0.0010 0.0000
vt 0.5840 0.0227 0.0000
vt 0.5840 0.0010 0.0000
vt 0.2254 0.9177 0.0000
vt 0.4752 0.0286 0.0000
vt 0.3955 0.0216 0.0000
vt 0.4739 0.0150 0.0000
vt 0.1049 0.4096 0.0000
vt 0.1317 0.5184 0.0000
vt 0.1049 0.4947 0.0000
vt 0.1049 0.9492 0.0000
vt 0.5887 0.6772 0.0000
vt 0.4452 0.7216 0.0000
vt 0.4031 0.7189 0.0000
vt 0.4452 0.7180 0.0000
vt 0.9055 0.8916 0.0000
vt 0.9095 0.8882 0.0000
vt 0.9248 0.8880 0.0000
vt 0.5491 0.9733 0.0000
vt 0.5491 0.8345 0.0000
vt 0.5605 0.9733 0.0000
vt 0.8643 0.9164 0.0000
vt 0.8836 0.8674 0.0000
vt 0.8908 0.8791 0.0000
vt 0.5768 0.2354 0.0000
vt 0.5309 0.2960 0.0000
vt 0.5743 0.3178 0.0000
vt 0.5323 0.3178 0.0000
vt 0.5364 0.8160 0.0000
vt 0.6003 0.6839 0.0000
vt 0.6003 0.8191 0.0000
vt 0.6774 0.1425 0.0000
vt 0.6377 0.1430 0.0000
vt 0.6347 0.1329 0.0000
vt 0.6904 0.1321 0.0000
vt 0.8146 0.5091 0.0000
vt 0.8277 0.5466 0.0000
vt 0.8041 0.5098 0.0000
vt 0.7986 0.5934 0.0000
vt 0.8284 0.5856 0.0000
vt 0.8334 0.5934 0.0000
vt 0.6058 0.1128 0.0000
vt 0.6406 0.1145 0.0000
vt 0.6058 0.1145 0.0000
vt 0.5158 0.7180 0.0000
vt 0.4524 0.6940 0.0000
vt 0.5158 0.6940 0.0000
vt 0.5309 0.1321 0.0000
vt 0.6276 0.1321 0.0000
vt 0.6274 0.1360 0.0000
vt 0.6034 0.1618 0.0000
vt 0.8322 0.9298 0.0000
vt 0.9021 0.9384 0.0000
vt 0.8322 0.9384 0.0000
vt 0.9024 0.9423 0.0000
vt 0.9024 0.9384 0.0000
vt 0.4803 0.9287 0.0000
vt 0.4803 0.8314 0.0000
vt 0.5696 0.9716 0.0000
vt 0.7866 0.4272 0.0000
vt 0.5528 0.3432 0.0000
vt 0.1301 0.2122 0.0000
vt 0.2414 0.9990 0.0000
vt 0.2359 0.9837 0.0000
vt 0.2403 0.9728 0.0000
vt 0.1704 0.9625 0.0000
vt 0.1754 0.9461 0.0000
vt 0.1937 0.9987 0.0000
vt 0.1829 0.9987 0.0000
vt 0.7258 0.4509 0.0000
vt 0.6917 0.4509 0.0000
vt 0.2652 0.9990 0.0000
vt 0.2666 0.9728 0.0000
vt 0.2706 0.9837 0.0000
vt 0.3944 0.0328 0.0000
vt 0.2960 0.4757 0.0000
vt 0.7221 0.4954 0.0000
vt 0.7469 0.4599 0.0000
vt 0.7469 0.4954 0.0000
vt 0.5314 0.2390 0.0000
vt 0.5252 0.2535 0.0000
vt 0.4818 0.2641 0.0000
vt 0.8224 0.5623 0.0000
vt 0.6937 0.5389 0.0000
vt 0.6943 0.5651 0.0000
vt 0.6894 0.5501 0.0000
vt 0.7191 0.5651 0.0000
vt 0.7199 0.5389 0.0000
vt 0.7241 0.5501 0.0000
vt 0.0121 0.4107 0.0000
vt 0.0215 0.3998 0.0000
vt 0.0119 0.4788 0.0000
vt 0.0212 0.4904 0.0000
vt 0.6945 0.4708 0.0000
vt 0.6695 0.8391 0.0000
vt 0.3725 0.6256 0.0000
vt 0.3727 0.5965 0.0000
vt 0.4277 0.6389 0.0000
vt 0.5241 0.2969 0.0000
vt 0.9561 0.8057 0.0000
vt 0.9397 0.8199 0.0000
vt 0.9415 0.8211 0.0000
vt 0.4029 0.6903 0.0000
vt 0.4464 0.6918 0.0000
vt 0.4844 0.6487 0.0000
vt 0.4529 0.6918 0.0000
vt 0.4558 0.6487 0.0000
vt 0.9495 0.8226 0.0000
vt 0.9704 0.8226 0.0000
vt 0.9733 0.8668 0.0000
vt 0.9382 0.8629 0.0000
vt 0.9357 0.8651 0.0000
vt 0.9353 0.8664 0.0000
vt 0.9801 0.8326 0.0000
vt 0.9824 0.8676 0.0000
vt 0.5948 0.3695 0.0000
vt 0.5599 0.3851 0.0000
vt 0.5599 0.3607 0.0000
vt 0.4490 0.5943 0.0000
vt 0.4490 0.5708 0.0000
vt 0.5482 0.1642 0.0000
vt 0.5949 0.1642 0.0000
vt 0.1549 0.8972 0.0000
vt 0.1588 0.8970 0.0000
vt 0.1588 0.9937 0.0000
vt 0.8247 0.6948 0.0000
vt 0.8440 0.7107 0.0000
vt 0.8205 0.7107 0.0000
vt 0.8144 0.6948 0.0000
vt 0.8144 0.7241 0.0000
vt 0.7822 0.7208 0.0000
vt 0.5988 0.1632 0.0000
vt 0.2854 0.6366 0.0000
vt 0.1267 0.9763 0.0000
vt 0.1267 0.9297 0.0000
vt 0.6056 0.2507 0.0000
vt 0.6151 0.2644 0.0000
vt 0.6117 0.2430 0.0000
vt 0.6138 0.2432 0.0000
vt 0.5426 0.1758 0.0000
vt 0.5705 0.1777 0.0000
vt 0.5419 0.1777 0.0000
vt 0.6756 0.6307 0.0000
vt 0.6721 0.6559 0.0000
vt 0.6721 0.6307 0.0000
vt 0.6721 0.6054 0.0000
vt 0.6621 0.6275 0.0000
vt 0.6621 0.6075 0.0000
vt 0.6621 0.6013 0.0000
vt 0.6721 0.5801 0.0000
vt 0.6621 0.6339 0.0000
vt 0.6621 0.6537 0.0000
vt 0.3710 0.5793 0.0000
vt 0.1278 0.9258 0.0000
vt 0.1291 0.9212 0.0000
vt 0.6293 0.8184 0.0000
vt 0.6306 0.7546 0.0000
vt 0.6306 0.8181 0.0000
vt 0.6391 0.7547 0.0000
vt 0.6736 0.8074 0.0000
vt 0.6329 0.8176 0.0000
vt 0.6391 0.7543 0.0000
vt 0.6353 0.7546 0.0000
vt 0.6353 0.7543 0.0000
vt 0.6306 0.7543 0.0000
vt 0.6293 0.6951 0.0000
vt 0.6074 0.8242 0.0000
vt 0.6074 0.6894 0.0000
vt 0.7309 0.6314 0.0000
vt 0.7109 0.5965 0.0000
vt 0.7309 0.5965 0.0000
vt 0.0094 0.2112 0.0000
vt 0.0207 0.2031 0.0000
vt 0.0101 0.2462 0.0000
vt 0.0010 0.2453 0.0000
vt 0.7415 0.1053 0.0000
vt 0.7066 0.1088 0.0000
vt 0.7070 0.0997 0.0000
vt 0.7511 0.0952 0.0000
vt 0.0115 0.1626 0.0000
vt 0.0207 0.1634 0.0000
vt 0.0123 0.1975 0.0000
vt 0.0010 0.2056 0.0000
vt 0.6515 0.3925 0.0000
vt 0.6174 0.3869 0.0000
vt 0.6520 0.3834 0.0000
vt 0.6816 0.4251 0.0000
vt 0.6470 0.4053 0.0000
vt 0.6816 0.4053 0.0000
vt 0.6074 0.3970 0.0000
vt 0.6470 0.4295 0.0000
vt 0.6074 0.4053 0.0000
vt 0.9548 0.9167 0.0000
vt 0.9436 0.9259 0.0000
vt 0.8748 0.9257 0.0000
vt 0.9678 0.9070 0.0000
vt 0.2418 0.9041 0.0000
vt 0.2674 0.9041 0.0000
vt 0.2426 0.8806 0.0000
vt 0.2379 0.8932 0.0000
vt 0.0086 0.5855 0.0000
vt 0.0154 0.6651 0.0000
vt 0.0065 0.6542 0.0000
vt 0.0183 0.5746 0.0000
vt 0.7003 0.6815 0.0000
vt 0.7042 0.6714 0.0000
vt 0.7044 0.6911 0.0000
vt 0.2693 0.8806 0.0000
vt 0.2716 0.8932 0.0000
vt 0.2992 0.3725 0.0000
vt 0.2996 0.3946 0.0000
vt 0.2960 0.3852 0.0000
vt 0.5381 0.1579 0.0000
vt 0.5285 0.1485 0.0000
vt 0.5404 0.2296 0.0000
vt 0.0065 0.5777 0.0000
vt 0.0093 0.4872 0.0000
vt 0.0161 0.5665 0.0000
vt 0.0183 0.4984 0.0000
vt 0.0085 0.2868 0.0000
vt 0.0196 0.2985 0.0000
vt 0.7065 0.6314 0.0000
vt 0.7309 0.6714 0.0000
vt 0.7298 0.6911 0.0000
vt 0.5200 0.3828 0.0000
vt 0.5200 0.3561 0.0000
vt 0.6666 0.0956 0.0000
vt 0.6566 0.0829 0.0000
vt 0.7340 0.6815 0.0000
vt 0.0020 0.1103 0.0000
vt 0.0131 0.1220 0.0000
vt 0.6916 0.3965 0.0000
vt 0.7020 0.4092 0.0000
vt 0.2879 0.1121 0.0000
vt 0.2778 0.0737 0.0000
vt 0.9659 0.4599 0.0000
vt 0.9896 0.4599 0.0000
vt 0.5805 0.4441 0.0000
vt 0.4872 0.4441 0.0000
vt 0.5805 0.4384 0.0000
vt 0.6526 0.4731 0.0000
vt 0.6600 0.4731 0.0000
vt 0.6526 0.5663 0.0000
vt 0.6395 0.5663 0.0000
vt 0.6395 0.4731 0.0000
vt 0.6657 0.4708 0.0000
vt 0.6657 0.5663 0.0000
vt 0.5827 0.4239 0.0000
vt 0.5820 0.4323 0.0000
vt 0.5263 0.6640 0.0000
vt 0.5188 0.6668 0.0000
vt 0.5188 0.6629 0.0000
vt 0.4766 0.9795 0.0000
vt 0.4718 0.9891 0.0000
vt 0.4125 0.9795 0.0000
vt 0.4927 0.3834 0.0000
vt 0.5019 0.3834 0.0000
vt 0.4973 0.3842 0.0000
vt 0.4872 0.4323 0.0000
vt 0.5730 0.6634 0.0000
vt 0.5634 0.6668 0.0000
vt 0.5634 0.6409 0.0000
vt 0.5665 0.6348 0.0000
vt 0.5678 0.6264 0.0000
vt 0.3998 0.5621 0.0000
vt 0.4660 0.4654 0.0000
vt 0.4661 0.5621 0.0000
vt 0.4766 0.9349 0.0000
vt 0.4125 0.9349 0.0000
vt 0.4184 0.8607 0.0000
vt 0.4184 0.9165 0.0000
vt 0.4165 0.1492 0.0000
vt 0.4165 0.1744 0.0000
vt 0.3780 0.1491 0.0000
vt 0.4169 0.9886 0.0000
vt 0.4123 0.9886 0.0000
vt 0.3755 0.0065 0.0000
vt 0.3982 0.0540 0.0000
vt 0.4920 0.1495 0.0000
vt 0.5039 0.0943 0.0000
vt 0.3899 0.0939 0.0000
vt 0.7003 0.9885 0.0000
vt 0.8123 0.9885 0.0000
vt 0.9313 0.0720 0.0000
vt 0.8812 0.1824 0.0000
vt 0.9868 0.0947 0.0000
vt 0.4553 0.0666 0.0000
vt 0.3998 0.0903 0.0000
vt 0.3998 0.0666 0.0000
vt 0.9196 0.1925 0.0000
vt 0.4872 0.3944 0.0000
vt 0.5805 0.3944 0.0000
vt 0.7977 0.8286 0.0000
vt 0.8070 0.7353 0.0000
vt 0.8070 0.8286 0.0000
vt 0.7977 0.7353 0.0000
vt 0.2851 0.4927 0.0000
vt 0.7479 0.7331 0.0000
vt 0.7479 0.8286 0.0000
vt 0.7857 0.8423 0.0000
vt 0.7385 0.8286 0.0000
vt 0.5886 0.5554 0.0000
vt 0.5755 0.4599 0.0000
vt 0.5886 0.4599 0.0000
vt 0.5241 0.1497 0.0000
vt 0.4920 0.2376 0.0000
vt 0.6017 0.4599 0.0000
vt 0.6017 0.5554 0.0000
vt 0.5360 0.0945 0.0000
vt 0.6277 0.5663 0.0000
vt 0.6277 0.4731 0.0000
vt 0.6183 0.4731 0.0000
vt 0.8423 0.4981 0.0000
vt 0.8808 0.4980 0.0000
vt 0.6135 0.5554 0.0000
vt 0.6135 0.4599 0.0000
vt 0.6868 0.4708 0.0000
vt 0.6775 0.5663 0.0000
vt 0.6775 0.4708 0.0000
vt 0.8689 0.4545 0.0000
vt 0.2815 0.8221 0.0000
vt 0.2578 0.8776 0.0000
vt 0.2578 0.8221 0.0000
vt 0.9313 0.4693 0.0000
vt 0.9196 0.3488 0.0000
vt 0.9868 0.4465 0.0000
vt 0.7757 0.7208 0.0000
vt 0.7385 0.6948 0.0000
vt 0.7757 0.6948 0.0000
vt 0.3780 0.5693 0.0000
vt 0.0904 0.9898 0.0000
vt 0.0600 0.9981 0.0000
vt 0.0556 0.9898 0.0000
vt 0.4880 0.2723 0.0000
vt 0.4107 0.5692 0.0000
vt 0.4377 0.6077 0.0000
vt 0.4107 0.6077 0.0000
vt 0.3450 0.3768 0.0000
vt 0.9021 0.9423 0.0000
vt 0.8325 0.9580 0.0000
vt 0.8314 0.9426 0.0000
vt 0.3438 0.9781 0.0000
vt 0.3438 0.9354 0.0000
vt 0.3484 0.9878 0.0000
vt 0.3814 0.4589 0.0000
vt 0.4781 0.3834 0.0000
vt 0.4815 0.4589 0.0000
vt 0.7668 0.4984 0.0000
vt 0.7549 0.4549 0.0000
vt 0.3382 0.9867 0.0000
vt 0.7370 0.4217 0.0000
vt 0.7678 0.4303 0.0000
vt 0.7331 0.4303 0.0000
vt 0.2897 0.8043 0.0000
vt 0.2851 0.8221 0.0000
vt 0.2851 0.8025 0.0000
vt 0.3750 0.5762 0.0000
vt 0.3232 0.9217 0.0000
vt 0.3747 0.5791 0.0000
vt 0.3202 0.9131 0.0000
vt 0.3237 0.9131 0.0000
vt 0.5696 0.8345 0.0000
vt 0.5263 0.5794 0.0000
vt 0.5605 0.5969 0.0000
vt 0.5511 0.5875 0.0000
vt 0.0895 0.9526 0.0000
vt 0.1091 0.9690 0.0000
vt 0.0998 0.9784 0.0000
vt 0.0749 0.9865 0.0000
vt 0.0618 0.9844 0.0000
vt 0.4708 0.5566 0.0000
vt 0.4885 0.5449 0.0000
vt 0.4926 0.5566 0.0000
vt 0.5587 0.5566 0.0000
vt 0.5328 0.5566 0.0000
vt 0.0664 0.9499 0.0000
vt 0.5711 0.1145 0.0000
vt 0.5414 0.1048 0.0000
vt 0.6703 0.1048 0.0000
vt 0.6753 0.1145 0.0000
vt 0.9694 0.9298 0.0000
vt 0.9688 0.9384 0.0000
vt 0.4803 0.9764 0.0000
vt 0.4570 0.6389 0.0000
vt 0.5158 0.6389 0.0000
vt 0.5158 0.6856 0.0000
vt 0.6929 0.5801 0.0000
vt 0.6929 0.6812 0.0000
vt 0.6306 0.6955 0.0000
vt 0.6736 0.7063 0.0000
vt 0.5265 0.6650 0.0000
vt 0.5393 0.6620 0.0000
vt 0.5397 0.6631 0.0000
vt 0.5511 0.6560 0.0000
vt 0.5605 0.6466 0.0000
vt 0.3967 0.5655 0.0000
vt 0.3780 0.4654 0.0000
vt 0.4162 0.8568 0.0000
vt 0.7696 0.5511 0.0000
vt 0.7999 0.5216 0.0000
vt 0.8075 0.5324 0.0000
vt 0.7989 0.5814 0.0000
vt 0.7881 0.5890 0.0000
vt 0.7401 0.5205 0.0000
vt 0.7509 0.5129 0.0000
vt 0.7636 0.5091 0.0000
vt 0.7768 0.5093 0.0000
vt 0.7622 0.5926 0.0000
vt 0.7496 0.5883 0.0000
vt 0.7391 0.5804 0.0000
vt 0.7315 0.5695 0.0000
vt 0.8114 0.5451 0.0000
vt 0.8112 0.5583 0.0000
vt 0.7276 0.5569 0.0000
vt 0.7278 0.5436 0.0000
vt 0.9674 0.9580 0.0000
vt 0.2851 0.6457 0.0000
vt 0.2897 0.6691 0.0000
vt 0.2851 0.6709 0.0000
vt 0.3852 0.8034 0.0000
vt 0.3361 0.3944 0.0000
vt 0.6784 0.8264 0.0000
vt 0.7822 0.6948 0.0000
vt 0.9070 0.9637 0.0000
vt 0.2578 0.6774 0.0000
vt 0.4107 0.0392 0.0000
vt 0.9695 0.0227 0.0000
vt 0.5786 0.2960 0.0000
vt 0.5364 0.6870 0.0000
vt 0.8036 0.5856 0.0000
vt 0.7258 0.4271 0.0000
vt 0.7221 0.4599 0.0000
vt 0.7199 0.4708 0.0000
vt 0.5948 0.3895 0.0000
vt 0.8524 0.6948 0.0000
vt 0.3318 0.6415 0.0000
vt 0.5703 0.1758 0.0000
vt 0.6621 0.5813 0.0000
vt 0.6074 0.4317 0.0000
vt 0.6600 0.4708 0.0000
vt 0.7385 0.7331 0.0000
vt 0.5241 0.2376 0.0000
vt 0.6183 0.5663 0.0000
vt 0.6868 0.5663 0.0000
vt 0.2815 0.8776 0.0000
vt 0.7385 0.7208 0.0000
vt 0.0860 0.9981 0.0000
vt 0.4377 0.5692 0.0000
vt 0.3780 0.3834 0.0000
vt 0.7639 0.4217 0.0000
vt 0.5393 0.5815 0.0000
vt 0.0338 0.9516 0.0000
vt 0.0347 0.9572 0.0000
vt 0.1156 0.9544 0.0000
vt 0.0880 0.9844 0.0000
vt 0.0500 0.9784 0.0000
vt 0.0407 0.9690 0.0000
vt 0.5364 0.1145 0.0000
vt 0.4865 0.6389 0.0000
vt 0.6329 0.6960 0.0000
vt 0.3995 0.5655 0.0000
vt 0.4162 0.8607 0.0000
vt 0.7894 0.5136 0.0000
vt 0.8068 0.5708 0.0000
vt 0.7754 0.5929 0.0000
vt 0.7322 0.5311 0.0000
vt 0.9685 0.9423 0.0000
vt 0.3852 0.6644 0.0000
# 724 texture coords

o HojaIzquierda
g HojaIzquierda
s off
f 1/1/1 2/2/1 3/3/1 
f 2/4/2 4/5/2 5/6/2 
f 6/7/3 3/8/3 2/9/3 
f 7/10/4 5/6/4 4/5/4 
f 2/9/5 1/11/5 8/12/5 
f 4/13/6 2/14/6 8/15/6 
f 9/16/7 10/17/7 11/18/7 
f 12/19/8 9/16/8 11/18/8 
f 9/20/9 1/1/9 3/3/9 
f 13/21/10 14/22/10 15/23/10 
f 16/24/11 17/25/11 14/26/11 
f 18/27/12 19/28/12 20/29/12 
f 21/30/13 18/31/13 22/32/13 
f 23/33/14 18/31/14 21/30/14 
f 24/34/15 21/35/15 25/36/15 
f 24/34/16 23/37/16 21/35/16 
f 26/38/17 27/39/17 28/40/17 
f 29/41/18 30/42/18 31/43/18 
f 32/44/19 33/45/19 34/46/19 
f 32/44/20 34/46/20 35/47/20 
f 32/44/21 35/47/21 36/48/21 
f 35/49/22 37/50/22 36/51/22 
f 32/44/23 36/48/23 38/52/23 
f 39/53/24 32/54/24 38/55/24 
f 40/56/22 36/51/22 37/50/22 
f 36/51/25 41/57/25 42/58/25 
f 43/59/26 44/60/26 45/61/26 
f 38/55/27 46/62/27 39/53/27 
f 47/63/28 48/64/28 49/65/28 
f 48/64/29 46/66/29 49/65/29 
f 49/65/30 50/67/30 47/63/30 
f 51/68/31 52/69/31 49/65/31 
f 46/66/32 51/68/32 49/65/32 
f 53/70/33 54/71/33 55/72/33 
f 55/72/34 52/69/34 56/73/34 
f 56/73/35 53/70/35 55/72/35 
f 57/74/36 58/75/36 59/76/36 
f 60/77/37 61/78/37 62/79/37 
f 61/78/38 43/59/38 45/61/38 
f 63/80/36 58/75/36 64/81/36 
f 63/82/39 51/83/39 59/84/39 
f 45/61/40 44/60/40 65/85/40 
f 66/86/41 67/87/41 65/88/41 
f 45/89/42 65/88/42 56/90/42 
f 51/91/43 68/92/43 69/93/43 
f 70/94/44 63/80/44 64/81/44 
f 52/95/45 51/83/45 70/96/45 
f 63/82/46 70/96/46 51/83/46 
f 67/97/47 66/98/47 71/99/47 
f 72/100/48 71/99/48 66/98/48 
f 73/101/49 74/102/49 75/103/49 
f 67/87/50 53/104/50 56/90/50 
f 56/90/51 65/88/51 67/87/51 
f 76/105/52 77/106/52 78/107/52 
f 32/54/53 79/108/53 76/109/53 
f 79/108/54 54/110/54 80/111/54 
f 53/70/55 81/112/55 54/71/55 
f 82/113/56 83/114/56 84/115/56 
f 85/116/57 86/117/57 29/118/57 
f 87/119/58 26/38/58 29/41/58 
f 87/120/59 29/118/59 86/117/59 
f 88/121/60 87/120/60 86/117/60 
f 86/117/61 19/122/61 88/121/61 
f 86/117/62 20/123/62 19/122/62 
f 86/117/63 85/116/63 82/113/63 
f 20/123/64 86/117/64 89/124/64 
f 22/125/65 20/126/65 89/127/65 
f 6/128/66 90/129/66 91/130/66 
f 90/131/67 92/132/67 93/133/67 
f 91/134/68 89/127/68 94/135/68 
f 91/136/69 90/137/69 21/30/69 
f 21/30/70 22/32/70 91/136/70 
f 10/138/71 3/3/71 6/128/71 
f 93/139/72 21/35/72 90/140/72 
f 93/139/73 25/36/73 21/35/73 
f 95/141/74 92/132/74 5/6/74 
f 90/142/75 6/7/75 2/9/75 
f 2/14/76 5/143/76 92/144/76 
f 90/145/77 2/14/77 92/144/77 
f 10/17/78 84/115/78 11/18/78 
f 84/115/79 86/117/79 82/113/79 
f 94/146/80 89/124/80 86/117/80 
f 94/146/81 86/117/81 84/115/81 
f 6/128/82 94/147/82 10/138/82 
f 94/147/83 84/148/83 10/138/83 
f 26/38/84 96/149/84 27/39/84 
f 28/150/85 27/151/85 97/152/85 
f 33/153/86 32/154/86 98/155/86 
f 32/154/87 78/107/87 98/155/87 
f 98/156/88 78/157/88 99/158/88 
f 33/45/89 100/159/89 34/46/89 
f 33/160/90 101/161/90 102/162/90 
f 103/163/91 104/164/91 105/165/91 
f 106/166/92 39/167/92 107/168/92 
f 108/169/93 109/170/93 105/171/93 
f 110/172/94 111/173/94 112/174/94 
f 55/72/95 54/71/95 113/175/95 
f 114/176/96 115/177/96 104/178/96 
f 101/179/92 107/168/92 39/167/92 
f 116/180/97 117/181/97 118/182/97 
f 116/180/98 119/183/98 117/181/98 
f 33/160/90 98/156/90 101/161/90 
f 108/184/99 104/164/99 115/185/99 
f 120/186/100 121/187/100 98/156/100 
f 111/188/92 79/189/92 106/166/92 
f 101/179/92 121/190/92 107/168/92 
f 108/184/101 105/165/101 104/164/101 
f 121/187/102 101/161/102 98/156/102 
f 122/191/103 123/192/103 50/193/103 
f 124/194/104 122/195/104 50/67/104 
f 124/194/105 50/67/105 121/196/105 
f 120/197/106 124/194/106 121/196/106 
f 107/198/107 121/196/107 50/67/107 
f 125/199/108 126/200/108 127/201/108 
f 115/185/109 127/202/109 128/203/109 
f 128/203/110 108/184/110 115/185/110 
f 128/203/111 127/202/111 129/204/111 
f 109/170/93 128/205/93 130/206/93 
f 129/204/112 127/202/112 126/207/112 
f 129/208/113 118/182/113 131/209/113 
f 118/182/114 129/208/114 126/210/114 
f 118/182/115 126/210/115 116/180/115 
f 100/159/116 116/180/116 126/210/116 
f 132/211/117 105/171/117 109/170/117 
f 133/212/118 134/213/118 135/214/118 
f 136/215/119 134/213/119 133/212/119 
f 104/164/91 137/216/91 138/217/91 
f 138/217/120 137/216/120 139/218/120 
f 139/218/121 140/219/121 141/220/121 
f 139/218/122 141/220/122 138/217/122 
f 142/221/123 143/222/123 14/22/123 
f 143/222/124 135/214/124 134/213/124 
f 141/223/125 17/224/125 138/225/125 
f 144/226/126 142/227/126 140/228/126 
f 141/220/127 140/219/127 142/229/127 
f 134/213/128 145/230/128 143/222/128 
f 15/23/129 14/22/129 143/222/129 
f 145/230/130 15/23/130 143/222/130 
f 142/221/131 146/231/131 143/222/131 
f 137/232/94 147/233/94 148/234/94 
f 144/235/132 146/236/132 142/229/132 
f 146/231/133 135/214/133 143/222/133 
f 17/25/134 142/237/134 14/26/134 
f 141/223/125 142/238/125 17/224/125 
f 149/239/135 133/212/135 135/214/135 
f 150/240/136 151/241/136 109/170/136 
f 151/241/137 132/211/137 109/170/137 
f 109/170/138 152/242/138 150/240/138 
f 153/243/139 154/244/139 155/245/139 
f 156/246/140 129/208/140 131/209/140 
f 128/247/141 156/248/141 130/249/141 
f 156/248/142 131/250/142 130/249/142 
f 131/250/143 152/251/143 130/249/143 
f 109/170/144 130/206/144 152/242/144 
f 150/240/145 152/242/145 157/252/145 
f 158/253/146 153/243/146 155/245/146 
f 158/253/147 118/182/147 117/181/147 
f 131/209/148 118/182/148 158/253/148 
f 158/254/149 157/255/149 152/251/149 
f 158/254/150 155/256/150 157/255/150 
f 152/251/151 131/250/151 158/254/151 
f 146/257/152 159/258/152 149/259/152 
f 133/212/153 149/239/153 160/260/153 
f 133/212/154 160/260/154 136/215/154 
f 154/244/155 160/260/155 155/245/155 
f 161/261/156 155/262/156 160/263/156 
f 160/263/157 149/259/157 161/261/157 
f 149/239/158 135/214/158 146/231/158 
f 161/264/159 159/265/159 162/266/159 
f 139/267/160 148/234/160 162/266/160 
f 151/241/161 150/240/161 148/234/161 
f 162/266/162 140/228/162 139/267/162 
f 144/226/163 140/228/163 162/266/163 
f 144/226/164 162/266/164 159/265/164 
f 162/266/165 148/234/165 150/240/165 
f 162/266/166 150/240/166 157/252/166 
f 161/264/167 162/266/167 157/252/167 
f 106/166/168 163/268/168 111/188/168 
f 99/269/169 78/270/169 164/271/169 
f 99/272/170 164/273/170 165/274/170 
f 166/275/171 167/276/171 106/277/171 
f 165/274/170 168/278/170 99/272/170 
f 99/158/102 120/186/102 98/156/102 
f 120/197/172 99/272/172 168/278/172 
f 107/198/173 166/279/173 106/280/173 
f 55/72/174 50/67/174 49/65/174 
f 72/100/48 110/281/48 71/99/48 
f 72/282/175 113/283/175 110/284/175 
f 47/285/176 169/286/176 48/287/176 
f 170/288/177 171/289/177 123/290/177 
f 123/290/178 172/291/178 170/288/178 
f 173/292/179 174/293/179 175/294/179 
f 123/295/180 173/296/180 175/297/180 
f 176/298/181 123/299/181 175/300/181 
f 177/301/18 178/302/18 179/303/18 
f 180/304/182 112/305/182 177/306/182 
f 180/304/183 177/306/183 179/307/183 
f 163/308/184 112/309/184 111/310/184 
f 30/311/185 112/309/185 181/312/185 
f 167/276/186 72/313/186 182/314/186 
f 167/276/187 163/315/187 106/277/187 
f 115/177/188 125/316/188 127/317/188 
f 114/176/189 125/316/189 115/177/189 
f 33/45/190 116/180/190 100/159/190 
f 33/45/191 102/318/191 119/183/191 
f 33/45/192 119/183/192 116/180/192 
f 134/213/193 102/318/193 145/230/193 
f 124/319/194 168/320/194 183/321/194 
f 120/197/195 168/278/195 124/194/195 
f 184/322/196 172/323/196 123/324/196 
f 185/325/197 184/322/197 123/324/197 
f 122/191/198 184/326/198 185/327/198 
f 184/328/199 186/329/199 172/330/199 
f 157/331/200 155/262/200 161/261/200 
f 149/259/201 159/258/201 161/261/201 
f 7/10/202 187/332/202 95/141/202 
f 171/333/203 174/334/203 173/335/203 
f 187/336/204 7/337/204 175/338/204 
f 174/293/205 187/339/205 175/294/205 
f 188/340/206 170/341/206 172/342/206 
f 174/343/207 189/344/207 187/345/207 
f 184/328/208 183/321/208 186/329/208 
f 188/346/209 172/347/209 190/348/209 
f 191/349/210 190/348/210 172/347/210 
f 190/350/71 189/344/71 188/340/71 
f 188/340/211 174/343/211 170/341/211 
f 77/106/212 192/351/212 78/107/212 
f 32/154/213 76/105/213 78/107/213 
f 77/352/214 76/353/214 80/354/214 
f 81/355/54 80/111/54 54/110/54 
f 76/109/215 79/108/215 80/111/215 
f 81/112/216 193/356/216 194/357/216 
f 195/358/217 194/357/217 193/356/217 
f 192/359/218 164/271/218 78/270/218 
f 196/360/219 178/302/219 164/271/219 
f 164/271/220 192/359/220 196/360/220 
f 197/361/193 198/362/193 194/363/193 
f 77/352/221 80/354/221 196/360/221 
f 178/302/58 196/360/58 198/362/58 
f 192/359/222 77/352/222 196/360/222 
f 199/364/223 200/365/223 201/366/223 
f 199/364/224 201/366/224 198/367/224 
f 178/368/225 198/367/225 201/366/225 
f 202/369/226 178/368/226 201/366/226 
f 203/370/227 204/371/227 201/366/227 
f 203/370/228 201/366/228 200/365/228 
f 203/372/229 205/373/229 204/374/229 
f 53/104/230 67/87/230 206/375/230 
f 53/104/231 206/375/231 193/376/231 
f 207/377/232 180/304/232 208/378/232 
f 30/379/233 181/380/233 209/381/233 
f 210/382/234 193/383/234 206/384/234 
f 207/385/54 211/386/54 71/387/54 
f 212/388/235 208/378/235 180/304/235 
f 87/119/193 213/389/193 96/149/193 
f 213/390/236 214/391/236 209/381/236 
f 67/97/237 211/392/237 206/393/237 
f 206/393/238 197/394/238 210/395/238 
f 71/99/239 211/392/239 67/97/239 
f 195/396/240 197/397/240 194/398/240 
f 215/399/241 23/400/241 216/401/241 
f 217/402/242 218/403/242 219/404/242 
f 220/405/243 200/406/243 217/402/243 
f 221/407/244 23/400/244 24/408/244 
f 26/38/245 83/409/245 29/41/245 
f 179/307/183 212/388/183 180/304/183 
f 222/410/246 209/381/246 214/391/246 
f 30/379/233 209/381/233 31/411/233 
f 222/410/247 31/411/247 209/381/247 
f 202/412/248 179/413/248 178/414/248 
f 208/415/249 199/416/249 198/417/249 
f 214/418/250 212/419/250 222/420/250 
f 31/421/251 212/419/251 179/413/251 
f 85/422/252 165/423/252 82/424/252 
f 223/425/253 219/426/253 218/427/253 
f 218/428/254 216/429/254 224/430/254 
f 224/430/255 223/431/255 218/428/255 
f 219/432/256 225/433/256 226/434/256 
f 219/432/257 226/434/257 217/435/257 
f 226/436/258 205/437/258 220/438/258 
f 220/438/259 217/439/259 226/436/259 
f 224/440/260 221/441/260 227/442/260 
f 24/443/261 227/444/261 221/445/261 
f 221/441/262 224/440/262 216/446/262 
f 25/447/263 228/448/263 227/444/263 
f 165/274/264 229/449/264 168/278/264 
f 201/366/265 229/449/265 202/369/265 
f 229/449/266 165/274/266 202/369/266 
f 229/449/267 230/450/267 168/278/267 
f 230/450/268 183/451/268 168/278/268 
f 231/452/269 229/449/269 201/366/269 
f 204/371/270 231/452/270 201/366/270 
f 186/329/74 230/453/74 232/454/74 
f 231/455/271 232/454/271 230/453/271 
f 230/453/272 229/456/272 231/455/272 
f 232/457/273 172/458/273 186/459/273 
f 232/457/273 191/460/273 172/458/273 
f 191/461/274 233/462/274 190/463/274 
f 232/454/275 234/464/275 191/465/275 
f 228/466/276 235/467/276 236/468/276 
f 235/469/277 187/336/277 236/470/277 
f 235/469/278 95/471/278 187/336/278 
f 236/472/279 187/473/279 237/474/279 
f 187/473/280 189/475/280 237/474/280 
f 93/133/281 235/467/281 228/466/281 
f 238/476/282 224/430/282 236/477/282 
f 238/476/283 223/431/283 224/430/283 
f 225/478/284 238/479/284 233/462/284 
f 237/480/285 233/462/285 238/479/285 
f 204/374/263 234/481/263 231/482/263 
f 226/434/286 225/433/286 233/483/286 
f 191/484/287 226/434/287 233/483/287 
f 238/479/288 236/485/288 237/480/288 
f 226/436/289 191/486/289 234/487/289 
f 234/487/290 205/437/290 226/436/290 
f 224/440/291 228/488/291 236/489/291 
f 36/48/193 239/490/193 38/52/193 
f 42/491/292 13/21/292 239/490/292 
f 240/492/293 241/493/293 42/58/293 
f 41/57/293 240/492/293 42/58/293 
f 242/494/294 243/495/294 244/496/294 
f 245/497/295 246/498/295 247/499/295 
f 245/497/296 248/500/296 249/501/296 
f 246/498/297 250/502/297 251/503/297 
f 252/504/298 253/505/298 58/75/298 
f 251/503/299 247/499/299 246/498/299 
f 245/506/25 254/507/25 246/508/25 
f 255/509/300 69/510/300 256/511/300 
f 59/512/301 252/513/301 57/514/301 
f 257/515/302 253/505/302 244/496/302 
f 257/515/303 58/75/303 253/505/303 
f 69/516/45 59/84/45 51/83/45 
f 69/516/45 255/517/45 244/518/45 
f 244/518/304 253/519/304 69/516/304 
f 253/519/305 252/520/305 69/516/305 
f 258/521/94 209/522/94 181/523/94 
f 254/524/306 256/511/306 182/525/306 
f 259/526/307 72/313/307 66/527/307 
f 260/528/27 68/529/27 239/530/27 
f 68/529/27 38/55/27 239/530/27 
f 68/531/308 256/511/308 69/510/308 
f 169/532/308 256/511/308 68/531/308 
f 42/491/309 241/533/309 16/534/309 
f 13/21/310 42/491/310 16/534/310 
f 261/535/311 260/528/311 97/536/311 
f 239/530/312 13/537/312 260/528/312 
f 13/537/313 97/536/313 260/528/313 
f 15/538/314 28/150/314 13/539/314 
f 97/152/314 13/539/314 28/150/314 
f 16/534/315 14/22/315 13/21/315 
f 17/224/316 262/540/316 263/541/316 
f 240/542/317 263/541/317 262/540/317 
f 262/543/318 16/24/318 241/544/318 
f 240/545/319 262/543/319 241/544/319 
f 16/24/320 262/543/320 17/25/320 
f 263/541/321 240/542/321 41/546/321 
f 57/74/303 252/504/303 58/75/303 
f 64/81/322 264/547/322 70/94/322 
f 265/548/322 70/94/322 264/547/322 
f 266/549/323 265/550/323 264/551/323 
f 60/77/324 267/552/324 266/549/324 
f 27/39/325 96/149/325 268/553/325 
f 269/554/326 44/60/326 270/555/326 
f 27/151/327 268/556/327 97/152/327 
f 73/557/328 269/554/328 270/555/328 
f 271/558/329 272/559/329 273/560/329 
f 96/561/54 209/562/54 261/535/54 
f 271/558/330 274/563/330 275/564/330 
f 96/561/331 261/535/331 268/565/331 
f 268/565/332 261/535/332 97/536/332 
f 249/501/333 276/566/333 277/567/333 
f 276/566/334 242/568/334 277/567/334 
f 138/225/335 17/224/335 263/541/335 
f 257/515/294 244/496/294 243/495/294 
f 102/162/336 278/569/336 145/570/336 
f 279/571/337 274/563/337 280/572/337 
f 279/573/338 281/574/338 282/575/338 
f 278/569/339 15/576/339 145/570/339 
f 250/502/340 281/574/340 251/503/340 
f 283/577/341 35/578/341 34/579/341 
f 34/579/342 125/199/342 283/577/342 
f 283/580/343 40/581/343 37/582/343 
f 283/580/344 114/176/344 40/581/344 
f 125/316/345 114/176/345 283/580/345 
f 32/54/346 39/53/346 79/108/346 
f 4/583/203 284/584/203 7/585/203 
f 8/12/347 1/11/347 285/586/347 
f 175/587/348 286/588/348 8/589/348 
f 175/338/349 7/337/349 284/590/349 
f 1/591/198 287/592/198 285/593/198 
f 8/15/350 286/594/350 4/13/350 
f 177/595/351 165/596/351 164/597/351 
f 182/525/352 288/598/352 167/599/352 
f 256/511/353 169/532/353 289/600/353 
f 260/601/354 290/602/354 278/603/354 
f 290/604/355 28/605/355 278/569/355 
f 278/569/356 28/605/356 15/576/356 
f 11/18/357 167/599/357 288/598/357 
f 12/19/358 11/18/358 288/598/358 
f 288/598/359 287/606/359 12/19/359 
f 285/607/360 288/608/360 8/609/360 
f 289/600/361 288/598/361 256/511/361 
f 48/610/193 39/611/193 46/612/193 
f 290/613/362 26/38/362 28/40/362 
f 291/614/363 11/18/363 84/115/363 
f 26/38/364 290/613/364 83/409/364 
f 83/409/58 290/613/58 292/615/58 
f 83/114/365 292/616/365 84/115/365 
f 292/616/366 258/617/366 291/614/366 
f 292/616/367 291/614/367 84/115/367 
f 291/618/368 163/315/368 167/276/368 
f 61/619/25 56/90/25 52/95/25 
f 52/95/25 70/96/25 265/620/25 
f 52/95/25 265/620/25 267/621/25 
f 66/622/301 269/623/301 75/624/301 
f 271/625/301 275/626/301 66/622/301 
f 79/627/94 113/628/94 54/629/94 
f 110/172/94 180/630/94 71/631/94 
f 136/215/119 119/183/119 134/213/119 
f 147/233/94 151/241/94 148/234/94 
f 147/233/94 103/632/94 132/211/94 
f 153/243/139 136/215/139 154/244/139 
f 8/633/181 289/634/181 47/635/181 
f 8/633/181 176/298/181 175/300/181 
f 123/299/181 47/635/181 50/636/181 
f 181/312/184 291/637/184 258/638/184 
f 72/313/186 166/275/186 55/639/186 
f 194/363/193 80/354/193 81/640/193 
f 198/362/193 196/360/193 194/363/193 
f 197/361/193 207/641/193 208/642/193 
f 217/402/241 199/643/241 88/644/241 
f 217/402/241 215/399/241 216/401/241 
f 23/400/241 88/644/241 19/28/241 
f 31/421/248 85/422/248 29/645/248 
f 214/418/251 88/646/251 199/416/251 
f 293/647/25 254/507/25 245/506/25 
f 293/647/25 249/648/25 294/649/25 
f 255/517/25 277/650/25 242/651/25 
f 294/649/25 254/507/25 293/647/25 
f 255/517/25 294/649/25 277/650/25 
f 258/521/94 290/652/94 261/653/94 
f 259/526/193 254/654/193 182/314/193 
f 263/541/94 40/581/94 114/176/94 
f 295/655/369 243/656/369 276/657/369 
f 295/655/370 281/658/370 280/659/370 
f 295/655/369 266/660/369 264/661/369 
f 295/655/369 64/662/369 58/663/369 
f 295/655/370 273/664/370 272/665/370 
f 295/655/370 73/666/370 270/667/370 
f 295/655/25 248/668/25 247/669/25 
f 295/655/370 44/670/370 43/671/370 
f 30/311/351 82/672/351 165/596/351 
f 260/673/193 169/674/193 68/675/193 
f 169/674/193 101/676/193 48/610/193 
f 39/611/193 48/610/193 101/676/193 
f 5/6/4 7/10/4 95/141/4 
f 1/1/9 9/20/9 12/677/9 
f 19/28/12 18/27/12 23/400/12 
f 30/42/18 29/41/18 83/409/18 
f 41/57/25 36/51/25 40/56/25 
f 52/69/34 55/72/34 49/65/34 
f 61/78/37 60/77/37 43/59/37 
f 58/75/371 63/80/371 59/76/371 
f 68/92/43 51/91/43 46/678/43 
f 71/387/54 180/679/54 207/385/54 
f 74/102/49 73/101/49 272/559/49 
f 81/112/372 53/70/372 193/356/372 
f 20/126/65 22/125/65 18/680/65 
f 89/127/68 91/134/68 22/125/68 
f 3/3/71 10/138/71 9/20/71 
f 92/132/74 95/141/74 235/467/74 
f 94/147/82 6/128/82 91/130/82 
f 39/167/92 106/166/92 79/189/92 
f 111/173/94 110/172/94 113/628/94 
f 123/192/103 122/191/103 185/327/103 
f 126/200/108 125/199/108 100/681/108 
f 128/205/373 109/170/373 108/169/373 
f 105/171/117 132/211/117 103/632/117 
f 137/216/120 104/164/120 103/163/120 
f 156/248/141 128/247/141 129/682/141 
f 153/243/146 158/253/146 117/181/146 
f 159/258/152 146/257/152 144/683/152 
f 160/260/155 154/244/155 136/215/155 
f 148/234/160 139/267/160 137/232/160 
f 166/279/173 107/198/173 50/67/173 
f 50/67/174 55/72/174 166/279/174 
f 113/283/175 72/282/175 55/684/175 
f 169/286/176 47/285/176 289/685/176 
f 173/296/180 123/295/180 171/686/180 
f 178/302/374 177/301/374 164/271/374 
f 112/309/184 163/308/184 181/312/184 
f 112/309/185 30/311/185 177/595/185 
f 102/318/193 134/213/193 119/183/193 
f 184/326/198 122/191/198 124/687/198 
f 174/334/203 171/333/203 170/688/203 
f 183/321/208 184/328/208 124/319/208 
f 189/344/71 190/350/71 237/689/71 
f 174/343/211 188/340/211 189/344/211 
f 198/362/193 197/361/193 208/642/193 
f 205/373/229 203/372/229 220/690/229 
f 193/383/234 210/382/234 195/691/234 
f 213/389/193 87/119/193 214/692/193 
f 197/394/375 206/393/375 211/392/375 
f 197/397/240 195/396/240 210/693/240 
f 218/403/242 217/402/242 216/401/242 
f 200/406/243 220/405/243 203/694/243 
f 23/400/244 221/407/244 216/401/244 
f 179/413/248 202/412/248 31/421/248 
f 199/416/251 208/415/251 214/418/251 
f 212/419/250 214/418/250 208/415/250 
f 212/419/251 31/421/251 222/420/251 
f 165/423/252 85/422/252 202/412/252 
f 219/426/253 223/425/253 225/478/253 
f 227/444/261 24/443/261 25/447/261 
f 228/448/263 25/447/263 93/695/263 
f 230/453/74 186/329/74 183/321/74 
f 232/454/271 231/455/271 234/464/271 
f 235/467/281 93/133/281 92/132/281 
f 238/479/284 225/478/284 223/425/284 
f 233/462/285 237/480/285 190/463/285 
f 234/481/263 204/374/263 205/373/263 
f 228/488/291 224/440/291 227/442/291 
f 239/490/193 36/48/193 42/491/193 
f 248/500/296 245/497/296 247/499/296 
f 250/502/297 246/498/297 259/696/297 
f 59/84/45 69/516/45 252/520/45 
f 209/522/94 258/521/94 261/653/94 
f 256/511/306 254/524/306 255/509/306 
f 72/313/193 259/526/193 182/314/193 
f 38/55/27 68/529/27 46/62/27 
f 263/541/94 114/176/94 138/225/94 
f 265/550/323 266/549/323 267/552/323 
f 267/552/324 60/77/324 62/79/324 
f 44/60/376 269/554/376 65/85/376 
f 269/554/328 73/557/328 75/697/328 
f 272/559/329 271/558/329 74/102/329 
f 209/562/54 96/561/54 213/698/54 
f 274/563/330 271/558/330 273/560/330 
f 276/566/333 249/501/333 248/500/333 
f 242/568/334 276/566/334 243/699/334 
f 278/569/336 102/162/336 101/161/336 
f 274/563/337 279/571/337 275/564/337 
f 281/574/338 279/573/338 280/700/338 
f 281/574/340 250/502/340 282/575/340 
f 35/578/341 283/577/341 37/701/341 
f 125/199/342 34/579/342 100/681/342 
f 284/584/203 4/583/203 286/702/203 
f 286/588/348 175/587/348 284/703/348 
f 287/592/198 1/591/198 12/704/198 
f 165/596/351 177/595/351 30/311/351 
f 288/598/352 182/525/352 256/511/352 
f 290/602/354 260/601/354 261/705/354 
f 167/599/357 11/18/357 291/614/357 
f 288/608/360 285/607/360 287/706/360 
f 56/90/25 61/619/25 45/89/25 
f 62/707/25 61/619/25 52/95/25 
f 267/621/25 62/707/25 52/95/25 
f 259/708/301 66/622/301 250/709/301 
f 269/623/301 66/622/301 65/710/301 
f 74/711/301 66/622/301 75/624/301 
f 74/711/301 271/625/301 66/622/301 
f 275/626/301 279/712/301 66/622/301 
f 282/713/301 250/709/301 66/622/301 
f 66/622/301 279/712/301 282/713/301 
f 113/628/94 79/627/94 111/173/94 
f 180/630/94 110/172/94 112/174/94 
f 119/183/119 136/215/119 117/181/119 
f 151/241/94 147/233/94 132/211/94 
f 103/632/94 147/233/94 137/232/94 
f 136/215/139 153/243/139 117/181/139 
f 289/634/181 8/633/181 288/714/181 
f 176/298/377 8/633/377 47/635/377 
f 47/635/181 123/299/181 176/298/181 
f 291/637/184 181/312/184 163/308/184 
f 166/275/186 72/313/186 167/276/186 
f 80/354/193 194/363/193 196/360/193 
f 207/641/193 197/361/193 211/715/193 
f 26/38/193 87/119/193 96/149/193 
f 199/643/241 217/402/241 200/406/241 
f 215/399/241 217/402/241 88/644/241 
f 88/644/378 23/400/378 215/399/378 
f 85/422/248 31/421/248 202/412/248 
f 88/646/379 214/418/379 87/716/379 
f 242/651/25 244/518/25 255/517/25 
f 277/650/25 294/649/25 249/648/25 
f 249/648/25 293/647/25 245/506/25 
f 294/649/25 255/517/25 254/507/25 
f 290/652/94 258/521/94 292/717/94 
f 254/654/193 259/526/193 246/718/193 
f 40/581/94 263/541/94 41/546/94 
f 104/178/94 138/225/94 114/176/94 
f 243/656/25 295/655/25 257/719/25 
f 248/668/25 295/655/25 276/657/25 
f 281/658/380 295/655/380 251/720/380 
f 274/721/380 295/655/380 280/659/380 
f 274/721/370 273/664/370 295/655/370 
f 266/660/370 295/655/370 60/722/370 
f 64/662/369 295/655/369 264/661/369 
f 257/719/369 295/655/369 58/663/369 
f 73/666/370 295/655/370 272/665/370 
f 251/720/25 295/655/25 247/669/25 
f 44/670/370 295/655/370 270/667/370 
f 60/722/370 295/655/370 43/671/370 
f 82/672/351 30/311/351 83/723/351 
f 169/674/193 260/673/193 278/724/193 
f 101/676/193 169/674/193 278/724/193 
# 606 faces

