# 3ds Max Wavefront OBJ Exporter v0.99 - (c)2007 guruware
# File Created: 26.12.2024 18:37:43

#
# object Bazooka
#

v  -0.2275 0.4990 1.8490
v  -0.2275 0.4990 1.7626
v  -0.2275 0.3738 1.7626
v  -0.2275 0.2130 1.7626
v  -0.2275 0.1580 1.8490
v  -0.2275 0.1580 1.7626
v  0.0730 0.2153 1.8490
v  0.1338 0.4990 1.8490
v  0.0730 0.4417 1.8490
v  -0.1667 0.2153 1.8490
v  -0.1667 0.4417 1.8490
v  0.1338 0.1580 1.8490
v  0.1338 0.1580 1.7626
v  0.1338 0.4990 1.7626
v  -0.2036 0.2874 1.7626
v  -0.2036 0.2874 0.3640
v  -0.1777 0.2874 0.3640
v  0.0840 0.4520 0.5063
v  -0.0032 0.4520 1.7626
v  0.0840 0.4520 1.7626
v  0.0840 0.3696 1.7626
v  0.0730 0.4417 1.7470
v  0.0730 0.2153 1.7470
v  -0.0032 0.4791 1.7626
v  0.0840 0.2050 1.7626
v  0.1104 0.2874 1.7626
v  0.1104 0.3696 1.7626
v  -0.1667 0.2153 1.7470
v  -0.0905 0.4791 0.5063
v  -0.0905 0.4791 1.7626
v  -0.0905 0.4520 1.7626
v  -0.1777 0.4520 1.7626
v  -0.1777 0.3738 1.7626
v  -0.1667 0.4417 1.7470
v  -0.2036 0.3696 1.7626
v  -0.1777 0.2130 1.7626
v  -0.1777 0.3696 1.7626
v  -0.1777 0.2874 1.7626
v  -0.1777 0.2050 0.6817
v  -0.1777 0.4520 0.5063
v  -0.0032 0.1796 0.6084
v  -0.0032 0.2050 0.6817
v  -0.0032 0.1796 1.7626
v  -0.0032 0.2050 1.7626
v  -0.0905 0.1796 1.7626
v  -0.1777 0.2050 1.7626
v  -0.0905 0.2050 1.7626
v  0.0840 0.2874 1.7626
v  -0.2188 0.4908 -0.2561
v  0.1251 0.4908 -0.2561
v  -0.1635 0.4387 -0.2561
v  0.0698 0.4387 -0.2561
v  0.0698 0.2184 -0.2561
v  0.1251 0.1662 -0.2561
v  -0.1635 0.2184 -0.2561
v  -0.2188 0.1662 -0.2561
v  0.0851 0.7793 -0.0227
v  -0.1794 0.7793 -0.0227
v  -0.1794 0.7793 0.4224
v  0.0851 0.7793 0.4224
v  0.1251 0.4908 -0.1860
v  0.0698 0.2184 -0.1818
v  0.0840 0.4520 -0.0999
v  0.0840 0.3696 -0.0999
v  0.0840 0.4520 -0.1860
v  -0.1635 0.4387 -0.1818
v  0.0698 0.4387 -0.1818
v  -0.1777 0.4520 -0.0999
v  -0.2274 0.5002 -0.0999
v  0.1330 0.5002 -0.0999
v  0.0851 0.5002 -0.0227
v  -0.1794 0.5002 -0.0227
v  0.1251 0.1662 -0.1860
v  0.1330 0.3696 -0.0999
v  -0.1377 -0.1004 0.4460
v  -0.1586 -0.0920 0.4278
v  -0.1648 -0.0911 0.3640
v  -0.1586 -0.0499 0.4278
v  -0.1246 -0.0508 0.4615
v  -0.1246 -0.0958 0.4615
v  -0.1777 0.4520 -0.1860
v  -0.1777 0.3696 -0.0999
v  -0.2274 0.3696 -0.0999
v  -0.2188 0.4908 -0.1860
v  -0.1377 -0.0457 0.4460
v  0.0092 -0.0473 0.4507
v  -0.1224 -0.0401 0.4616
v  0.1104 0.2874 0.3640
v  0.0840 0.2874 0.3640
v  0.1104 0.3696 0.5063
v  -0.1794 0.5002 0.4224
v  0.0840 0.3696 0.5063
v  -0.0032 0.4791 0.5063
v  -0.0032 0.4520 0.5063
v  -0.0905 0.4520 0.5063
v  -0.2036 0.3696 0.5063
v  -0.2188 0.1662 -0.1860
v  -0.1777 0.3696 0.4327
v  -0.1777 0.2050 -0.1860
v  -0.1635 0.2184 -0.1818
v  -0.0905 0.1796 0.6084
v  -0.0905 0.2050 0.6817
v  0.0387 0.0549 0.0007
v  -0.0670 -0.0219 0.0007
v  0.0195 0.0647 0.0007
v  -0.0421 0.0549 0.0007
v  -0.0229 0.0647 0.0007
v  -0.0017 0.0680 0.0007
v  0.0840 0.2050 0.6817
v  0.0539 -0.0411 0.0007
v  0.0539 0.0397 0.0007
v  0.0636 -0.0219 0.0007
v  0.0636 0.0206 0.0007
v  0.0670 -0.0007 0.0007
v  0.0387 -0.0563 0.0007
v  0.0195 -0.0660 0.0007
v  -0.0017 -0.0694 0.0007
v  -0.0229 -0.0660 0.0007
v  -0.0421 -0.0563 0.0007
v  -0.0573 -0.0411 0.0007
v  -0.0704 -0.0007 0.0007
v  -0.0670 0.0206 0.0007
v  -0.0573 0.0397 0.0007
v  0.0539 -0.0411 0.1551
v  0.0522 -0.0428 0.1543
v  -0.0573 -0.0411 0.1558
v  -0.0573 0.0397 0.1558
v  0.0840 0.2050 -0.1860
v  -0.1777 0.2050 0.2106
v  0.0840 0.2050 0.2106
v  0.0851 0.5002 0.4224
v  0.1330 0.5002 0.5063
v  0.1330 0.3696 0.5063
v  0.0840 0.3696 0.3640
v  0.1104 0.3696 0.3640
v  -0.1777 0.3696 0.3640
v  -0.2036 0.3696 0.3640
v  -0.2036 0.3696 0.4327
v  -0.2274 0.3696 0.5063
v  -0.2274 0.5002 0.5063
v  -0.1777 0.3738 0.4327
v  -0.2036 0.3738 0.4327
v  -0.1777 0.3738 0.5063
v  -0.2036 0.3738 0.5063
v  0.0387 0.0549 0.1543
v  0.0195 0.0647 0.1543
v  0.0522 0.0855 0.1543
v  -0.0203 0.0855 0.1543
v  -0.0203 0.1267 0.2584
v  0.0677 0.0800 0.1621
v  0.0522 0.1267 0.2584
v  0.0677 0.1183 0.2588
v  0.0677 -0.1003 0.2588
v  0.0656 0.1137 0.3625
v  0.0499 0.1217 0.3700
v  0.0621 0.0742 0.3826
v  0.0499 0.0654 0.3700
v  0.0621 0.1129 0.3826
v  0.0539 0.0397 0.1551
v  0.0522 0.0414 0.1543
v  0.0636 0.0206 0.1558
v  0.0553 0.0370 0.1558
v  0.0670 -0.0007 0.1558
v  0.0677 -0.0620 0.1621
v  0.0522 -0.1087 0.2584
v  0.0522 -0.0674 0.1543
v  0.0636 -0.0219 0.1558
v  0.0553 -0.0383 0.1558
v  0.0626 0.0573 0.3816
v  0.0335 0.0573 0.4391
v  0.0626 0.0171 0.3816
v  0.0499 0.0090 0.3700
v  0.0656 -0.0957 0.3625
v  0.0499 -0.0473 0.3700
v  0.0639 -0.0536 0.3791
v  0.0499 -0.1037 0.3700
v  0.0639 -0.0974 0.3791
v  0.0633 0.0019 0.3802
v  0.0633 -0.0403 0.3802
v  -0.0017 0.0680 0.1543
v  -0.0203 0.0651 0.1543
v  -0.0421 0.0549 0.1558
v  -0.0223 0.0290 0.1558
v  -0.0229 0.0647 0.1558
v  -0.0223 0.0648 0.1558
v  -0.0793 0.0385 0.2008
v  0.0295 0.1290 0.2085
v  -0.0202 0.1261 0.2716
v  -0.0086 0.1290 0.2718
v  -0.0086 0.1261 0.2716
v  -0.0705 0.0524 0.2672
v  -0.0851 -0.1033 0.2580
v  -0.0725 0.0524 0.2672
v  -0.0851 0.0523 0.2672
v  -0.0851 0.0540 0.2755
v  -0.1107 0.0570 0.2916
v  -0.1232 0.1290 0.2085
v  -0.0851 0.1110 0.2707
v  -0.0851 0.1290 0.2718
v  -0.0779 0.1143 0.2709
v  -0.0727 0.1162 0.2676
v  -0.0727 0.0588 0.2676
v  -0.0203 0.0493 0.2584
v  -0.0794 0.0910 0.2000
v  -0.1335 0.0883 0.2658
v  -0.0851 0.1116 0.2755
v  -0.0851 0.1290 0.3991
v  -0.1232 0.1290 0.4624
v  -0.1107 0.1020 0.2916
v  -0.0086 0.1290 0.3991
v  -0.0086 0.1217 0.3700
v  -0.0086 0.1217 0.3986
v  0.0295 0.1290 0.4624
v  0.0340 0.0742 0.4381
v  0.0340 0.1129 0.4381
v  -0.0874 0.1185 0.4011
v  0.0092 0.1217 0.4507
v  -0.0416 0.1217 0.4034
v  -0.0385 0.1217 0.3986
v  -0.1739 0.0567 0.3081
v  -0.1796 0.0638 0.3648
v  -0.1739 0.0892 0.3081
v  -0.1576 0.0911 0.2925
v  -0.1238 0.0911 0.2936
v  -0.1648 0.1091 0.3640
v  -0.1032 0.1091 0.3655
v  -0.1796 0.1034 0.3648
v  -0.1582 0.1109 0.4296
v  -0.1582 0.0676 0.4296
v  -0.1582 0.0574 0.4297
v  -0.1377 0.0638 0.4460
v  -0.1648 0.0591 0.3640
v  -0.1796 0.0537 0.3648
v  -0.1576 0.0500 0.2925
v  -0.0670 -0.0219 0.1558
v  -0.0704 -0.0007 0.1558
v  -0.0421 -0.0563 0.1558
v  -0.0017 -0.0694 0.1558
v  -0.0101 -0.0680 0.1558
v  -0.0229 -0.0660 0.1558
v  -0.0670 0.0206 0.1558
v  -0.0727 0.0524 0.2672
v  -0.0203 -0.0960 0.2584
v  -0.0210 0.0290 0.1558
v  -0.0203 0.0290 0.1558
v  -0.1335 0.0502 0.2658
v  0.0387 -0.0563 0.1543
v  0.0195 -0.0660 0.1543
v  0.0106 -0.0674 0.1543
v  0.0067 -0.0680 0.1558
v  -0.0203 -0.0664 0.1543
v  -0.0140 -0.0674 0.1543
v  -0.0203 -0.0674 0.1543
v  -0.0203 -0.1087 0.2584
v  -0.0203 -0.0664 0.1558
v  -0.0203 -0.1033 0.2580
v  -0.0203 -0.1033 0.2584
v  -0.1238 -0.0730 0.2936
v  -0.1032 -0.0911 0.3655
v  -0.0874 -0.1004 0.4011
v  -0.0416 -0.1037 0.4034
v  -0.0296 -0.1033 0.3853
v  0.0335 0.0171 0.4391
v  -0.0194 -0.1033 0.3700
v  -0.0194 -0.1037 0.3700
v  -0.0851 -0.1033 0.3853
v  0.0322 -0.0974 0.4417
v  0.0322 -0.0536 0.4417
v  0.0328 0.0019 0.4406
v  0.0328 -0.0403 0.4406
v  -0.1576 0.0090 0.2925
v  -0.1739 0.0140 0.3080
v  -0.1739 0.0466 0.3080
v  -0.1576 -0.0320 0.2925
v  -0.1795 -0.0355 0.3648
v  -0.1795 0.0038 0.3648
v  -0.1739 -0.0284 0.3086
v  -0.1739 0.0038 0.3086
v  -0.1582 0.0140 0.4297
v  -0.1796 0.0140 0.3648
v  -0.1648 0.0090 0.3640
v  -0.1377 0.0090 0.4460
v  -0.1195 0.0159 0.4617
v  -0.1583 0.0038 0.4291
v  -0.1576 -0.0730 0.2925
v  -0.1738 -0.0394 0.3099
v  -0.1738 -0.0709 0.3099
v  -0.1648 -0.0410 0.3640
v  -0.1583 -0.0392 0.4291
v  -0.1794 -0.0463 0.3649
v  -0.1794 -0.0847 0.3649
v  -0.1224 0.0032 0.4616
v  -0.0085 0.1147 0.4653
v  0.0092 0.0654 0.4507
v  -0.0085 0.0719 0.4653
v  -0.1195 0.0571 0.4617
v  -0.0090 0.0583 0.4652
v  -0.1200 0.1122 0.4617
v  -0.1200 0.0706 0.4617
v  -0.1377 0.1185 0.4460
v  -0.0090 0.0159 0.4652
v  0.0092 0.0090 0.4507
v  -0.0061 0.0032 0.4653
v  0.0092 -0.1037 0.4507
v  -0.0040 -0.0984 0.4654
v  -0.0040 -0.0522 0.4654
v  -0.0061 -0.0414 0.4653
# 307 vertices

vn -1.0000 0.0000 -0.0000
vn -0.0000 0.0000 1.0000
vn 1.0000 0.0000 0.0000
vn 0.0000 -1.0000 -0.0000
vn 0.0000 1.0000 -0.0000
vn 0.0000 0.0000 -1.0000
vn 0.0000 -0.0000 -1.0000
vn -0.0000 -0.0000 -1.0000
vn -0.3960 -0.9179 0.0258
vn -0.7046 -0.0000 0.7096
vn -0.6941 -0.2663 0.6689
vn -0.0000 -0.0000 1.0000
vn 0.0005 0.9500 0.3122
vn -0.0216 -0.9337 0.3575
vn 0.0000 0.0000 1.0000
vn -0.0000 0.0000 -1.0000
vn 0.8915 -0.4530 0.0000
vn 0.7070 -0.7072 0.0000
vn -0.7071 -0.7071 -0.0000
vn -0.8915 -0.4530 -0.0000
vn -0.7071 0.7071 -0.0000
vn 0.0000 0.9298 -0.3680
vn 0.4562 0.8274 -0.3275
vn 0.4541 0.8283 -0.3282
vn 0.4732 0.8796 0.0488
vn 0.4749 0.8787 0.0485
vn 0.7204 0.0000 -0.6935
vn 0.4354 0.0000 0.9002
vn 0.7070 0.7072 0.0000
vn 0.8915 0.4531 0.0000
vn 0.8916 0.4528 0.0000
vn 0.9876 0.1570 0.0000
vn 0.9876 -0.1570 0.0000
vn 0.7071 -0.7071 0.0000
vn 0.4558 -0.8276 -0.3276
vn 0.4561 -0.8275 -0.3275
vn 0.9998 0.0000 0.0201
vn 0.8915 0.4530 0.0000
vn 0.8916 -0.4528 0.0000
vn 0.8915 -0.4531 0.0000
vn 0.4499 0.0000 -0.8931
vn 0.4503 -0.0002 -0.8929
vn 0.4494 0.0002 -0.8933
vn 0.4495 -0.0003 -0.8933
vn 0.4502 0.0003 -0.8929
vn 0.8925 0.0000 0.4511
vn 0.6743 0.0000 -0.7385
vn 0.5437 0.0000 -0.8393
vn 0.6045 0.0000 -0.7966
vn 0.4749 -0.8787 0.0485
vn 0.1570 0.9876 0.0000
vn 0.4531 0.8915 0.0000
vn -0.1570 0.9876 0.0000
vn -0.1570 0.9876 -0.0000
vn -0.4531 0.8915 -0.0000
vn -0.1575 0.9875 0.0000
vn -0.1551 0.9879 -0.0000
vn -0.6189 0.0000 -0.7855
vn -0.6186 0.0000 -0.7857
vn 0.0000 0.0279 -0.9996
vn 0.0000 0.0589 -0.9983
vn -0.0000 0.9990 0.0444
vn -0.0005 0.0593 -0.9982
vn 0.0137 -0.9788 0.2044
vn -0.0000 0.0593 -0.9982
vn -0.4114 0.9043 -0.1141
vn 0.0001 0.0592 -0.9982
vn 0.0000 0.0592 -0.9982
vn 0.0000 0.0593 -0.9982
vn 0.5334 0.0000 0.8459
vn 0.1727 0.0000 0.9850
vn 0.1727 0.0001 0.9850
vn -0.1936 0.9122 -0.3610
vn -0.2386 0.9173 -0.3186
vn -0.4114 0.9044 -0.1135
vn -0.3922 0.8739 -0.2873
vn -0.4114 0.9043 -0.1137
vn 0.5333 0.0000 0.8459
vn -0.0000 0.9990 0.0443
vn 0.4209 -0.8818 0.2128
vn 0.8924 0.0000 0.4513
vn 0.4209 0.8818 0.2128
vn 0.3915 0.8987 0.1979
vn -0.0747 0.9940 0.0802
vn -0.0000 -0.0591 0.9983
vn -0.8131 -0.5822 -0.0000
vn -0.7496 0.0000 0.6619
vn -0.9950 0.0000 -0.1000
vn -0.6922 0.0000 -0.7217
vn 0.0085 0.9699 -0.2433
vn -0.3568 0.8968 -0.2618
vn 0.0058 0.9695 -0.2448
vn -0.3559 0.8970 -0.2620
vn -0.3563 0.9343 0.0109
vn -0.9495 0.0000 0.3138
vn -0.3364 0.9400 0.0576
vn -0.3354 0.9403 0.0575
vn -0.2951 -0.9433 0.1518
vn -0.3003 -0.9496 0.0896
vn -0.2971 -0.9427 0.1519
vn -0.3000 -0.9497 0.0896
vn 0.0000 -0.0000 1.0000
vn -0.1571 -0.9876 -0.0000
vn -0.4531 -0.8915 -0.0000
vn -0.9876 -0.1570 -0.0000
vn -0.9876 0.1570 -0.0000
vn 0.0139 -0.9788 0.2045
vn 0.0137 -0.9788 0.2045
vn 0.0002 -0.9786 0.2058
vn -0.0000 -0.9786 0.2058
vn -0.8915 0.4530 -0.0000
vn -0.7686 -0.0097 -0.6396
vn -0.7716 0.0000 -0.6361
vn -0.0266 -0.9807 0.1939
vn -0.0262 -0.9806 0.1941
vn -0.0000 0.0592 -0.9982
vn -0.6131 -0.0117 -0.7899
vn -1.0000 0.0000 0.0077
vn 0.7071 0.7071 0.0000
vn 0.4531 -0.8915 0.0000
vn 0.1568 -0.9876 0.0000
vn 0.1570 -0.9876 0.0000
vn -0.1570 -0.9876 0.0000
vn -0.1568 -0.9876 0.0000
vn 0.1571 -0.9876 0.0000
vn -0.0002 -0.9298 -0.3680
vn 0.0000 -0.9298 -0.3680
vn 0.0002 -0.9298 -0.3680
vn -0.1569 -0.9876 -0.0000
vn -0.0259 -0.9806 0.1941
vn 0.9614 0.0000 -0.2753
vn 0.9142 0.0000 -0.4052
vn 0.0496 0.0000 -0.9988
vn -0.8320 0.0000 -0.5547
vn -0.8321 0.0000 -0.5547
vn 0.3930 -0.8978 0.1987
vn -0.0000 -0.9990 0.0443
vn -0.8320 0.0000 -0.5548
vn -0.8320 -0.0029 -0.5547
vn 0.3190 -0.9339 0.1613
vn 0.8924 0.0000 0.4512
vn 0.8926 0.0000 0.4509
vn 0.3190 0.9339 0.1613
vn -0.0000 -0.0592 0.9982
vn 0.0058 -0.9695 -0.2448
vn 0.0061 -0.9663 -0.2573
vn 0.0479 -0.9753 0.2156
vn 0.0349 0.0000 -0.9994
vn -0.6895 0.0000 -0.7243
vn -0.3405 0.9280 -0.1514
vn -0.3414 0.9277 -0.1512
vn -0.9950 0.0000 -0.1001
vn -0.7037 0.0000 -0.7105
vn -0.3143 -0.9436 0.1040
vn -0.3220 -0.9462 -0.0325
vn -0.9494 0.0000 0.3140
vn -0.9949 0.0000 -0.1005
vn -0.3221 -0.9462 -0.0325
vn -0.3352 0.9415 -0.0338
vn -0.6331 -0.0806 0.7699
vn -0.3356 0.9414 -0.0338
vn -0.3146 -0.9435 0.1040
vn -0.3274 0.9387 0.1081
vn 0.0085 -0.9699 -0.2433
vn -0.7322 0.0000 -0.6811
vn -0.3385 0.9372 0.0841
vn -0.6567 0.3451 0.6705
vn -0.6601 -0.2083 0.7218
vn -0.9495 0.0000 0.3136
vn -0.9494 0.0000 0.3141
vn -0.9949 0.0000 -0.1009
vn -0.3293 0.9302 0.1618
vn -0.3291 0.9303 0.1618
vn -0.3365 0.9379 0.0838
vn -0.3491 -0.9350 0.0621
vn -0.3507 -0.9344 0.0622
vn -0.3567 -0.9218 -0.1519
vn -0.3552 -0.9223 -0.1522
vn -0.6718 0.0000 0.7407
vn -0.0670 -0.9949 -0.0750
vn -0.0784 -0.9931 -0.0878
vn -0.3967 -0.9176 0.0259
vn -0.9494 -0.0000 0.3141
vn -0.3967 -0.8799 -0.2615
vn -0.3963 -0.8801 -0.2616
vn -0.7046 0.0000 0.7096
vn 0.8131 -0.5822 0.0000
vn -0.0000 -0.9448 0.3276
vn 0.5178 0.3314 0.7887
vn 0.4213 0.8816 0.2129
vn 0.4213 -0.8816 0.2129
vn 0.5384 0.0000 0.8427
vn 0.5190 -0.3431 0.7829
vn 0.3916 0.8986 0.1979
vn -0.0232 0.9101 0.4137
vn 0.4946 0.3569 0.7925
vn -0.0332 0.9144 0.4034
vn -0.0320 0.0000 0.9995
vn -0.0027 -0.9140 0.4057
vn -0.0214 0.9995 -0.0240
vn 0.0027 0.9934 -0.1146
vn -0.3566 0.9342 0.0109
vn -0.1635 0.9694 -0.1830
vn -0.0331 0.9142 0.4040
vn -0.6434 0.0000 0.7656
vn -0.6426 0.0903 0.7609
vn -0.0028 -0.9146 0.4043
vn -0.6337 -0.1149 0.7650
vn -0.0232 0.9098 0.4145
vn -0.6374 0.0000 0.7705
vn -0.6353 0.0742 0.7687
vn 0.0000 -0.9448 0.3276
vn 0.3532 0.9184 0.1785
vn 0.3534 0.9183 0.1785
vn 0.4639 0.5448 0.6985
vn 0.4953 -0.3605 0.7904
vn 0.5230 0.0000 0.8523
vn 0.3931 -0.8978 0.1987
vn -0.0230 -0.9994 0.0247
vn -0.0310 -0.9495 0.3124
vn -0.0310 -0.9495 0.3123
vn 0.3193 -0.9338 0.1614
vn -0.0319 0.0000 0.9995
vn 0.4236 -0.6632 0.6170
vn 0.0005 0.9498 0.3128
vn 0.5480 0.0000 0.8365
vn 0.4217 0.6790 0.6010
vn 0.4633 -0.5407 0.7021
vn -0.0218 -0.9344 0.3555
vn 0.5375 0.0000 0.8433
vn 0.3517 -0.9191 0.1777
vn 0.3193 0.9338 0.1614
vn 0.3516 -0.9192 0.1777
vn -0.0132 -0.9102 0.4139
vn -0.3272 0.9387 0.1081
vn -0.6524 0.2268 0.7232
vn -0.0114 0.9343 0.3563
vn -0.0114 0.9341 0.3570
vn -0.0132 -0.9100 0.4144
# 239 vertex normals

vt 0.2489 0.1857 0.0000
vt 0.2841 0.1857 0.0000
vt 0.2841 0.2368 0.0000
vt 0.2841 0.3024 0.0000
vt 0.2489 0.3249 0.0000
vt 0.2841 0.3249 0.0000
vt 0.3077 0.8506 0.0000
vt 0.2829 0.7349 0.0000
vt 0.3077 0.7583 0.0000
vt 0.4055 0.8506 0.0000
vt 0.4055 0.7583 0.0000
vt 0.4303 0.7349 0.0000
vt 0.4303 0.8740 0.0000
vt 0.2829 0.8740 0.0000
vt 0.2003 0.2908 0.0000
vt 0.2003 0.1517 0.0000
vt 0.2355 0.1517 0.0000
vt 0.2355 0.2908 0.0000
vt 0.1079 0.0010 0.0000
vt 0.6789 0.0010 0.0000
vt 0.6789 0.0116 0.0000
vt 0.4773 0.2942 0.0000
vt 0.9901 0.2586 0.0000
vt 0.9901 0.2942 0.0000
vt 0.4773 0.3748 0.0000
vt 0.4773 0.3412 0.0000
vt 0.9901 0.3748 0.0000
vt 0.4606 0.5502 0.0000
vt 0.4190 0.5502 0.0000
vt 0.4190 0.4578 0.0000
vt 0.4895 0.8549 0.0000
vt 0.4895 0.8659 0.0000
vt 0.4539 0.8549 0.0000
vt 0.4335 0.7349 0.0000
vt 0.4539 0.7540 0.0000
vt 0.4431 0.7877 0.0000
vt 0.4335 0.8740 0.0000
vt 0.4431 0.8212 0.0000
vt 0.4539 0.8212 0.0000
vt 0.3003 0.4530 0.0000
vt 0.3003 0.5508 0.0000
vt 0.2586 0.4530 0.0000
vt 0.4606 0.4578 0.0000
vt 0.9901 0.4157 0.0000
vt 0.4773 0.4157 0.0000
vt 0.4773 0.3801 0.0000
vt 0.4773 0.3231 0.0000
vt 0.9901 0.3120 0.0000
vt 0.9901 0.3231 0.0000
vt 0.5810 0.8740 0.0000
vt 0.5251 0.8659 0.0000
vt 0.5607 0.8549 0.0000
vt 0.5251 0.8549 0.0000
vt 0.7592 0.7640 0.0000
vt 0.7944 0.9115 0.0000
vt 0.7592 0.9115 0.0000
vt 0.7944 0.7640 0.0000
vt 0.5810 0.8229 0.0000
vt 0.5607 0.8229 0.0000
vt 0.5502 0.5016 0.0000
vt 0.6426 0.5016 0.0000
vt 0.6426 0.5433 0.0000
vt 0.5502 0.5433 0.0000
vt 0.1593 0.5168 0.0000
vt 0.1176 0.5168 0.0000
vt 0.1593 0.4190 0.0000
vt 0.1176 0.4190 0.0000
vt 0.5713 0.8212 0.0000
vt 0.5713 0.7877 0.0000
vt 0.5607 0.7573 0.0000
vt 0.5810 0.7573 0.0000
vt 0.5607 0.8212 0.0000
vt 0.5607 0.7877 0.0000
vt 0.1079 0.0116 0.0000
vt 0.0548 0.2345 0.0000
vt 0.0793 0.3663 0.0000
vt 0.0150 0.8041 0.0000
vt 0.9910 0.1998 0.0000
vt 0.4782 0.1998 0.0000
vt 0.9910 0.1679 0.0000
vt 0.2586 0.5508 0.0000
vt 0.2538 0.5508 0.0000
vt 0.1614 0.5508 0.0000
vt 0.2538 0.4530 0.0000
vt 0.1614 0.4530 0.0000
vt 0.5210 0.4293 0.0000
vt 0.5510 0.4190 0.0000
vt 0.9922 0.4293 0.0000
vt 0.4895 0.7437 0.0000
vt 0.4895 0.7540 0.0000
vt 0.5251 0.7437 0.0000
vt 0.5810 0.7349 0.0000
vt 0.5607 0.7540 0.0000
vt 0.5251 0.7540 0.0000
vt 0.2100 0.1128 0.0000
vt 0.3574 0.1128 0.0000
vt 0.2100 0.1481 0.0000
vt 0.3574 0.1481 0.0000
vt 0.0453 0.8062 0.0000
vt 0.4539 0.7877 0.0000
vt 0.4670 0.4543 0.0000
vt 0.3266 0.4543 0.0000
vt 0.4444 0.4330 0.0000
vt 0.3492 0.4330 0.0000
vt 0.3492 0.3430 0.0000
vt 0.3266 0.3218 0.0000
vt 0.4444 0.3430 0.0000
vt 0.4670 0.3218 0.0000
vt 0.1673 0.8728 0.0000
vt 0.0593 0.8728 0.0000
vt 0.0593 0.6911 0.0000
vt 0.1673 0.6911 0.0000
vt 0.0836 0.5204 0.0000
vt 0.0836 0.3801 0.0000
vt 0.1122 0.5204 0.0000
vt 0.7227 0.5550 0.0000
vt 0.7227 0.5854 0.0000
vt 0.6328 0.5550 0.0000
vt 0.4073 0.5222 0.0000
vt 0.3120 0.5222 0.0000
vt 0.4073 0.4919 0.0000
vt 0.9557 0.1377 0.0000
vt 0.9557 0.1041 0.0000
vt 0.9909 0.1377 0.0000
vt 0.2076 0.3120 0.0000
vt 0.1176 0.4073 0.0000
vt 0.1176 0.3120 0.0000
vt 0.1625 0.1711 0.0000
vt 0.1625 0.2779 0.0000
vt 0.1274 0.2779 0.0000
vt 0.0739 0.6778 0.0000
vt 0.0739 0.5307 0.0000
vt 0.0936 0.6576 0.0000
vt 0.3218 0.7225 0.0000
vt 0.3218 0.6085 0.0000
vt 0.4297 0.6085 0.0000
vt 0.6328 0.5854 0.0000
vt 0.4378 0.3182 0.0000
vt 0.4210 0.3023 0.0000
vt 0.4378 0.1857 0.0000
vt 0.1365 0.1578 0.0000
vt 0.1079 0.1578 0.0000
vt 0.1079 0.0253 0.0000
vt 0.1272 0.5507 0.0000
vt 0.0936 0.5507 0.0000
vt 0.1272 0.5307 0.0000
vt 0.7222 0.5320 0.0000
vt 0.7148 0.5405 0.0000
vt 0.6888 0.5430 0.0000
vt 0.7204 0.7414 0.0000
vt 0.7204 0.7586 0.0000
vt 0.7065 0.7418 0.0000
vt 0.7065 0.7602 0.0000
vt 0.7119 0.7621 0.0000
vt 0.4073 0.4578 0.0000
vt 0.4073 0.4882 0.0000
vt 0.3120 0.4578 0.0000
vt 0.1274 0.1711 0.0000
vt 0.0035 0.0059 0.0000
vt 0.0345 0.0433 0.0000
vt 0.0010 0.0409 0.0000
vt 0.1272 0.6778 0.0000
vt 0.7446 0.4481 0.0000
vt 0.7761 0.4677 0.0000
vt 0.7446 0.5952 0.0000
vt 0.2975 0.3182 0.0000
vt 0.3142 0.3023 0.0000
vt 0.5502 0.5872 0.0000
vt 0.5555 0.5809 0.0000
vt 0.6101 0.5853 0.0000
vt 0.6228 0.7674 0.0000
vt 0.6311 0.7640 0.0000
vt 0.6068 0.8189 0.0000
vt 0.1122 0.3801 0.0000
vt 0.3120 0.4882 0.0000
vt 0.6207 0.5757 0.0000
vt 0.5307 0.5453 0.0000
vt 0.6207 0.5453 0.0000
vt 0.4297 0.7225 0.0000
vt 0.4190 0.1625 0.0000
vt 0.4190 0.1517 0.0000
vt 0.9899 0.1625 0.0000
vt 0.9899 0.1517 0.0000
vt 0.7761 0.5757 0.0000
vt 0.7518 0.0739 0.0000
vt 0.6937 0.1075 0.0000
vt 0.1808 0.0739 0.0000
vt 0.1808 0.1075 0.0000
vt 0.9578 0.4677 0.0000
vt 0.4773 0.3374 0.0000
vt 0.9901 0.3266 0.0000
vt 0.9901 0.3374 0.0000
vt 0.9901 0.3412 0.0000
vt 0.4773 0.3085 0.0000
vt 0.4773 0.2975 0.0000
vt 0.9901 0.3085 0.0000
vt 0.9901 0.2975 0.0000
vt 0.9901 0.3801 0.0000
vt 0.4773 0.3120 0.0000
vt 0.4773 0.2586 0.0000
vt 0.1272 0.6576 0.0000
vt 0.4773 0.2197 0.0000
vt 0.9901 0.2197 0.0000
vt 0.4773 0.2553 0.0000
vt 0.3704 0.1128 0.0000
vt 0.9413 0.1128 0.0000
vt 0.4285 0.1464 0.0000
vt 0.2975 0.1857 0.0000
vt 0.9910 0.2051 0.0000
vt 0.9910 0.2157 0.0000
vt 0.4782 0.2051 0.0000
vt 0.4481 0.2157 0.0000
vt 0.1040 0.0129 0.0000
vt 0.2076 0.4073 0.0000
vt 0.3120 0.4919 0.0000
vt 0.5307 0.5757 0.0000
vt 0.4770 0.9567 0.0000
vt 0.0059 0.9567 0.0000
vt 0.0059 0.9211 0.0000
vt 0.5210 0.4335 0.0000
vt 0.9922 0.4335 0.0000
vt 0.5510 0.4439 0.0000
vt 0.5877 0.6467 0.0000
vt 0.5643 0.5988 0.0000
vt 0.5930 0.6397 0.0000
vt 0.5934 0.6143 0.0000
vt 0.5960 0.6226 0.0000
vt 0.5959 0.6314 0.0000
vt 0.4471 0.9567 0.0000
vt 0.0059 0.9923 0.0000
vt 0.4471 0.9923 0.0000
vt 0.0059 0.8855 0.0000
vt 0.4471 0.8855 0.0000
vt 0.4471 0.9211 0.0000
vt 0.5480 0.6460 0.0000
vt 0.5805 0.6518 0.0000
vt 0.5551 0.6513 0.0000
vt 0.5721 0.6543 0.0000
vt 0.5634 0.6542 0.0000
vt 0.1954 0.0705 0.0000
vt 0.1954 0.0369 0.0000
vt 0.6366 0.0369 0.0000
vt 0.7663 0.0705 0.0000
vt 0.5430 0.6389 0.0000
vt 0.5405 0.6305 0.0000
vt 0.5406 0.6217 0.0000
vt 0.5435 0.6134 0.0000
vt 0.5487 0.6064 0.0000
vt 0.5559 0.6013 0.0000
vt 0.5731 0.5989 0.0000
vt 0.5814 0.6018 0.0000
vt 0.5884 0.6071 0.0000
vt 0.7204 0.8593 0.0000
vt 0.6574 0.8515 0.0000
vt 0.7204 0.8515 0.0000
vt 0.6035 0.4537 0.0000
vt 0.6031 0.4545 0.0000
vt 0.5405 0.4537 0.0000
vt 0.6038 0.4991 0.0000
vt 0.5405 0.4991 0.0000
vt 0.5405 0.4929 0.0000
vt 0.6571 0.7718 0.0000
vt 0.6571 0.7640 0.0000
vt 0.7204 0.7640 0.0000
vt 0.7204 0.8029 0.0000
vt 0.6571 0.8091 0.0000
vt 0.6571 0.8029 0.0000
vt 0.4210 0.2015 0.0000
vt 0.3142 0.2015 0.0000
vt 0.4087 0.1517 0.0000
vt 0.4087 0.1803 0.0000
vt 0.2683 0.1803 0.0000
vt 0.2683 0.1517 0.0000
vt 0.1365 0.0253 0.0000
vt 0.1711 0.8725 0.0000
vt 0.1711 0.7106 0.0000
vt 0.2779 0.8725 0.0000
vt 0.9909 0.0369 0.0000
vt 0.1705 0.0253 0.0000
vt 0.1705 0.1578 0.0000
vt 0.1419 0.0253 0.0000
vt 0.1419 0.1578 0.0000
vt 0.8078 0.7640 0.0000
vt 0.9894 0.7640 0.0000
vt 0.8078 0.8780 0.0000
vt 0.9894 0.8780 0.0000
vt 0.3180 0.5842 0.0000
vt 0.3180 0.6982 0.0000
vt 0.2100 0.5842 0.0000
vt 0.9894 0.8807 0.0000
vt 0.8078 0.9946 0.0000
vt 0.8078 0.8807 0.0000
vt 0.7446 0.7007 0.0000
vt 0.7446 0.6474 0.0000
vt 0.9920 0.7007 0.0000
vt 0.8027 0.6231 0.0000
vt 0.9920 0.6231 0.0000
vt 0.8027 0.6339 0.0000
vt 0.9578 0.5757 0.0000
vt 0.9920 0.5952 0.0000
vt 0.9920 0.6431 0.0000
vt 0.5303 0.5793 0.0000
vt 0.5303 0.5901 0.0000
vt 0.4967 0.5901 0.0000
vt 0.4967 0.5793 0.0000
vt 0.8290 0.0369 0.0000
vt 0.7663 0.1041 0.0000
vt 0.8027 0.6191 0.0000
vt 0.8027 0.6085 0.0000
vt 0.9920 0.6191 0.0000
vt 0.9920 0.5988 0.0000
vt 0.9894 0.9946 0.0000
vt 0.2634 0.4441 0.0000
vt 0.2634 0.4335 0.0000
vt 0.2970 0.4335 0.0000
vt 0.2970 0.4441 0.0000
vt 0.7746 0.6085 0.0000
vt 0.7446 0.5988 0.0000
vt 0.9920 0.4481 0.0000
vt 0.3984 0.1464 0.0000
vt 0.3704 0.1464 0.0000
vt 0.0927 0.1744 0.0000
vt 0.0213 0.2322 0.0000
vt 0.2100 0.6982 0.0000
vt 0.6920 0.0010 0.0000
vt 0.6920 0.0027 0.0000
vt 0.6814 0.0027 0.0000
vt 0.6814 0.0010 0.0000
vt 0.6375 0.8820 0.0000
vt 0.5842 0.8820 0.0000
vt 0.6039 0.8620 0.0000
vt 0.4773 0.3266 0.0000
vt 0.6375 0.8728 0.0000
vt 0.6375 0.8620 0.0000
vt 0.9920 0.6474 0.0000
vt 0.7446 0.6431 0.0000
vt 0.7446 0.6339 0.0000
vt 0.7518 0.1075 0.0000
vt 0.5928 0.8264 0.0000
vt 0.6039 0.8264 0.0000
vt 0.5842 0.7349 0.0000
vt 0.5928 0.7907 0.0000
vt 0.6039 0.7552 0.0000
vt 0.6039 0.7907 0.0000
vt 0.7446 0.7590 0.0000
vt 0.7446 0.7057 0.0000
vt 0.9920 0.7590 0.0000
vt 0.9901 0.2553 0.0000
vt 0.6358 0.7552 0.0000
vt 0.6358 0.7446 0.0000
vt 0.4481 0.1662 0.0000
vt 0.9910 0.1662 0.0000
vt 0.4782 0.1679 0.0000
vt 0.4967 0.6231 0.0000
vt 0.5073 0.6231 0.0000
vt 0.5073 0.6531 0.0000
vt 0.4967 0.6531 0.0000
vt 0.6375 0.7446 0.0000
vt 0.6375 0.7349 0.0000
vt 0.9920 0.7057 0.0000
vt 0.7446 0.6085 0.0000
vt 0.9885 0.9973 0.0000
vt 0.9885 0.9990 0.0000
vt 0.9584 0.9990 0.0000
vt 0.9584 0.9973 0.0000
vt 0.9413 0.1464 0.0000
vt 0.4481 0.2051 0.0000
vt 0.4481 0.1679 0.0000
vt 0.4774 0.4794 0.0000
vt 0.4735 0.4872 0.0000
vt 0.4650 0.4739 0.0000
vt 0.1699 0.6916 0.0000
vt 0.1714 0.6491 0.0000
vt 0.1995 0.6926 0.0000
vt 0.2059 0.6897 0.0000
vt 0.2010 0.6501 0.0000
vt 0.2073 0.6502 0.0000
vt 0.6820 0.6377 0.0000
vt 0.6820 0.7269 0.0000
vt 0.6425 0.6533 0.0000
vt 0.2079 0.6079 0.0000
vt 0.2016 0.6046 0.0000
vt 0.5357 0.6474 0.0000
vt 0.5307 0.6510 0.0000
vt 0.5357 0.6315 0.0000
vt 0.5307 0.6279 0.0000
vt 0.5790 0.9891 0.0000
vt 0.5560 0.9891 0.0000
vt 0.5757 0.9827 0.0000
vt 0.7201 0.8483 0.0000
vt 0.6571 0.8483 0.0000
vt 0.7198 0.8476 0.0000
vt 0.6571 0.8767 0.0000
vt 0.7204 0.8767 0.0000
vt 0.6571 0.8834 0.0000
vt 0.6574 0.8845 0.0000
vt 0.7204 0.8680 0.0000
vt 0.6571 0.8680 0.0000
vt 0.5405 0.4599 0.0000
vt 0.6063 0.4481 0.0000
vt 0.6458 0.4481 0.0000
vt 0.6456 0.4545 0.0000
vt 0.7243 0.6396 0.0000
vt 0.6425 0.7113 0.0000
vt 0.5558 0.7203 0.0000
vt 0.5645 0.7217 0.0000
vt 0.5472 0.7217 0.0000
vt 0.5712 0.7251 0.0000
vt 0.5405 0.7251 0.0000
vt 0.7204 0.8845 0.0000
vt 0.6571 0.8593 0.0000
vt 0.6571 0.8526 0.0000
vt 0.5252 0.4676 0.0000
vt 0.5155 0.4726 0.0000
vt 0.4848 0.4726 0.0000
vt 0.4672 0.4676 0.0000
vt 0.4829 0.4739 0.0000
vt 0.4836 0.4732 0.0000
vt 0.5166 0.4732 0.0000
vt 0.5274 0.4739 0.0000
vt 0.5173 0.4739 0.0000
vt 0.4919 0.7098 0.0000
vt 0.4919 0.6863 0.0000
vt 0.5083 0.7098 0.0000
vt 0.4436 0.6121 0.0000
vt 0.4384 0.6088 0.0000
vt 0.4384 0.5924 0.0000
vt 0.4436 0.5891 0.0000
vt 0.4903 0.9827 0.0000
vt 0.5330 0.9891 0.0000
vt 0.7243 0.7250 0.0000
vt 0.2060 0.1407 0.0000
vt 0.2003 0.1381 0.0000
vt 0.2060 0.1176 0.0000
vt 0.2003 0.1202 0.0000
vt 0.5799 0.7238 0.0000
vt 0.5745 0.7209 0.0000
vt 0.5799 0.7008 0.0000
vt 0.5745 0.7037 0.0000
vt 0.4870 0.9891 0.0000
vt 0.5100 0.9891 0.0000
vt 0.6881 0.4490 0.0000
vt 0.6912 0.4554 0.0000
vt 0.7198 0.8343 0.0000
vt 0.6571 0.8343 0.0000
vt 0.7198 0.8256 0.0000
vt 0.6571 0.8256 0.0000
vt 0.6571 0.8421 0.0000
vt 0.7198 0.8421 0.0000
vt 0.6571 0.8169 0.0000
vt 0.7198 0.8180 0.0000
vt 0.4721 0.4959 0.0000
vt 0.4733 0.5035 0.0000
vt 0.4650 0.5035 0.0000
vt 0.6735 0.9691 0.0000
vt 0.6673 0.9629 0.0000
vt 0.6816 0.9585 0.0000
vt 0.7204 0.8169 0.0000
vt 0.7204 0.8091 0.0000
vt 0.7204 0.8172 0.0000
vt 0.4734 0.5043 0.0000
vt 0.4842 0.5276 0.0000
vt 0.4335 0.7250 0.0000
vt 0.4335 0.6182 0.0000
vt 0.4646 0.6405 0.0000
vt 0.2365 0.3132 0.0000
vt 0.2412 0.3120 0.0000
vt 0.2412 0.3132 0.0000
vt 0.1764 0.6439 0.0000
vt 0.1716 0.6437 0.0000
vt 0.2159 0.3433 0.0000
vt 0.2100 0.4069 0.0000
vt 0.2151 0.3433 0.0000
vt 0.6268 0.7987 0.0000
vt 0.6242 0.7966 0.0000
vt 0.6254 0.7843 0.0000
vt 0.4646 0.7028 0.0000
vt 0.2100 0.3194 0.0000
vt 0.2100 0.3120 0.0000
vt 0.2129 0.3180 0.0000
vt 0.1481 0.6432 0.0000
vt 0.1502 0.6446 0.0000
vt 0.1451 0.6432 0.0000
vt 0.2151 0.3407 0.0000
vt 0.5018 0.5939 0.0000
vt 0.5244 0.5961 0.0000
vt 0.5010 0.5961 0.0000
vt 0.4967 0.6174 0.0000
vt 0.5283 0.6174 0.0000
vt 0.5271 0.5969 0.0000
vt 0.6144 0.9233 0.0000
vt 0.6403 0.9078 0.0000
vt 0.6144 0.9546 0.0000
vt 0.1465 0.6721 0.0000
vt 0.1253 0.6445 0.0000
vt 0.1452 0.6412 0.0000
vt 0.2779 0.7106 0.0000
vt 0.6403 0.9701 0.0000
vt 0.2634 0.4265 0.0000
vt 0.2635 0.4191 0.0000
vt 0.2654 0.4195 0.0000
vt 0.3153 0.4301 0.0000
vt 0.5366 0.9078 0.0000
vt 0.5625 0.9233 0.0000
vt 0.1350 0.6343 0.0000
vt 0.2671 0.3960 0.0000
vt 0.4246 0.6016 0.0000
vt 0.4141 0.6028 0.0000
vt 0.4246 0.5833 0.0000
vt 0.4141 0.5793 0.0000
vt 0.5625 0.9546 0.0000
vt 0.2003 0.5726 0.0000
vt 0.2121 0.5696 0.0000
vt 0.2522 0.5726 0.0000
vt 0.2523 0.5714 0.0000
vt 0.1778 0.6037 0.0000
vt 0.2004 0.5696 0.0000
vt 0.5366 0.9701 0.0000
vt 0.1782 0.5921 0.0000
vt 0.1843 0.0601 0.0000
vt 0.1760 0.0362 0.0000
vt 0.1914 0.0601 0.0000
vt 0.5842 0.7235 0.0000
vt 0.5842 0.7008 0.0000
vt 0.6000 0.7235 0.0000
vt 0.1961 0.5766 0.0000
vt 0.2068 0.5996 0.0000
vt 0.5167 0.5336 0.0000
vt 0.5230 0.5053 0.0000
vt 0.5234 0.5316 0.0000
vt 0.1460 0.5899 0.0000
vt 0.1862 0.5711 0.0000
vt 0.1648 0.5897 0.0000
vt 0.3150 0.5571 0.0000
vt 0.3120 0.5571 0.0000
vt 0.3150 0.5449 0.0000
vt 0.3120 0.5259 0.0000
vt 0.1660 0.5916 0.0000
vt 0.1238 0.1757 0.0000
vt 0.1165 0.2791 0.0000
vt 0.4339 0.5888 0.0000
vt 0.4627 0.5550 0.0000
vt 0.4858 0.5580 0.0000
vt 0.4627 0.5683 0.0000
vt 0.0342 0.8748 0.0000
vt 0.0409 0.8607 0.0000
vt 0.0409 0.8740 0.0000
vt 0.1297 0.6333 0.0000
vt 0.1159 0.6333 0.0000
vt 0.1139 0.6040 0.0000
vt 0.1094 0.6266 0.0000
vt 0.1391 0.6042 0.0000
vt 0.1079 0.6034 0.0000
vt 0.1176 0.5773 0.0000
vt 0.5123 0.5772 0.0000
vt 0.4858 0.5741 0.0000
vt 0.5123 0.5595 0.0000
vt 0.2479 0.3430 0.0000
vt 0.2563 0.3363 0.0000
vt 0.2452 0.3698 0.0000
vt 0.2391 0.3695 0.0000
vt 0.6572 0.9701 0.0000
vt 0.6522 0.9427 0.0000
vt 0.6583 0.9432 0.0000
vt 0.6578 0.9201 0.0000
vt 0.6646 0.9779 0.0000
vt 0.6653 0.9147 0.0000
vt 0.6633 0.9377 0.0000
vt 0.6620 0.9464 0.0000
vt 0.6673 0.9299 0.0000
vt 0.6735 0.9237 0.0000
vt 0.6038 0.4764 0.0000
vt 0.6038 0.4799 0.0000
vt 0.5405 0.4764 0.0000
vt 0.5405 0.4851 0.0000
vt 0.6038 0.4929 0.0000
vt 0.6038 0.4851 0.0000
vt 0.7204 0.7718 0.0000
vt 0.6571 0.7805 0.0000
vt 0.7204 0.7805 0.0000
vt 0.7204 0.7892 0.0000
vt 0.2150 0.3433 0.0000
vt 0.2100 0.3434 0.0000
vt 0.2365 0.4039 0.0000
vt 0.2644 0.3315 0.0000
vt 0.2638 0.3951 0.0000
vt 0.6467 0.8172 0.0000
vt 0.6237 0.8027 0.0000
vt 0.6469 0.8469 0.0000
vt 0.6465 0.8473 0.0000
vt 0.6813 0.9197 0.0000
vt 0.6824 0.9585 0.0000
vt 0.6571 0.7892 0.0000
vt 0.7204 0.7970 0.0000
vt 0.6571 0.7970 0.0000
vt 0.4794 0.5497 0.0000
vt 0.4627 0.5276 0.0000
vt 0.4638 0.5497 0.0000
vt 0.6232 0.8034 0.0000
vt 0.6134 0.8217 0.0000
vt 0.6633 0.9551 0.0000
vt 0.6813 0.9731 0.0000
vt 0.6816 0.9731 0.0000
vt 0.4880 0.5043 0.0000
vt 0.5267 0.7189 0.0000
vt 0.5214 0.6282 0.0000
vt 0.5267 0.6595 0.0000
vt 0.5267 0.6279 0.0000
vt 0.6031 0.4599 0.0000
vt 0.5405 0.4678 0.0000
vt 0.6031 0.4678 0.0000
vt 0.6031 0.4714 0.0000
vt 0.6038 0.4730 0.0000
vt 0.6031 0.4840 0.0000
vt 0.6031 0.4815 0.0000
vt 0.5228 0.4794 0.0000
vt 0.5268 0.4872 0.0000
vt 0.5274 0.4908 0.0000
vt 0.2417 0.3218 0.0000
vt 0.2417 0.3222 0.0000
vt 0.2391 0.3218 0.0000
vt 0.5307 0.4724 0.0000
vt 0.5313 0.4759 0.0000
vt 0.5307 0.4793 0.0000
vt 0.6456 0.4840 0.0000
vt 0.6824 0.9195 0.0000
vt 0.6821 0.9585 0.0000
vt 0.6038 0.4840 0.0000
vt 0.2365 0.4069 0.0000
vt 0.6866 0.9810 0.0000
vt 0.7131 0.9812 0.0000
vt 0.6866 0.9812 0.0000
vt 0.5267 0.7240 0.0000
vt 0.5269 0.7218 0.0000
vt 0.5686 0.7068 0.0000
vt 0.5686 0.6678 0.0000
vt 0.5693 0.7068 0.0000
vt 0.5693 0.7072 0.0000
vt 0.5267 0.7218 0.0000
vt 0.6464 0.8475 0.0000
vt 0.7110 0.6329 0.0000
vt 0.6440 0.6329 0.0000
vt 0.7183 0.6036 0.0000
vt 0.7222 0.5891 0.0000
vt 0.6328 0.5891 0.0000
vt 0.6366 0.6036 0.0000
vt 0.2521 0.4238 0.0000
vt 0.1614 0.4425 0.0000
vt 0.1627 0.4238 0.0000
vt 0.2534 0.4425 0.0000
vt 0.4676 0.6300 0.0000
vt 0.4695 0.6300 0.0000
vt 0.4676 0.7220 0.0000
vt 0.4749 0.7218 0.0000
vt 0.5415 0.5267 0.0000
vt 0.5345 0.5271 0.0000
vt 0.5259 0.5023 0.0000
vt 0.6863 0.9355 0.0000
vt 0.4812 0.7220 0.0000
vt 0.6912 0.4837 0.0000
vt 0.7131 0.9293 0.0000
vt 0.6904 0.9293 0.0000
vt 0.4812 0.7218 0.0000
vt 0.7205 0.4626 0.0000
vt 0.6949 0.4497 0.0000
vt 0.3752 0.5972 0.0000
vt 0.3752 0.5793 0.0000
vt 0.4008 0.5972 0.0000
vt 0.4008 0.5793 0.0000
vt 0.4919 0.6571 0.0000
vt 0.5091 0.6571 0.0000
vt 0.4919 0.6818 0.0000
vt 0.6268 0.6183 0.0000
vt 0.6195 0.5890 0.0000
vt 0.6325 0.6146 0.0000
vt 0.4069 0.5486 0.0000
vt 0.4069 0.5259 0.0000
vt 0.3163 0.3351 0.0000
vt 0.6600 0.5263 0.0000
vt 0.6894 0.5179 0.0000
vt 0.7039 0.5114 0.0000
vt 0.4339 0.6044 0.0000
vt 0.6395 0.7835 0.0000
vt 0.0204 0.8748 0.0000
vt 0.0342 0.8580 0.0000
vt 0.0342 0.8413 0.0000
vt 0.0409 0.8433 0.0000
vt 0.0409 0.8566 0.0000
vt 0.2415 0.3927 0.0000
vt 0.2481 0.3990 0.0000
vt 0.0204 0.8078 0.0000
vt 0.0342 0.8245 0.0000
vt 0.3447 0.5808 0.0000
vt 0.3447 0.5969 0.0000
vt 0.3218 0.5837 0.0000
vt 0.0409 0.8260 0.0000
vt 0.0409 0.8391 0.0000
vt 0.6348 0.9859 0.0000
vt 0.6073 0.9909 0.0000
vt 0.6079 0.9848 0.0000
vt 0.5847 0.9853 0.0000
vt 0.7526 0.9524 0.0000
vt 0.7526 0.9789 0.0000
vt 0.7364 0.9524 0.0000
vt 0.7349 0.9789 0.0000
vt 0.7526 0.9293 0.0000
vt 0.7393 0.9293 0.0000
vt 0.5793 0.9779 0.0000
vt 0.4942 0.5334 0.0000
vt 0.4979 0.5107 0.0000
vt 0.5008 0.5400 0.0000
vt 0.6315 0.6412 0.0000
vt 0.6287 0.6486 0.0000
vt 0.6294 0.6328 0.0000
vt 0.4919 0.5104 0.0000
vt 0.6425 0.9786 0.0000
vt 0.5005 0.4842 0.0000
vt 0.3218 0.5969 0.0000
vt 0.6595 0.5401 0.0000
vt 0.0342 0.8078 0.0000
vt 0.0408 0.8215 0.0000
vt 0.0408 0.8086 0.0000
vt 0.1773 0.1517 0.0000
vt 0.1744 0.1225 0.0000
vt 0.1810 0.1296 0.0000
vt 0.7119 0.7397 0.0000
vt 0.1863 0.2100 0.0000
vt 0.1859 0.1954 0.0000
vt 0.1886 0.2038 0.0000
vt 0.3709 0.5969 0.0000
vt 0.3709 0.5793 0.0000
vt 0.7313 0.9567 0.0000
vt 0.7157 0.9551 0.0000
vt 0.7325 0.9311 0.0000
vt 0.7317 0.9794 0.0000
vt 0.7189 0.9780 0.0000
vt 0.1832 0.1521 0.0000
vt 0.1748 0.1777 0.0000
vt 0.1662 0.1852 0.0000
vt 0.6475 0.9699 0.0000
vt 0.6485 0.9432 0.0000
vt 0.6548 0.9779 0.0000
vt 0.6425 0.9427 0.0000
vt 0.6480 0.9203 0.0000
vt 0.6555 0.9147 0.0000
vt 0.1686 0.2100 0.0000
vt 0.7048 0.4927 0.0000
vt 0.6891 0.5490 0.0000
vt 0.7154 0.9293 0.0000
vt 0.6667 0.5467 0.0000
vt 0.7262 0.0059 0.0000
vt 0.8298 0.0059 0.0000
vt 0.7773 0.9931 0.0000
vt 0.7737 0.9830 0.0000
vt 0.7766 0.9758 0.0000
vt 0.1793 0.0253 0.0000
vt 0.6000 0.7008 0.0000
vt 0.7932 0.9931 0.0000
vt 0.7941 0.9758 0.0000
vt 0.7968 0.9830 0.0000
vt 0.5083 0.6863 0.0000
vt 0.5162 0.4967 0.0000
vt 0.3741 0.5565 0.0000
vt 0.3290 0.5564 0.0000
vt 0.3218 0.5502 0.0000
vt 0.6118 0.7110 0.0000
vt 0.6085 0.7011 0.0000
vt 0.6114 0.6937 0.0000
vt 0.1336 0.5648 0.0000
vt 0.1792 0.5649 0.0000
vt 0.7946 0.9302 0.0000
vt 0.7776 0.9302 0.0000
vt 0.1876 0.1176 0.0000
vt 0.1935 0.1249 0.0000
vt 0.1921 0.1704 0.0000
vt 0.4770 0.9211 0.0000
vt 0.1262 0.5709 0.0000
vt 0.7959 0.9147 0.0000
vt 0.7782 0.9147 0.0000
vt 0.7751 0.9230 0.0000
vt 0.1857 0.1776 0.0000
vt 0.7974 0.9230 0.0000
vt 0.6287 0.6937 0.0000
vt 0.6119 0.6486 0.0000
vt 0.3817 0.5504 0.0000
vt 0.6117 0.6328 0.0000
vt 0.6092 0.6412 0.0000
vt 0.9922 0.4190 0.0000
vt 0.9922 0.4439 0.0000
vt 0.0485 0.8064 0.0000
vt 0.6004 0.5950 0.0000
vt 0.6101 0.5992 0.0000
vt 0.6171 0.6280 0.0000
vt 0.6225 0.6238 0.0000
vt 0.1662 0.2638 0.0000
vt 0.1686 0.2575 0.0000
vt 0.1691 0.2734 0.0000
vt 0.6315 0.7011 0.0000
vt 0.6282 0.7110 0.0000
vt 0.5294 0.4919 0.0000
vt 0.7241 0.4720 0.0000
vt 0.7301 0.4774 0.0000
vt 0.7286 0.5266 0.0000
vt 0.6573 0.7423 0.0000
vt 0.6425 0.7608 0.0000
vt 0.6573 0.7612 0.0000
vt 0.6519 0.7634 0.0000
vt 0.6048 0.5793 0.0000
vt 0.6425 0.7430 0.0000
vt 0.6519 0.7404 0.0000
vt 0.1892 0.2638 0.0000
vt 0.1864 0.2734 0.0000
vt 0.1868 0.2575 0.0000
vt 0.6036 0.8109 0.0000
vt 0.5091 0.6818 0.0000
vt 0.6071 0.8294 0.0000
vt 0.6311 0.8467 0.0000
vt 0.6253 0.8502 0.0000
vt 0.5079 0.4896 0.0000
vt 0.5124 0.5421 0.0000
vt 0.5064 0.5347 0.0000
vt 0.5089 0.4773 0.0000
vt 0.1684 0.1954 0.0000
vt 0.1662 0.2038 0.0000
vt 0.5467 0.5906 0.0000
vt 0.5942 0.5891 0.0000
vt 0.5405 0.5969 0.0000
vt 0.5143 0.4821 0.0000
# 828 texture coords

o Bazooka
g Bazooka
s off
f 1/1/1 2/2/1 3/3/1 
f 4/4/1 5/5/1 3/3/1 
f 1/1/1 3/3/1 5/5/1 
f 6/6/1 5/5/1 4/4/1 
f 7/7/2 8/8/2 9/9/2 
f 10/10/2 11/11/2 1/12/2 
f 8/8/2 1/12/2 11/11/2 
f 9/9/2 8/8/2 11/11/2 
f 10/10/2 1/12/2 5/13/2 
f 10/10/2 5/13/2 7/7/2 
f 5/13/2 12/14/2 7/7/2 
f 8/8/2 7/7/2 12/14/2 
f 13/15/3 14/16/3 8/17/3 
f 12/18/3 13/15/3 8/17/3 
f 15/19/4 16/20/4 17/21/4 
f 18/22/5 19/23/5 20/24/5 
f 20/25/3 21/26/3 18/27/3 
f 9/28/1 22/29/1 23/30/1 
f 19/31/6 24/32/6 20/33/6 
f 13/34/6 25/35/6 26/36/6 
f 20/33/6 14/37/6 27/38/6 
f 13/34/6 26/36/6 14/37/6 
f 27/38/6 14/37/6 26/36/6 
f 27/38/6 21/39/6 20/33/6 
f 10/40/5 7/41/5 28/42/5 
f 23/30/1 7/43/1 9/28/1 
f 29/44/5 30/45/5 24/46/5 
f 29/47/1 31/48/1 30/49/1 
f 2/50/6 14/37/6 24/32/6 
f 14/37/6 20/33/6 24/32/6 
f 24/32/6 30/51/6 2/50/6 
f 30/51/6 32/52/6 2/50/6 
f 31/53/6 32/52/6 30/51/6 
f 8/54/5 2/55/5 1/56/5 
f 14/57/5 2/55/5 8/54/5 
f 2/50/6 32/52/6 3/58/6 
f 33/59/6 3/58/6 32/52/6 
f 11/60/3 10/61/3 28/62/3 
f 11/60/3 28/62/3 34/63/3 
f 22/64/4 9/65/4 34/66/4 
f 11/67/4 34/66/4 9/65/4 
f 3/58/6 33/59/6 35/68/6 
f 3/58/6 35/68/6 15/69/6 
f 36/70/6 4/71/6 15/69/6 
f 3/58/6 15/69/6 4/71/6 
f 33/59/6 37/72/6 35/68/6 
f 38/73/6 36/70/6 15/69/6 
f 38/74/4 15/19/4 17/21/4 
f 17/75/1 39/76/1 38/77/1 
f 32/78/1 40/79/1 33/80/1 
f 23/81/5 28/42/5 7/41/5 
f 23/82/2 22/83/2 28/84/2 
f 22/83/2 34/85/2 28/84/2 
f 41/86/3 42/87/3 43/88/3 
f 43/89/6 25/35/6 13/34/6 
f 44/90/6 25/35/6 43/89/6 
f 43/89/6 13/34/6 45/91/6 
f 13/34/6 6/92/6 45/91/6 
f 6/92/6 46/93/6 45/91/6 
f 47/94/6 45/91/6 46/93/6 
f 6/95/4 13/96/4 5/97/4 
f 12/98/4 5/97/4 13/96/4 
f 36/99/1 38/77/1 39/76/1 
f 6/92/6 4/71/6 46/93/6 
f 36/70/6 46/93/6 4/71/6 
f 48/100/6 26/36/6 25/35/6 
f 49/101/6 50/102/6 51/103/6 
f 52/104/6 51/103/6 50/102/6 
f 53/105/7 52/104/7 50/102/7 
f 50/102/6 54/106/6 53/105/6 
f 55/107/8 49/101/8 51/103/8 
f 49/101/6 55/107/6 56/108/6 
f 54/106/6 56/108/6 55/107/6 
f 55/107/6 53/105/6 54/106/6 
f 57/109/5 58/110/5 59/111/5 
f 59/111/5 60/112/5 57/109/5 
f 50/113/5 49/114/5 61/115/5 
f 53/116/1 62/117/1 52/118/1 
f 53/119/5 55/120/5 62/121/5 
f 63/122/3 64/123/3 65/124/3 
f 62/125/7 66/126/7 67/127/7 
f 68/128/5 63/129/5 65/130/5 
f 69/131/6 70/132/6 68/133/6 
f 57/134/7 71/135/7 72/136/7 
f 67/137/1 52/118/1 62/117/1 
f 61/138/2 65/139/2 73/140/2 
f 50/141/3 61/142/3 73/143/3 
f 64/144/6 63/145/6 74/146/6 
f 70/132/6 74/146/6 63/145/6 
f 75/147/9 76/148/9 77/149/9 
f 78/150/10 76/151/10 79/152/10 
f 80/153/11 76/151/11 75/154/11 
f 52/155/4 67/156/4 51/157/4 
f 81/158/5 68/128/5 65/130/5 
f 81/159/1 82/160/1 68/161/1 
f 63/145/6 68/133/6 70/132/6 
f 83/162/6 69/131/6 68/133/6 
f 69/163/5 72/164/5 70/165/5 
f 84/166/12 81/167/12 61/138/12 
f 65/139/12 61/138/12 81/167/12 
f 85/168/13 79/169/13 86/170/13 
f 87/171/14 85/172/14 86/173/14 
f 49/114/5 84/174/5 61/115/5 
f 66/175/4 51/157/4 67/156/4 
f 66/176/3 55/177/3 51/178/3 
f 57/134/7 72/136/7 58/179/7 
f 26/180/4 48/181/4 88/182/4 
f 88/182/4 48/181/4 89/183/4 
f 71/184/5 70/165/5 72/164/5 
f 88/185/3 90/186/3 26/187/3 
f 27/188/3 26/187/3 90/186/3 
f 69/163/5 91/189/5 72/164/5 
f 90/190/5 21/191/5 27/192/5 
f 21/26/3 92/193/3 18/27/3 
f 24/194/3 19/195/3 93/196/3 
f 94/197/3 93/196/3 19/195/3 
f 24/46/5 93/198/5 29/44/5 
f 31/48/1 29/47/1 95/199/1 
f 19/23/5 18/22/5 94/200/5 
f 82/201/6 83/162/6 68/133/6 
f 31/202/5 95/203/5 32/204/5 
f 16/205/1 15/206/1 96/207/1 
f 84/166/15 97/208/15 81/167/15 
f 35/209/5 37/210/5 96/211/5 
f 98/212/5 96/211/5 37/210/5 
f 81/159/1 99/213/1 82/160/1 
f 66/126/7 62/125/7 100/214/7 
f 62/121/5 55/120/5 100/215/5 
f 55/177/3 66/176/3 100/216/3 
f 41/217/4 43/218/4 45/219/4 
f 101/220/1 45/221/1 102/222/1 
f 103/223/16 104/224/16 105/225/16 
f 105/225/6 106/226/6 107/227/6 
f 105/225/7 107/227/7 108/228/7 
f 44/218/4 42/229/4 25/230/4 
f 25/230/4 42/229/4 109/231/4 
f 46/232/4 39/233/4 47/219/4 
f 102/234/4 47/219/4 39/233/4 
f 110/235/6 111/236/6 112/237/6 
f 111/236/8 113/238/8 112/237/8 
f 114/239/7 112/237/7 113/238/7 
f 48/240/3 25/241/3 109/242/3 
f 89/243/3 48/240/3 109/242/3 
f 110/235/6 115/244/6 111/236/6 
f 115/244/6 116/245/6 111/236/6 
f 103/223/7 111/236/7 116/245/7 
f 103/223/7 116/245/7 117/246/7 
f 103/223/7 117/246/7 118/247/7 
f 103/223/7 118/247/7 119/248/7 
f 103/223/7 119/248/7 120/249/7 
f 103/223/7 120/249/7 104/224/7 
f 121/250/6 105/225/6 104/224/6 
f 122/251/7 105/225/7 121/250/7 
f 123/252/6 105/225/6 122/251/6 
f 106/226/7 105/225/7 123/252/7 
f 112/253/17 124/254/17 110/255/17 
f 124/256/18 125/257/18 110/258/18 
f 126/259/19 120/260/19 119/261/19 
f 104/262/20 120/263/20 126/264/20 
f 127/265/21 106/266/21 123/267/21 
f 128/268/2 99/269/2 73/140/2 
f 97/208/2 73/140/2 99/269/2 
f 54/270/4 73/271/4 97/272/4 
f 54/270/4 97/272/4 56/273/4 
f 50/141/3 73/143/3 54/274/3 
f 129/275/4 99/276/4 130/277/4 
f 65/139/2 128/268/2 73/140/2 
f 65/124/3 64/123/3 128/278/3 
f 97/279/1 84/280/1 56/281/1 
f 49/282/1 56/281/1 84/280/1 
f 99/269/2 81/167/2 97/208/2 
f 131/283/3 71/284/3 60/285/3 
f 57/286/3 60/285/3 71/284/3 
f 59/287/2 91/288/2 60/289/2 
f 58/290/1 91/291/1 59/292/1 
f 132/293/3 133/294/3 70/295/3 
f 134/296/4 64/297/4 135/298/4 
f 71/184/5 131/299/5 70/165/5 
f 70/165/5 131/299/5 132/300/5 
f 74/301/4 135/298/4 64/297/4 
f 88/302/6 89/303/6 134/304/6 
f 88/302/6 134/304/6 135/305/6 
f 89/243/3 130/306/3 134/307/3 
f 136/308/4 137/309/4 82/310/4 
f 83/311/4 82/310/4 137/309/4 
f 72/312/1 91/291/1 58/290/1 
f 17/313/6 16/314/6 137/315/6 
f 17/313/6 137/315/6 136/316/6 
f 138/317/4 139/318/4 137/309/4 
f 69/163/5 140/319/5 91/189/5 
f 16/205/1 138/320/1 137/321/1 
f 82/160/1 99/213/1 129/322/1 
f 82/160/1 129/322/1 136/323/1 
f 131/324/2 60/289/2 91/288/2 
f 98/325/2 141/326/2 142/327/2 
f 98/325/2 142/327/2 138/328/2 
f 133/329/2 132/330/2 18/331/2 
f 91/189/5 132/300/5 131/299/5 
f 92/332/5 21/191/5 90/190/5 
f 90/333/2 133/329/2 18/331/2 
f 92/334/2 90/333/2 18/331/2 
f 74/335/3 70/295/3 133/294/3 
f 74/301/4 133/336/4 135/298/4 
f 90/337/4 135/298/4 133/336/4 
f 88/185/3 135/338/3 90/186/3 
f 93/339/2 18/331/2 132/330/2 
f 94/340/2 18/331/2 93/339/2 
f 132/330/2 140/341/2 29/342/2 
f 132/330/2 29/342/2 93/339/2 
f 29/342/2 140/341/2 40/343/2 
f 95/344/2 29/342/2 40/343/2 
f 69/345/1 83/346/1 140/347/1 
f 140/319/5 132/300/5 91/189/5 
f 95/203/5 40/348/5 32/204/5 
f 143/349/2 40/343/2 144/350/2 
f 140/341/2 144/350/2 40/343/2 
f 98/351/1 37/352/1 143/353/1 
f 40/79/1 143/353/1 33/80/1 
f 142/354/4 141/355/4 143/356/4 
f 142/354/4 143/356/4 144/357/4 
f 96/358/2 144/350/2 139/359/2 
f 140/341/2 139/359/2 144/350/2 
f 140/347/1 83/346/1 139/360/1 
f 83/311/4 137/309/4 139/318/4 
f 96/361/4 139/318/4 138/317/4 
f 138/362/3 142/363/3 144/364/3 
f 138/362/3 144/364/3 96/365/3 
f 35/366/1 96/207/1 15/206/1 
f 16/205/1 96/207/1 138/320/1 
f 98/212/5 138/367/5 96/211/5 
f 37/352/1 33/80/1 143/353/1 
f 98/351/1 143/353/1 141/368/1 
f 129/322/1 39/76/1 17/75/1 
f 64/123/3 134/307/3 130/306/3 
f 128/278/3 64/123/3 130/306/3 
f 145/369/6 146/370/6 147/371/6 
f 148/372/22 149/373/22 147/374/22 
f 150/375/23 147/374/23 151/376/23 
f 152/377/24 150/375/24 151/376/24 
f 152/378/3 153/379/3 150/380/3 
f 154/381/25 152/377/25 151/376/25 
f 155/382/26 154/381/26 151/376/26 
f 156/383/27 157/384/27 158/385/27 
f 155/386/27 158/385/27 157/384/27 
f 155/387/28 157/388/28 154/389/28 
f 159/390/29 111/391/29 160/392/29 
f 161/393/30 113/394/30 162/395/30 
f 162/395/31 113/394/31 159/396/31 
f 114/397/32 113/394/32 163/398/32 
f 163/398/33 112/253/33 114/397/33 
f 115/399/34 110/258/34 125/257/34 
f 164/400/35 153/401/35 165/402/35 
f 164/400/36 165/402/36 166/257/36 
f 152/378/37 154/403/37 153/379/37 
f 164/404/3 150/380/3 153/379/3 
f 163/405/2 161/406/2 167/407/2 
f 161/406/2 162/408/2 167/407/2 
f 168/409/2 167/407/2 162/408/2 
f 111/410/38 159/396/38 113/394/38 
f 161/393/32 163/398/32 113/394/32 
f 163/398/33 167/411/33 112/253/33 
f 124/254/39 112/253/39 168/412/39 
f 167/411/40 168/412/40 112/253/40 
f 164/413/41 168/414/41 162/415/41 
f 164/413/41 162/415/41 150/416/41 
f 147/371/41 150/416/41 160/417/41 
f 159/418/42 160/417/42 150/416/42 
f 162/415/43 159/418/43 150/416/43 
f 168/414/44 164/413/44 124/419/44 
f 166/420/41 125/421/41 164/413/41 
f 124/419/45 164/413/45 125/421/45 
f 169/422/46 170/423/46 171/424/46 
f 157/425/47 169/426/47 171/427/47 
f 157/425/47 171/427/47 172/428/47 
f 173/429/28 154/389/28 172/430/28 
f 157/388/28 172/430/28 154/389/28 
f 173/431/37 153/379/37 154/403/37 
f 174/432/48 175/433/48 176/434/48 
f 177/435/48 176/434/48 175/433/48 
f 172/436/49 178/437/49 174/438/49 
f 179/439/49 174/438/49 178/437/49 
f 176/440/28 173/429/28 174/441/28 
f 172/430/28 174/441/28 173/429/28 
f 153/401/50 173/442/50 165/402/50 
f 173/442/50 176/443/50 165/402/50 
f 146/444/51 105/445/51 180/446/51 
f 108/447/51 180/446/51 105/445/51 
f 105/445/52 146/444/52 103/448/52 
f 145/449/52 103/448/52 146/444/52 
f 107/450/53 181/451/53 108/447/53 
f 180/446/54 108/447/54 181/451/54 
f 146/370/6 180/452/6 147/371/6 
f 181/453/6 148/454/6 180/452/6 
f 148/454/6 147/371/6 180/452/6 
f 160/417/6 145/369/6 147/371/6 
f 182/455/15 127/456/15 183/457/15 
f 107/450/55 106/266/55 184/458/55 
f 182/459/55 184/458/55 106/266/55 
f 181/451/56 107/450/56 185/460/56 
f 184/458/57 185/460/57 107/450/57 
f 148/454/58 185/461/58 186/462/58 
f 148/454/59 181/453/59 185/461/59 
f 129/463/60 130/464/60 187/465/60 
f 188/466/61 189/467/61 190/468/61 
f 151/376/62 149/373/62 190/469/62 
f 188/470/62 190/469/62 149/373/62 
f 151/376/22 147/374/22 149/373/22 
f 191/471/63 192/472/63 193/473/63 
f 194/474/64 195/475/64 196/476/64 
f 197/477/60 129/463/60 187/465/60 
f 198/478/65 199/479/65 200/480/65 
f 189/467/61 188/466/61 199/479/61 
f 200/481/66 201/482/66 198/483/66 
f 191/471/67 202/484/67 188/466/67 
f 202/484/68 200/480/68 188/466/68 
f 200/480/69 199/479/69 188/466/69 
f 200/485/70 202/486/70 201/487/70 
f 149/488/71 201/487/71 203/489/71 
f 191/490/72 203/489/72 202/486/72 
f 202/486/71 203/489/71 201/487/71 
f 199/491/4 197/492/4 189/493/4 
f 204/494/73 149/373/73 148/372/73 
f 204/494/74 201/482/74 149/373/74 
f 198/483/75 205/495/75 206/496/75 
f 128/497/4 130/277/4 99/276/4 
f 17/75/1 136/323/1 129/322/1 
f 187/498/4 189/493/4 197/492/4 
f 205/495/76 201/482/76 204/494/76 
f 205/495/77 198/483/77 201/482/77 
f 199/499/1 198/500/1 206/501/1 
f 199/499/1 206/501/1 207/502/1 
f 208/503/4 197/492/4 207/504/4 
f 199/491/4 207/504/4 197/492/4 
f 209/505/77 206/496/77 205/495/77 
f 206/501/1 195/506/1 207/502/1 
f 196/507/78 195/508/78 209/509/78 
f 206/510/78 209/509/78 195/508/78 
f 210/511/4 189/493/4 187/498/4 
f 210/512/3 211/513/3 189/514/3 
f 190/515/3 189/514/3 211/513/3 
f 211/516/79 155/382/79 190/469/79 
f 211/513/3 210/512/3 212/517/3 
f 187/498/4 213/518/4 210/511/4 
f 211/516/5 212/519/5 155/382/5 
f 151/376/79 190/469/79 155/382/79 
f 156/520/80 214/521/80 157/522/80 
f 158/523/81 215/524/81 156/525/81 
f 155/382/82 215/526/82 158/527/82 
f 157/528/83 170/529/83 169/530/83 
f 216/531/84 217/532/84 218/533/84 
f 212/534/85 210/535/85 219/536/85 
f 207/537/85 219/536/85 210/535/85 
f 213/518/4 208/503/4 210/511/4 
f 212/519/5 219/538/5 217/532/5 
f 218/533/5 217/532/5 219/538/5 
f 197/539/86 208/540/86 129/322/86 
f 209/509/87 205/541/87 196/507/87 
f 220/542/88 221/543/88 222/544/88 
f 223/545/89 220/546/89 222/547/89 
f 224/548/90 223/549/90 225/550/90 
f 223/549/91 222/551/91 225/550/91 
f 226/552/92 224/548/92 225/550/92 
f 222/551/93 227/553/93 225/550/93 
f 227/553/94 228/554/94 225/550/94 
f 228/555/95 227/556/95 229/557/95 
f 221/543/95 229/557/95 227/556/95 
f 227/556/88 222/544/88 221/543/88 
f 230/558/96 231/559/96 232/560/96 
f 232/560/97 233/561/97 230/558/97 
f 229/562/98 221/563/98 232/564/98 
f 221/563/99 220/565/99 232/564/99 
f 232/564/100 231/566/100 229/562/100 
f 220/565/101 234/567/101 232/564/101 
f 235/568/2 183/457/2 236/569/2 
f 126/570/2 183/457/2 235/568/2 
f 237/571/102 183/457/102 126/570/102 
f 238/572/103 239/573/103 117/574/103 
f 119/261/104 118/575/104 237/576/104 
f 240/577/104 237/576/104 118/575/104 
f 119/261/19 237/576/19 126/259/19 
f 235/578/20 104/262/20 126/264/20 
f 104/262/105 235/578/105 121/579/105 
f 236/580/105 121/579/105 235/578/105 
f 121/579/106 236/580/106 241/581/106 
f 242/582/67 192/472/67 194/583/67 
f 242/582/68 193/473/68 192/472/68 
f 192/472/68 191/471/68 243/584/68 
f 192/585/1 195/506/1 194/586/1 
f 194/474/107 196/476/107 186/587/107 
f 242/588/108 194/474/108 186/587/108 
f 183/589/109 193/588/109 186/587/109 
f 242/588/110 186/587/110 193/588/110 
f 193/588/110 183/589/110 244/590/110 
f 240/591/2 245/592/2 237/571/2 
f 241/581/106 122/593/106 121/579/106 
f 127/594/111 123/595/111 241/581/111 
f 186/462/112 246/596/112 204/597/112 
f 246/596/113 205/598/113 204/597/113 
f 193/588/114 244/590/114 191/599/114 
f 203/600/115 191/599/115 244/590/115 
f 241/601/2 236/569/2 183/457/2 
f 127/456/12 241/601/12 183/457/12 
f 184/602/2 182/455/2 183/457/2 
f 123/595/111 122/593/111 241/581/111 
f 182/459/21 106/266/21 127/265/21 
f 191/471/116 188/466/116 243/584/116 
f 185/603/2 184/602/2 183/457/2 
f 148/454/117 186/462/117 204/597/117 
f 186/462/58 185/461/58 183/604/58 
f 243/605/118 188/606/118 203/607/118 
f 149/608/118 203/607/118 188/606/118 
f 111/391/119 103/448/119 160/392/119 
f 145/449/119 160/392/119 103/448/119 
f 125/257/34 247/609/34 115/399/34 
f 116/610/120 115/399/120 248/611/120 
f 247/609/120 248/611/120 115/399/120 
f 249/612/121 250/613/121 117/574/121 
f 117/574/122 116/610/122 249/612/122 
f 248/611/122 249/612/122 116/610/122 
f 251/614/123 118/575/123 252/615/123 
f 252/615/124 117/574/124 239/573/124 
f 118/575/123 117/574/123 252/615/123 
f 166/420/6 247/616/6 125/421/6 
f 166/420/7 248/617/7 247/616/7 
f 166/420/6 249/618/6 248/617/6 
f 253/619/7 251/620/7 252/621/7 
f 239/622/2 238/623/2 250/624/2 
f 238/572/125 117/574/125 250/613/125 
f 250/613/126 249/612/126 165/402/126 
f 249/612/127 166/257/127 165/402/127 
f 165/402/127 254/625/127 250/613/127 
f 252/615/128 239/573/128 254/625/128 
f 252/615/127 254/625/127 253/614/127 
f 239/573/127 250/613/127 254/625/127 
f 240/591/102 255/626/102 245/592/102 
f 244/627/12 237/571/12 245/592/12 
f 183/457/12 237/571/12 244/627/12 
f 118/575/129 251/614/129 240/577/129 
f 255/628/129 240/577/129 251/614/129 
f 256/629/68 192/472/68 243/584/68 
f 257/630/4 192/631/4 256/632/4 
f 254/633/1 256/634/1 255/635/1 
f 256/634/1 243/605/1 255/635/1 
f 243/605/1 203/607/1 255/635/1 
f 245/636/1 255/635/1 203/607/1 
f 255/635/1 251/637/1 253/638/1 
f 255/635/1 253/638/1 254/633/1 
f 257/639/1 256/634/1 254/633/1 
f 203/600/130 244/590/130 245/640/130 
f 258/641/131 224/642/131 259/643/131 
f 260/644/132 259/643/132 216/645/132 
f 226/646/132 216/645/132 259/643/132 
f 216/647/133 261/648/133 260/649/133 
f 218/650/133 261/648/133 216/647/133 
f 218/651/134 219/652/134 261/653/134 
f 262/654/135 261/653/135 219/652/135 
f 172/655/136 171/656/136 263/657/136 
f 165/402/137 176/443/137 254/625/137 
f 257/630/4 264/658/4 192/631/4 
f 254/633/118 265/659/118 257/639/118 
f 265/660/137 254/625/137 176/443/137 
f 266/661/4 192/631/4 262/662/4 
f 257/639/118 265/659/118 264/663/118 
f 264/663/138 265/659/138 262/654/138 
f 261/653/139 262/654/139 265/659/139 
f 267/664/140 176/443/140 177/665/140 
f 268/666/141 267/667/141 175/668/141 
f 177/669/141 175/668/141 267/667/141 
f 269/670/142 270/671/142 178/672/142 
f 174/673/143 268/674/143 175/675/143 
f 264/658/4 262/662/4 192/631/4 
f 262/676/144 219/536/144 266/677/144 
f 207/502/1 195/506/1 266/678/1 
f 207/537/144 266/677/144 219/536/144 
f 192/585/1 266/678/1 195/506/1 
f 77/149/145 258/679/145 259/680/145 
f 77/149/146 259/680/146 260/681/146 
f 205/541/87 246/682/87 196/507/87 
f 246/683/147 186/587/147 196/476/147 
f 226/646/131 259/643/131 224/642/131 
f 223/545/148 224/684/148 234/685/148 
f 271/686/149 272/687/149 234/685/149 
f 273/688/149 234/685/149 272/687/149 
f 273/689/150 232/560/150 234/690/150 
f 232/560/151 273/689/151 233/561/151 
f 220/546/89 223/545/89 234/685/89 
f 258/691/148 271/686/148 224/684/148 
f 274/692/148 271/686/148 258/691/148 
f 234/685/148 224/684/148 271/686/148 
f 275/693/152 276/694/152 277/695/152 
f 274/692/153 277/696/153 278/697/153 
f 274/692/153 278/697/153 271/686/153 
f 279/698/154 280/699/154 281/700/154 
f 272/701/155 281/700/155 280/699/155 
f 280/702/156 279/703/156 233/704/156 
f 230/705/156 233/704/156 279/703/156 
f 272/706/157 280/702/157 273/707/157 
f 233/704/157 273/707/157 280/702/157 
f 272/701/158 271/708/158 281/700/158 
f 278/709/159 281/710/159 271/711/159 
f 282/712/160 283/713/160 279/714/160 
f 281/710/161 278/709/161 276/715/161 
f 279/698/162 281/700/162 282/716/162 
f 276/715/163 284/717/163 281/710/163 
f 278/718/152 277/695/152 276/694/152 
f 258/679/164 77/149/164 285/719/164 
f 285/720/148 274/692/148 258/691/148 
f 286/721/165 285/720/165 287/722/165 
f 288/723/166 274/724/166 286/725/166 
f 286/721/165 274/692/165 285/720/165 
f 85/726/167 78/150/167 79/152/167 
f 87/727/168 289/728/168 85/729/168 
f 276/694/169 275/693/169 284/730/169 
f 289/731/169 284/730/169 275/693/169 
f 290/732/170 291/733/170 78/734/170 
f 286/735/171 287/736/171 290/732/171 
f 288/723/172 290/737/172 78/738/172 
f 78/738/173 85/739/173 288/723/173 
f 288/723/174 286/725/174 290/737/174 
f 289/740/175 288/741/175 85/742/175 
f 288/741/176 289/740/176 275/743/176 
f 288/741/177 275/743/177 277/744/177 
f 277/744/178 274/745/178 288/741/178 
f 87/727/179 292/746/179 289/728/179 
f 261/747/180 75/147/180 260/681/180 
f 75/147/181 77/149/181 260/681/181 
f 76/148/182 291/748/182 77/149/182 
f 76/749/183 78/734/183 291/733/183 
f 290/732/171 287/736/171 291/733/171 
f 77/149/184 291/748/184 287/750/184 
f 287/750/185 285/719/185 77/149/185 
f 80/153/186 79/152/186 76/151/186 
f 130/306/3 89/243/3 109/242/3 
f 109/242/187 213/751/187 130/306/187 
f 109/231/188 41/217/188 213/518/188 
f 187/752/187 130/306/187 213/751/187 
f 155/382/5 212/519/5 217/532/5 
f 215/753/189 217/754/189 293/755/189 
f 155/382/190 217/532/190 215/526/190 
f 157/522/191 214/521/191 294/756/191 
f 214/757/81 156/525/81 215/524/81 
f 215/753/192 293/755/192 214/758/192 
f 295/759/192 214/758/192 293/755/192 
f 295/759/193 294/760/193 214/758/193 
f 263/761/46 171/424/46 170/423/46 
f 157/528/194 294/762/194 170/529/194 
f 296/763/195 297/764/195 294/765/195 
f 170/766/196 294/767/196 297/768/196 
f 207/504/4 210/511/4 208/503/4 
f 298/769/197 293/770/197 217/532/197 
f 299/771/198 295/759/198 298/772/198 
f 293/755/198 298/772/198 295/759/198 
f 294/773/199 295/774/199 299/775/199 
f 129/322/86 208/540/86 39/76/86 
f 213/518/188 101/776/188 208/503/188 
f 300/777/200 217/532/200 216/531/200 
f 226/552/201 225/550/201 300/777/201 
f 225/550/202 228/554/202 300/777/202 
f 216/531/203 226/552/203 300/777/203 
f 300/777/204 298/769/204 217/532/204 
f 229/778/205 299/771/205 228/779/205 
f 298/772/206 300/780/206 228/779/206 
f 298/772/205 228/779/205 299/771/205 
f 294/773/207 299/775/207 231/781/207 
f 299/771/208 229/778/208 231/782/208 
f 283/713/198 301/783/198 296/784/198 
f 231/785/209 296/763/209 294/765/209 
f 297/768/198 296/784/198 301/783/198 
f 296/784/210 230/786/210 283/713/210 
f 296/784/211 231/787/211 230/786/211 
f 44/788/3 43/88/3 42/87/3 
f 41/217/4 45/219/4 101/776/4 
f 47/789/1 102/222/1 45/221/1 
f 42/229/188 41/217/188 109/231/188 
f 101/776/188 213/518/188 41/217/188 
f 102/234/188 39/233/188 101/776/188 
f 208/503/212 101/776/212 39/233/212 
f 46/790/1 36/99/1 39/76/1 
f 302/791/213 269/792/213 172/793/213 
f 172/793/214 269/792/214 178/794/214 
f 302/795/215 303/796/215 269/797/215 
f 302/798/216 263/799/216 301/783/216 
f 292/746/198 87/727/198 303/796/198 
f 301/783/217 263/799/217 297/768/217 
f 170/766/217 297/768/217 263/799/217 
f 263/657/218 302/800/218 172/655/218 
f 176/443/4 304/801/4 265/660/4 
f 261/747/4 265/660/4 304/801/4 
f 75/147/219 261/747/219 304/801/219 
f 304/801/220 305/802/220 80/803/220 
f 80/803/221 75/147/221 304/801/221 
f 304/801/222 176/443/222 267/664/222 
f 79/152/223 80/153/223 306/804/223 
f 267/805/224 305/806/224 304/807/224 
f 306/808/225 86/170/225 79/169/225 
f 268/809/226 306/804/226 305/806/226 
f 268/809/226 305/806/226 267/805/226 
f 268/809/227 86/810/227 306/804/227 
f 86/811/228 270/812/228 307/813/228 
f 305/806/223 306/804/223 80/153/223 
f 87/171/229 86/173/229 307/814/229 
f 179/815/142 178/672/142 270/671/142 
f 270/812/230 269/797/230 307/813/230 
f 303/796/230 307/813/230 269/797/230 
f 270/816/231 174/817/231 179/818/231 
f 174/673/232 86/170/232 268/674/232 
f 270/816/233 86/173/233 174/817/233 
f 230/786/210 279/714/210 283/713/210 
f 283/819/234 302/820/234 301/821/234 
f 284/717/235 282/822/235 281/710/235 
f 307/813/198 303/796/198 87/727/198 
f 284/823/179 289/728/179 292/746/179 
f 282/824/236 284/823/236 292/746/236 
f 292/825/237 303/826/237 302/791/237 
f 292/825/238 302/791/238 282/827/238 
f 302/820/239 283/819/239 282/828/239 
# 616 faces

