# 3ds Max Wavefront OBJ Exporter v0.99 - (c)2007 guruware
# File Created: 26.12.2024 18:39:14

#
# object Metralleta
#

v  -0.1705 0.0959 0.3597
v  -0.1492 0.1034 0.4245
v  -0.1558 0.1015 0.3590
v  -0.1288 0.1109 0.4408
v  -0.1113 0.1047 0.4565
v  -0.0640 0.0450 0.2625
v  -0.0140 0.0222 0.1540
v  -0.0116 0.0419 0.2534
v  -0.1019 0.0494 0.2864
v  -0.0705 0.0309 0.1955
v  -0.1248 0.0425 0.2606
v  -0.0705 0.0836 0.1949
v  -0.1248 0.0808 0.2606
v  -0.1019 0.0943 0.2864
v  -0.1486 0.0017 0.2874
v  -0.1486 0.0425 0.2874
v  -0.1151 0.0836 0.2886
v  -0.1486 0.0836 0.2874
v  -0.1648 0.0067 0.3028
v  -0.1648 0.0391 0.3028
v  -0.1558 0.0516 0.3590
v  -0.1648 0.0491 0.3031
v  -0.1648 0.0817 0.3031
v  -0.1705 0.0067 0.3597
v  -0.1151 -0.0806 0.2886
v  -0.1486 -0.0394 0.2874
v  -0.1648 -0.0470 0.3047
v  -0.1558 -0.0485 0.3590
v  -0.1648 -0.0360 0.3034
v  -0.1648 -0.0037 0.3034
v  0.0419 0.0497 0.4342
v  0.0710 0.0497 0.3767
v  0.0585 0.0579 0.3650
v  0.0419 0.0095 0.4342
v  0.0710 0.0095 0.3767
v  0.0585 0.0017 0.3650
v  0.0742 0.1062 0.3575
v  0.0742 -0.1032 0.3575
v  0.0761 0.1106 0.2537
v  0.0717 -0.0476 0.3751
v  0.0585 -0.0548 0.3650
v  0.0717 -0.0055 0.3751
v  0.0413 -0.0476 0.4354
v  -0.0107 -0.1110 0.3650
v  -0.0107 0.1141 0.3650
v  0.0704 0.0667 0.3776
v  0.0425 0.0667 0.4329
v  0.0178 0.0579 0.4455
v  0.0003 0.0645 0.4603
v  -0.0004 0.0507 0.4603
v  -0.1113 0.0632 0.4565
v  -0.1107 0.0497 0.4565
v  -0.1107 0.0083 0.4565
v  -0.0004 0.0083 0.4603
v  -0.0132 -0.1110 0.3685
v  -0.0132 -0.1295 0.2468
v  -0.0132 0.1141 0.3685
v  -0.0116 -0.1160 0.2534
v  -0.0116 0.1191 0.2534
v  0.0413 -0.0055 0.4354
v  -0.0906 -0.1007 0.3688
v  -0.0944 -0.0985 0.3603
v  -0.0906 0.1037 0.3688
v  -0.0330 0.0387 0.3983
v  -0.0330 -0.1110 0.3983
v  -0.0787 0.0174 0.3961
v  0.0407 -0.0611 0.4367
v  0.0178 -0.0548 0.4455
v  0.0046 -0.0595 0.4603
v  0.0723 -0.0611 0.3742
v  0.0024 -0.0489 0.4603
v  0.0024 -0.0043 0.4603
v  0.0178 0.0017 0.4455
v  -0.1157 -0.0583 0.4565
v  -0.1157 -0.1032 0.4565
v  -0.1135 -0.0043 0.4565
v  0.0046 -0.1060 0.4603
v  -0.1135 -0.0476 0.4565
v  -0.1492 0.0601 0.4245
v  -0.1288 0.0563 0.4408
v  -0.1492 0.0067 0.4248
v  -0.1705 0.0463 0.3597
v  -0.1705 0.0563 0.3597
v  -0.1492 0.0500 0.4248
v  -0.1558 0.0017 0.3590
v  -0.1288 0.0017 0.4408
v  -0.1705 -0.0037 0.3597
v  -0.1492 -0.0037 0.4241
v  -0.1705 -0.0429 0.3597
v  -0.1492 -0.0467 0.4241
v  -0.1705 -0.0539 0.3597
v  -0.1495 -0.0573 0.4226
v  -0.1288 -0.0533 0.4408
v  -0.1495 -0.0994 0.4226
v  0.0761 -0.0696 0.1569
v  0.0761 -0.1079 0.2537
v  0.0607 -0.1160 0.2534
v  -0.0906 -0.1295 0.2468
v  -0.0649 -0.1295 0.3804
v  -0.0132 -0.1295 0.3804
v  0.0585 -0.1110 0.3650
v  -0.0116 -0.0749 0.1490
v  -0.0116 0.0221 0.1540
v  -0.0116 -0.0671 0.1540
v  -0.1558 -0.0985 0.3590
v  -0.1486 -0.0806 0.2874
v  -0.1648 -0.0784 0.3047
v  0.0723 -0.1047 0.3742
v  0.0407 -0.1047 0.4367
v  -0.0132 -0.1110 0.3823
v  -0.0223 -0.1110 0.3823
v  0.0178 -0.1110 0.4455
v  -0.0906 -0.1295 0.3804
v  -0.0844 -0.1044 0.3830
v  -0.0944 0.1015 0.3603
v  -0.0787 -0.1079 0.3961
v  -0.0906 -0.1044 0.3830
v  -0.1288 -0.1079 0.4408
v  -0.1705 -0.0922 0.3597
v  -0.0270 0.2598 0.5864
v  0.0219 0.2598 0.5864
v  -0.0270 0.2598 0.8229
v  0.0319 0.2598 0.5813
v  0.0319 0.2598 0.8229
v  0.0300 0.2824 0.5572
v  -0.0135 0.3113 0.5160
v  -0.0931 0.3113 0.4732
v  -0.0135 0.3113 0.5370
v  -0.0370 0.2648 0.5864
v  -0.0370 0.1700 0.5864
v  -0.0273 0.2601 0.5864
v  -0.0135 0.3113 0.8775
v  -0.0204 0.3113 0.8775
v  -0.0370 0.2648 0.8279
v  0.0219 0.1700 0.5864
v  0.0300 0.1424 0.5572
v  0.0200 0.1474 0.5622
v  -0.0442 0.2139 1.4995
v  -0.0442 0.2915 1.4995
v  -0.0596 0.2915 1.4995
v  -0.0596 0.2139 1.4995
v  0.0219 0.1700 0.8229
v  0.0319 0.1649 0.8229
v  0.0761 0.0726 0.1569
v  -0.0561 0.0402 -0.0010
v  -0.0409 0.0554 -0.0010
v  -0.0658 0.0211 -0.0010
v  -0.0217 0.0652 -0.0010
v  -0.0005 0.0685 -0.0010
v  0.0207 0.0652 -0.0010
v  0.0399 0.0554 -0.0010
v  0.0551 0.0402 -0.0010
v  0.0648 0.0211 -0.0010
v  0.0682 -0.0002 -0.0010
v  0.0399 -0.0558 -0.0010
v  0.0207 -0.0655 -0.0010
v  0.0551 -0.0406 -0.0010
v  0.0648 -0.0214 -0.0010
v  -0.0005 -0.0689 -0.0010
v  -0.0217 -0.0655 -0.0010
v  -0.0409 -0.0558 -0.0010
v  -0.0561 -0.0406 -0.0010
v  -0.0658 -0.0214 -0.0010
v  -0.0692 -0.0002 -0.0010
v  0.0682 -0.0002 0.1529
v  0.0648 -0.0214 0.1511
v  0.0399 0.0554 0.1490
v  0.0207 0.0652 0.1490
v  -0.0217 0.0652 0.1540
v  -0.0180 0.0658 0.1540
v  0.0207 -0.0655 0.1490
v  0.0551 -0.0406 0.1490
v  0.0607 -0.0295 0.1490
v  0.0648 0.0211 0.1511
v  -0.0692 -0.0002 0.1540
v  -0.0658 -0.0214 0.1540
v  -0.0116 -0.0671 0.1490
v  -0.0164 0.2682 0.1060
v  -0.0164 0.1665 0.1060
v  -0.0875 0.2682 0.1060
v  -0.0875 0.1665 0.1060
v  -0.0352 0.3778 0.2386
v  -0.0352 0.3778 0.4732
v  -0.0016 0.3778 0.2386
v  -0.1022 0.3778 0.2386
v  -0.1022 0.3778 0.4732
v  -0.0687 0.3778 0.2386
v  -0.0016 0.3778 0.4732
v  -0.0687 0.3778 0.4732
v  -0.0834 0.3113 0.1751
v  -0.0135 0.3113 0.2386
v  -0.0204 0.3113 0.1751
v  -0.0934 0.3113 0.1751
v  -0.0934 0.3113 0.2386
v  -0.1094 0.2667 0.1503
v  -0.1107 0.2544 0.1308
v  -0.1107 0.1803 0.1308
v  0.0068 0.1803 0.1308
v  0.0068 0.2544 0.1308
v  0.0056 0.2667 0.1503
v  0.0040 0.2865 0.1999
v  -0.1078 0.2865 0.1999
v  -0.0135 0.3113 0.1751
v  0.0178 0.2865 0.1999
v  -0.1094 0.1681 0.1503
v  0.0040 0.1483 0.1999
v  0.0056 0.1681 0.1503
v  -0.0204 0.1238 0.1751
v  0.0319 0.1649 0.5813
v  -0.0135 0.1238 0.5370
v  0.0178 0.1483 0.5122
v  0.0200 0.2874 0.5622
v  -0.0135 0.1238 0.8775
v  0.0200 0.1474 0.8521
v  0.0300 0.1424 0.8470
v  -0.0204 0.1238 0.6150
v  -0.0204 0.1238 0.7920
v  -0.0834 0.1238 0.6150
v  -0.0931 0.1238 0.5370
v  -0.0370 0.1700 0.8279
v  -0.0270 0.1700 0.8229
v  0.0200 0.2874 0.8521
v  0.0300 0.2824 0.8470
v  -0.0204 0.0347 0.7971
v  -0.0834 0.1238 0.7920
v  -0.0931 0.1238 0.8775
v  -0.0204 0.1238 0.8775
v  -0.0831 0.1238 0.8775
v  -0.0204 -0.0542 0.8209
v  -0.0204 -0.1229 0.8511
v  -0.0204 -0.1317 0.6829
v  -0.0204 -0.0090 0.6361
v  -0.0834 -0.0090 0.6361
v  -0.0834 0.0347 0.7971
v  -0.0834 -0.0542 0.8209
v  -0.0834 -0.1317 0.6829
v  -0.0834 -0.1229 0.8511
v  -0.0834 -0.2338 0.7448
v  -0.0204 -0.2338 0.7448
v  -0.0931 0.3113 0.8775
v  -0.0678 0.2962 0.9923
v  -0.0442 0.2915 1.0291
v  0.0131 0.2830 0.9021
v  -0.0834 0.1238 0.1751
v  -0.1248 0.1483 0.1999
v  -0.1078 0.1483 0.1999
v  -0.0934 0.1238 0.1751
v  0.0607 0.0292 0.1490
v  0.0551 0.0402 0.1490
v  -0.0005 -0.0689 0.1490
v  -0.0402 0.2937 1.0108
v  0.0607 -0.0749 0.1490
v  0.0607 0.0780 0.1490
v  -0.1248 0.2865 0.8527
v  -0.1197 0.2830 0.9021
v  -0.0005 0.0685 0.1490
v  -0.0116 0.0668 0.1490
v  0.0131 0.1668 0.9021
v  -0.0076 0.2281 1.0046
v  -0.1248 0.1483 0.8527
v  -0.0765 0.1493 0.9206
v  -0.0640 0.2098 1.0222
v  -0.0236 0.1533 0.9269
v  -0.0430 0.2105 1.0231
v  -0.1197 0.1668 0.9021
v  -0.0994 0.2281 1.0046
v  -0.0076 0.2698 1.0046
v  -0.0596 0.2915 1.0291
v  -0.0630 0.2915 1.0291
v  -0.0439 0.2915 1.0291
v  -0.0157 0.2698 1.0046
v  -0.0881 0.2281 1.0046
v  -0.0844 0.2387 1.0540
v  -0.0881 0.2698 1.0046
v  -0.0994 0.2698 1.0046
v  -0.0195 0.2667 1.0540
v  -0.0844 0.2667 1.0540
v  -0.0596 0.2915 1.4005
v  -0.0442 0.2915 1.4005
v  -0.0195 0.2667 1.4750
v  -0.0195 0.2387 1.0540
v  -0.0157 0.2281 1.0046
v  -0.0427 0.2108 1.0241
v  -0.0439 0.2139 1.0291
v  -0.0442 0.2139 1.0291
v  -0.0433 0.2102 1.0225
v  -0.0630 0.2139 1.0291
v  -0.0596 0.2139 1.0291
v  -0.0658 0.0211 0.1540
v  0.0399 -0.0558 0.1490
v  -0.0409 -0.0558 0.1540
v  -0.0116 0.0780 0.1490
v  -0.0180 0.0222 0.1540
v  -0.0217 -0.0655 0.1540
v  -0.0561 -0.0406 0.1540
v  -0.0561 0.0402 0.1540
v  0.0607 0.1191 0.2534
v  -0.0409 0.0554 0.1540
v  0.0009 0.3113 0.2386
v  -0.0016 0.3404 0.2386
v  -0.0352 0.3404 0.2386
v  0.0009 0.3113 0.2747
v  -0.0135 0.3113 0.2747
v  0.0178 0.1483 0.1999
v  -0.0135 0.3113 0.4732
v  0.0178 0.2865 0.5122
v  -0.0687 0.3404 0.2386
v  -0.1022 0.3404 0.2386
v  -0.1047 0.3113 0.2386
v  -0.1047 0.3113 0.2747
v  -0.0934 0.3113 0.2747
v  -0.1248 0.2865 0.1999
v  -0.1047 0.3113 0.4356
v  -0.1022 0.3404 0.4732
v  -0.0352 0.3404 0.4732
v  -0.0844 0.2667 1.4750
v  -0.0442 0.2915 1.4287
v  -0.0844 0.2387 1.4750
v  -0.0640 0.1087 0.2625
v  -0.0596 0.2915 1.4951
v  -0.0596 0.2915 1.4287
v  -0.0135 0.1238 0.1751
v  -0.0668 0.3467 1.4287
v  -0.0370 0.3467 1.4287
v  -0.0668 0.2915 1.4287
v  -0.0370 0.2915 1.4287
v  -0.0135 0.1238 0.3047
v  -0.0195 0.2387 1.4750
v  -0.0442 0.2915 1.4951
v  -0.0370 0.2915 1.4951
v  -0.0668 0.2915 1.4951
v  -0.0668 0.3467 1.4951
v  -0.0370 0.3467 1.4951
v  -0.0132 0.1238 0.3047
v  0.0585 0.1141 0.3650
v  -0.0906 0.1238 0.4075
v  -0.0906 0.1238 0.3047
v  -0.0932 0.3113 0.4356
v  -0.0687 0.3404 0.4732
v  -0.0312 0.3113 0.4732
v  0.0009 0.3113 0.4732
v  -0.0016 0.3404 0.4732
v  -0.1047 0.3113 0.4732
v  0.0704 0.1053 0.3776
v  -0.0132 0.1238 0.4075
v  -0.0135 0.1238 0.4075
v  -0.0132 0.1141 0.4062
v  0.0178 0.1141 0.4455
v  0.0425 0.1053 0.4329
v  0.0003 0.1072 0.4603
v  -0.0389 0.1131 0.4062
v  -0.0637 0.1116 0.4059
v  -0.0593 0.1116 0.4062
v  -0.0906 0.1109 0.4059
# 354 vertices

vn -0.3581 0.9336 0.0092
vn -0.3537 0.9353 0.0087
vn -0.6451 0.0935 0.7583
vn -0.0250 -0.9805 0.1947
vn 0.0156 -0.9786 0.2050
vn -0.7690 -0.0076 -0.6392
vn -0.7475 0.0000 0.6643
vn 0.0508 -0.9750 0.2164
vn -0.7714 0.0000 -0.6364
vn 0.0375 0.0000 -0.9993
vn -0.6867 0.0000 -0.7269
vn -0.3406 0.9278 -0.1523
vn -0.2972 -0.9505 0.0909
vn -0.6940 0.0000 -0.7200
vn -0.9951 0.0000 -0.0989
vn -0.3434 0.9354 0.0843
vn -0.3463 -0.9256 -0.1526
vn -0.7011 0.0000 -0.7131
vn 0.3972 0.8954 0.2012
vn 0.8921 0.0000 0.4518
vn 0.6802 0.0000 -0.7330
vn 0.9998 0.0000 0.0182
vn 0.6072 0.0000 -0.7946
vn 0.3625 -0.9139 0.1825
vn 0.4354 0.0000 0.9002
vn -1.0000 0.0000 0.0084
vn 0.4245 -0.8798 0.2139
vn 0.4221 -0.8811 0.2135
vn 0.5213 -0.3524 0.7772
vn 0.3980 0.8950 0.2013
vn 0.5254 0.0000 0.8509
vn -0.0034 -0.9145 0.4046
vn -0.0220 0.9084 0.4174
vn -0.0342 0.0000 0.9994
vn 0.4949 0.3656 0.7883
vn 1.0000 0.0000 0.0000
vn -0.8087 0.0000 -0.5882
vn 0.8931 0.0000 0.4498
vn 0.3625 0.9139 0.1825
vn 0.3848 -0.9022 0.1949
vn 0.9145 0.0000 -0.4045
vn 0.0480 0.0000 -0.9988
vn 0.4183 0.6885 0.5924
vn 0.3190 0.9339 0.1614
vn 0.4671 -0.5367 0.7027
vn 0.5391 0.0000 0.8423
vn 0.3598 0.9151 0.1820
vn 0.4671 0.5366 0.7027
vn 0.3191 0.9339 0.1614
vn 0.3598 -0.9151 0.1820
vn 0.4928 -0.3865 0.7796
vn -0.0313 0.0000 0.9995
vn -0.0118 0.9313 0.3642
vn 0.0004 0.9525 0.3044
vn -0.0217 -0.9345 0.3552
vn -0.0135 -0.9190 0.3940
vn 0.3856 -0.9018 0.1950
vn -0.9499 0.0000 0.3126
vn -0.6461 0.0000 0.7632
vn -0.0033 -0.9140 0.4058
vn -0.0229 0.9120 0.4096
vn -0.9503 0.0000 0.3112
vn -0.9950 0.0000 -0.0994
vn -0.3383 0.9394 0.0564
vn -0.3348 0.9406 0.0561
vn -0.3427 0.9271 -0.1518
vn -0.6362 0.0000 0.7715
vn -0.6335 0.0851 0.7690
vn -0.2953 -0.9432 0.1521
vn -0.3000 -0.9496 0.0913
vn -0.2972 -0.9426 0.1522
vn -0.6359 -0.1183 0.7627
vn -0.3173 -0.9426 0.1039
vn -0.3241 -0.9455 -0.0322
vn -0.3225 -0.9460 -0.0325
vn -0.3417 0.9392 -0.0344
vn -0.3150 -0.9434 0.1038
vn -0.3420 0.9391 -0.0344
vn -0.6311 -0.0939 0.7700
vn -0.3364 0.9352 0.1108
vn -0.3347 0.9358 0.1107
vn -0.9950 0.0000 -0.1000
vn -0.9494 0.0000 0.3140
vn -0.3304 0.9299 0.1614
vn -0.3267 0.9313 0.1612
vn -0.3366 0.9380 0.0832
vn -0.3542 -0.9330 0.0629
vn -0.3554 -0.9326 0.0630
vn -0.3600 -0.9209 -0.1493
vn -0.6576 0.3552 0.6644
vn -0.7087 0.0000 0.7055
vn 0.0004 0.9525 0.3045
vn -0.6600 -0.2108 0.7211
vn -0.0325 0.0000 0.9995
vn -0.6721 0.0000 0.7405
vn -0.6527 0.2249 0.7235
vn -0.0117 0.9308 0.3652
vn -0.0215 -0.9338 0.3572
vn -0.0128 -0.9165 0.3998
vn 0.4488 -0.8311 -0.3285
vn 0.0000 -1.0000 -0.0000
vn -0.0000 -0.9990 0.0450
vn 0.0000 -0.9305 -0.3664
vn -1.0000 0.0000 -0.0000
vn 0.0091 -0.9703 -0.2415
vn -0.9948 0.0000 -0.1022
vn -0.7275 0.0000 -0.6861
vn 0.3190 -0.9339 0.1614
vn 0.5514 0.0000 -0.8342
vn 0.4683 -0.8822 0.0483
vn 0.4646 -0.8841 0.0490
vn -0.0000 -0.1012 0.9949
vn -0.8330 0.0000 -0.5533
vn 0.3191 -0.9339 0.1614
vn 0.8923 0.0000 0.4515
vn 0.0022 -0.1062 0.9943
vn 0.0018 -0.1061 0.9944
vn -0.0101 -0.1072 0.9942
vn 0.9607 0.0000 -0.2774
vn -0.0000 -0.0995 0.9950
vn 0.9192 0.0000 -0.3939
vn 0.0050 -0.9698 -0.2438
vn 0.0000 -0.9674 -0.2534
vn 0.0052 -0.9672 -0.2540
vn 0.0128 -0.9668 -0.2551
vn -0.0314 -0.9544 0.2969
vn 0.4198 -0.6770 0.6045
vn 0.8923 -0.0000 0.4515
vn 0.5481 -0.0000 0.8364
vn 0.5481 0.0000 0.8364
vn -0.0222 -0.9995 0.0238
vn -0.0648 -0.9952 -0.0728
vn -0.0303 -0.9508 0.3082
vn -0.6973 -0.2695 0.6642
vn -0.0785 -0.9930 -0.0881
vn 0.0074 -0.9657 -0.2596
vn -0.3914 -0.9199 0.0251
vn -0.3976 -0.9172 0.0257
vn -0.9485 0.0000 0.3168
vn -0.3946 -0.8813 -0.2600
vn -0.3882 -0.8836 -0.2619
vn 0.9965 0.0830 0.0000
vn 0.0000 1.0000 -0.0000
vn -0.0000 0.0000 1.0000
vn -0.4472 -0.8944 -0.0000
vn -0.4356 -0.9001 -0.0006
vn -0.7058 -0.7085 -0.0000
vn -0.4487 0.0000 -0.8937
vn 0.4487 0.0000 0.8937
vn 0.4486 0.8937 0.0000
vn 0.0000 0.0000 -1.0000
vn -0.0000 0.0000 -1.0000
vn 0.0000 -0.0000 -1.0000
vn 0.9876 -0.1570 0.0000
vn 0.7071 0.7071 0.0000
vn 0.4530 0.8915 0.0000
vn -0.1569 0.9876 -0.0000
vn -0.4531 0.8915 -0.0000
vn 0.1570 -0.9876 0.0000
vn 0.7071 -0.7071 0.0000
vn 0.8915 -0.4530 -0.0000
vn 0.9876 0.1570 0.0000
vn -0.9876 -0.1570 -0.0000
vn -0.1570 -0.9876 -0.0000
vn -0.9979 0.0000 0.0643
vn 0.9979 0.0000 0.0643
vn 0.0000 0.8491 -0.5282
vn 0.7916 0.5759 -0.2044
vn -0.7304 0.0000 -0.6830
vn 0.7204 0.6072 -0.3352
vn 0.7201 0.6076 -0.3350
vn -0.7201 0.6076 -0.3350
vn -0.7207 0.6068 -0.3353
vn 0.0000 -0.7071 -0.7071
vn 0.9995 0.0000 0.0316
vn 0.7304 0.0000 -0.6830
vn 0.7887 -0.5794 -0.2054
vn 0.7184 -0.6102 -0.3341
vn 0.7201 -0.6076 -0.3350
vn 0.9970 0.0000 -0.0777
vn 0.5949 -0.8027 -0.0413
vn 0.5749 -0.8182 0.0000
vn -0.4486 -0.8937 -0.0000
vn 0.9965 -0.0832 0.0000
vn -0.4472 0.0000 -0.8944
vn 0.5800 0.8146 0.0000
vn -0.0000 0.0563 0.9984
vn -0.0000 0.4021 0.9156
vn -0.0000 0.2595 0.9658
vn 0.0000 -0.1568 -0.9876
vn 0.0000 -0.3566 -0.9343
vn 0.0000 -0.5187 -0.8549
vn -0.0031 0.9916 0.1290
vn -0.0000 0.9915 0.1303
vn 0.6485 0.7453 0.1551
vn 0.0000 -0.8511 -0.5250
vn -0.7186 -0.6098 -0.3342
vn -0.7201 -0.6076 -0.3350
vn 0.0000 0.7116 -0.7026
vn 0.8915 0.4530 0.0000
vn 0.8915 0.4531 0.0000
vn 0.1570 0.9876 0.0000
vn 0.4530 -0.8915 0.0000
vn 0.8915 -0.4530 0.0000
vn 0.8915 -0.4531 0.0000
vn -0.0000 0.9914 0.1308
vn -0.1568 -0.9876 -0.0000
vn 0.4554 0.0000 -0.8903
vn 0.4554 -0.0000 -0.8903
vn 0.6064 0.7636 0.2219
vn -0.6170 0.7869 -0.0000
vn -0.6690 0.7336 0.1194
vn 0.8915 0.4531 -0.0000
vn -0.1570 0.9876 -0.0000
vn -0.1568 0.9876 -0.0000
vn 0.9970 0.0000 0.0777
vn 0.9906 0.0000 0.1368
vn 0.9802 0.0000 0.1979
vn 0.6999 -0.6278 0.3406
vn -0.6122 -0.7907 -0.0000
vn -0.1615 -0.8387 0.5201
vn -0.0000 -0.8595 0.5112
vn 0.5767 -0.6440 0.5027
vn -0.0000 -0.8593 0.5115
vn -0.9809 0.0000 0.1947
vn -0.7213 -0.6213 0.3060
vn -0.9949 0.0000 0.1012
vn -0.0000 0.9919 0.1270
vn 0.1487 0.9773 0.1509
vn -0.0000 0.9928 0.1196
vn -0.0000 -0.7495 0.6620
vn 0.6042 0.7667 0.2170
vn 0.6042 0.7657 0.2206
vn 0.0353 0.9918 0.1225
vn -0.9972 0.0000 0.0753
vn -0.6083 0.7629 0.2189
vn -0.6047 0.7654 0.2200
vn 0.6543 0.7499 0.0976
vn -0.6540 0.7502 0.0971
vn 0.7082 0.7060 0.0000
vn -0.7077 0.7065 -0.0000
vn 0.9971 0.0000 0.0761
vn -0.0000 -0.8480 0.5300
vn -0.0964 -0.8700 0.4835
vn -0.3764 -0.8339 0.4036
vn -0.0000 0.8665 0.4991
vn 0.5759 -0.7889 0.2145
vn -0.9876 0.1570 -0.0000
vn -0.8915 -0.4530 -0.0000
vn -0.7071 -0.7071 -0.0000
vn -0.4531 -0.8915 -0.0000
vn -0.1572 -0.9876 -0.0000
vn 0.4551 -0.8285 -0.3262
vn 0.0013 -0.9785 0.2064
vn 0.0010 -0.9785 0.2063
vn -0.8915 0.4531 -0.0000
vn -0.0251 -0.9805 0.1947
vn 0.4551 0.8284 -0.3265
vn -0.1573 0.9876 0.0000
vn -0.7071 0.7071 -0.0000
vn -0.6152 -0.0094 -0.7883
vn -0.6198 -0.0001 -0.7847
vn -0.6199 0.0000 -0.7847
vn -0.6200 0.0000 -0.7846
vn 0.9963 0.0858 0.0000
vn 0.6208 0.7839 0.0000
vn -0.7920 0.5753 -0.2042
vn -0.6214 0.7835 0.0008
vn -0.9963 0.0858 -0.0000
vn -0.6208 0.7839 -0.0000
vn 0.4823 0.8748 0.0459
vn 0.0000 0.9303 -0.3667
vn 0.4626 0.8253 -0.3238
vn -0.9995 0.0000 0.0316
vn -0.5756 -0.7892 0.2141
vn -0.3994 -0.8214 0.4071
vn -0.0000 -0.8590 0.5120
vn -0.0000 -0.8592 0.5117
vn 0.0348 -0.8628 0.5043
vn 0.0483 -0.8642 0.5008
vn -0.3347 -0.7906 0.5128
vn 0.0512 -0.8629 0.5029
vn -0.5808 -0.6439 0.4981
vn -0.1247 -0.8610 0.4931
vn 0.5750 -0.6499 0.4971
vn 0.5859 -0.6380 0.4996
vn 0.6804 -0.5329 0.5031
vn 0.9079 0.4144 -0.0630
vn -0.5851 -0.6397 0.4985
vn -0.0000 -0.6921 0.7218
vn 0.7082 -0.7060 0.0000
vn -0.7032 0.0000 0.7110
vn 0.1715 0.0000 0.9852
vn -0.2372 0.9179 -0.3182
vn 0.6160 -0.7878 0.0000
vn 0.7037 0.0000 0.7105
vn -0.7077 -0.7065 -0.0000
vn 0.5331 0.0000 0.8461
vn -0.7892 -0.5788 -0.2052
vn -0.1928 0.9129 -0.3598
vn -0.3930 0.8737 -0.2866
vn 0.0000 0.2227 -0.9749
vn -0.0000 0.9990 0.0450
vn -0.4127 0.9045 -0.1075
vn 0.0091 0.9703 -0.2415
vn -0.3546 0.8981 -0.2602
vn -0.3558 0.8977 -0.2598
vn -0.6215 0.7834 0.0008
vn 0.5999 0.7990 -0.0414
vn 0.4664 0.8832 0.0490
vn 0.8930 0.0000 0.4500
vn 0.7262 0.0000 -0.6875
vn 0.9990 0.0000 -0.0439
vn -0.0000 -0.1280 0.9918
vn 0.5433 0.0000 0.8395
vn 0.5207 0.3455 0.7807
vn 0.4221 0.8811 0.2135
vn 0.4245 0.8798 0.2139
vn 0.0047 -0.1279 0.9918
vn -0.0040 -0.1358 0.9907
vn -0.0000 -0.1169 0.9931
vn -0.0524 0.6782 0.7330
vn -0.0011 0.9999 0.0159
vn 0.0028 -0.1211 0.9926
vn -0.0233 0.9994 -0.0255
vn 0.0050 0.9698 -0.2438
vn 0.0024 0.9933 -0.1152
vn -0.1392 0.9720 -0.1893
vn -0.1697 0.9678 -0.1859
vn -0.6157 -0.7880 0.0005
vn -0.0207 0.9995 -0.0234
vn -0.0325 0.9149 0.4023
vn -0.0366 0.9989 0.0289
vn -0.0767 0.9933 0.0869
vn -0.0339 0.9200 0.3903
vn -0.0338 0.0000 0.9994
# 336 vertex normals

vt 0.3081 0.3100 0.0000
vt 0.2625 0.2932 0.0000
vt 0.3089 0.2995 0.0000
vt 0.2514 0.2783 0.0000
vt 0.8669 0.2878 0.0000
vt 0.8814 0.2932 0.0000
vt 0.8544 0.2923 0.0000
vt 0.9153 0.8617 0.0000
vt 0.8764 0.7860 0.0000
vt 0.9332 0.8283 0.0000
vt 0.9121 0.8935 0.0000
vt 0.8749 0.8360 0.0000
vt 0.8393 0.8601 0.0000
vt 0.8779 0.8684 0.0000
vt 0.8393 0.8977 0.0000
vt 0.4802 0.6933 0.0000
vt 0.4852 0.6749 0.0000
vt 0.5075 0.6933 0.0000
vt 0.8876 0.8950 0.0000
vt 0.8779 0.8957 0.0000
vt 0.5171 0.6749 0.0000
vt 0.9611 0.7533 0.0000
vt 0.9611 0.7242 0.0000
vt 0.9850 0.6949 0.0000
vt 0.9611 0.6949 0.0000
vt 0.9495 0.7497 0.0000
vt 0.9495 0.7266 0.0000
vt 0.9280 0.6956 0.0000
vt 0.8879 0.6891 0.0000
vt 0.9390 0.6840 0.0000
vt 0.9254 0.5647 0.0000
vt 0.9349 0.5778 0.0000
vt 0.8851 0.5656 0.0000
vt 0.9495 0.7195 0.0000
vt 0.9495 0.6962 0.0000
vt 0.8297 0.6666 0.0000
vt 0.8297 0.6436 0.0000
vt 0.8702 0.6436 0.0000
vt 0.9850 0.8119 0.0000
vt 0.9611 0.7826 0.0000
vt 0.9390 0.7139 0.0000
vt 0.9267 0.7255 0.0000
vt 0.8879 0.7191 0.0000
vt 0.9349 0.5628 0.0000
vt 0.8851 0.5506 0.0000
vt 0.9252 0.5497 0.0000
vt 0.9495 0.7571 0.0000
vt 0.9495 0.7801 0.0000
vt 0.1553 0.4172 0.0000
vt 0.1094 0.4179 0.0000
vt 0.1058 0.4063 0.0000
vt 0.9445 0.8147 0.0000
vt 0.9855 0.8433 0.0000
vt 0.9445 0.8433 0.0000
vt 0.8253 0.3494 0.0000
vt 0.8197 0.3405 0.0000
vt 0.8539 0.3494 0.0000
vt 0.7280 0.7429 0.0000
vt 0.7280 0.8922 0.0000
vt 0.6541 0.7398 0.0000
vt 0.7200 0.7179 0.0000
vt 0.7252 0.7251 0.0000
vt 0.6849 0.7251 0.0000
vt 0.6900 0.7179 0.0000
vt 0.2117 0.4284 0.0000
vt 0.2057 0.4182 0.0000
vt 0.2419 0.3864 0.0000
vt 0.8597 0.3405 0.0000
vt 0.8597 0.0122 0.0000
vt 0.8253 0.0010 0.0000
vt 0.9000 0.0122 0.0000
vt 0.9400 0.0122 0.0000
vt 0.9745 0.0010 0.0000
vt 0.5544 0.3646 0.0000
vt 0.3940 0.3646 0.0000
vt 0.4454 0.2851 0.0000
vt 0.6407 0.6523 0.0000
vt 0.5990 0.6669 0.0000
vt 0.6408 0.6400 0.0000
vt 0.5801 0.6611 0.0000
vt 0.7749 0.3209 0.0000
vt 0.7624 0.3256 0.0000
vt 0.7448 0.3193 0.0000
vt 0.1701 0.4054 0.0000
vt 0.9384 0.7641 0.0000
vt 0.9083 0.7647 0.0000
vt 0.9384 0.7354 0.0000
vt 0.9855 0.8147 0.0000
vt 0.8024 0.5427 0.0000
vt 0.8102 0.6346 0.0000
vt 0.7997 0.6221 0.0000
vt 0.4137 0.4153 0.0000
vt 0.4923 0.4154 0.0000
vt 0.5049 0.4264 0.0000
vt 0.8297 0.7641 0.0000
vt 0.8297 0.7345 0.0000
vt 0.9083 0.7345 0.0000
vt 0.9212 0.7699 0.0000
vt 0.2189 0.3773 0.0000
vt 0.2057 0.2905 0.0000
vt 0.3793 0.3773 0.0000
vt 0.3940 0.3671 0.0000
vt 0.5544 0.3671 0.0000
vt 0.5579 0.2851 0.0000
vt 0.3904 0.2851 0.0000
vt 0.6900 0.6749 0.0000
vt 0.7200 0.6749 0.0000
vt 0.6921 0.3236 0.0000
vt 0.6849 0.3142 0.0000
vt 0.7351 0.3019 0.0000
vt 0.6235 0.6300 0.0000
vt 0.5807 0.6572 0.0000
vt 0.5801 0.6451 0.0000
vt 0.9267 0.5410 0.0000
vt 0.9207 0.5395 0.0000
vt 0.9267 0.3954 0.0000
vt 0.7619 0.5500 0.0000
vt 0.6555 0.5425 0.0000
vt 0.7490 0.5164 0.0000
vt 0.9551 0.6906 0.0000
vt 0.9506 0.6743 0.0000
vt 0.9540 0.6650 0.0000
vt 0.6764 0.3091 0.0000
vt 0.6699 0.2992 0.0000
vt 0.7210 0.2865 0.0000
vt 0.8156 0.3306 0.0000
vt 0.7880 0.3297 0.0000
vt 0.7989 0.3255 0.0000
vt 0.8156 0.3606 0.0000
vt 0.7880 0.3615 0.0000
vt 0.7423 0.2852 0.0000
vt 0.7989 0.3657 0.0000
vt 0.7273 0.2702 0.0000
vt 0.2601 0.3860 0.0000
vt 0.9212 0.7298 0.0000
vt 0.9531 0.5792 0.0000
vt 0.9851 0.5792 0.0000
vt 0.7501 0.1917 0.0000
vt 0.7528 0.2743 0.0000
vt 0.9871 0.6650 0.0000
vt 0.7351 0.1751 0.0000
vt 0.7378 0.2609 0.0000
vt 0.3497 0.4138 0.0000
vt 0.2741 0.3804 0.0000
vt 0.7764 0.5690 0.0000
vt 0.6979 0.5663 0.0000
vt 0.7894 0.5585 0.0000
vt 0.6414 0.6361 0.0000
vt 0.5801 0.5401 0.0000
vt 0.6262 0.5455 0.0000
vt 0.5801 0.5710 0.0000
vt 0.8814 0.3240 0.0000
vt 0.8544 0.3218 0.0000
vt 0.8136 0.5301 0.0000
vt 0.4004 0.4261 0.0000
vt 0.9166 0.6436 0.0000
vt 0.8702 0.6718 0.0000
vt 0.6262 0.5737 0.0000
vt 0.6666 0.5556 0.0000
vt 0.6666 0.5788 0.0000
vt 0.8875 0.6996 0.0000
vt 0.8411 0.6844 0.0000
vt 0.8297 0.6699 0.0000
vt 0.9392 0.6742 0.0000
vt 0.9166 0.6744 0.0000
vt 0.9392 0.6447 0.0000
vt 0.9280 0.6789 0.0000
vt 0.8382 0.5637 0.0000
vt 0.8861 0.5551 0.0000
vt 0.8247 0.5765 0.0000
vt 0.8669 0.3267 0.0000
vt 0.7731 0.5238 0.0000
vt 0.8212 0.5152 0.0000
vt 0.8202 0.5256 0.0000
vt 0.8608 0.5248 0.0000
vt 0.8700 0.5378 0.0000
vt 0.8879 0.7041 0.0000
vt 0.9390 0.6989 0.0000
vt 0.9276 0.7106 0.0000
vt 0.7598 0.5365 0.0000
vt 0.8875 0.7146 0.0000
vt 0.9280 0.6400 0.0000
vt 0.8297 0.6849 0.0000
vt 0.8416 0.6994 0.0000
vt 0.5262 0.6679 0.0000
vt 0.5262 0.6400 0.0000
vt 0.5663 0.6630 0.0000
vt 0.4802 0.6400 0.0000
vt 0.4802 0.6706 0.0000
vt 0.5663 0.6400 0.0000
vt 0.8875 0.7296 0.0000
vt 0.8427 0.7146 0.0000
vt 0.8297 0.6999 0.0000
vt 0.8385 0.5488 0.0000
vt 0.8247 0.5615 0.0000
vt 0.8861 0.5401 0.0000
vt 0.9495 0.5698 0.0000
vt 0.9524 0.5551 0.0000
vt 0.9824 0.5551 0.0000
vt 0.7239 0.1657 0.0000
vt 0.7053 0.3306 0.0000
vt 0.6799 0.3313 0.0000
vt 0.6944 0.3266 0.0000
vt 0.7053 0.3615 0.0000
vt 0.6799 0.3619 0.0000
vt 0.6944 0.3657 0.0000
vt 0.7389 0.1807 0.0000
vt 0.3557 0.4283 0.0000
vt 0.6849 0.5551 0.0000
vt 0.7704 0.2157 0.0000
vt 0.8394 0.2157 0.0000
vt 0.8392 0.2266 0.0000
vt 0.4802 0.5401 0.0000
vt 0.5354 0.5401 0.0000
vt 0.4985 0.6354 0.0000
vt 0.5354 0.6354 0.0000
vt 0.9187 0.2282 0.0000
vt 0.8392 0.2782 0.0000
vt 0.7648 0.2782 0.0000
vt 0.4595 0.2142 0.0000
vt 0.5231 0.2142 0.0000
vt 0.8643 0.3519 0.0000
vt 0.9144 0.3809 0.0000
vt 0.8634 0.3757 0.0000
vt 0.9611 0.8119 0.0000
vt 0.5685 0.6376 0.0000
vt 0.5463 0.6352 0.0000
vt 0.5677 0.5981 0.0000
vt 0.9495 0.8103 0.0000
vt 0.9495 0.7879 0.0000
vt 0.9252 0.2183 0.0000
vt 0.9698 0.2409 0.0000
vt 0.6201 0.7049 0.0000
vt 0.6156 0.7147 0.0000
vt 0.5801 0.7049 0.0000
vt 0.5845 0.7147 0.0000
vt 0.8197 0.0122 0.0000
vt 0.9133 0.2170 0.0000
vt 0.6541 0.8955 0.0000
vt 0.2057 0.3858 0.0000
vt 0.2189 0.3871 0.0000
vt 0.8565 0.8499 0.0000
vt 0.8565 0.8434 0.0000
vt 0.8697 0.8499 0.0000
vt 0.8697 0.8130 0.0000
vt 0.6549 0.5501 0.0000
vt 0.9212 0.2793 0.0000
vt 0.9310 0.2793 0.0000
vt 0.9187 0.2775 0.0000
vt 0.9761 0.2572 0.0000
vt 0.9310 0.2858 0.0000
vt 0.5801 0.6699 0.0000
vt 0.6246 0.6699 0.0000
vt 0.6246 0.7010 0.0000
vt 0.4802 0.6354 0.0000
vt 0.7498 0.8358 0.0000
vt 0.7650 0.8032 0.0000
vt 0.8518 0.7992 0.0000
vt 0.6372 0.1852 0.0000
vt 0.6668 0.1008 0.0000
vt 0.6568 0.1956 0.0000
vt 0.8696 0.5267 0.0000
vt 0.8696 0.4097 0.0000
vt 0.9207 0.3969 0.0000
vt 0.8697 0.7947 0.0000
vt 0.6250 0.0909 0.0000
vt 0.7142 0.0909 0.0000
vt 0.7118 0.1003 0.0000
vt 0.6388 0.1955 0.0000
vt 0.8518 0.7947 0.0000
vt 0.9153 0.3371 0.0000
vt 0.9315 0.3344 0.0000
vt 0.9315 0.3300 0.0000
vt 0.9409 0.3259 0.0000
vt 0.9214 0.3344 0.0000
vt 0.6600 0.5102 0.0000
vt 0.9424 0.2934 0.0000
vt 0.9839 0.3523 0.0000
vt 0.9866 0.2665 0.0000
vt 0.5801 0.7010 0.0000
vt 0.9862 0.6906 0.0000
vt 0.9727 0.3617 0.0000
vt 0.9884 0.5698 0.0000
vt 0.9597 0.3764 0.0000
vt 0.9149 0.3914 0.0000
vt 0.5406 0.5952 0.0000
vt 0.5700 0.5533 0.0000
vt 0.5401 0.5501 0.0000
vt 0.8757 0.3873 0.0000
vt 0.4377 0.7120 0.0000
vt 0.4377 0.7469 0.0000
vt 0.2692 0.7120 0.0000
vt 0.4413 0.7540 0.0000
vt 0.2692 0.7540 0.0000
vt 0.1719 0.6646 0.0000
vt 0.1558 0.6818 0.0000
vt 0.1719 0.4925 0.0000
vt 0.2982 0.0803 0.0000
vt 0.2677 0.0236 0.0000
vt 0.3132 0.0803 0.0000
vt 0.9245 0.8496 0.0000
vt 0.9921 0.8496 0.0000
vt 0.9279 0.8566 0.0000
vt 0.5558 0.0803 0.0000
vt 0.5558 0.0753 0.0000
vt 0.4377 0.7049 0.0000
vt 0.2656 0.7049 0.0000
vt 0.4377 0.7118 0.0000
vt 0.4430 0.6823 0.0000
vt 0.3754 0.6823 0.0000
vt 0.3754 0.5102 0.0000
vt 0.9921 0.8916 0.0000
vt 0.9281 0.8568 0.0000
vt 0.9281 0.8916 0.0000
vt 0.6849 0.5922 0.0000
vt 0.6885 0.5851 0.0000
vt 0.7847 0.5922 0.0000
vt 0.9281 0.8988 0.0000
vt 0.3522 0.4529 0.0000
vt 0.3138 0.4926 0.0000
vt 0.3059 0.4850 0.0000
vt 0.3443 0.4453 0.0000
vt 0.3276 0.5088 0.0000
vt 0.3276 0.6773 0.0000
vt 0.3205 0.6773 0.0000
vt 0.5851 0.8682 0.0000
vt 0.5851 0.7669 0.0000
vt 0.4985 0.5228 0.0000
vt 0.4897 0.5102 0.0000
vt 0.5107 0.5320 0.0000
vt 0.4852 0.4956 0.0000
vt 0.4855 0.4803 0.0000
vt 0.4905 0.4658 0.0000
vt 0.4997 0.4535 0.0000
vt 0.5122 0.4448 0.0000
vt 0.5269 0.4403 0.0000
vt 0.5422 0.4406 0.0000
vt 0.5777 0.4673 0.0000
vt 0.5822 0.4819 0.0000
vt 0.5689 0.4548 0.0000
vt 0.5567 0.4456 0.0000
vt 0.5819 0.4973 0.0000
vt 0.5769 0.5118 0.0000
vt 0.5677 0.5240 0.0000
vt 0.5552 0.5328 0.0000
vt 0.5405 0.5372 0.0000
vt 0.5252 0.5370 0.0000
vt 0.8297 0.6089 0.0000
vt 0.8309 0.5937 0.0000
vt 0.9393 0.6089 0.0000
vt 0.6658 0.5073 0.0000
vt 0.6549 0.4004 0.0000
vt 0.6658 0.4004 0.0000
vt 0.6794 0.4004 0.0000
vt 0.6794 0.5073 0.0000
vt 0.7097 0.5109 0.0000
vt 0.7070 0.5109 0.0000
vt 0.7097 0.4004 0.0000
vt 0.7234 0.4004 0.0000
vt 0.8517 0.3949 0.0000
vt 0.7448 0.4100 0.0000
vt 0.7448 0.3949 0.0000
vt 0.8517 0.3704 0.0000
vt 0.7448 0.3812 0.0000
vt 0.7448 0.3704 0.0000
vt 0.9393 0.5937 0.0000
vt 0.8324 0.5879 0.0000
vt 0.9393 0.5801 0.0000
vt 0.9393 0.6240 0.0000
vt 0.8309 0.6240 0.0000
vt 0.8553 0.4841 0.0000
vt 0.7448 0.4841 0.0000
vt 0.8553 0.4689 0.0000
vt 0.7448 0.4689 0.0000
vt 0.8517 0.4180 0.0000
vt 0.7448 0.4252 0.0000
vt 0.7464 0.7029 0.0000
vt 0.7464 0.6305 0.0000
vt 0.7970 0.7029 0.0000
vt 0.7970 0.6305 0.0000
vt 0.4453 0.6823 0.0000
vt 0.4453 0.5152 0.0000
vt 0.4692 0.6823 0.0000
vt 0.6100 0.3678 0.0000
vt 0.6100 0.2007 0.0000
vt 0.6339 0.3678 0.0000
vt 0.4692 0.5152 0.0000
vt 0.6339 0.2007 0.0000
vt 0.0553 0.0305 0.0000
vt 0.1005 0.0803 0.0000
vt 0.0553 0.0753 0.0000
vt 0.0553 0.0233 0.0000
vt 0.1005 0.0233 0.0000
vt 0.6295 0.4358 0.0000
vt 0.6207 0.4497 0.0000
vt 0.5679 0.4497 0.0000
vt 0.5950 0.5209 0.0000
vt 0.5950 0.4681 0.0000
vt 0.6090 0.4594 0.0000
vt 0.0060 0.0782 0.0000
vt 0.0060 0.0276 0.0000
vt 0.0730 0.0928 0.0000
vt 0.0376 0.0939 0.0000
vt 0.8136 0.6931 0.0000
vt 0.8136 0.6403 0.0000
vt 0.0237 0.0948 0.0000
vt 0.0237 0.0110 0.0000
vt 0.0376 0.0119 0.0000
vt 0.5190 0.4298 0.0000
vt 0.5013 0.4124 0.0000
vt 0.5190 0.4227 0.0000
vt 0.5801 0.3977 0.0000
vt 0.5801 0.3927 0.0000
vt 0.5978 0.3802 0.0000
vt 0.5978 0.3704 0.0000
vt 0.5592 0.4358 0.0000
vt 0.6443 0.4453 0.0000
vt 0.6443 0.5437 0.0000
vt 0.6090 0.5296 0.0000
vt 0.7298 0.6931 0.0000
vt 0.7298 0.6403 0.0000
vt 0.0730 0.8931 0.0000
vt 0.0553 0.9105 0.0000
vt 0.0376 0.8920 0.0000
vt 0.0060 0.9076 0.0000
vt 0.0237 0.8911 0.0000
vt 0.9957 0.8988 0.0000
vt 0.2555 0.6818 0.0000
vt 0.3311 0.8817 0.0000
vt 0.3132 0.9056 0.0000
vt 0.2955 0.8833 0.0000
vt 0.7883 0.5851 0.0000
vt 0.5558 0.9056 0.0000
vt 0.5377 0.8817 0.0000
vt 0.3275 0.8746 0.0000
vt 0.5341 0.8746 0.0000
vt 0.2394 0.6646 0.0000
vt 0.3687 0.9105 0.0000
vt 0.4949 0.9105 0.0000
vt 0.3687 0.9554 0.0000
vt 0.3132 0.9623 0.0000
vt 0.2394 0.4925 0.0000
vt 0.3205 0.5052 0.0000
vt 0.4430 0.5102 0.0000
vt 0.7434 0.7099 0.0000
vt 0.8074 0.7170 0.0000
vt 0.7434 0.7518 0.0000
vt 0.7398 0.7590 0.0000
vt 0.8074 0.7590 0.0000
vt 0.8074 0.7518 0.0000
vt 0.3311 0.1042 0.0000
vt 0.5377 0.1042 0.0000
vt 0.5341 0.1113 0.0000
vt 0.3275 0.1113 0.0000
vt 0.1558 0.4752 0.0000
vt 0.3696 0.5088 0.0000
vt 0.3625 0.6773 0.0000
vt 0.3696 0.6809 0.0000
vt 0.8110 0.7099 0.0000
vt 0.9540 0.2116 0.0000
vt 0.8915 0.1997 0.0000
vt 0.9845 0.0892 0.0000
vt 0.0060 0.7547 0.0000
vt 0.0060 0.7099 0.0000
vt 0.0695 0.7547 0.0000
vt 0.5558 0.9623 0.0000
vt 0.4949 0.9554 0.0000
vt 0.5558 0.9105 0.0000
vt 0.5558 0.9552 0.0000
vt 0.2555 0.4752 0.0000
vt 0.8259 0.2009 0.0000
vt 0.7732 0.2099 0.0000
vt 0.7961 0.0921 0.0000
vt 0.8890 0.0809 0.0000
vt 0.0609 0.4006 0.0000
vt 0.0759 0.3059 0.0000
vt 0.1906 0.3371 0.0000
vt 0.2077 0.2737 0.0000
vt 0.1093 0.2185 0.0000
vt 0.2292 0.2248 0.0000
vt 0.1534 0.1458 0.0000
vt 0.1871 0.4006 0.0000
vt 0.1328 0.7099 0.0000
vt 0.1818 0.7099 0.0000
vt 0.1328 0.7547 0.0000
vt 0.0695 0.7099 0.0000
vt 0.1058 0.4253 0.0000
vt 0.1507 0.4253 0.0000
vt 0.1507 0.5200 0.0000
vt 0.1058 0.5200 0.0000
vt 0.1507 0.6074 0.0000
vt 0.1058 0.6074 0.0000
vt 0.1507 0.6801 0.0000
vt 0.1058 0.6801 0.0000
vt 0.5558 0.0236 0.0000
vt 0.6376 0.0416 0.0000
vt 0.6638 0.0584 0.0000
vt 0.5733 0.0992 0.0000
vt 0.7942 0.6000 0.0000
vt 0.7493 0.6000 0.0000
vt 0.0376 0.9739 0.0000
vt 0.0060 0.9583 0.0000
vt 0.0553 0.9554 0.0000
vt 0.0237 0.9748 0.0000
vt 0.4028 0.4004 0.0000
vt 0.4028 0.4124 0.0000
vt 0.3854 0.4227 0.0000
vt 0.8324 0.6298 0.0000
vt 0.8324 0.6376 0.0000
vt 0.9393 0.6376 0.0000
vt 0.6946 0.4004 0.0000
vt 0.8517 0.4100 0.0000
vt 0.8324 0.5801 0.0000
vt 0.6508 0.0613 0.0000
vt 0.7458 0.7847 0.0000
vt 0.7458 0.8171 0.0000
vt 0.7348 0.7885 0.0000
vt 0.7348 0.8899 0.0000
vt 0.7404 0.8380 0.0000
vt 0.7428 0.8531 0.0000
vt 0.7428 0.8229 0.0000
vt 0.7458 0.8589 0.0000
vt 0.7458 0.8937 0.0000
vt 0.5381 0.0010 0.0000
vt 0.5733 0.0046 0.0000
vt 0.6549 0.5073 0.0000
vt 0.6946 0.5073 0.0000
vt 0.7025 0.5073 0.0000
vt 0.0041 0.1821 0.0000
vt 0.0869 0.1821 0.0000
vt 0.0010 0.2177 0.0000
vt 0.6885 0.5822 0.0000
vt 0.7847 0.5751 0.0000
vt 0.7883 0.5822 0.0000
vt 0.0433 0.1091 0.0000
vt 0.5733 0.8867 0.0000
vt 0.6849 0.5751 0.0000
vt 0.1008 0.2177 0.0000
vt 0.5381 0.9849 0.0000
vt 0.5865 0.9505 0.0000
vt 0.6589 0.9416 0.0000
vt 0.5910 0.9128 0.0000
vt 0.6596 0.9266 0.0000
vt 0.5063 0.7780 0.0000
vt 0.5794 0.8216 0.0000
vt 0.5063 0.8607 0.0000
vt 0.5733 0.9813 0.0000
vt 0.4711 0.8632 0.0000
vt 0.4711 0.7648 0.0000
vt 0.0135 0.1091 0.0000
vt 0.6638 0.0474 0.0000
vt 0.6638 0.0450 0.0000
vt 0.6638 0.0586 0.0000
vt 0.2354 0.4461 0.0000
vt 0.2509 0.4662 0.0000
vt 0.2509 0.4664 0.0000
vt 0.6463 0.0845 0.0000
vt 0.1308 0.1058 0.0000
vt 0.1660 0.1134 0.0000
vt 0.1308 0.1356 0.0000
vt 0.6463 0.0191 0.0000
vt 0.6815 0.0760 0.0000
vt 0.6463 0.0787 0.0000
vt 0.6463 0.0271 0.0000
vt 0.6815 0.0298 0.0000
vt 0.2354 0.4403 0.0000
vt 0.1607 0.4375 0.0000
vt 0.1681 0.4408 0.0000
vt 0.1781 0.4622 0.0000
vt 0.1804 0.4632 0.0000
vt 0.9285 0.0474 0.0000
vt 0.9285 0.0584 0.0000
vt 0.9815 0.0760 0.0000
vt 0.9852 0.9892 0.0000
vt 0.9500 0.9870 0.0000
vt 0.9500 0.9671 0.0000
vt 0.9852 0.9595 0.0000
vt 0.2057 0.4403 0.0000
vt 0.2057 0.4461 0.0000
vt 0.6602 0.9264 0.0000
vt 0.6638 0.9273 0.0000
vt 0.6638 0.9275 0.0000
vt 0.6591 0.9268 0.0000
vt 0.7456 0.0958 0.0000
vt 0.7454 0.0960 0.0000
vt 0.7189 0.0983 0.0000
vt 0.7149 0.1025 0.0000
vt 0.9158 0.3155 0.0000
vt 0.9179 0.3169 0.0000
vt 0.8913 0.3200 0.0000
vt 0.1728 0.4103 0.0000
vt 0.1802 0.4136 0.0000
vt 0.5794 0.8513 0.0000
vt 0.8846 0.3155 0.0000
vt 0.1660 0.1333 0.0000
vt 0.6815 0.9099 0.0000
vt 0.6463 0.9072 0.0000
vt 0.8553 0.4992 0.0000
vt 0.7448 0.4992 0.0000
vt 0.8517 0.3812 0.0000
vt 0.7448 0.4553 0.0000
vt 0.8553 0.4388 0.0000
vt 0.7448 0.4496 0.0000
vt 0.7448 0.4388 0.0000
vt 0.7973 0.7847 0.0000
vt 0.7894 0.7890 0.0000
vt 0.7742 0.7915 0.0000
vt 0.7606 0.7984 0.0000
vt 0.7498 0.8092 0.0000
vt 0.7973 0.7903 0.0000
vt 0.7973 0.8937 0.0000
vt 0.7742 0.8846 0.0000
vt 0.7894 0.8870 0.0000
vt 0.7498 0.8668 0.0000
vt 0.7606 0.8776 0.0000
vt 0.7973 0.8857 0.0000
vt 0.7648 0.2266 0.0000
vt 0.2676 0.4004 0.0000
vt 0.2828 0.4028 0.0000
vt 0.2517 0.4368 0.0000
vt 0.2525 0.4028 0.0000
vt 0.2517 0.4397 0.0000
vt 0.3142 0.4342 0.0000
vt 0.2517 0.4414 0.0000
vt 0.3072 0.4205 0.0000
vt 0.3153 0.4414 0.0000
vt 0.2964 0.4097 0.0000
vt 0.8553 0.4553 0.0000
vt 0.8553 0.4496 0.0000
vt 0.8553 0.4252 0.0000
vt 0.8553 0.4180 0.0000
vt 0.5286 0.2107 0.0000
vt 0.5231 0.2107 0.0000
vt 0.8746 0.7883 0.0000
vt 0.2206 0.4368 0.0000
vt 0.2211 0.4342 0.0000
vt 0.2388 0.4097 0.0000
vt 0.8553 0.5128 0.0000
vt 0.8774 0.7847 0.0000
vt 0.4587 0.1394 0.0000
vt 0.4639 0.1506 0.0000
vt 0.3895 0.1480 0.0000
vt 0.2280 0.4205 0.0000
vt 0.7234 0.5109 0.0000
vt 0.7342 0.5109 0.0000
vt 0.7342 0.4004 0.0000
vt 0.7448 0.5128 0.0000
vt 0.8019 0.8850 0.0000
vt 0.8019 0.8540 0.0000
vt 0.5751 0.5801 0.0000
vt 0.5853 0.5801 0.0000
vt 0.5769 0.6009 0.0000
vt 0.6008 0.6009 0.0000
vt 0.9661 0.5525 0.0000
vt 0.9869 0.5268 0.0000
vt 0.9869 0.5525 0.0000
vt 0.6802 0.1266 0.0000
vt 0.6699 0.1266 0.0000
vt 0.6699 0.1008 0.0000
vt 0.6802 0.1008 0.0000
vt 0.0553 0.0803 0.0000
vt 0.6962 0.3704 0.0000
vt 0.0730 0.1026 0.0000
vt 0.2677 0.0803 0.0000
vt 0.2955 0.1026 0.0000
vt 0.1263 0.0803 0.0000
vt 0.6008 0.6275 0.0000
vt 0.5769 0.6275 0.0000
vt 0.6485 0.6275 0.0000
vt 0.6247 0.6275 0.0000
vt 0.6247 0.6009 0.0000
vt 0.6485 0.6009 0.0000
vt 0.6423 0.5801 0.0000
vt 0.6503 0.5801 0.0000
vt 0.7914 0.0060 0.0000
vt 0.8171 0.0060 0.0000
vt 0.8171 0.0140 0.0000
vt 0.7914 0.0141 0.0000
vt 0.0730 0.0131 0.0000
vt 0.0730 0.0010 0.0000
vt 0.1263 0.0234 0.0000
vt 0.6768 0.0060 0.0000
vt 0.5867 0.2007 0.0000
vt 0.5867 0.3678 0.0000
vt 0.5601 0.2007 0.0000
vt 0.5601 0.3678 0.0000
vt 0.6075 0.2007 0.0000
vt 0.6075 0.2264 0.0000
vt 0.6075 0.3410 0.0000
vt 0.6666 0.2007 0.0000
vt 0.6666 0.3678 0.0000
vt 0.6400 0.2007 0.0000
vt 0.5675 0.3704 0.0000
vt 0.4004 0.3970 0.0000
vt 0.4004 0.3704 0.0000
vt 0.7088 0.1008 0.0000
vt 0.7088 0.2680 0.0000
vt 0.6849 0.2680 0.0000
vt 0.5013 0.4004 0.0000
vt 0.3158 0.1358 0.0000
vt 0.3897 0.1370 0.0000
vt 0.4621 0.2021 0.0000
vt 0.3877 0.1995 0.0000
vt 0.5451 0.4004 0.0000
vt 0.6815 0.9561 0.0000
vt 0.6463 0.9588 0.0000
vt 0.6638 0.9384 0.0000
vt 0.6638 0.9409 0.0000
vt 0.6463 0.9014 0.0000
vt 0.0965 0.1644 0.0000
vt 0.0558 0.0958 0.0000
vt 0.1176 0.1996 0.0000
vt 0.6463 0.9668 0.0000
vt 0.9990 0.9384 0.0000
vt 0.9990 0.9275 0.0000
vt 0.7149 0.1173 0.0000
vt 0.1818 0.7547 0.0000
vt 0.2608 0.7099 0.0000
vt 0.2608 0.7547 0.0000
vt 0.4660 0.1333 0.0000
vt 0.9815 0.0298 0.0000
vt 0.6500 0.9870 0.0000
vt 0.9486 0.0584 0.0000
vt 0.6962 0.3802 0.0000
vt 0.3055 0.4601 0.0000
vt 0.3193 0.4457 0.0000
vt 0.4323 0.4780 0.0000
vt 0.4696 0.4303 0.0000
vt 0.4696 0.4853 0.0000
vt 0.9990 0.0474 0.0000
vt 0.9959 0.0474 0.0000
vt 0.9486 0.0474 0.0000
vt 0.4279 0.2429 0.0000
vt 0.3799 0.2365 0.0000
vt 0.7136 0.3977 0.0000
vt 0.7136 0.3927 0.0000
vt 0.5301 0.7161 0.0000
vt 0.5301 0.6949 0.0000
vt 0.5695 0.7109 0.0000
vt 0.5695 0.7161 0.0000
vt 0.5695 0.7000 0.0000
vt 0.5695 0.6949 0.0000
vt 0.1476 0.9056 0.0000
vt 0.0730 0.8833 0.0000
vt 0.6500 0.9671 0.0000
vt 0.4660 0.1134 0.0000
vt 0.3388 0.4922 0.0000
vt 0.3526 0.4778 0.0000
vt 0.9815 0.9099 0.0000
vt 0.9815 0.9561 0.0000
vt 0.0553 0.9056 0.0000
vt 0.9959 0.0584 0.0000
vt 0.9990 0.0584 0.0000
vt 0.6549 0.6274 0.0000
vt 0.6549 0.5801 0.0000
vt 0.6601 0.6274 0.0000
vt 0.6601 0.5801 0.0000
vt 0.9319 0.3007 0.0000
vt 0.8846 0.3007 0.0000
vt 0.8846 0.2955 0.0000
vt 0.9319 0.2955 0.0000
vt 0.3554 0.4453 0.0000
vt 0.3948 0.4926 0.0000
vt 0.3554 0.4926 0.0000
vt 0.3948 0.4453 0.0000
vt 0.4876 0.7049 0.0000
vt 0.4876 0.7261 0.0000
vt 0.4403 0.7049 0.0000
vt 0.4403 0.7261 0.0000
vt 0.5301 0.6699 0.0000
vt 0.5695 0.6699 0.0000
vt 0.5695 0.6751 0.0000
vt 0.5695 0.6860 0.0000
vt 0.5301 0.6911 0.0000
vt 0.5695 0.6911 0.0000
vt 0.6743 0.7222 0.0000
vt 0.6350 0.7222 0.0000
vt 0.6350 0.6749 0.0000
vt 0.6743 0.6749 0.0000
vt 0.4054 0.4677 0.0000
vt 0.4323 0.4325 0.0000
vt 0.0730 0.9728 0.0000
vt 0.6436 0.4004 0.0000
vt 0.3798 0.2799 0.0000
vt 0.3157 0.5002 0.0000
vt 0.3157 0.6807 0.0000
vt 0.3155 0.5002 0.0000
vt 0.3862 0.3318 0.0000
vt 0.3100 0.1468 0.0000
vt 0.3083 0.1960 0.0000
vt 0.2209 0.9605 0.0000
vt 0.0553 0.9626 0.0000
vt 0.1476 0.9605 0.0000
vt 0.4924 0.1699 0.0000
vt 0.4829 0.1230 0.0000
vt 0.2606 0.6807 0.0000
vt 0.3620 0.2629 0.0000
vt 0.2606 0.5002 0.0000
vt 0.4054 0.4357 0.0000
vt 0.3854 0.4298 0.0000
vt 0.0060 0.7648 0.0000
vt 0.0060 0.8632 0.0000
vt 0.3601 0.2962 0.0000
vt 0.3601 0.2723 0.0000
vt 0.3486 0.3074 0.0000
vt 0.2409 0.0235 0.0000
vt 0.6768 0.0142 0.0000
vt 0.6699 0.2680 0.0000
vt 0.9395 0.5525 0.0000
vt 0.9395 0.3854 0.0000
vt 0.6400 0.3678 0.0000
vt 0.6849 0.1008 0.0000
vt 0.2677 0.0677 0.0000
vt 0.6802 0.2680 0.0000
vt 0.6699 0.6446 0.0000
vt 0.6966 0.6446 0.0000
vt 0.6699 0.6685 0.0000
vt 0.6966 0.6685 0.0000
vt 0.7173 0.6600 0.0000
vt 0.7173 0.6703 0.0000
vt 0.9661 0.3854 0.0000
vt 0.9869 0.3854 0.0000
vt 0.6075 0.3678 0.0000
vt 0.7173 0.6474 0.0000
vt 0.6699 0.6207 0.0000
vt 0.6699 0.5968 0.0000
vt 0.6966 0.6207 0.0000
vt 0.6966 0.5968 0.0000
vt 0.7173 0.5950 0.0000
vt 0.7173 0.6033 0.0000
vt 0.5675 0.3970 0.0000
vt 0.6500 0.0142 0.0000
vt 0.6500 0.0060 0.0000
vt 0.2669 0.4937 0.0000
vt 0.2669 0.4542 0.0000
vt 0.2944 0.4542 0.0000
vt 0.2606 0.4453 0.0000
vt 0.3006 0.4453 0.0000
vt 0.9801 0.0122 0.0000
vt 0.0010 0.4243 0.0000
vt 0.1008 0.4243 0.0000
vt 0.0017 0.4600 0.0000
vt 0.1001 0.4600 0.0000
vt 0.1001 0.6824 0.0000
vt 0.0017 0.6824 0.0000
vt 0.3862 0.4051 0.0000
vt 0.0743 0.6851 0.0000
vt 0.0010 0.6851 0.0000
vt 0.0743 0.6849 0.0000
vt 0.0010 0.6849 0.0000
vt 0.3793 0.4042 0.0000
vt 0.0010 0.6899 0.0000
vt 0.0012 0.6899 0.0000
vt 0.0010 0.6968 0.0000
vt 0.2209 0.9056 0.0000
vt 0.3057 0.1978 0.0000
vt 0.2789 0.1968 0.0000
vt 0.2517 0.1737 0.0000
vt 0.2944 0.4937 0.0000
vt 0.7448 0.2918 0.0000
vt 0.7749 0.2905 0.0000
vt 0.7624 0.2855 0.0000
vt 0.2612 0.1564 0.0000
vt 0.3013 0.1380 0.0000
vt 0.0193 0.6975 0.0000
vt 0.0561 0.6899 0.0000
vt 0.0370 0.6986 0.0000
vt 0.2777 0.2296 0.0000
vt 0.2782 0.2151 0.0000
vt 0.2778 0.2328 0.0000
vt 0.4752 0.1959 0.0000
vt 0.4845 0.1957 0.0000
vt 0.0561 0.6991 0.0000
vt 0.2772 0.2519 0.0000
vt 0.3096 0.2558 0.0000
vt 0.3036 0.2529 0.0000
vt 0.0730 0.9849 0.0000
vt 0.2406 0.2654 0.0000
vt 0.2407 0.1859 0.0000
# 879 texture coords

o Metralleta
g Metralleta
s off
f 1/1/1 2/2/1 3/3/1 
f 2/2/2 4/4/2 3/3/2 
f 4/5/3 2/6/3 5/7/3 
f 6/8/4 7/9/4 8/10/4 
f 9/11/5 10/12/5 6/8/5 
f 10/13/6 11/14/6 12/15/6 
f 11/16/7 9/17/7 13/18/7 
f 10/12/8 9/11/8 11/19/8 
f 11/14/9 13/20/9 12/15/9 
f 14/21/7 13/18/7 9/17/7 
f 15/22/10 16/23/10 17/24/10 
f 18/25/10 17/24/10 16/23/10 
f 16/23/11 19/26/11 20/27/11 
f 20/28/12 21/29/12 16/30/12 
f 22/31/13 16/32/13 21/33/13 
f 18/25/14 16/23/14 22/34/14 
f 18/25/14 22/34/14 23/35/14 
f 20/36/15 19/37/15 24/38/15 
f 15/22/11 19/26/11 16/23/11 
f 17/24/10 25/39/10 15/22/10 
f 26/40/10 15/22/10 25/39/10 
f 26/41/16 27/42/16 28/43/16 
f 26/44/17 28/45/17 29/46/17 
f 15/22/18 26/40/18 30/47/18 
f 30/47/18 26/40/18 29/48/18 
f 31/49/19 32/50/19 33/51/19 
f 32/52/20 34/53/20 35/54/20 
f 35/55/21 36/56/21 32/57/21 
f 37/58/22 38/59/22 39/60/22 
f 40/61/23 41/62/23 36/63/23 
f 40/61/23 36/63/23 42/64/23 
f 41/65/24 40/66/24 43/67/24 
f 33/68/21 32/57/21 36/56/21 
f 41/69/25 38/70/25 36/71/25 
f 33/72/25 36/71/25 37/73/25 
f 44/74/26 45/75/26 8/76/26 
f 46/77/27 47/78/27 33/79/27 
f 48/80/28 33/79/28 47/78/28 
f 49/81/29 48/82/29 47/83/29 
f 31/49/30 33/51/30 48/84/30 
f 31/85/31 50/86/31 34/87/31 
f 32/52/20 31/88/20 34/53/20 
f 51/89/32 48/90/32 49/91/32 
f 52/92/33 50/93/33 48/94/33 
f 52/95/34 53/96/34 54/97/34 
f 52/95/34 54/97/34 50/86/34 
f 54/97/31 34/87/31 50/86/31 
f 31/85/35 48/98/35 50/86/35 
f 55/99/36 56/100/36 57/101/36 
f 57/102/37 44/74/37 55/103/37 
f 8/76/26 58/104/26 44/74/26 
f 59/105/26 8/76/26 45/75/26 
f 42/64/38 60/106/38 40/61/38 
f 43/107/38 40/61/38 60/106/38 
f 42/108/39 36/109/39 60/110/39 
f 34/111/40 36/112/40 35/113/40 
f 61/114/41 62/115/41 63/116/41 
f 64/117/42 65/118/42 66/119/42 
f 67/120/43 68/121/43 69/122/43 
f 70/123/44 41/124/44 67/125/44 
f 43/126/45 71/127/45 68/128/45 
f 43/126/46 60/129/46 72/130/46 
f 43/126/46 72/130/46 71/127/46 
f 73/131/47 60/110/47 36/109/47 
f 73/132/48 72/130/48 60/129/48 
f 68/133/49 67/125/49 41/124/49 
f 68/134/50 41/65/50 43/67/50 
f 54/97/51 73/135/51 34/87/51 
f 69/122/52 74/136/52 75/137/52 
f 76/138/53 72/139/53 73/131/53 
f 69/122/52 75/137/52 77/140/52 
f 74/141/54 69/142/54 68/133/54 
f 78/143/55 68/134/55 71/144/55 
f 54/145/56 53/146/56 73/147/56 
f 73/148/57 36/112/57 34/111/57 
f 2/149/58 1/150/58 79/151/58 
f 2/6/59 79/152/59 51/153/59 
f 48/90/60 51/89/60 80/154/60 
f 48/94/61 80/155/61 52/92/61 
f 24/38/62 81/156/62 82/157/62 
f 1/150/58 83/158/58 79/151/58 
f 20/36/15 24/38/15 82/157/15 
f 1/150/63 23/159/63 83/158/63 
f 22/160/63 83/158/63 23/159/63 
f 21/29/64 82/161/64 84/162/64 
f 80/163/65 21/29/65 84/162/65 
f 20/28/66 82/161/66 21/29/66 
f 52/164/67 84/165/67 53/166/67 
f 80/167/68 84/165/68 52/164/68 
f 79/168/69 83/169/69 21/33/69 
f 83/169/70 22/31/70 21/33/70 
f 80/170/71 79/168/71 21/33/71 
f 80/171/72 51/153/72 79/152/72 
f 81/172/73 24/173/73 85/174/73 
f 84/165/62 82/157/62 81/156/62 
f 19/175/74 85/174/74 24/173/74 
f 19/175/75 15/176/75 85/174/75 
f 53/166/67 84/165/67 81/156/67 
f 85/177/76 15/178/76 30/179/76 
f 85/174/77 86/180/77 81/172/77 
f 87/181/78 85/177/78 30/179/78 
f 86/182/79 53/166/79 81/156/79 
f 86/183/80 85/177/80 88/184/80 
f 87/181/81 88/184/81 85/177/81 
f 89/185/82 87/186/82 29/187/82 
f 87/186/83 89/185/83 88/188/83 
f 90/189/83 88/188/83 89/185/83 
f 30/190/82 29/187/82 87/186/82 
f 28/43/84 91/191/84 92/192/84 
f 92/192/85 93/193/85 28/43/85 
f 28/43/86 27/42/86 91/191/86 
f 90/194/87 28/45/87 93/195/87 
f 90/194/88 89/196/88 28/45/88 
f 28/45/89 89/196/89 29/46/89 
f 74/136/90 93/197/90 92/198/90 
f 92/198/91 94/199/91 74/136/91 
f 68/133/92 93/200/92 74/141/92 
f 78/201/93 90/202/93 93/203/93 
f 71/127/94 72/130/94 78/201/94 
f 76/204/94 78/201/94 72/130/94 
f 88/205/95 90/202/95 76/204/95 
f 78/201/95 76/204/95 90/202/95 
f 86/206/96 88/205/96 76/204/96 
f 76/138/97 73/131/97 86/207/97 
f 93/208/98 68/134/98 78/143/98 
f 53/146/99 86/209/99 73/147/99 
f 95/210/100 96/211/100 97/212/100 
f 98/213/101 56/214/101 99/215/101 
f 100/216/101 99/215/101 56/214/101 
f 101/217/102 58/218/102 97/212/102 
f 58/218/103 102/219/103 97/212/103 
f 103/220/104 104/221/104 8/76/104 
f 8/76/104 104/221/104 58/104/104 
f 25/222/105 105/223/105 106/224/105 
f 26/40/10 25/39/10 106/225/10 
f 27/226/106 107/227/106 91/228/106 
f 107/229/107 27/230/107 106/225/107 
f 26/40/107 106/225/107 27/230/107 
f 108/231/108 109/232/108 101/217/108 
f 41/233/109 70/234/109 101/235/109 
f 108/236/109 101/235/109 70/234/109 
f 37/73/25 36/71/25 38/70/25 
f 101/237/25 38/70/25 41/69/25 
f 96/211/110 38/238/110 97/212/110 
f 38/238/111 101/217/111 97/212/111 
f 96/239/22 39/60/22 38/59/22 
f 100/240/36 56/100/36 55/99/36 
f 110/241/36 100/240/36 55/99/36 
f 110/242/112 111/243/112 100/244/112 
f 99/245/112 100/244/112 111/243/112 
f 111/246/113 65/118/113 64/117/113 
f 55/247/101 101/217/101 110/248/101 
f 44/249/101 101/217/101 55/247/101 
f 110/248/101 112/250/101 111/251/101 
f 101/217/101 112/250/101 110/248/101 
f 101/217/114 109/232/114 112/250/114 
f 44/249/102 58/218/102 101/217/102 
f 109/252/115 108/253/115 70/254/115 
f 113/255/101 98/213/101 99/215/101 
f 111/243/116 64/256/116 99/245/116 
f 64/256/117 66/257/117 99/245/117 
f 66/257/118 114/258/118 99/245/118 
f 61/259/104 98/260/104 113/261/104 
f 25/262/119 17/263/119 62/115/119 
f 115/264/41 63/116/41 62/115/41 
f 114/258/120 113/265/120 99/245/120 
f 66/266/121 116/267/121 114/268/121 
f 61/259/104 113/261/104 117/269/104 
f 113/265/120 114/258/120 117/270/120 
f 105/223/122 25/222/122 62/271/122 
f 117/272/123 114/273/123 116/274/123 
f 62/271/124 117/272/124 105/223/124 
f 62/271/125 61/275/125 117/272/125 
f 66/119/42 65/118/42 116/276/42 
f 112/250/101 65/277/101 111/251/101 
f 75/278/126 112/250/126 77/279/126 
f 109/232/127 77/279/127 112/250/127 
f 109/252/128 70/254/128 67/280/128 
f 109/281/129 67/120/129 77/140/129 
f 69/122/130 77/140/130 67/120/130 
f 65/277/131 112/250/131 118/282/131 
f 118/282/132 116/274/132 65/277/132 
f 112/250/133 75/278/133 118/282/133 
f 75/137/134 94/199/134 118/283/134 
f 105/223/135 116/274/135 118/282/135 
f 117/272/136 116/274/136 105/223/136 
f 94/284/137 119/285/137 105/223/137 
f 105/223/138 118/282/138 94/284/138 
f 91/228/139 119/286/139 92/287/139 
f 94/288/139 92/287/139 119/286/139 
f 107/227/106 119/286/106 91/228/106 
f 107/289/140 106/224/140 105/223/140 
f 105/223/141 119/285/141 107/289/141 
f 75/137/91 74/136/91 94/199/91 
f 120/290/101 121/291/101 122/292/101 
f 123/293/101 124/294/101 121/291/101 
f 123/295/142 125/296/142 124/297/142 
f 126/298/143 127/299/143 128/300/143 
f 129/301/144 130/302/144 131/303/144 
f 132/304/143 128/300/143 133/305/143 
f 124/294/101 122/292/101 121/291/101 
f 129/306/145 122/292/145 134/307/145 
f 131/308/146 122/292/146 129/306/146 
f 122/292/147 131/308/147 120/290/147 
f 130/309/36 129/310/36 134/311/36 
f 135/312/144 120/313/144 130/302/144 
f 135/312/144 121/314/144 120/313/144 
f 120/313/144 131/303/144 130/302/144 
f 136/315/148 137/316/148 125/317/148 
f 121/314/149 135/312/149 123/318/149 
f 138/319/144 139/320/144 140/321/144 
f 138/319/144 140/321/144 141/322/144 
f 135/323/150 142/324/150 143/325/150 
f 96/239/36 95/326/36 39/60/36 
f 144/327/36 39/60/36 95/326/36 
f 145/328/151 146/329/151 147/330/151 
f 147/330/152 146/329/152 148/331/152 
f 147/330/153 148/331/153 149/332/153 
f 147/330/152 149/332/152 150/333/152 
f 147/330/153 150/333/153 151/334/153 
f 147/330/151 151/334/151 152/335/151 
f 147/330/151 152/335/151 153/336/151 
f 147/330/151 153/336/151 154/337/151 
f 155/338/152 156/339/152 157/340/152 
f 158/341/153 157/340/153 156/339/153 
f 154/337/152 158/341/152 156/339/152 
f 154/337/151 156/339/151 159/342/151 
f 154/337/151 159/342/151 160/343/151 
f 154/337/153 160/343/153 161/344/153 
f 154/337/152 161/344/152 162/345/152 
f 154/337/153 162/345/153 163/346/153 
f 154/337/151 163/346/151 164/347/151 
f 154/337/151 164/347/151 147/330/151 
f 165/348/154 166/349/154 154/350/154 
f 167/351/155 152/352/155 151/353/155 
f 150/354/156 168/355/156 151/353/156 
f 167/351/156 151/353/156 168/355/156 
f 169/356/157 170/357/157 148/358/157 
f 169/356/158 148/358/158 146/359/158 
f 171/360/159 159/361/159 156/362/159 
f 172/363/160 155/364/160 157/365/160 
f 158/366/161 173/367/161 157/368/161 
f 153/369/162 174/370/162 154/350/162 
f 175/371/163 164/372/163 176/373/163 
f 163/374/163 176/373/163 164/372/163 
f 159/361/164 177/375/164 160/376/164 
f 178/377/151 179/378/151 180/379/151 
f 181/380/151 180/379/151 179/378/151 
f 182/381/143 183/382/143 184/383/143 
f 185/384/143 186/385/143 187/386/143 
f 188/387/143 184/383/143 183/382/143 
f 189/388/143 187/386/143 186/385/143 
f 190/389/143 191/390/143 192/391/143 
f 193/392/143 194/393/143 190/389/143 
f 195/394/165 196/395/165 197/396/165 
f 198/397/166 199/398/166 200/399/166 
f 192/391/167 178/400/167 180/401/167 
f 192/391/167 180/401/167 190/389/167 
f 201/402/168 200/403/168 192/391/168 
f 196/404/169 180/379/169 197/405/169 
f 178/400/170 192/391/170 200/403/170 
f 178/400/171 200/403/171 199/406/171 
f 180/401/172 196/407/172 195/408/172 
f 190/389/173 180/401/173 195/408/173 
f 190/409/174 202/410/174 193/411/174 
f 192/412/174 203/413/174 201/414/174 
f 201/414/174 203/413/174 204/415/174 
f 195/394/165 197/396/165 205/416/165 
f 201/417/175 206/418/175 200/399/175 
f 200/399/166 207/419/166 198/397/166 
f 180/379/169 181/380/169 197/405/169 
f 178/377/176 199/420/176 198/421/176 
f 179/378/176 178/377/176 198/421/176 
f 206/422/177 208/423/177 207/424/177 
f 179/425/178 207/424/178 208/423/178 
f 198/426/179 207/424/179 179/425/179 
f 209/427/149 123/318/149 135/312/149 
f 125/296/180 123/295/180 136/428/180 
f 137/429/181 210/430/181 211/431/181 
f 212/432/148 125/317/148 137/316/148 
f 213/433/182 210/430/182 214/434/182 
f 136/435/183 215/436/183 137/429/183 
f 209/437/180 136/428/180 123/295/180 
f 216/438/101 210/430/101 217/439/101 
f 218/440/101 219/441/101 210/430/101 
f 216/438/101 218/440/101 210/430/101 
f 209/437/184 143/442/184 136/428/184 
f 137/429/182 214/434/182 210/430/182 
f 214/434/183 137/429/183 215/436/183 
f 135/323/150 143/325/150 209/443/150 
f 220/444/36 130/309/36 134/311/36 
f 124/445/151 142/446/151 122/447/151 
f 134/448/185 122/447/185 220/449/185 
f 221/450/185 220/449/185 122/447/185 
f 212/451/186 128/300/186 222/452/186 
f 222/452/150 223/453/150 212/451/150 
f 125/454/150 212/451/150 223/453/150 
f 124/297/142 125/296/142 223/455/142 
f 130/456/143 221/457/143 135/323/143 
f 220/458/143 221/457/143 130/456/143 
f 142/324/143 135/323/143 221/457/143 
f 143/459/151 142/446/151 124/445/151 
f 221/450/151 122/447/151 142/446/151 
f 217/460/36 224/461/36 216/462/36 
f 217/463/187 225/464/187 224/465/187 
f 213/433/101 217/439/101 210/430/101 
f 226/466/101 219/441/101 225/467/101 
f 218/440/101 225/467/101 219/441/101 
f 213/433/101 227/468/101 217/439/101 
f 225/467/101 217/439/101 228/469/101 
f 228/469/101 217/439/101 227/468/101 
f 143/442/184 215/470/184 136/428/184 
f 229/471/36 230/472/36 231/473/36 
f 231/473/36 232/474/36 229/471/36 
f 224/461/36 229/471/36 232/474/36 
f 224/461/36 232/474/36 216/462/36 
f 218/475/104 233/476/104 234/477/104 
f 235/478/104 236/479/104 237/480/104 
f 238/481/104 237/480/104 236/479/104 
f 236/479/104 235/478/104 233/476/104 
f 235/478/104 234/477/104 233/476/104 
f 225/482/104 218/475/104 234/477/104 
f 235/483/188 237/484/188 229/485/188 
f 234/486/189 235/483/189 229/485/189 
f 234/486/189 229/485/189 224/465/189 
f 224/465/187 225/464/187 234/486/187 
f 218/487/190 216/488/190 232/489/190 
f 218/487/190 232/489/190 233/490/190 
f 232/489/191 231/491/191 236/492/191 
f 232/489/191 236/492/191 233/490/191 
f 231/491/192 239/493/192 238/494/192 
f 231/491/192 238/494/192 236/492/192 
f 133/305/143 128/300/143 240/495/143 
f 241/496/193 242/497/193 133/305/193 
f 241/496/194 133/305/194 240/495/194 
f 222/452/195 132/304/195 243/498/195 
f 222/452/186 128/300/186 132/304/186 
f 244/499/196 181/380/196 208/500/196 
f 179/378/196 208/500/196 181/380/196 
f 205/501/197 181/502/197 244/503/197 
f 205/501/198 197/504/198 181/502/198 
f 245/505/199 246/506/199 247/507/199 
f 174/370/200 153/369/200 248/508/200 
f 249/509/201 248/508/201 152/510/201 
f 168/355/202 150/354/202 149/511/202 
f 171/360/159 250/512/159 159/361/159 
f 171/360/203 156/362/203 155/364/203 
f 158/366/204 166/349/204 173/367/204 
f 172/513/205 157/368/205 173/367/205 
f 158/366/154 154/350/154 166/349/154 
f 251/514/206 132/304/206 133/305/206 
f 165/348/162 154/350/162 174/370/162 
f 250/512/207 177/375/207 159/361/207 
f 252/515/208 173/516/208 95/517/208 
f 144/518/208 95/517/208 165/519/208 
f 144/518/208 165/519/208 174/520/208 
f 165/519/209 95/517/209 166/521/209 
f 166/521/208 95/517/208 173/516/208 
f 132/304/210 251/514/210 243/498/210 
f 144/518/208 248/522/208 253/523/208 
f 248/522/209 144/518/209 174/520/209 
f 127/299/211 254/524/211 240/495/211 
f 254/524/212 255/525/212 240/495/212 
f 153/369/213 152/510/213 248/508/213 
f 249/526/155 152/352/155 167/351/155 
f 168/355/202 149/511/202 256/527/202 
f 149/511/214 148/358/214 257/528/214 
f 149/511/215 257/528/215 256/527/215 
f 223/455/216 215/470/216 124/297/216 
f 243/529/217 258/530/217 222/531/217 
f 143/442/216 124/297/216 215/470/216 
f 223/532/149 214/533/149 215/534/149 
f 259/535/218 258/530/218 243/529/218 
f 258/536/219 213/433/219 214/434/219 
f 223/532/149 222/537/149 214/533/149 
f 214/538/217 222/531/217 258/530/217 
f 226/466/101 225/467/101 228/469/101 
f 260/539/220 219/441/220 226/466/220 
f 261/540/221 262/541/221 228/469/221 
f 228/469/222 262/541/222 226/466/222 
f 258/536/223 263/542/223 213/433/223 
f 264/543/224 227/468/224 213/433/224 
f 265/544/225 266/545/225 255/546/225 
f 265/547/226 260/539/226 226/466/226 
f 255/546/227 254/548/227 265/544/227 
f 260/549/227 265/544/227 254/548/227 
f 259/535/218 243/529/218 267/550/218 
f 242/497/228 241/496/228 268/551/228 
f 269/552/228 268/551/228 241/496/228 
f 251/514/229 133/305/229 242/497/229 
f 242/497/230 270/553/230 251/514/230 
f 271/554/231 270/555/231 242/556/231 
f 251/514/232 270/553/232 267/557/232 
f 251/514/233 267/557/233 243/498/233 
f 240/495/234 269/552/234 241/496/234 
f 272/558/235 273/559/235 274/560/235 
f 275/561/236 240/495/236 255/525/236 
f 275/561/237 269/552/237 240/495/237 
f 242/497/238 276/562/238 271/563/238 
f 274/564/239 277/565/239 268/551/239 
f 267/566/231 270/555/231 271/554/231 
f 275/567/231 274/568/231 269/569/231 
f 268/570/231 269/569/231 274/568/231 
f 268/551/143 278/571/143 279/572/143 
f 268/551/143 279/572/143 242/497/143 
f 242/497/240 279/572/240 276/562/240 
f 280/573/240 276/562/240 279/572/240 
f 268/551/241 277/565/241 278/571/241 
f 271/574/242 276/575/242 281/576/242 
f 271/574/242 281/576/242 282/577/242 
f 259/578/144 267/566/144 282/579/144 
f 282/579/144 267/566/144 271/554/144 
f 283/580/243 284/581/243 285/582/243 
f 285/582/244 286/583/244 264/543/244 
f 285/582/245 264/543/245 283/580/245 
f 285/584/246 284/585/246 282/586/246 
f 259/587/246 282/586/246 284/585/246 
f 287/588/246 288/589/246 272/590/246 
f 266/591/144 272/592/144 275/567/144 
f 274/568/144 275/567/144 272/592/144 
f 275/593/225 255/546/225 266/545/225 
f 266/594/246 287/588/246 272/590/246 
f 277/595/235 274/560/235 273/559/235 
f 281/596/247 285/582/247 282/597/247 
f 164/372/248 175/371/248 289/598/248 
f 147/599/248 164/372/248 289/598/248 
f 155/364/203 290/600/203 171/360/203 
f 172/363/160 290/600/160 155/364/160 
f 176/373/249 163/374/249 162/601/249 
f 291/602/250 162/603/250 161/604/250 
f 161/604/251 160/376/251 291/602/251 
f 252/515/151 102/605/151 250/606/151 
f 250/606/151 171/607/151 252/515/151 
f 171/607/151 290/608/151 252/515/151 
f 252/515/151 290/608/151 172/609/151 
f 252/515/151 172/609/151 173/516/151 
f 102/605/151 177/610/151 250/606/151 
f 292/611/151 168/612/151 256/613/151 
f 253/523/151 168/612/151 292/611/151 
f 249/614/151 167/615/151 253/523/151 
f 249/614/151 253/523/151 248/522/151 
f 168/612/151 253/523/151 167/615/151 
f 256/613/151 257/616/151 292/611/151 
f 252/617/103 97/212/103 102/219/103 
f 175/618/144 176/619/144 293/620/144 
f 289/621/144 175/618/144 293/620/144 
f 7/622/144 293/620/144 294/623/144 
f 103/624/144 7/622/144 294/623/144 
f 291/625/144 294/623/144 293/620/144 
f 104/626/144 103/624/144 294/623/144 
f 295/627/144 291/625/144 293/620/144 
f 176/619/144 295/627/144 293/620/144 
f 176/373/249 162/601/249 295/628/249 
f 162/603/250 291/602/250 295/629/250 
f 160/376/251 294/630/251 291/602/251 
f 177/375/252 104/631/252 294/630/252 
f 177/375/252 294/630/252 160/376/252 
f 102/632/104 58/104/104 104/221/104 
f 177/633/104 102/632/104 104/221/104 
f 97/212/253 252/617/253 95/210/253 
f 6/8/254 10/12/254 293/634/254 
f 6/8/255 293/634/255 7/9/255 
f 170/635/144 169/636/144 293/620/144 
f 289/621/144 293/620/144 296/637/144 
f 147/599/256 289/598/256 296/638/256 
f 103/639/257 8/10/257 7/9/257 
f 144/640/258 253/641/258 297/642/258 
f 296/637/144 293/620/144 298/643/144 
f 169/636/144 298/643/144 293/620/144 
f 257/528/259 148/358/259 170/357/259 
f 169/356/158 146/359/158 298/644/158 
f 296/645/260 298/644/260 145/646/260 
f 146/359/260 145/646/260 298/644/260 
f 145/647/256 147/599/256 296/638/256 
f 12/15/261 292/611/261 10/13/261 
f 10/13/262 292/611/262 170/648/262 
f 170/648/263 293/649/263 10/13/263 
f 257/616/264 170/648/264 292/611/264 
f 299/650/151 191/651/151 300/652/151 
f 300/652/151 191/651/151 301/653/151 
f 300/654/265 302/655/265 299/656/265 
f 302/657/101 303/658/101 191/659/101 
f 302/657/101 191/659/101 299/660/101 
f 203/661/143 192/391/143 191/390/143 
f 204/415/151 304/662/151 201/414/151 
f 203/661/266 191/390/266 204/663/266 
f 305/664/266 306/665/266 303/666/266 
f 303/666/266 204/663/266 191/390/266 
f 301/653/151 182/667/151 184/668/151 
f 184/668/151 300/652/151 301/653/151 
f 185/669/151 187/670/151 307/671/151 
f 185/669/151 307/671/151 308/672/151 
f 301/653/151 191/651/151 307/671/151 
f 191/651/151 194/673/151 307/671/151 
f 307/671/151 194/673/151 308/672/151 
f 309/674/151 308/672/151 194/673/151 
f 310/675/101 309/676/101 194/677/101 
f 311/678/101 310/675/101 194/677/101 
f 191/390/143 190/389/143 194/393/143 
f 195/408/267 202/679/267 190/389/267 
f 194/393/268 312/680/268 311/681/268 
f 311/678/101 313/682/101 310/675/101 
f 308/683/104 314/684/104 185/685/104 
f 186/686/104 185/685/104 314/684/104 
f 309/687/269 310/688/269 308/683/269 
f 310/688/269 313/689/269 308/683/269 
f 314/684/269 308/683/269 313/689/269 
f 301/690/104 315/691/104 182/692/104 
f 189/693/36 307/694/36 187/695/36 
f 315/696/143 301/697/143 307/698/143 
f 202/410/174 312/699/174 193/411/174 
f 312/680/270 194/393/270 193/392/270 
f 37/700/271 39/701/271 297/642/271 
f 292/702/272 59/703/272 253/641/272 
f 144/640/273 297/642/273 39/701/273 
f 245/505/151 312/699/151 202/410/151 
f 205/416/274 246/704/274 195/394/274 
f 273/705/275 272/706/275 288/707/275 
f 264/543/276 263/542/276 283/580/276 
f 285/582/277 288/707/277 261/540/277 
f 288/707/277 287/708/277 261/540/277 
f 286/583/278 228/469/278 227/468/278 
f 286/583/279 261/540/279 228/469/279 
f 285/582/280 261/540/280 286/583/280 
f 287/708/281 262/541/281 261/540/281 
f 287/708/282 226/466/282 262/541/282 
f 265/547/283 226/466/283 287/708/283 
f 227/468/284 264/543/284 286/583/284 
f 258/536/285 283/580/285 263/542/285 
f 258/536/286 259/709/286 284/581/286 
f 284/581/287 283/580/287 258/536/287 
f 263/710/288 264/711/288 213/712/288 
f 265/547/289 287/708/289 266/713/289 
f 141/714/101 288/707/101 138/715/101 
f 288/707/101 285/582/101 138/715/101 
f 239/716/36 231/473/36 230/472/36 
f 230/717/290 237/484/290 238/718/290 
f 230/717/290 238/718/290 239/719/290 
f 229/485/188 237/484/188 230/717/188 
f 316/720/104 277/595/104 273/559/104 
f 138/715/291 285/582/291 281/596/291 
f 278/571/241 277/565/241 316/721/241 
f 281/576/36 276/575/36 280/722/36 
f 317/723/240 280/573/240 279/572/240 
f 201/414/151 304/662/151 206/724/151 
f 207/419/175 200/399/175 206/418/175 
f 316/725/292 318/726/292 140/321/292 
f 319/727/293 8/728/293 59/729/293 
f 140/730/241 320/731/241 316/721/241 
f 278/571/241 316/721/241 321/732/241 
f 279/572/143 278/571/143 321/732/143 
f 279/572/143 321/732/143 317/723/143 
f 12/733/294 319/734/294 59/703/294 
f 208/735/199 206/724/199 322/736/199 
f 304/662/199 322/736/199 206/724/199 
f 323/737/151 324/738/151 321/739/151 
f 325/740/151 323/737/151 321/739/151 
f 317/741/151 321/739/151 324/738/151 
f 326/742/151 317/741/151 324/738/151 
f 211/431/295 327/743/295 304/744/295 
f 281/576/36 280/722/36 328/745/36 
f 273/559/104 318/746/104 316/720/104 
f 280/747/296 139/320/296 328/748/296 
f 141/322/292 140/321/292 318/726/292 
f 138/715/291 281/596/291 328/749/291 
f 273/705/297 288/707/297 141/714/297 
f 318/750/297 273/705/297 141/714/297 
f 322/751/295 304/744/295 327/743/295 
f 138/319/296 328/748/296 139/320/296 
f 280/573/240 317/723/240 329/752/240 
f 280/573/240 329/752/240 139/753/240 
f 297/642/272 253/641/272 59/703/272 
f 321/732/241 316/721/241 320/731/241 
f 320/731/143 140/730/143 139/753/143 
f 320/731/143 139/753/143 329/752/143 
f 329/754/101 317/755/101 330/756/101 
f 326/757/101 330/756/101 317/755/101 
f 321/758/101 320/759/101 331/760/101 
f 321/758/101 331/760/101 325/761/101 
f 323/762/104 331/763/104 332/764/104 
f 325/765/104 331/763/104 323/762/104 
f 324/766/143 323/767/143 333/768/143 
f 332/769/143 333/768/143 323/767/143 
f 332/770/144 331/771/144 320/772/144 
f 329/773/144 333/774/144 320/772/144 
f 330/775/144 333/774/144 329/773/144 
f 332/770/144 320/772/144 333/774/144 
f 326/776/36 324/777/36 333/778/36 
f 326/776/36 333/778/36 330/779/36 
f 14/780/298 6/781/298 319/727/298 
f 6/781/293 8/728/293 319/727/293 
f 322/751/101 327/743/101 208/423/101 
f 244/503/101 208/423/101 327/743/101 
f 244/503/299 246/782/299 205/501/299 
f 202/783/274 195/394/274 246/704/274 
f 12/733/300 59/703/300 292/702/300 
f 12/733/301 13/784/301 319/734/301 
f 334/785/302 56/786/302 327/787/302 
f 57/101/36 56/100/36 334/788/36 
f 297/642/303 59/703/303 335/789/303 
f 45/790/303 335/789/303 59/703/303 
f 336/791/101 247/792/101 337/793/101 
f 98/260/104 63/794/104 337/795/104 
f 61/259/104 63/794/104 98/260/104 
f 56/786/302 98/796/302 327/787/302 
f 247/792/101 244/503/101 337/793/101 
f 319/734/304 13/784/304 14/797/304 
f 327/743/101 337/793/101 244/503/101 
f 337/798/302 327/787/302 98/796/302 
f 9/799/298 6/781/298 14/780/298 
f 115/264/119 62/115/119 17/263/119 
f 245/505/151 202/410/151 246/506/151 
f 244/800/199 247/507/199 246/506/199 
f 245/801/104 260/549/104 312/802/104 
f 18/803/305 3/3/305 17/804/305 
f 23/805/306 3/3/306 18/803/306 
f 3/3/307 23/805/307 1/1/307 
f 127/299/308 338/806/308 312/680/308 
f 311/681/308 312/680/308 338/806/308 
f 204/663/266 303/666/266 306/665/266 
f 311/678/101 338/807/101 313/682/101 
f 305/808/101 303/658/101 302/657/101 
f 184/809/36 188/810/36 300/654/36 
f 182/692/104 315/691/104 183/811/104 
f 307/698/143 339/812/143 315/696/143 
f 128/300/266 306/665/266 126/298/266 
f 305/664/266 126/298/266 306/665/266 
f 306/665/309 128/300/309 212/451/309 
f 340/813/143 126/298/143 305/664/143 
f 302/657/101 341/814/101 305/808/101 
f 183/815/144 315/816/144 188/817/144 
f 188/817/144 315/816/144 342/818/144 
f 342/818/144 315/816/144 305/819/144 
f 341/820/144 342/818/144 305/819/144 
f 188/810/36 342/821/36 300/654/36 
f 341/822/265 302/655/265 342/821/265 
f 300/654/265 342/821/265 302/655/265 
f 343/823/269 314/684/269 313/689/269 
f 340/824/144 305/819/144 315/816/144 
f 189/825/144 186/826/144 339/827/144 
f 314/828/144 339/827/144 186/826/144 
f 340/824/144 315/816/144 339/827/144 
f 343/829/144 127/830/144 314/828/144 
f 339/827/144 314/828/144 127/830/144 
f 340/824/144 339/827/144 127/830/144 
f 307/694/36 189/693/36 339/831/36 
f 127/832/101 343/833/101 338/807/101 
f 313/682/101 338/807/101 343/833/101 
f 127/299/143 240/495/143 128/300/143 
f 340/813/143 127/299/143 126/298/143 
f 312/802/104 260/549/104 254/548/104 
f 127/299/211 312/680/211 254/524/211 
f 335/789/310 37/700/310 297/642/310 
f 47/834/311 46/835/311 344/836/311 
f 46/835/312 33/837/312 344/836/312 
f 335/838/312 344/836/312 33/837/312 
f 33/72/25 37/73/25 335/839/25 
f 212/840/313 137/841/313 306/842/313 
f 306/842/313 137/841/313 211/843/313 
f 211/843/36 304/844/36 306/842/36 
f 204/845/36 306/842/36 304/844/36 
f 345/846/36 57/101/36 334/788/36 
f 345/847/143 334/848/143 346/849/143 
f 327/850/143 346/849/143 334/848/143 
f 45/75/37 44/74/37 57/102/37 
f 345/846/36 347/851/36 57/101/36 
f 345/852/314 346/853/314 347/854/314 
f 327/743/295 211/431/295 346/855/295 
f 57/856/143 347/857/143 348/858/143 
f 45/790/143 57/856/143 348/858/143 
f 45/790/143 348/858/143 335/789/143 
f 344/836/311 349/859/311 47/834/311 
f 349/860/315 350/861/315 47/83/315 
f 49/81/315 47/83/315 350/861/315 
f 349/860/316 348/862/316 350/861/316 
f 335/789/317 348/858/317 349/863/317 
f 344/864/318 335/789/318 349/863/318 
f 247/792/101 336/791/101 219/441/101 
f 219/441/101 336/791/101 210/430/101 
f 347/854/319 346/853/319 351/865/319 
f 346/855/101 210/430/101 336/791/101 
f 351/865/320 336/866/320 352/867/320 
f 346/853/321 336/866/321 351/865/321 
f 353/868/322 351/869/322 352/870/322 
f 353/868/323 352/870/323 4/4/323 
f 336/871/104 337/795/104 63/794/104 
f 354/872/104 336/871/104 63/794/104 
f 354/873/324 352/867/324 336/866/324 
f 4/4/325 352/870/325 354/874/325 
f 115/875/326 17/804/326 3/3/326 
f 3/3/327 4/4/327 115/875/327 
f 115/875/328 354/874/328 63/876/328 
f 354/874/329 115/875/329 4/4/329 
f 211/431/295 210/430/295 346/855/295 
f 219/441/220 260/539/220 245/877/220 
f 245/877/330 247/792/330 219/441/330 
f 348/858/331 353/868/331 4/4/331 
f 4/4/332 5/878/332 348/858/332 
f 351/869/333 348/858/333 347/857/333 
f 2/6/59 51/153/59 5/7/59 
f 353/868/334 348/858/334 351/869/334 
f 5/878/335 350/879/335 348/858/335 
f 350/861/336 5/7/336 49/81/336 
f 51/153/336 49/81/336 5/7/336 
# 704 faces

