# 3ds Max Wavefront OBJ Exporter v0.99 - (c)2007 guruware
# File Created: 26.12.2024 18:38:44

#
# object Pistola
#

v  0.0491 -0.1031 0.4698
v  0.0127 -0.1041 0.4933
v  0.0260 -0.1094 0.4787
v  0.0491 -0.0592 0.4698
v  0.0808 -0.0592 0.4070
v  0.0669 -0.0529 0.3981
v  0.0106 -0.0022 0.4933
v  0.0106 -0.0469 0.4933
v  0.0496 -0.0038 0.4685
v  0.0260 -0.0529 0.4787
v  0.0496 -0.0459 0.4685
v  -0.0183 0.0413 0.4211
v  -0.0203 -0.1190 0.4120
v  -0.0125 -0.1094 0.4125
v  0.0019 -0.1190 0.4120
v  -0.0251 -0.1094 0.4313
v  0.0019 -0.1190 0.2890
v  0.0019 -0.1138 0.2953
v  0.0019 -0.1094 0.4125
v  0.0019 -0.1094 0.3981
v  -0.0709 -0.1060 0.4292
v  -0.0869 -0.0968 0.3934
v  -0.0709 0.0309 0.4292
v  -0.1487 -0.0968 0.3921
v  -0.0130 0.1078 0.2579
v  -0.0128 0.1133 0.2712
v  -0.0036 0.1143 0.2691
v  -0.0497 0.1075 0.2817
v  -0.0494 0.1029 0.2678
v  -0.0573 0.1065 0.2840
v  -0.0628 0.0856 0.2280
v  -0.0036 0.1212 0.2864
v  -0.0036 0.1078 0.2864
v  -0.0036 0.1204 0.3029
v  -0.0036 0.1023 0.2916
v  0.0394 0.1212 0.2864
v  0.0019 0.1204 0.3029
v  -0.0225 0.1018 0.3018
v  -0.0203 0.1256 0.3032
v  -0.0036 0.1175 0.2770
v  -0.0177 0.1151 0.2793
v  -0.0188 0.1183 0.2890
v  -0.0233 0.1042 0.3018
v  -0.0395 0.1042 0.3018
v  -0.0133 0.1023 0.2916
v  -0.0133 0.1044 0.2880
v  -0.0036 0.1052 0.2864
v  -0.0233 0.1049 0.3018
v  -0.0232 0.1042 0.3018
v  -0.0217 0.1042 0.2900
v  -0.0245 0.1042 0.2900
v  -0.0337 0.1023 0.2916
v  -0.0217 0.1047 0.2895
v  -0.0196 0.1128 0.2890
v  0.0260 0.0035 0.4787
v  -0.1060 -0.0022 0.4897
v  0.0504 0.0117 0.4672
v  0.0077 0.0103 0.4933
v  -0.0133 0.1023 0.2880
v  0.0504 0.0519 0.4672
v  0.0077 0.0527 0.4933
v  0.0669 -0.1094 0.3981
v  -0.0036 0.0438 0.2864
v  -0.1060 -0.0456 0.4897
v  -0.0036 0.0886 0.3010
v  0.0127 -0.0579 0.4933
v  -0.0408 0.1042 0.2929
v  -0.1032 0.0516 0.4897
v  -0.1032 0.0103 0.4897
v  -0.0421 0.1135 0.2932
v  -0.1215 0.0035 0.4739
v  -0.1419 0.0085 0.4577
v  -0.0426 0.1115 0.2872
v  -0.0432 0.1159 0.2877
v  -0.0494 0.1112 0.2916
v  -0.1422 -0.0448 0.4572
v  -0.0562 0.1107 0.2955
v  -0.1422 -0.0017 0.4572
v  -0.1215 -0.1060 0.4739
v  -0.1084 -0.1013 0.4897
v  -0.1084 -0.0563 0.4897
v  -0.1215 -0.0513 0.4739
v  -0.1425 -0.0555 0.4559
v  -0.1425 -0.0976 0.4559
v  -0.1487 -0.0467 0.3921
v  -0.1631 -0.0519 0.3929
v  -0.1634 0.0085 0.3929
v  -0.1487 0.0035 0.3921
v  -0.1576 -0.0017 0.3366
v  -0.1634 -0.0017 0.3929
v  -0.1634 -0.0412 0.3929
v  -0.1576 -0.0341 0.3366
v  -0.1631 -0.0903 0.3929
v  -0.1576 -0.0451 0.3379
v  -0.1576 -0.0764 0.3379
v  -0.1414 -0.0375 0.3204
v  -0.1419 0.0519 0.4577
v  -0.1634 0.0482 0.3929
v  0.0213 0.2662 0.7117
v  0.0583 0.3012 0.7065
v  0.0438 0.2194 0.7086
v  0.0213 0.2194 0.7117
v  0.0583 0.2189 0.7936
v  0.0438 0.2192 0.7086
v  0.0583 0.2189 0.7065
v  0.0302 0.1225 0.8308
v  0.0583 0.0906 0.8360
v  0.0302 0.2693 0.8308
v  0.0583 0.3012 0.8360
v  0.0302 0.2693 0.8088
v  0.0438 0.2192 0.7957
v  -0.0489 0.3012 0.7936
v  -0.0489 0.2881 0.7954
v  -0.0489 0.2881 0.7083
v  -0.0489 0.3012 0.7065
v  -0.0489 0.2881 0.2916
v  -0.0489 0.2662 0.2916
v  -0.0141 0.2881 0.7083
v  -0.0141 0.2881 0.7954
v  -0.0141 0.3012 0.7936
v  -0.0141 0.3012 0.7065
v  -0.0929 0.2693 0.8308
v  -0.0929 0.2693 0.8088
v  -0.1213 0.3012 0.8360
v  -0.0138 0.2881 0.7083
v  -0.0138 0.2662 0.7117
v  -0.0138 0.2662 0.2916
v  0.0213 0.2662 0.2916
v  -0.1213 0.3012 0.7065
v  -0.0489 0.2662 0.7117
v  -0.0840 0.2662 0.7117
v  -0.0840 0.2662 0.2916
v  -0.1068 0.2194 0.7086
v  -0.1068 0.2194 0.2916
v  -0.1068 0.2192 0.7086
v  -0.0840 0.2194 0.7117
v  -0.1213 0.2189 0.7065
v  -0.0840 0.2194 0.2916
v  -0.1068 0.2192 0.7957
v  -0.1213 0.2189 0.7936
v  0.0438 0.1726 0.7086
v  0.0583 0.1726 0.7065
v  0.0438 0.1724 0.7086
v  0.0583 0.1726 0.7936
v  0.0438 0.1726 0.7957
v  -0.0717 0.1023 0.2916
v  0.0438 0.1739 0.2916
v  -0.0565 0.1091 0.2916
v  0.0213 0.1256 0.7117
v  0.0213 0.1724 0.7117
v  -0.0945 0.0963 0.3196
v  -0.0649 0.0885 0.3010
v  -0.0203 -0.1190 0.2890
v  -0.0036 -0.0552 0.2927
v  0.0302 0.1225 0.8088
v  -0.0562 0.0469 0.2955
v  -0.0612 0.0475 0.2987
v  -0.0628 0.0328 0.2286
v  0.0583 0.0906 0.7065
v  -0.0141 0.0906 0.7065
v  -0.0929 0.1225 0.8308
v  -0.0649 0.0475 0.2987
v  -0.0945 0.0514 0.3196
v  -0.0618 0.0540 0.2990
v  -0.0045 0.0236 0.1840
v  -0.0426 0.1256 0.3032
v  -0.0426 -0.1190 0.2890
v  -0.0649 0.1256 0.3032
v  -0.1173 0.0827 0.2937
v  -0.0840 0.1256 0.2916
v  -0.0649 0.0480 0.3010
v  -0.1414 0.0446 0.3204
v  -0.1414 0.0856 0.3204
v  -0.1076 0.0856 0.3217
v  -0.1173 0.0446 0.2937
v  -0.1579 0.0409 0.3361
v  -0.1487 0.0535 0.3921
v  -0.1579 0.0511 0.3361
v  -0.1579 0.0835 0.3361
v  0.0847 -0.0675 0.1899
v  0.0690 -0.0730 0.1820
v  0.0690 0.0005 0.1820
v  0.0690 0.0799 0.1820
v  0.0847 0.0744 0.1899
v  0.0847 -0.1060 0.2867
v  0.0690 -0.1143 0.2864
v  -0.0209 -0.0649 0.1840
v  -0.0036 -0.0676 0.1840
v  -0.0061 0.0236 0.1840
v  -0.0401 -0.0551 0.1840
v  -0.0553 -0.0399 0.1840
v  -0.0036 0.0235 0.1840
v  -0.0650 -0.0208 0.1840
v  -0.0684 0.0005 0.1840
v  -0.0650 0.0217 0.1840
v  -0.0138 0.1256 0.7988
v  -0.0167 0.1256 0.4261
v  -0.0138 0.1256 0.7117
v  -0.0489 0.1256 0.7117
v  -0.0840 0.1256 0.7117
v  -0.0476 0.1256 0.6124
v  -0.0489 0.1256 0.7988
v  0.0019 0.1256 0.4261
v  -0.0929 0.1225 0.8088
v  -0.0036 -0.0676 0.1820
v  -0.0036 -0.0730 0.1820
v  -0.0553 0.0409 0.1840
v  -0.0036 -0.1143 0.2864
v  -0.0649 -0.1190 0.2890
v  -0.0649 -0.1190 0.4120
v  -0.0036 -0.0584 0.2924
v  -0.0036 -0.1141 0.2893
v  0.0019 -0.1141 0.2893
v  -0.1414 0.0035 0.3204
v  -0.1579 0.0085 0.3361
v  -0.1076 -0.0788 0.3217
v  -0.1414 -0.0788 0.3204
v  0.0213 0.2194 0.2916
v  -0.0138 0.2881 0.2916
v  -0.1068 0.1726 0.7086
v  0.0438 0.2194 0.2916
v  0.0213 0.1256 0.2691
v  0.0669 0.1162 0.3981
v  0.0019 0.1204 0.3055
v  0.0019 0.1163 0.3943
v  -0.1068 0.1724 0.7086
v  -0.1213 0.1726 0.7065
v  0.0449 0.1209 0.2916
v  -0.1213 0.1726 0.7936
v  0.0789 0.0686 0.4107
v  0.0789 0.1073 0.4107
v  0.0509 0.1073 0.4661
v  0.0669 0.0597 0.3981
v  -0.0840 0.1724 0.7117
v  -0.1213 0.0906 0.7065
v  -0.0840 0.1724 0.2916
v  0.0795 0.0519 0.4096
v  -0.1213 0.0906 0.8360
v  0.0826 0.1081 0.3905
v  0.0826 -0.1013 0.3905
v  0.0847 0.1128 0.2867
v  -0.1068 0.1726 0.7957
v  0.0509 0.0686 0.4661
v  0.0260 0.0597 0.4787
v  -0.0141 0.0906 0.7936
v  0.0260 0.1162 0.4787
v  0.0082 0.1091 0.4933
v  -0.0489 0.0994 0.7818
v  0.0795 0.0117 0.4096
v  0.0019 0.1256 0.3032
v  -0.0489 0.0906 0.7936
v  -0.0489 0.0906 0.7065
v  -0.0489 0.0994 0.7949
v  -0.0141 0.0994 0.7829
v  -0.0141 0.0994 0.7949
v  -0.0463 0.1256 0.4261
v  -0.0649 0.1256 0.4261
v  -0.0211 0.1162 0.4256
v  0.0003 0.0692 0.0014
v  0.0215 0.0658 0.0014
v  -0.0209 0.0658 0.0014
v  0.0407 0.0561 0.0014
v  -0.0401 0.0561 0.0014
v  0.0559 0.0409 0.0014
v  0.0656 0.0217 0.0014
v  0.0690 0.0005 0.0014
v  0.0656 -0.0208 0.0014
v  0.0559 -0.0399 0.0014
v  0.0407 -0.0551 0.0014
v  0.0215 -0.0649 0.0014
v  0.0003 -0.0682 0.0014
v  -0.0209 -0.0649 0.0014
v  -0.0401 -0.0551 0.0014
v  -0.0553 -0.0399 0.0014
v  -0.0650 -0.0208 0.0014
v  -0.0684 0.0005 0.0014
v  -0.0650 0.0217 0.0014
v  -0.0553 0.0409 0.0014
v  0.0215 0.0658 0.1820
v  0.0559 -0.0399 0.1820
v  0.0407 -0.0551 0.1820
v  0.0559 0.0409 0.1820
v  0.0656 0.0217 0.1820
v  0.0003 0.0692 0.1820
v  -0.0209 0.0658 0.1840
v  -0.0061 0.0682 0.1840
v  0.0215 -0.0649 0.1820
v  0.0407 0.0561 0.1820
v  -0.0036 0.0686 0.1820
v  0.0656 -0.0208 0.1820
v  0.0003 -0.0682 0.1820
v  -0.0036 0.0799 0.1820
v  0.0284 0.2163 0.2066
v  -0.0114 0.2163 0.2066
v  0.0284 0.2163 0.2299
v  0.0449 0.2194 0.2683
v  0.0400 0.2194 0.2730
v  0.0436 0.2194 0.2694
v  0.0399 0.2186 0.2728
v  0.0449 0.2194 0.2916
v  0.0284 0.2568 0.2299
v  0.0449 0.2892 0.2916
v  0.0399 0.2194 0.2730
v  -0.0133 0.2892 0.2916
v  -0.0114 0.2163 0.2299
v  -0.0114 0.2568 0.2066
v  -0.0114 0.2568 0.2299
v  -0.0513 0.2163 0.2066
v  -0.0513 0.2568 0.2066
v  -0.0513 0.2163 0.2299
v  -0.0513 0.2568 0.2299
v  -0.0114 0.1755 0.2066
v  -0.0513 0.1755 0.2066
v  -0.0133 0.2892 0.2683
v  -0.0494 0.2892 0.2683
v  -0.1076 0.2194 0.2683
v  -0.1076 0.2194 0.2916
v  -0.1066 0.2194 0.2694
v  -0.0914 0.2163 0.2066
v  -0.0914 0.2163 0.2299
v  -0.1026 0.2186 0.2730
v  -0.1026 0.2194 0.2730
v  -0.0914 0.2568 0.2299
v  -0.0494 0.2892 0.2916
v  -0.1076 0.2892 0.2916
v  0.0284 0.1755 0.2066
v  0.0389 0.1724 0.2691
v  0.0449 0.1721 0.2683
v  0.0436 0.1724 0.2757
v  0.0284 0.1755 0.2299
v  0.0284 0.1350 0.2299
v  -0.0114 0.1755 0.2299
v  -0.1068 0.1724 0.2916
v  -0.0214 0.0994 0.4261
v  -0.0463 0.0994 0.4261
v  -0.0214 0.1162 0.4261
v  0.0019 0.1162 0.4256
v  -0.0167 0.1162 0.4261
v  -0.0164 0.1162 0.4282
v  -0.0164 0.1162 0.4394
v  -0.0138 0.1256 0.2691
v  0.0438 0.1724 0.2908
v  0.0449 0.1721 0.2916
v  0.0213 0.1724 0.2691
v  0.0690 0.1212 0.2864
v  -0.0251 0.0994 0.4313
v  -0.0463 0.1146 0.4303
v  -0.0463 0.0994 0.4303
v  -0.0869 0.1036 0.3934
v  -0.0709 0.1130 0.4292
v  0.0433 0.1212 0.2864
v  -0.0114 0.1350 0.2299
v  0.0294 0.1175 0.2770
v  0.0389 0.1143 0.2691
v  -0.0463 0.1138 0.4418
v  -0.0161 0.1154 0.4774
v  -0.0466 0.1146 0.4763
v  -0.0164 0.1149 0.4572
v  -0.0468 0.1078 0.4915
v  -0.1215 0.1130 0.4739
v  -0.0161 0.1086 0.4925
v  -0.1037 0.1067 0.4897
v  -0.0161 0.0994 0.4925
v  -0.0468 0.0994 0.4915
v  0.0082 0.0663 0.4933
v  -0.1037 0.0649 0.4897
v  -0.1215 0.0581 0.4739
v  -0.1419 0.1052 0.4577
v  -0.1419 0.0621 0.4577
v  -0.1487 0.1036 0.3921
v  -0.1634 0.0979 0.3929
v  -0.1634 0.0581 0.3929
v  0.0803 -0.0459 0.4083
v  0.0803 -0.0038 0.4083
v  0.0669 0.0035 0.3981
v  0.0808 -0.1031 0.4070
v  -0.0401 0.0561 0.1840
v  -0.0513 0.1350 0.2066
v  -0.0114 0.1350 0.2066
v  -0.0513 0.1350 0.2299
v  -0.0513 0.1755 0.2299
v  -0.1066 0.1724 0.2872
v  -0.1076 0.1721 0.2683
v  -0.1026 0.1724 0.2730
v  -0.0914 0.1755 0.2299
v  -0.0914 0.1755 0.2066
v  -0.0914 0.1350 0.2299
v  -0.1076 0.1023 0.2916
v  -0.0489 0.1256 0.2916
v  -0.1076 0.1721 0.2916
# 390 vertices

vn 0.4193 -0.6641 0.6190
vn 0.5427 0.0000 0.8399
vn 0.8925 0.0000 0.4510
vn 0.3188 0.9340 0.1611
vn 0.5368 0.0000 0.8437
vn 0.3167 0.9348 0.1606
vn 0.3508 -0.9194 0.1780
vn 0.0004 -0.0572 0.9984
vn -0.0000 -0.0569 0.9984
vn -0.8315 -0.0000 -0.5555
vn 1.0000 0.0000 0.0000
vn 0.0000 -1.0000 -0.0000
vn 0.9134 0.0000 -0.4072
vn 0.0052 -0.9684 -0.2495
vn 0.0453 0.0000 -0.9990
vn -0.1867 0.9096 -0.3712
vn -0.2223 0.9225 -0.3154
vn -0.2342 0.9180 -0.3201
vn -0.2143 0.9201 -0.3277
vn -1.0000 0.0000 -0.0000
vn -0.0000 0.9989 0.0476
vn 0.0016 0.0576 -0.9983
vn -0.2111 0.9102 -0.3564
vn -0.2314 0.9178 -0.3226
vn 0.0000 -0.8648 -0.5022
vn -0.0080 -0.8738 -0.4862
vn 0.9912 -0.0014 0.1322
vn -0.0000 0.6481 0.7616
vn 0.0232 0.7071 0.7068
vn -0.0000 0.6620 0.7495
vn 0.1365 0.0453 -0.9896
vn 0.1204 0.0402 -0.9919
vn 0.9615 -0.2429 0.1283
vn 0.9847 0.1231 0.1231
vn 0.0063 0.6887 0.7250
vn -0.0111 0.9351 0.3543
vn 0.4695 0.5325 0.7043
vn 0.4941 -0.3663 0.7885
vn 0.1679 0.0180 0.9856
vn 0.1556 -0.0224 0.9876
vn 0.1706 0.0000 0.9853
vn 0.5221 0.0000 0.8529
vn 0.1598 0.0000 0.9871
vn -0.0313 0.0000 0.9995
vn 0.4183 0.6727 0.6103
vn 0.4647 -0.5310 0.7086
vn -0.0216 -0.9328 0.3597
vn -0.0329 0.0000 0.9995
vn 0.1758 -0.0382 0.9837
vn -0.9793 -0.1389 0.1473
vn -0.6311 -0.0801 0.7715
vn -0.9819 -0.1369 0.1308
vn 0.5451 -0.0288 0.8379
vn -0.6677 0.0000 0.7445
vn -0.0113 0.9357 0.3526
vn 0.1648 -0.0021 0.9863
vn -0.0131 -0.9121 0.4098
vn -0.6462 0.2405 0.7243
vn -0.0134 -0.9134 0.4068
vn -0.0237 -0.9994 0.0256
vn -0.0696 -0.9945 -0.0788
vn -0.0317 -0.9498 0.3113
vn -0.0318 -0.9503 0.3098
vn -0.0758 -0.9934 -0.0858
vn -0.6454 0.3852 0.6596
vn -0.7042 0.0000 0.7100
vn -0.6884 -0.2963 0.6620
vn -0.6542 -0.2185 0.7241
vn -0.3904 -0.9202 0.0271
vn -0.3284 0.9306 0.1618
vn -0.3259 0.9315 0.1616
vn -0.0301 0.0000 0.9995
vn -0.3446 -0.9368 0.0612
vn 0.0005 0.9532 0.3022
vn 0.0025 0.9459 0.3243
vn -0.0215 -0.9322 0.3614
vn -0.3148 -0.9434 0.1042
vn -0.3365 0.9411 -0.0345
vn -0.3279 0.9385 0.1082
vn -0.3127 -0.9442 0.1041
vn -0.3127 -0.9441 0.1041
vn -0.3244 0.9397 0.1080
vn -0.9948 0.0000 -0.1020
vn -0.4127 -0.9104 0.0294
vn -0.9950 0.0000 -0.0996
vn -0.3470 -0.9358 0.0614
vn -0.3451 0.9348 0.0839
vn -0.3536 -0.9229 -0.1522
vn -0.3476 -0.9250 -0.1536
vn -0.9493 0.0000 0.3143
vn -0.9496 0.0000 0.3134
vn -0.9501 0.0000 0.3120
vn -0.1394 -0.0006 -0.9902
vn -0.1381 0.0000 -0.9904
vn -0.0191 -0.9998 -0.0000
vn -0.1429 0.0000 -0.9897
vn -0.1831 0.0000 0.9831
vn 0.0000 1.0000 -0.0000
vn 0.0000 -0.1369 -0.9906
vn -0.0000 -0.1614 0.9869
vn 0.0000 -0.1398 -0.9902
vn 0.0080 -0.1396 -0.9902
vn 0.0000 -0.1475 -0.9891
vn 0.0000 -0.1521 -0.9884
vn -0.0018 -0.1493 -0.9888
vn 0.1366 0.0000 -0.9906
vn 0.1389 0.0000 -0.9903
vn 0.1426 -0.0030 -0.9898
vn 0.1425 0.0000 -0.9898
vn 0.0190 -0.9998 0.0000
vn -0.4035 0.8694 -0.2853
vn -0.2701 0.9003 -0.3412
vn -0.2277 0.9259 -0.3014
vn -0.2350 0.9320 -0.2761
vn 0.5317 0.0019 0.8469
vn -0.0026 0.0580 -0.9983
vn 0.1757 0.0027 0.9844
vn 0.0206 -0.9787 0.2041
vn 0.0000 0.1475 -0.9891
vn -0.1394 0.0006 -0.9902
vn -0.0000 -0.9789 0.2045
vn 0.0164 -0.9786 0.2050
vn 0.5337 0.0094 0.8456
vn -0.0249 -0.9807 0.1937
vn -0.0021 0.0577 -0.9983
vn 0.3779 0.0707 -0.9231
vn 0.5213 -0.0040 0.8533
vn 0.5352 0.0000 0.8447
vn 0.1711 -0.0015 0.9853
vn 0.1879 0.0092 0.9821
vn 0.1656 0.0000 0.9862
vn -0.7507 0.0000 0.6607
vn -0.0000 0.0000 1.0000
vn -0.3867 0.8652 -0.3192
vn -0.4109 0.9046 -0.1134
vn -0.3868 0.8652 -0.3190
vn -0.3897 0.8757 -0.2851
vn 0.5314 0.0000 0.8471
vn 0.0395 0.0000 -0.9992
vn 0.0213 -0.9771 0.2117
vn -0.7696 0.0000 -0.6385
vn -0.3476 0.9255 -0.1506
vn -0.2937 -0.9518 0.0882
vn -0.6888 0.0000 -0.7250
vn 0.4472 0.0000 -0.8944
vn 0.4482 -0.8308 -0.3300
vn 0.4539 -0.8285 -0.3279
vn -0.1571 -0.9876 -0.0000
vn 0.0000 -0.9298 -0.3680
vn 0.0468 -0.9755 0.2149
vn 0.0022 -0.9786 0.2058
vn 0.0023 -0.9786 0.2058
vn -0.7675 -0.0067 -0.6410
vn -0.0251 -0.9807 0.1937
vn 0.1342 0.0450 -0.9899
vn 0.0017 0.0575 -0.9983
vn 0.0000 0.0579 -0.9983
vn -0.0026 0.0563 -0.9984
vn -0.0033 0.0580 -0.9983
vn -0.1134 0.0865 -0.9898
vn 0.0000 0.0475 -0.9989
vn -0.0000 -0.9954 0.0955
vn -0.5515 -0.0000 0.8342
vn 0.0000 0.0573 -0.9984
vn 0.0000 0.0578 -0.9983
vn -0.0305 0.0577 -0.9979
vn 0.9607 -0.0000 -0.2774
vn 0.0052 -0.9693 -0.2458
vn 0.0096 -0.9699 -0.2434
vn 0.0395 -0.0000 -0.9992
vn -0.7337 0.0000 -0.6795
vn -0.7062 0.0000 -0.7080
vn -0.9953 0.0000 -0.0964
vn -0.3229 -0.9459 -0.0313
vn -0.3168 -0.9479 -0.0324
vn -0.3406 0.9278 -0.1523
vn -0.3367 0.9410 -0.0345
vn -0.4115 -0.8731 -0.2615
vn -0.4096 -0.8738 -0.2621
vn -0.3355 0.9384 0.0825
vn -0.0009 0.9989 0.0460
vn 0.0023 0.9990 0.0437
vn 0.8924 0.0000 0.4512
vn 0.7216 0.0000 -0.6923
vn 0.4241 0.8798 0.2145
vn 0.1382 0.0008 -0.9904
vn 0.3831 0.9032 0.1937
vn -0.0000 0.1616 0.9869
vn 0.4337 0.0000 0.9011
vn 0.1814 0.0000 0.9834
vn 0.9998 0.0000 0.0200
vn 0.4256 -0.8789 0.2152
vn 0.4235 -0.8800 0.2149
vn 0.5167 0.3321 0.7891
vn 0.4221 0.8809 0.2141
vn 0.3809 0.9042 0.1932
vn -1.0000 0.0047 -0.0072
vn 0.8925 0.0000 0.4511
vn -1.0000 0.0078 -0.0000
vn 0.4905 0.3672 0.7903
vn -0.9999 0.0105 -0.0000
vn -0.9999 -0.0084 -0.0069
vn 0.0000 0.1445 -0.9895
vn -0.0000 -0.0541 0.9985
vn 0.0000 -0.0000 -1.0000
vn 0.0000 0.0000 -1.0000
vn -0.0000 -0.0000 -1.0000
vn -0.0000 0.0000 -1.0000
vn 0.4531 0.8915 0.0000
vn 0.7071 -0.7071 0.0000
vn 0.8915 0.4530 0.0000
vn 0.1570 0.9876 0.0000
vn -0.1571 0.9876 -0.0000
vn -0.4530 0.8915 -0.0000
vn 0.1570 -0.9876 0.0000
vn 0.4531 -0.8915 0.0000
vn 0.8915 -0.4531 0.0000
vn 0.9876 -0.1570 0.0000
vn 0.9876 0.1570 0.0000
vn 0.7071 0.7071 0.0000
vn -0.9876 0.1570 -0.0000
vn -0.9876 -0.1570 -0.0000
vn -0.7071 -0.7071 -0.0000
vn -0.4530 -0.8915 -0.0000
vn -0.1570 -0.9876 -0.0000
vn -0.1566 0.9877 -0.0000
vn -0.1569 0.9876 -0.0000
vn -0.8915 0.4531 -0.0000
vn -0.8915 -0.4531 -0.0000
vn -0.1566 -0.9877 -0.0000
vn -0.1867 0.9824 -0.0000
vn -0.6918 0.2067 -0.6918
vn -0.0482 0.9970 -0.0607
vn 0.9655 -0.0007 -0.2604
vn 0.9658 0.0008 -0.2591
vn -0.2083 0.9781 0.0023
vn 0.9657 0.0000 -0.2598
vn 0.0000 0.8855 -0.4647
vn 0.9886 -0.0306 -0.1474
vn 0.9658 0.0000 -0.2593
vn 0.4409 -0.2602 0.8590
vn 0.9984 0.0569 0.0000
vn -0.9984 0.0569 -0.0000
vn 0.0415 0.9983 -0.0399
vn 0.2046 0.9788 0.0000
vn 0.1974 0.9803 -0.0013
vn 0.6811 0.0000 -0.7322
vn -0.9663 -0.0058 -0.2574
vn -0.9675 0.0000 -0.2527
vn -0.9672 0.0000 -0.2541
vn -0.0415 -0.9987 0.0298
vn -0.0508 -0.9978 -0.0416
vn 0.9660 0.0000 -0.2587
vn -0.2870 -0.9579 -0.0000
vn 0.9661 0.0000 -0.2582
vn -0.8805 0.0000 -0.4741
vn -0.8539 -0.0018 -0.5204
vn 0.9914 0.0000 -0.1311
vn 0.9996 0.0292 0.0000
vn 0.0016 1.0000 0.0038
vn -0.6141 -0.3529 0.7059
vn -0.5898 -0.5266 0.6122
vn -0.6900 0.0000 0.7238
vn 0.0272 -0.9994 -0.0195
vn -0.2017 -0.9794 -0.0000
vn 0.4688 0.8819 0.0494
vn 0.4747 0.8788 0.0482
vn -0.0000 -0.0578 0.9983
vn 0.0379 -0.0577 0.9976
vn -0.0013 -0.0576 0.9983
vn -0.0000 -0.0577 0.9983
vn 0.0480 -0.0018 -0.9988
vn -0.8316 0.0000 -0.5554
vn -0.8196 0.0045 -0.5730
vn 0.9607 0.0000 -0.2774
vn -0.6861 0.0000 0.7275
vn -0.6911 0.0010 0.7227
vn 0.9657 -0.0032 -0.2596
vn 0.9576 0.0000 -0.2881
vn 0.0015 0.9987 0.0510
vn -0.0119 0.9999 -0.0000
vn -0.0017 0.9990 0.0446
vn -0.0000 0.9986 0.0526
vn 0.0000 -0.8848 -0.4659
vn -0.0000 0.6949 0.7191
vn -0.6900 0.0092 0.7237
vn 0.0000 0.9311 -0.3647
vn 0.0430 0.0000 -0.9991
vn -0.0664 0.9955 0.0679
vn 0.9998 0.0195 -0.0068
vn -1.0000 -0.0023 -0.0060
vn 0.9904 -0.1377 -0.0100
vn -0.9962 -0.0873 -0.0060
vn -0.0178 0.9995 -0.0251
vn -0.0295 0.9138 0.4051
vn -0.9998 0.0151 -0.0087
vn -0.0202 0.9995 -0.0229
vn 0.9998 -0.0172 -0.0077
vn -0.0323 0.9121 0.4088
vn -0.0318 0.9150 0.4021
vn -0.0670 0.9951 0.0725
vn -0.0303 0.9127 0.4075
vn 0.9996 0.0266 -0.0054
vn 1.0000 0.0000 -0.0072
vn 1.0000 -0.0057 -0.0078
vn -1.0000 -0.0068 -0.0070
vn -1.0000 0.0037 -0.0073
vn -0.0323 0.0000 0.9995
vn -1.0000 0.0000 -0.0065
vn 0.5372 0.0000 0.8434
vn -0.0324 0.0000 0.9995
vn -0.0333 -0.0007 0.9994
vn -0.0024 -0.9138 0.4062
vn -0.0030 -0.9166 0.3998
vn 0.5182 -0.3422 0.7838
vn -0.1611 0.9700 -0.1821
vn -0.6399 0.0918 0.7630
vn -0.0326 0.0003 0.9995
vn -0.6404 0.0000 0.7680
vn -0.0227 0.9137 0.4057
vn -0.0222 0.9119 0.4098
vn -0.6354 0.0000 0.7722
vn -0.6333 0.0743 0.7703
vn -0.6307 -0.1182 0.7670
vn 0.0096 0.9699 -0.2434
vn -0.3619 0.8945 -0.2624
vn 0.0052 0.9693 -0.2458
vn 0.0024 0.9934 -0.1147
vn -0.3652 0.8935 -0.2615
vn -0.3677 0.9298 0.0158
vn -0.3650 0.9309 0.0155
vn -0.3340 0.9408 0.0571
vn -0.3325 0.9414 0.0569
vn -0.2921 -0.9439 0.1539
vn -0.2977 -0.9505 0.0888
vn -0.3030 -0.9404 0.1545
vn 0.8909 0.0000 0.4542
vn 0.3594 0.9150 0.1832
vn 0.3955 -0.8964 0.1999
vn 0.3623 0.9137 0.1838
vn 0.3933 -0.8975 0.1995
vn 0.6742 0.0000 -0.7386
vn -0.0000 -0.9991 0.0431
vn -0.0037 -0.9990 0.0454
vn -0.0022 -0.9990 0.0446
vn 0.3188 -0.9340 0.1611
vn 0.3167 -0.9348 0.1606
vn 0.5398 0.0000 -0.8418
vn 0.6063 0.0000 -0.7952
vn 0.3480 -0.9206 0.1774
vn 0.4747 -0.8788 0.0482
vn 0.4688 -0.8819 0.0494
vn 0.9680 0.0000 -0.2508
vn 0.0000 0.9298 -0.3681
vn 0.0000 0.9299 -0.3677
vn 0.0002 0.9298 -0.3680
vn 0.4539 0.8285 -0.3279
vn 0.4482 0.8308 -0.3300
vn -0.1570 0.9876 -0.0000
vn -0.7071 0.7071 -0.0000
vn -0.6141 -0.0082 -0.7892
vn -0.6182 0.0001 -0.7860
vn -0.6182 0.0000 -0.7860
vn -0.6180 0.0000 -0.7861
vn -0.1916 0.9130 -0.3603
vn -0.2004 0.9109 -0.3606
vn -0.0064 -0.8856 -0.4645
vn 0.9983 -0.0577 0.0000
vn -0.9983 -0.0578 -0.0003
vn -0.0088 -0.8855 -0.4645
vn 0.9657 -0.1967 0.1694
vn 0.0033 0.6970 0.7171
vn 0.0000 -0.8836 -0.4682
vn -0.9984 -0.0574 -0.0000
vn 0.9986 -0.0533 0.0043
vn 0.0439 -0.9990 0.0122
vn 0.0994 -0.9940 -0.0464
vn 0.2061 -0.9785 0.0000
vn -0.9673 0.0011 -0.2536
vn 0.0000 -0.8836 -0.4683
vn -0.0214 -0.8904 -0.4547
vn 0.0100 -0.8825 -0.4702
vn 0.0000 -0.8838 -0.4678
vn 0.9707 -0.1487 0.1887
vn 0.9735 -0.1399 0.1808
vn 0.9705 -0.1523 0.1869
vn 0.5401 -0.0192 0.8414
vn 0.1351 0.0450 -0.9898
vn -0.7130 -0.5823 0.3905
vn 0.0000 0.0526 -0.9986
vn -0.0349 0.0570 -0.9978
vn -0.9794 -0.1518 0.1334
vn -0.9811 -0.1462 0.1266
vn 0.0000 0.0572 -0.9984
vn -0.9745 0.0000 -0.2243
vn -0.9635 -0.0029 -0.2676
vn 0.2601 -0.9656 0.0000
# 397 vertex normals

vt 0.0647 0.0595 0.0000
vt 0.0949 0.0399 0.0000
vt 0.0838 0.0521 0.0000
vt 0.4001 0.2444 0.0000
vt 0.3627 0.2746 0.0000
vt 0.3636 0.2444 0.0000
vt 0.6727 0.0740 0.0000
vt 0.7092 0.0740 0.0000
vt 0.6727 0.1261 0.0000
vt 0.3988 0.1860 0.0000
vt 0.4062 0.1975 0.0000
vt 0.3467 0.2123 0.0000
vt 0.9922 0.7392 0.0000
vt 0.9551 0.7392 0.0000
vt 0.9909 0.7068 0.0000
vt 0.3393 0.2314 0.0000
vt 0.4911 0.1199 0.0000
vt 0.5125 0.1194 0.0000
vt 0.4559 0.1687 0.0000
vt 0.5334 0.1079 0.0000
vt 0.6665 0.1061 0.0000
vt 0.6585 0.1127 0.0000
vt 0.6665 0.1246 0.0000
vt 0.0355 0.4377 0.0000
vt 0.0351 0.3125 0.0000
vt 0.0455 0.3129 0.0000
vt 0.7071 0.1957 0.0000
vt 0.7019 0.2000 0.0000
vt 0.6050 0.1957 0.0000
vt 0.6046 0.2037 0.0000
vt 0.6165 0.2037 0.0000
vt 0.6585 0.1246 0.0000
vt 0.1038 0.1070 0.0000
vt 0.1158 0.1070 0.0000
vt 0.3386 0.1908 0.0000
vt 0.3310 0.2206 0.0000
vt 0.2250 0.1908 0.0000
vt 0.1643 0.0932 0.0000
vt 0.2289 0.1240 0.0000
vt 0.1776 0.1229 0.0000
vt 0.0795 0.4306 0.0000
vt 0.0835 0.3170 0.0000
vt 0.6043 0.9151 0.0000
vt 0.6154 0.9153 0.0000
vt 0.6136 0.9229 0.0000
vt 0.6240 0.8846 0.0000
vt 0.6125 0.8848 0.0000
vt 0.6260 0.8783 0.0000
vt 0.5795 0.8737 0.0000
vt 0.9807 0.2010 0.0000
vt 0.9814 0.1899 0.0000
vt 0.9944 0.2013 0.0000
vt 0.9861 0.1856 0.0000
vt 0.6280 0.9586 0.0000
vt 0.6280 0.9229 0.0000
vt 0.6416 0.9275 0.0000
vt 0.6416 0.9229 0.0000
vt 0.6760 0.0420 0.0000
vt 0.6957 0.0438 0.0000
vt 0.6914 0.0577 0.0000
vt 0.6201 0.9229 0.0000
vt 0.6221 0.9112 0.0000
vt 0.6301 0.9103 0.0000
vt 0.7117 0.0412 0.0000
vt 0.7117 0.0547 0.0000
vt 0.7117 0.0413 0.0000
vt 0.2298 0.6029 0.0000
vt 0.2298 0.5948 0.0000
vt 0.2315 0.5948 0.0000
vt 0.7068 0.5377 0.0000
vt 0.7148 0.5364 0.0000
vt 0.7148 0.5408 0.0000
vt 0.6366 0.1544 0.0000
vt 0.6366 0.1551 0.0000
vt 0.6268 0.1551 0.0000
vt 0.7019 0.0399 0.0000
vt 0.7019 0.0423 0.0000
vt 0.7956 0.6824 0.0000
vt 0.8126 0.6824 0.0000
vt 0.8033 0.6839 0.0000
vt 0.8056 0.6843 0.0000
vt 0.8056 0.6839 0.0000
vt 0.8207 0.6824 0.0000
vt 0.6779 0.0414 0.0000
vt 0.6786 0.0414 0.0000
vt 0.6264 0.1547 0.0000
vt 0.6260 0.1479 0.0000
vt 0.8207 0.6869 0.0000
vt 0.3588 0.2456 0.0000
vt 0.3496 0.3553 0.0000
vt 0.3466 0.2585 0.0000
vt 0.9970 0.7264 0.0000
vt 0.1381 0.5101 0.0000
vt 0.1178 0.5033 0.0000
vt 0.1533 0.5044 0.0000
vt 0.8074 0.6911 0.0000
vt 0.6192 0.2346 0.0000
vt 0.6222 0.2346 0.0000
vt 0.6222 0.2364 0.0000
vt 0.8081 0.6956 0.0000
vt 0.8207 0.6980 0.0000
vt 0.1178 0.4699 0.0000
vt 0.1533 0.4692 0.0000
vt 0.1038 0.1190 0.0000
vt 0.0499 0.1190 0.0000
vt 0.8126 0.6841 0.0000
vt 0.8207 0.6848 0.0000
vt 0.9816 0.1877 0.0000
vt 0.9851 0.1368 0.0000
vt 0.9922 0.8360 0.0000
vt 0.9562 0.8360 0.0000
vt 0.9947 0.1748 0.0000
vt 0.4011 0.2746 0.0000
vt 0.4053 0.2635 0.0000
vt 0.9502 0.7264 0.0000
vt 0.9560 0.7068 0.0000
vt 0.5289 0.1130 0.0000
vt 0.6176 0.1520 0.0000
vt 0.7043 0.0558 0.0000
vt 0.6222 0.2224 0.0000
vt 0.6192 0.2224 0.0000
vt 0.6192 0.2054 0.0000
vt 0.2453 0.4701 0.0000
vt 0.2453 0.5044 0.0000
vt 0.7898 0.6839 0.0000
vt 0.2833 0.5194 0.0000
vt 0.2838 0.5121 0.0000
vt 0.2911 0.5198 0.0000
vt 0.2606 0.5101 0.0000
vt 0.2775 0.5059 0.0000
vt 0.2890 0.5246 0.0000
vt 0.2927 0.5245 0.0000
vt 0.6365 0.2100 0.0000
vt 0.6402 0.2104 0.0000
vt 0.6363 0.2156 0.0000
vt 0.9569 0.8661 0.0000
vt 0.3627 0.3681 0.0000
vt 0.7887 0.6917 0.0000
vt 0.7770 0.6893 0.0000
vt 0.6540 0.6644 0.0000
vt 0.5316 0.6605 0.0000
vt 0.6388 0.6514 0.0000
vt 0.9927 0.8661 0.0000
vt 0.9970 0.8489 0.0000
vt 0.5468 0.6484 0.0000
vt 0.2063 0.0560 0.0000
vt 0.1262 0.0914 0.0000
vt 0.1955 0.0430 0.0000
vt 0.4024 0.3751 0.0000
vt 0.4066 0.3860 0.0000
vt 0.4031 0.4034 0.0000
vt 0.3681 0.4034 0.0000
vt 0.3651 0.3751 0.0000
vt 0.3612 0.3860 0.0000
vt 0.9515 0.8489 0.0000
vt 0.2237 0.0710 0.0000
vt 0.1379 0.5439 0.0000
vt 0.0849 0.5387 0.0000
vt 0.0855 0.5267 0.0000
vt 0.1529 0.5613 0.0000
vt 0.1857 0.6189 0.0000
vt 0.2561 0.6059 0.0000
vt 0.2400 0.6210 0.0000
vt 0.3432 0.3539 0.0000
vt 0.3302 0.3431 0.0000
vt 0.3271 0.2425 0.0000
vt 0.6246 0.1689 0.0000
vt 0.0173 0.4499 0.0000
vt 0.0275 0.5057 0.0000
vt 0.0153 0.5047 0.0000
vt 0.0291 0.5558 0.0000
vt 0.0758 0.5510 0.0000
vt 0.0751 0.5632 0.0000
vt 0.1292 0.5687 0.0000
vt 0.0024 0.4342 0.0000
vt 0.1431 0.5858 0.0000
vt 0.2199 0.5692 0.0000
vt 0.2199 0.5364 0.0000
vt 0.2667 0.5633 0.0000
vt 0.2409 0.1233 0.0000
vt 0.9402 0.7035 0.0000
vt 0.9375 0.7294 0.0000
vt 0.8942 0.7044 0.0000
vt 0.1846 0.6311 0.0000
vt 0.0253 0.5447 0.0000
vt 0.0399 0.5313 0.0000
vt 0.1390 0.6198 0.0000
vt 0.1276 0.6046 0.0000
vt 0.6970 0.4975 0.0000
vt 0.7509 0.5005 0.0000
vt 0.6970 0.5335 0.0000
vt 0.1665 0.5722 0.0000
vt 0.1665 0.5364 0.0000
vt 0.8382 0.7367 0.0000
vt 0.8419 0.7019 0.0000
vt 0.8909 0.7361 0.0000
vt 0.6839 0.7412 0.0000
vt 0.6532 0.7703 0.0000
vt 0.6652 0.7023 0.0000
vt 0.6839 0.7023 0.0000
vt 0.5873 0.3265 0.0000
vt 0.5754 0.2558 0.0000
vt 0.5873 0.2541 0.0000
vt 0.6652 0.7021 0.0000
vt 0.6532 0.7019 0.0000
vt 0.8501 0.2725 0.0000
vt 0.8236 0.2492 0.0000
vt 0.9720 0.2725 0.0000
vt 0.8628 0.1725 0.0000
vt 0.8628 0.2448 0.0000
vt 0.7944 0.2448 0.0000
vt 0.7944 0.1373 0.0000
vt 0.8139 0.7944 0.0000
vt 0.9358 0.8127 0.0000
vt 0.8139 0.8127 0.0000
vt 0.5754 0.3282 0.0000
vt 0.6046 0.2167 0.0000
vt 0.6154 0.2152 0.0000
vt 0.6154 0.2875 0.0000
vt 0.6046 0.2890 0.0000
vt 0.3599 0.9972 0.0000
vt 0.3417 0.9972 0.0000
vt 0.3599 0.6512 0.0000
vt 0.0935 0.6525 0.0000
vt 0.1224 0.6525 0.0000
vt 0.0935 0.9986 0.0000
vt 0.0935 0.5802 0.0000
vt 0.1224 0.5802 0.0000
vt 0.3574 0.4585 0.0000
vt 0.3574 0.4875 0.0000
vt 0.3466 0.4875 0.0000
vt 0.3466 0.4585 0.0000
vt 0.5900 0.2395 0.0000
vt 0.6008 0.2410 0.0000
vt 0.5900 0.3118 0.0000
vt 0.6008 0.3134 0.0000
vt 0.9781 0.9794 0.0000
vt 0.9599 0.9794 0.0000
vt 0.9781 0.8771 0.0000
vt 0.9985 0.3983 0.0000
vt 0.9720 0.3748 0.0000
vt 0.9985 0.2492 0.0000
vt 0.7133 0.7703 0.0000
vt 0.7131 0.7594 0.0000
vt 0.7133 0.7594 0.0000
vt 0.7131 0.7412 0.0000
vt 0.4524 0.6484 0.0000
vt 0.4524 0.9972 0.0000
vt 0.4342 0.6512 0.0000
vt 0.2687 0.6484 0.0000
vt 0.2687 0.9972 0.0000
vt 0.2395 0.6484 0.0000
vt 0.2844 0.5316 0.0000
vt 0.2736 0.5916 0.0000
vt 0.2736 0.5316 0.0000
vt 0.3027 0.5316 0.0000
vt 0.3027 0.5607 0.0000
vt 0.4877 0.9972 0.0000
vt 0.4585 0.9972 0.0000
vt 0.4877 0.6484 0.0000
vt 0.0887 0.6477 0.0000
vt 0.0887 0.9940 0.0000
vt 0.0885 0.6477 0.0000
vt 0.3415 0.5607 0.0000
vt 0.3415 0.5796 0.0000
vt 0.3419 0.5916 0.0000
vt 0.3417 0.5796 0.0000
vt 0.3661 0.6484 0.0000
vt 0.4049 0.6484 0.0000
vt 0.3661 0.9972 0.0000
vt 0.8229 0.7675 0.0000
vt 0.7506 0.7675 0.0000
vt 0.7523 0.7555 0.0000
vt 0.8247 0.7555 0.0000
vt 0.8231 0.1329 0.0000
vt 0.8231 0.0605 0.0000
vt 0.8914 0.1329 0.0000
vt 0.8914 0.0253 0.0000
vt 0.9599 0.8771 0.0000
vt 0.4147 0.5796 0.0000
vt 0.4147 0.5916 0.0000
vt 0.4145 0.5796 0.0000
vt 0.5462 0.3459 0.0000
vt 0.5581 0.2753 0.0000
vt 0.5581 0.3477 0.0000
vt 0.5462 0.2736 0.0000
vt 0.6323 0.8663 0.0000
vt 0.0449 0.6477 0.0000
vt 0.0436 0.9940 0.0000
vt 0.0447 0.6477 0.0000
vt 0.6355 0.8792 0.0000
vt 0.6323 0.8848 0.0000
vt 0.6323 0.8789 0.0000
vt 0.0061 0.6477 0.0000
vt 0.0061 0.5754 0.0000
vt 0.3757 0.5609 0.0000
vt 0.4145 0.5609 0.0000
vt 0.6336 0.8909 0.0000
vt 0.6286 0.8905 0.0000
vt 0.7452 0.6774 0.0000
vt 0.7697 0.6709 0.0000
vt 0.4926 0.0438 0.0000
vt 0.6650 0.0577 0.0000
vt 0.8207 0.6338 0.0000
vt 0.9961 0.0552 0.0000
vt 0.9693 0.1373 0.0000
vt 0.9012 0.1725 0.0000
vt 0.9358 0.7944 0.0000
vt 0.3453 0.4478 0.0000
vt 0.3448 0.4527 0.0000
vt 0.2981 0.4179 0.0000
vt 0.0447 0.5754 0.0000
vt 0.3001 0.5069 0.0000
vt 0.2882 0.5067 0.0000
vt 0.3001 0.4683 0.0000
vt 0.2882 0.4683 0.0000
vt 0.9693 0.2448 0.0000
vt 0.9012 0.2448 0.0000
vt 0.3466 0.5916 0.0000
vt 0.3466 0.5316 0.0000
vt 0.1665 0.5121 0.0000
vt 0.2688 0.5121 0.0000
vt 0.2688 0.5303 0.0000
vt 0.3429 0.4551 0.0000
vt 0.3414 0.4852 0.0000
vt 0.7724 0.6422 0.0000
vt 0.7728 0.6368 0.0000
vt 0.7770 0.6364 0.0000
vt 0.2987 0.3569 0.0000
vt 0.3662 0.4087 0.0000
vt 0.1461 0.0983 0.0000
vt 0.1461 0.3015 0.0000
vt 0.1306 0.1632 0.0000
vt 0.1276 0.0983 0.0000
vt 0.1302 0.1578 0.0000
vt 0.7452 0.6401 0.0000
vt 0.7263 0.6661 0.0000
vt 0.6345 0.2215 0.0000
vt 0.6482 0.2444 0.0000
vt 0.6289 0.2341 0.0000
vt 0.6340 0.8285 0.0000
vt 0.6555 0.8474 0.0000
vt 0.7697 0.6373 0.0000
vt 0.9163 0.8665 0.0000
vt 0.9503 0.8665 0.0000
vt 0.9503 0.8946 0.0000
vt 0.3444 0.4563 0.0000
vt 0.8737 0.4050 0.0000
vt 0.8285 0.4391 0.0000
vt 0.8285 0.4074 0.0000
vt 0.7263 0.6344 0.0000
vt 0.9365 0.5432 0.0000
vt 0.9235 0.5569 0.0000
vt 0.8770 0.5493 0.0000
vt 0.1429 0.5134 0.0000
vt 0.1539 0.5288 0.0000
vt 0.0958 0.5145 0.0000
vt 0.9486 0.8528 0.0000
vt 0.9217 0.8528 0.0000
vt 0.9962 0.5322 0.0000
vt 0.9832 0.5367 0.0000
vt 0.9832 0.4757 0.0000
vt 0.9832 0.4098 0.0000
vt 0.9962 0.4143 0.0000
vt 0.0351 0.2919 0.0000
vt 0.0351 0.2115 0.0000
vt 0.0481 0.2118 0.0000
vt 0.0481 0.2984 0.0000
vt 0.5022 0.3597 0.0000
vt 0.4877 0.3620 0.0000
vt 0.4898 0.2863 0.0000
vt 0.5181 0.3516 0.0000
vt 0.5307 0.3390 0.0000
vt 0.4877 0.2863 0.0000
vt 0.4885 0.2863 0.0000
vt 0.5388 0.3231 0.0000
vt 0.5416 0.3055 0.0000
vt 0.5388 0.2878 0.0000
vt 0.4458 0.0301 0.0000
vt 0.1362 0.0326 0.0000
vt 0.3734 0.0301 0.0000
vt 0.0301 0.3921 0.0000
vt 0.0010 0.3921 0.0000
vt 0.0313 0.3095 0.0000
vt 0.0301 0.4644 0.0000
vt 0.1362 0.0171 0.0000
vt 0.8333 0.6876 0.0000
vt 0.8333 0.5656 0.0000
vt 0.9356 0.5656 0.0000
vt 0.9356 0.6876 0.0000
vt 0.9541 0.9557 0.0000
vt 0.9557 0.9557 0.0000
vt 0.9557 0.9702 0.0000
vt 0.9068 0.0386 0.0000
vt 0.9051 0.0385 0.0000
vt 0.9054 0.0340 0.0000
vt 0.5307 0.2719 0.0000
vt 0.1084 0.2984 0.0000
vt 0.3129 0.4868 0.0000
vt 0.9943 0.0059 0.0000
vt 0.9015 0.1142 0.0000
vt 0.2979 0.3580 0.0000
vt 0.8737 0.4488 0.0000
vt 0.2992 0.3563 0.0000
vt 0.3785 0.1756 0.0000
vt 0.3780 0.1775 0.0000
vt 0.2395 0.1758 0.0000
vt 0.2466 0.0740 0.0000
vt 0.4926 0.0253 0.0000
vt 0.1276 0.1632 0.0000
vt 0.1276 0.3015 0.0000
vt 0.5430 0.0577 0.0000
vt 0.4967 0.0577 0.0000
vt 0.5456 0.0577 0.0000
vt 0.9967 0.0063 0.0000
vt 0.9960 0.0526 0.0000
vt 0.4926 0.0623 0.0000
vt 0.4967 0.0623 0.0000
vt 0.7069 0.1998 0.0000
vt 0.1084 0.2118 0.0000
vt 0.1038 0.2094 0.0000
vt 0.1084 0.2094 0.0000
vt 0.2298 0.1842 0.0000
vt 0.2298 0.1841 0.0000
vt 0.4158 0.1811 0.0000
vt 0.1487 0.1162 0.0000
vt 0.1621 0.1162 0.0000
vt 0.8822 0.8665 0.0000
vt 0.8863 0.8528 0.0000
vt 0.1795 0.2801 0.0000
vt 0.3160 0.2801 0.0000
vt 0.1948 0.1824 0.0000
vt 0.2228 0.1835 0.0000
vt 0.8139 0.8665 0.0000
vt 0.8481 0.8665 0.0000
vt 0.8139 0.8946 0.0000
vt 0.8158 0.8530 0.0000
vt 0.8418 0.8530 0.0000
vt 0.8779 0.8530 0.0000
vt 0.7981 0.5335 0.0000
vt 0.7509 0.5335 0.0000
vt 0.7981 0.5066 0.0000
vt 0.0164 0.5518 0.0000
vt 0.0010 0.5628 0.0000
vt 0.9132 0.8528 0.0000
vt 0.8763 0.5615 0.0000
vt 0.0156 0.5693 0.0000
vt 0.2667 0.5364 0.0000
vt 0.2363 0.1690 0.0000
vt 0.8510 0.8530 0.0000
vt 0.7977 0.0010 0.0000
vt 0.7951 0.0197 0.0000
vt 0.4488 0.0010 0.0000
vt 0.2346 0.9972 0.0000
vt 0.1957 0.9972 0.0000
vt 0.2346 0.6484 0.0000
vt 0.3417 0.6484 0.0000
vt 0.1227 0.6525 0.0000
vt 0.1227 0.9986 0.0000
vt 0.4585 0.6484 0.0000
vt 0.2395 0.9972 0.0000
vt 0.2925 0.6484 0.0000
vt 0.2925 0.9972 0.0000
vt 0.2736 0.6510 0.0000
vt 0.2736 0.9972 0.0000
vt 0.0499 0.6477 0.0000
vt 0.4049 0.9972 0.0000
vt 0.0059 0.9940 0.0000
vt 0.1664 0.9965 0.0000
vt 0.1276 0.6289 0.0000
vt 0.1664 0.6289 0.0000
vt 0.7207 0.9814 0.0000
vt 0.6438 0.9275 0.0000
vt 0.7175 0.9275 0.0000
vt 0.7062 0.7311 0.0000
vt 0.7062 0.7309 0.0000
vt 0.7182 0.7311 0.0000
vt 0.6323 0.9632 0.0000
vt 0.5608 0.2656 0.0000
vt 0.5728 0.3362 0.0000
vt 0.5608 0.3379 0.0000
vt 0.5079 0.6294 0.0000
vt 0.5079 0.5973 0.0000
vt 0.5540 0.5973 0.0000
vt 0.4975 0.5900 0.0000
vt 0.4975 0.6368 0.0000
vt 0.0885 0.5754 0.0000
vt 0.6873 0.7309 0.0000
vt 0.6873 0.6921 0.0000
vt 0.7772 0.9681 0.0000
vt 0.7311 0.9914 0.0000
vt 0.7182 0.6630 0.0000
vt 0.4099 0.6484 0.0000
vt 0.4288 0.6510 0.0000
vt 0.4099 0.9972 0.0000
vt 0.3367 0.9972 0.0000
vt 0.2979 0.9972 0.0000
vt 0.2979 0.6484 0.0000
vt 0.9982 0.9384 0.0000
vt 0.9990 0.9920 0.0000
vt 0.9854 0.9960 0.0000
vt 0.7847 0.1329 0.0000
vt 0.7165 0.1329 0.0000
vt 0.7847 0.0605 0.0000
vt 0.7165 0.0253 0.0000
vt 0.8236 0.3983 0.0000
vt 0.8501 0.3748 0.0000
vt 0.0886 0.4998 0.0000
vt 0.0886 0.4529 0.0000
vt 0.1017 0.4931 0.0000
vt 0.1665 0.5303 0.0000
vt 0.2844 0.2872 0.0000
vt 0.2844 0.4611 0.0000
vt 0.1982 0.2833 0.0000
vt 0.8139 0.8419 0.0000
vt 0.8139 0.8236 0.0000
vt 0.9358 0.8236 0.0000
vt 0.9358 0.8419 0.0000
vt 0.5728 0.2638 0.0000
vt 0.0499 0.5754 0.0000
vt 0.6360 0.3953 0.0000
vt 0.6360 0.4337 0.0000
vt 0.6240 0.3953 0.0000
vt 0.6240 0.4339 0.0000
vt 0.5489 0.4000 0.0000
vt 0.5001 0.4169 0.0000
vt 0.5489 0.3855 0.0000
vt 0.4780 0.4101 0.0000
vt 0.5413 0.8169 0.0000
vt 0.5765 0.7569 0.0000
vt 0.6488 0.8169 0.0000
vt 0.6488 0.7569 0.0000
vt 0.5540 0.6294 0.0000
vt 0.9575 0.7014 0.0000
vt 0.9502 0.6808 0.0000
vt 0.9560 0.6660 0.0000
vt 0.7876 0.9475 0.0000
vt 0.9842 0.9210 0.0000
vt 0.4926 0.9969 0.0000
vt 0.4926 0.8420 0.0000
vt 0.5143 0.9827 0.0000
vt 0.6192 0.5940 0.0000
vt 0.6192 0.5462 0.0000
vt 0.6526 0.5940 0.0000
vt 0.2882 0.6094 0.0000
vt 0.3605 0.6094 0.0000
vt 0.2925 0.6385 0.0000
vt 0.1381 0.4634 0.0000
vt 0.3757 0.5318 0.0000
vt 0.8336 0.6922 0.0000
vt 0.9356 0.6922 0.0000
vt 0.9092 0.6999 0.0000
vt 0.5765 0.7279 0.0000
vt 0.5413 0.6678 0.0000
vt 0.7549 0.7214 0.0000
vt 0.8273 0.7214 0.0000
vt 0.7647 0.7288 0.0000
vt 0.8229 0.7505 0.0000
vt 0.7538 0.7288 0.0000
vt 0.4709 0.0640 0.0000
vt 0.4718 0.0351 0.0000
vt 0.4817 0.0640 0.0000
vt 0.4817 0.0351 0.0000
vt 0.7506 0.7505 0.0000
vt 0.3516 0.6168 0.0000
vt 0.3649 0.6385 0.0000
vt 0.3734 0.0010 0.0000
vt 0.0323 0.1549 0.0000
vt 0.0169 0.1549 0.0000
vt 0.3616 0.6168 0.0000
vt 0.9258 0.0084 0.0000
vt 0.9548 0.0010 0.0000
vt 0.9548 0.0084 0.0000
vt 0.4634 0.0846 0.0000
vt 0.4712 0.1055 0.0000
vt 0.4634 0.1092 0.0000
vt 0.9258 0.0010 0.0000
vt 0.6488 0.6678 0.0000
vt 0.6488 0.7279 0.0000
vt 0.0010 0.0432 0.0000
vt 0.3367 0.6484 0.0000
vt 0.6581 0.6921 0.0000
vt 0.6581 0.6630 0.0000
vt 0.7651 0.4946 0.0000
vt 0.6630 0.4761 0.0000
vt 0.7651 0.4761 0.0000
vt 0.7651 0.4576 0.0000
vt 0.7651 0.4391 0.0000
vt 0.6630 0.4391 0.0000
vt 0.6630 0.4946 0.0000
vt 0.1178 0.3152 0.0000
vt 0.1178 0.4331 0.0000
vt 0.1982 0.4650 0.0000
vt 0.6004 0.2134 0.0000
vt 0.5946 0.2303 0.0000
vt 0.6007 0.1956 0.0000
vt 0.5839 0.2446 0.0000
vt 0.5955 0.1785 0.0000
vt 0.5693 0.2548 0.0000
vt 0.5522 0.2600 0.0000
vt 0.5343 0.2597 0.0000
vt 0.5174 0.2539 0.0000
vt 0.5032 0.2432 0.0000
vt 0.4929 0.2285 0.0000
vt 0.4877 0.2115 0.0000
vt 0.4880 0.1936 0.0000
vt 0.4939 0.1767 0.0000
vt 0.5046 0.1625 0.0000
vt 0.5192 0.1522 0.0000
vt 0.5363 0.1470 0.0000
vt 0.5541 0.1473 0.0000
vt 0.5710 0.1531 0.0000
vt 0.5853 0.1639 0.0000
vt 0.6597 0.3703 0.0000
vt 0.8097 0.3543 0.0000
vt 0.8097 0.3703 0.0000
vt 0.9541 0.9063 0.0000
vt 0.9541 0.9190 0.0000
vt 0.8041 0.9063 0.0000
vt 0.4770 0.3749 0.0000
vt 0.4611 0.3749 0.0000
vt 0.4770 0.2249 0.0000
vt 0.8097 0.3879 0.0000
vt 0.6597 0.3879 0.0000
vt 0.6581 0.4055 0.0000
vt 0.6581 0.3932 0.0000
vt 0.8097 0.4055 0.0000
vt 0.8097 0.4214 0.0000
vt 0.8041 0.9349 0.0000
vt 0.9541 0.9349 0.0000
vt 0.8041 0.9525 0.0000
vt 0.8041 0.9190 0.0000
vt 0.4099 0.3749 0.0000
vt 0.4099 0.2249 0.0000
vt 0.4258 0.2249 0.0000
vt 0.4434 0.2249 0.0000
vt 0.4434 0.3749 0.0000
vt 0.4611 0.2249 0.0000
vt 0.6597 0.3543 0.0000
vt 0.8097 0.3417 0.0000
vt 0.8097 0.3023 0.0000
vt 0.6581 0.3199 0.0000
vt 0.6581 0.3023 0.0000
vt 0.6581 0.2846 0.0000
vt 0.9557 0.9861 0.0000
vt 0.8041 0.9987 0.0000
vt 0.8041 0.9861 0.0000
vt 0.8041 0.9702 0.0000
vt 0.6597 0.3911 0.0000
vt 0.4258 0.3749 0.0000
vt 0.6597 0.3417 0.0000
vt 0.9541 0.9525 0.0000
vt 0.8097 0.3358 0.0000
vt 0.6581 0.3358 0.0000
vt 0.8097 0.3199 0.0000
vt 0.8097 0.2846 0.0000
vt 0.8097 0.2687 0.0000
vt 0.6581 0.2687 0.0000
vt 0.9557 0.9987 0.0000
vt 0.9723 0.4421 0.0000
vt 0.9597 0.4295 0.0000
vt 0.9438 0.4214 0.0000
vt 0.9229 0.4098 0.0000
vt 0.9261 0.4186 0.0000
vt 0.9229 0.4191 0.0000
vt 0.9438 0.5299 0.0000
vt 0.9597 0.5219 0.0000
vt 0.9229 0.5367 0.0000
vt 0.9723 0.5092 0.0000
vt 0.9804 0.4933 0.0000
vt 0.9804 0.4580 0.0000
vt 0.9229 0.5322 0.0000
vt 0.9261 0.5327 0.0000
vt 0.7182 0.7847 0.0000
vt 0.7182 0.8570 0.0000
vt 0.6581 0.7847 0.0000
vt 0.7471 0.8570 0.0000
vt 0.6581 0.8922 0.0000
vt 0.7471 0.7847 0.0000
vt 0.8072 0.7847 0.0000
vt 0.8072 0.8922 0.0000
vt 0.6036 0.3636 0.0000
vt 0.5705 0.3636 0.0000
vt 0.6036 0.3443 0.0000
vt 0.6173 0.3124 0.0000
vt 0.6240 0.2103 0.0000
vt 0.6270 0.2103 0.0000
vt 0.6242 0.2110 0.0000
vt 0.6132 0.3085 0.0000
vt 0.6173 0.2930 0.0000
vt 0.6162 0.3115 0.0000
vt 0.4216 0.5672 0.0000
vt 0.4532 0.5316 0.0000
vt 0.4222 0.5673 0.0000
vt 0.4801 0.5828 0.0000
vt 0.6131 0.3085 0.0000
vt 0.6131 0.3087 0.0000
vt 0.4196 0.5316 0.0000
vt 0.4488 0.0197 0.0000
vt 0.0059 0.6477 0.0000
vt 0.7261 0.1373 0.0000
vt 0.7841 0.1373 0.0000
vt 0.7261 0.1382 0.0000
vt 0.7650 0.1569 0.0000
vt 0.6884 0.1382 0.0000
vt 0.7261 0.1569 0.0000
vt 0.6094 0.6392 0.0000
vt 0.6607 0.6046 0.0000
vt 0.6607 0.6529 0.0000
vt 0.4222 0.5674 0.0000
vt 0.6046 0.4143 0.0000
vt 0.6200 0.3563 0.0000
vt 0.6200 0.4143 0.0000
vt 0.6193 0.3268 0.0000
vt 0.6192 0.2687 0.0000
vt 0.1957 0.6484 0.0000
vt 0.7841 0.1856 0.0000
vt 0.5705 0.3443 0.0000
vt 0.7450 0.7249 0.0000
vt 0.7311 0.7115 0.0000
vt 0.7545 0.6873 0.0000
vt 0.7684 0.7007 0.0000
vt 0.7505 0.5840 0.0000
vt 0.7263 0.5606 0.0000
vt 0.7492 0.5368 0.0000
vt 0.7734 0.5602 0.0000
vt 0.1568 0.5905 0.0000
vt 0.1692 0.5757 0.0000
vt 0.1950 0.5973 0.0000
vt 0.1825 0.6121 0.0000
vt 0.7978 0.5837 0.0000
vt 0.7748 0.6075 0.0000
vt 0.6382 0.4780 0.0000
vt 0.6382 0.5111 0.0000
vt 0.6046 0.5111 0.0000
vt 0.6046 0.4780 0.0000
vt 0.8240 0.7170 0.0000
vt 0.8100 0.7036 0.0000
vt 0.2361 0.5902 0.0000
vt 0.3903 0.6361 0.0000
vt 0.3903 0.6061 0.0000
vt 0.4415 0.6377 0.0000
vt 0.4415 0.6046 0.0000
vt 0.6094 0.6061 0.0000
vt 0.4174 0.4196 0.0000
vt 0.4361 0.4243 0.0000
vt 0.4180 0.4206 0.0000
vt 0.3644 0.4203 0.0000
vt 0.3831 0.4249 0.0000
vt 0.4202 0.4245 0.0000
vt 0.6224 0.3521 0.0000
vt 0.6192 0.3515 0.0000
vt 0.6224 0.3515 0.0000
vt 0.4594 0.6333 0.0000
vt 0.4439 0.6333 0.0000
vt 0.4952 0.6023 0.0000
vt 0.4952 0.6359 0.0000
vt 0.4594 0.6340 0.0000
vt 0.3751 0.4572 0.0000
vt 0.3563 0.4526 0.0000
vt 0.7273 0.6080 0.0000
vt 0.5170 0.4967 0.0000
vt 0.5170 0.4634 0.0000
vt 0.5506 0.4967 0.0000
vt 0.5506 0.4634 0.0000
vt 0.4342 0.9972 0.0000
vt 0.7841 0.2156 0.0000
vt 0.7832 0.2152 0.0000
vt 0.7650 0.2444 0.0000
vt 0.7650 0.2152 0.0000
vt 0.7832 0.1860 0.0000
vt 0.7650 0.1860 0.0000
vt 0.3709 0.6361 0.0000
vt 0.3709 0.6061 0.0000
vt 0.2485 0.5754 0.0000
vt 0.5779 0.5316 0.0000
vt 0.5779 0.5798 0.0000
vt 0.5267 0.5450 0.0000
vt 0.7841 0.2639 0.0000
vt 0.5267 0.5783 0.0000
vt 0.7261 0.2639 0.0000
vt 0.7261 0.2633 0.0000
vt 0.7261 0.2444 0.0000
vt 0.4439 0.5754 0.0000
vt 0.8208 0.5599 0.0000
vt 0.7964 0.5364 0.0000
vt 0.3854 0.4118 0.0000
vt 0.3846 0.4168 0.0000
vt 0.3791 0.4141 0.0000
vt 0.4377 0.4178 0.0000
vt 0.5389 0.4563 0.0000
vt 0.4876 0.4589 0.0000
vt 0.5389 0.4224 0.0000
vt 0.4876 0.4196 0.0000
vt 0.4191 0.4124 0.0000
vt 0.4731 0.5652 0.0000
vt 0.4731 0.5316 0.0000
vt 0.5057 0.5342 0.0000
vt 0.4282 0.3807 0.0000
vt 0.6382 0.4391 0.0000
vt 0.6046 0.4721 0.0000
vt 0.6046 0.4391 0.0000
vt 0.0341 0.0171 0.0000
vt 0.0059 0.0010 0.0000
vt 0.0497 0.9940 0.0000
vt 0.0497 0.6477 0.0000
vt 0.4288 0.9972 0.0000
vt 0.4430 0.1783 0.0000
vt 0.4121 0.1779 0.0000
vt 0.4501 0.0765 0.0000
vt 0.4829 0.4841 0.0000
vt 0.4829 0.4634 0.0000
vt 0.4968 0.4841 0.0000
vt 0.0490 0.5462 0.0000
vt 0.0490 0.5466 0.0000
vt 0.0351 0.5462 0.0000
vt 0.0357 0.4999 0.0000
vt 0.0364 0.4861 0.0000
vt 0.9352 0.7000 0.0000
vt 0.5248 0.9969 0.0000
vt 0.5170 0.9969 0.0000
vt 0.5248 0.9951 0.0000
vt 0.5248 0.9858 0.0000
vt 0.4968 0.4880 0.0000
vt 0.5046 0.4880 0.0000
vt 0.4634 0.1246 0.0000
vt 0.4712 0.1246 0.0000
vt 0.7435 0.9275 0.0000
vt 0.7457 0.9122 0.0000
vt 0.7550 0.9122 0.0000
vt 0.7440 0.9120 0.0000
vt 0.7435 0.9083 0.0000
vt 0.7440 0.9081 0.0000
vt 0.0341 0.0356 0.0000
vt 0.0059 0.0301 0.0000
vt 0.1901 0.6469 0.0000
vt 0.1901 0.9938 0.0000
vt 0.1714 0.9965 0.0000
vt 0.6868 0.1373 0.0000
vt 0.1714 0.6289 0.0000
vt 0.0449 0.9946 0.0000
vt 0.6871 0.1382 0.0000
vt 0.6871 0.1569 0.0000
vt 0.6482 0.1569 0.0000
vt 0.4683 0.4196 0.0000
vt 0.4683 0.4589 0.0000
vt 0.3661 0.4115 0.0000
vt 0.1276 0.9965 0.0000
vt 0.6282 0.9962 0.0000
vt 0.6280 0.9832 0.0000
vt 0.7144 0.9945 0.0000
vt 0.7165 0.7506 0.0000
vt 0.7209 0.7536 0.0000
vt 0.7165 0.7713 0.0000
vt 0.4926 0.6873 0.0000
vt 0.5143 0.6873 0.0000
vt 0.5017 0.6908 0.0000
vt 0.5143 0.6908 0.0000
vt 0.5046 0.4634 0.0000
vt 0.7200 0.7713 0.0000
vt 0.6665 0.0691 0.0000
vt 0.4634 0.0691 0.0000
vt 0.0394 0.4862 0.0000
vt 0.0571 0.4868 0.0000
vt 0.1646 0.2206 0.0000
vt 0.1568 0.1908 0.0000
vt 0.6443 0.1373 0.0000
vt 0.6446 0.1419 0.0000
vt 0.5244 0.5344 0.0000
vt 0.5201 0.5767 0.0000
vt 0.5244 0.5769 0.0000
vt 0.6280 0.9619 0.0000
vt 0.6581 0.5381 0.0000
vt 0.6593 0.5050 0.0000
vt 0.6909 0.5327 0.0000
vt 0.6415 0.1776 0.0000
vt 0.6415 0.1501 0.0000
vt 0.6921 0.4975 0.0000
vt 0.5057 0.5824 0.0000
vt 0.6201 0.9503 0.0000
vt 0.0566 0.4994 0.0000
vt 0.0771 0.4988 0.0000
vt 0.8653 0.5208 0.0000
vt 0.8757 0.5412 0.0000
vt 0.8662 0.5412 0.0000
vt 0.5254 0.9543 0.0000
vt 0.5017 0.7290 0.0000
vt 0.5259 0.9710 0.0000
vt 0.5024 0.7004 0.0000
vt 0.7698 0.9122 0.0000
vt 0.7865 0.9125 0.0000
vt 0.7998 0.9327 0.0000
vt 0.5074 0.7416 0.0000
vt 0.9024 0.4788 0.0000
vt 0.9044 0.5410 0.0000
vt 0.5387 0.7005 0.0000
vt 0.5311 0.9417 0.0000
vt 0.7991 0.9125 0.0000
vt 0.9155 0.4936 0.0000
vt 0.9170 0.5408 0.0000
vt 0.5387 0.9417 0.0000
vt 0.2306 0.0368 0.0000
vt 0.5170 0.6873 0.0000
vt 0.2298 0.0623 0.0000
vt 0.5143 0.7416 0.0000
vt 0.9564 0.6458 0.0000
vt 0.9640 0.6458 0.0000
vt 0.9916 0.6660 0.0000
vt 0.9896 0.7014 0.0000
vt 0.9580 0.5731 0.0000
vt 0.9640 0.6203 0.0000
vt 0.9571 0.6203 0.0000
vt 0.6319 0.2835 0.0000
vt 0.6411 0.3912 0.0000
vt 0.6289 0.3764 0.0000
vt 0.6450 0.2687 0.0000
vt 0.9970 0.6808 0.0000
vt 0.8355 0.5075 0.0000
vt 0.9528 0.5583 0.0000
vt 0.9593 0.5413 0.0000
vt 0.9927 0.5731 0.0000
vt 0.9951 0.5413 0.0000
vt 0.8149 0.0010 0.0000
vt 0.9218 0.0139 0.0000
vt 0.7993 0.0135 0.0000
vt 0.9070 0.0012 0.0000
vt 0.2775 0.4699 0.0000
vt 0.2606 0.4647 0.0000
vt 0.9983 0.5583 0.0000
vt 0.8345 0.4561 0.0000
vt 0.7760 0.4903 0.0000
vt 0.7749 0.4622 0.0000
vt 0.7880 0.4485 0.0000
vt 0.8351 0.4439 0.0000
vt 0.8890 0.4618 0.0000
vt 0.8854 0.7467 0.0000
vt 0.9392 0.7500 0.0000
vt 0.8854 0.7797 0.0000
vt 0.9392 0.7858 0.0000
vt 0.8382 0.7678 0.0000
vt 0.8382 0.7409 0.0000
vt 0.8225 0.5437 0.0000
vt 0.8090 0.5267 0.0000
vt 0.0410 0.5125 0.0000
vt 0.0969 0.5023 0.0000
vt 0.0253 0.5275 0.0000
vt 0.6526 0.5462 0.0000
vt 0.5802 0.5364 0.0000
vt 0.6152 0.5864 0.0000
vt 0.5802 0.5864 0.0000
vt 0.3672 0.2260 0.0000
vt 0.4172 0.2006 0.0000
vt 0.4257 0.2117 0.0000
vt 0.5206 0.3899 0.0000
vt 0.4700 0.4075 0.0000
vt 0.5197 0.3758 0.0000
vt 0.4488 0.4003 0.0000
vt 0.6873 0.5608 0.0000
vt 0.6978 0.5672 0.0000
vt 0.6978 0.6007 0.0000
vt 0.6873 0.6074 0.0000
vt 0.1017 0.3192 0.0000
vt 0.0886 0.4063 0.0000
vt 0.1038 0.2044 0.0000
vt 0.0383 0.1116 0.0000
vt 0.7092 0.1261 0.0000
vt 0.6152 0.5364 0.0000
vt 0.6581 0.5611 0.0000
vt 0.6697 0.5559 0.0000
vt 0.6697 0.6028 0.0000
vt 0.6581 0.5976 0.0000
vt 0.6727 0.6076 0.0000
vt 0.6838 0.5668 0.0000
vt 0.6838 0.6018 0.0000
vt 0.6727 0.5608 0.0000
vt 0.4488 0.1567 0.0000
vt 0.0886 0.3125 0.0000
vt 0.0886 0.3594 0.0000
vt 0.0368 0.1253 0.0000
vt 0.5413 0.9832 0.0000
vt 0.5413 0.9229 0.0000
vt 0.6136 0.9581 0.0000
vt 0.5478 0.9962 0.0000
vt 0.4898 0.2492 0.0000
vt 0.5022 0.2512 0.0000
vt 0.5181 0.2593 0.0000
vt 0.6581 0.4214 0.0000
vt 0.6581 0.4341 0.0000
vt 0.8097 0.4341 0.0000
vt 0.9208 0.4195 0.0000
vt 0.9208 0.4565 0.0000
vt 0.4468 0.3860 0.0000
vt 0.6630 0.6523 0.0000
vt 0.7056 0.6205 0.0000
vt 0.7138 0.6507 0.0000
vt 0.5375 0.3466 0.0000
vt 0.5267 0.3626 0.0000
vt 0.4950 0.3693 0.0000
vt 0.2492 0.6294 0.0000
vt 0.2089 0.6382 0.0000
vt 0.2006 0.6293 0.0000
vt 0.6924 0.5404 0.0000
vt 0.6260 0.1434 0.0000
vt 0.6179 0.1460 0.0000
vt 0.6094 0.1373 0.0000
vt 0.6482 0.1860 0.0000
vt 0.6395 0.1893 0.0000
vt 0.5654 0.3654 0.0000
vt 0.5546 0.3814 0.0000
vt 0.7990 0.6309 0.0000
vt 0.8220 0.6071 0.0000
vt 0.6630 0.6192 0.0000
vt 0.2663 0.6385 0.0000
vt 0.2821 0.6088 0.0000
vt 0.2650 0.5997 0.0000
vt 0.6382 0.4721 0.0000
vt 0.4926 0.3810 0.0000
vt 0.6164 0.3308 0.0000
vt 0.6172 0.3465 0.0000
vt 0.6131 0.3425 0.0000
vt 0.6038 0.3784 0.0000
vt 0.6038 0.3977 0.0000
vt 0.4561 0.4319 0.0000
vt 0.4561 0.4658 0.0000
vt 0.4049 0.4293 0.0000
vt 0.4049 0.4686 0.0000
vt 0.3855 0.4293 0.0000
vt 0.5664 0.4027 0.0000
vt 0.6023 0.4001 0.0000
vt 0.6023 0.4338 0.0000
vt 0.5510 0.4609 0.0000
vt 0.5705 0.3784 0.0000
vt 0.5705 0.3977 0.0000
vt 0.7517 0.6315 0.0000
vt 0.5944 0.4918 0.0000
vt 0.5608 0.4918 0.0000
vt 0.5944 0.4585 0.0000
vt 0.5608 0.4585 0.0000
vt 0.6071 0.6367 0.0000
vt 0.5641 0.6380 0.0000
vt 0.6071 0.6034 0.0000
vt 0.5622 0.6317 0.0000
vt 0.5559 0.6198 0.0000
vt 0.5559 0.5900 0.0000
vt 0.0169 0.0528 0.0000
vt 0.6377 0.1373 0.0000
vt 0.6482 0.2152 0.0000
vt 0.0354 0.0528 0.0000
vt 0.0301 0.0432 0.0000
vt 0.0349 0.0399 0.0000
vt 0.6914 0.0623 0.0000
vt 0.6957 0.0623 0.0000
vt 0.8355 0.6965 0.0000
vt 0.8333 0.6965 0.0000
vt 0.1276 0.1292 0.0000
vt 0.3017 0.5122 0.0000
vt 0.6289 0.2639 0.0000
vt 0.6868 0.2639 0.0000
vt 0.5547 0.4027 0.0000
vt 0.5510 0.4030 0.0000
vt 0.6871 0.2633 0.0000
vt 0.6871 0.2444 0.0000
vt 0.3855 0.4686 0.0000
vt 0.6172 0.3271 0.0000
# 1064 texture coords

o Pistola
g Pistola
s off
f 1/1/1 2/2/1 3/3/1 
f 4/4/2 2/5/2 1/6/2 
f 4/7/3 1/8/3 5/9/3 
f 5/10/4 6/11/4 4/12/4 
f 7/13/5 8/14/5 9/15/5 
f 4/12/6 6/11/6 10/16/6 
f 11/17/7 10/18/7 6/19/7 
f 12/20/8 13/21/8 14/22/8 
f 13/21/9 15/23/9 14/22/9 
f 12/24/10 14/25/10 16/26/10 
f 17/27/11 18/28/11 15/29/11 
f 19/30/11 15/29/11 20/31/11 
f 14/22/9 15/23/9 19/32/9 
f 19/33/12 3/3/12 14/34/12 
f 21/35/13 22/36/13 23/37/13 
f 21/38/14 24/39/14 22/40/14 
f 23/41/15 16/26/15 21/42/15 
f 25/43/16 26/44/16 27/45/16 
f 28/46/17 29/47/17 30/48/17 
f 31/49/18 30/48/18 29/47/18 
f 29/47/19 25/43/19 31/49/19 
f 32/50/20 33/51/20 34/52/20 
f 33/51/20 35/53/20 34/52/20 
f 36/54/21 32/55/21 37/56/21 
f 34/57/21 37/56/21 32/55/21 
f 38/58/22 39/59/22 34/60/22 
f 32/55/23 40/61/23 41/62/23 
f 41/62/24 42/63/24 32/55/24 
f 43/64/12 44/65/12 43/66/12 
f 35/67/25 45/68/25 46/69/25 
f 46/70/26 47/71/26 35/72/26 
f 48/73/27 49/74/27 50/75/27 
f 49/64/12 43/66/12 50/76/12 
f 43/66/12 51/77/12 50/76/12 
f 52/78/28 45/79/28 51/80/28 
f 45/79/29 53/81/29 50/82/29 
f 35/83/30 53/81/30 45/79/30 
f 49/84/31 48/85/31 38/58/31 
f 43/84/32 49/84/32 38/58/32 
f 48/73/33 53/86/33 54/87/33 
f 53/86/34 48/73/34 50/75/34 
f 53/81/35 35/83/35 33/88/35 
f 55/89/36 56/90/36 7/91/36 
f 9/15/37 55/92/37 7/13/37 
f 55/93/38 57/94/38 58/95/38 
f 33/88/39 54/96/39 53/81/39 
f 45/97/11 59/98/11 46/99/11 
f 54/96/40 33/88/40 42/100/40 
f 33/88/41 32/101/41 42/100/41 
f 60/102/42 61/103/42 57/94/42 
f 20/104/12 62/105/12 19/33/12 
f 3/3/12 19/33/12 62/105/12 
f 46/106/43 59/79/43 47/107/43 
f 47/108/20 63/109/20 35/53/20 
f 56/110/44 64/111/44 7/13/44 
f 34/52/20 35/53/20 65/112/20 
f 51/77/12 43/66/12 44/65/12 
f 4/4/2 66/113/2 2/5/2 
f 4/4/45 10/114/45 66/113/45 
f 8/14/46 10/115/46 11/116/46 
f 50/82/28 51/80/28 45/79/28 
f 10/18/47 8/117/47 64/118/47 
f 11/116/5 9/15/5 8/14/5 
f 51/77/12 44/65/12 67/119/12 
f 59/120/12 45/121/12 52/122/12 
f 58/95/48 68/123/48 69/124/48 
f 51/80/49 67/125/49 52/78/49 
f 67/126/50 44/127/50 70/128/50 
f 71/129/51 69/124/51 72/130/51 
f 73/131/52 70/128/52 74/132/52 
f 73/133/53 74/134/53 75/135/53 
f 76/136/54 64/111/54 56/110/54 
f 56/90/55 55/89/55 71/137/55 
f 70/138/56 77/139/56 67/125/56 
f 71/140/57 55/141/57 69/142/57 
f 78/143/58 56/110/58 71/144/58 
f 55/141/59 58/145/59 69/142/59 
f 56/110/54 78/143/54 76/136/54 
f 79/146/60 16/147/60 3/3/60 
f 16/147/61 79/146/61 21/38/61 
f 3/3/62 80/148/62 79/146/62 
f 3/3/63 2/2/63 80/148/63 
f 24/39/64 21/38/64 79/146/64 
f 81/149/65 82/150/65 83/151/65 
f 81/149/66 83/151/66 84/152/66 
f 81/149/66 84/152/66 80/153/66 
f 84/152/67 79/154/67 80/153/67 
f 82/155/68 64/111/68 76/136/68 
f 84/156/69 24/39/69 79/146/69 
f 83/157/70 85/158/70 86/159/70 
f 83/157/71 82/160/71 85/158/71 
f 2/5/72 66/113/72 80/153/72 
f 85/161/73 82/162/73 76/163/73 
f 81/149/72 80/153/72 66/113/72 
f 8/14/44 7/13/44 64/111/44 
f 82/164/74 81/165/74 10/16/74 
f 81/165/75 66/166/75 10/16/75 
f 82/167/76 10/18/76 64/118/76 
f 72/168/77 87/169/77 88/170/77 
f 89/171/78 90/172/78 88/173/78 
f 78/174/79 88/173/79 90/172/79 
f 71/175/80 72/168/81 88/170/81 
f 78/174/82 71/176/82 88/173/82 
f 91/177/83 90/178/83 92/179/83 
f 84/156/84 93/180/84 24/39/84 
f 94/181/85 95/182/85 86/183/85 
f 76/163/86 91/184/86 85/161/86 
f 85/158/87 96/185/87 94/186/87 
f 85/161/88 91/184/88 92/187/88 
f 92/187/89 96/188/89 85/161/89 
f 97/189/90 98/190/90 72/191/90 
f 76/192/91 78/193/91 91/177/91 
f 90/178/91 91/177/91 78/193/91 
f 84/194/92 83/195/92 93/196/92 
f 86/183/92 93/196/92 83/195/92 
f 99/197/93 100/198/93 101/199/93 
f 99/197/94 101/199/94 102/200/94 
f 103/201/95 104/202/95 105/203/95 
f 104/204/96 101/199/96 105/205/96 
f 100/198/96 105/205/96 101/199/96 
f 106/206/97 107/207/97 108/208/97 
f 103/209/11 105/210/11 100/211/11 
f 100/211/11 109/212/11 103/209/11 
f 110/213/20 106/214/20 108/215/20 
f 111/216/95 104/202/95 103/201/95 
f 112/217/11 113/218/11 114/219/11 
f 112/217/11 114/219/11 115/220/11 
f 116/221/20 117/222/20 114/223/20 
f 114/224/98 118/225/98 116/226/98 
f 113/227/98 119/228/98 114/224/98 
f 119/228/98 118/225/98 114/224/98 
f 119/229/99 113/230/99 112/231/99 
f 119/229/99 112/231/99 120/232/99 
f 119/233/20 120/234/20 118/235/20 
f 121/236/20 118/235/20 120/234/20 
f 122/237/12 123/238/12 108/239/12 
f 124/240/100 122/241/100 109/242/100 
f 121/243/101 125/244/101 118/245/101 
f 99/197/102 125/244/102 121/243/102 
f 121/243/103 100/198/103 99/197/103 
f 99/197/104 126/246/104 125/244/104 
f 126/247/11 127/248/11 125/249/11 
f 99/250/98 128/251/98 126/252/98 
f 114/253/101 129/254/101 115/255/101 
f 114/253/104 130/256/104 131/257/104 
f 131/257/105 129/254/105 114/253/105 
f 131/258/98 130/259/98 132/260/98 
f 133/261/20 134/262/20 135/263/20 
f 131/257/106 136/264/106 133/265/106 
f 131/257/107 137/266/107 129/254/107 
f 137/266/108 131/257/108 133/265/108 
f 135/267/109 137/266/109 133/265/109 
f 132/268/20 138/269/20 131/270/20 
f 135/271/110 139/272/110 140/273/110 
f 135/271/110 140/273/110 137/274/110 
f 137/275/20 140/276/20 129/277/20 
f 124/278/20 129/277/20 140/276/20 
f 110/279/12 108/239/12 123/238/12 
f 108/208/100 109/242/100 122/241/100 
f 141/280/96 142/281/96 143/282/96 
f 141/283/98 144/284/98 142/285/98 
f 141/283/98 145/286/98 144/284/98 
f 31/49/111 146/287/111 30/48/111 
f 143/288/11 147/289/11 141/290/11 
f 77/291/112 75/292/112 148/293/112 
f 104/294/11 111/295/11 141/290/11 
f 143/282/94 149/296/94 150/297/94 
f 75/292/113 70/298/113 73/299/113 
f 77/291/114 70/298/114 75/292/114 
f 77/139/115 151/300/115 152/301/115 
f 153/302/116 34/60/116 65/303/116 
f 47/107/43 59/79/43 63/304/43 
f 52/78/117 63/304/117 59/79/117 
f 154/305/20 65/112/20 63/109/20 
f 65/112/20 35/53/20 63/109/20 
f 109/242/97 108/208/97 107/207/97 
f 109/212/11 107/306/11 103/209/11 
f 144/307/11 103/209/11 107/306/11 
f 106/214/20 110/213/20 155/308/20 
f 156/309/118 157/310/118 158/311/118 
f 145/312/11 141/290/11 111/295/11 
f 111/313/96 103/314/96 145/315/96 
f 144/316/96 145/315/96 103/314/96 
f 107/306/11 159/317/11 144/307/11 
f 142/318/11 144/307/11 159/317/11 
f 159/319/119 160/320/119 149/296/119 
f 143/282/96 142/281/96 159/319/96 
f 143/282/120 159/319/120 149/296/120 
f 161/321/98 106/322/98 155/323/98 
f 158/311/121 157/310/121 162/324/121 
f 158/311/122 162/324/122 163/325/122 
f 164/326/123 157/327/123 156/328/123 
f 156/309/124 165/329/124 63/330/124 
f 166/331/125 167/332/125 157/333/125 
f 168/334/126 157/333/126 164/335/126 
f 152/301/127 164/326/127 156/328/127 
f 156/328/128 77/139/128 152/301/128 
f 63/304/129 67/125/129 156/328/129 
f 63/304/130 52/78/130 67/125/130 
f 156/328/131 67/125/131 77/139/131 
f 163/336/132 151/300/132 169/337/132 
f 148/338/133 170/339/133 146/340/133 
f 146/287/134 169/341/134 77/291/134 
f 77/291/135 169/341/135 151/342/135 
f 77/291/136 148/293/136 146/287/136 
f 31/49/137 169/341/137 146/287/137 
f 152/301/138 151/300/138 163/336/138 
f 171/343/138 152/301/138 163/336/138 
f 172/344/139 173/345/139 174/346/139 
f 163/325/140 162/324/140 171/347/140 
f 31/348/141 175/349/141 169/350/141 
f 175/351/132 163/336/132 169/337/132 
f 172/352/142 176/353/142 177/354/142 
f 178/355/143 172/356/143 177/357/143 
f 179/358/144 173/345/144 178/359/144 
f 172/344/144 178/359/144 173/345/144 
f 180/360/145 181/361/145 182/362/145 
f 183/363/145 184/364/145 182/362/145 
f 180/360/145 182/362/145 184/364/145 
f 180/365/146 185/366/146 186/367/146 
f 181/368/147 180/365/147 186/367/147 
f 187/369/133 188/370/133 189/371/133 
f 190/372/133 187/369/133 189/371/133 
f 191/373/133 190/372/133 189/371/133 
f 192/374/133 165/375/133 188/370/133 
f 165/375/133 189/371/133 188/370/133 
f 193/376/133 191/373/133 189/371/133 
f 194/377/133 193/376/133 189/371/133 
f 194/377/133 189/371/133 195/378/133 
f 196/379/12 197/380/12 198/381/12 
f 199/382/12 200/383/12 201/384/12 
f 202/385/12 199/382/12 201/384/12 
f 197/380/12 203/386/12 198/381/12 
f 123/387/133 204/388/133 155/389/133 
f 110/390/133 123/387/133 155/389/133 
f 205/391/148 188/392/148 187/393/148 
f 188/394/20 205/395/20 206/396/20 
f 195/378/133 189/371/133 207/397/133 
f 181/368/149 186/367/149 206/398/149 
f 163/325/150 175/399/150 158/311/150 
f 206/396/20 208/400/20 188/394/20 
f 192/401/20 188/394/20 154/305/20 
f 165/329/151 156/309/151 189/402/151 
f 158/311/152 189/402/152 156/309/152 
f 31/348/153 158/403/153 175/349/153 
f 192/404/154 63/330/154 165/329/154 
f 171/405/20 162/406/20 209/407/20 
f 209/407/20 210/408/20 171/405/20 
f 38/58/155 167/409/155 43/84/155 
f 167/409/156 38/58/156 34/60/156 
f 162/410/157 157/333/157 209/411/157 
f 167/332/157 209/411/157 157/333/157 
f 63/109/20 192/401/20 154/305/20 
f 153/302/158 211/412/158 212/413/158 
f 153/302/159 65/303/159 154/414/159 
f 153/302/160 154/414/160 211/412/160 
f 212/415/20 211/416/20 208/400/20 
f 211/416/20 188/394/20 208/400/20 
f 211/416/20 154/305/20 188/394/20 
f 153/302/161 212/413/161 17/417/161 
f 213/418/161 17/417/161 212/413/161 
f 213/419/11 18/28/11 17/27/11 
f 20/31/11 15/29/11 18/28/11 
f 208/420/162 213/421/162 212/422/162 
f 208/420/162 186/367/162 213/421/162 
f 208/420/149 206/398/149 186/367/149 
f 43/423/163 43/424/163 167/425/163 
f 167/332/164 44/426/164 43/427/164 
f 34/60/165 153/302/165 167/409/165 
f 167/332/166 166/331/166 44/426/166 
f 214/428/139 172/344/139 174/346/139 
f 215/429/144 172/344/144 214/428/144 
f 174/430/167 22/36/167 216/431/167 
f 22/40/168 24/39/168 216/432/168 
f 217/433/169 216/432/169 24/39/169 
f 217/434/139 96/435/139 216/436/139 
f 174/346/170 216/436/170 214/428/170 
f 96/435/139 214/428/139 216/436/139 
f 95/437/171 94/438/171 217/434/171 
f 89/439/172 214/428/172 96/435/172 
f 215/440/173 87/441/173 176/442/173 
f 87/441/173 98/190/173 176/442/173 
f 215/443/174 88/170/174 87/169/174 
f 215/443/175 214/444/175 88/170/175 
f 215/429/144 176/445/144 172/344/144 
f 176/353/176 98/446/176 177/354/176 
f 89/171/177 88/173/177 214/447/177 
f 92/179/83 90/178/83 89/448/83 
f 93/196/85 86/183/85 95/182/85 
f 95/449/178 24/39/178 93/180/178 
f 95/449/179 217/433/179 24/39/179 
f 96/435/171 217/434/171 94/438/171 
f 94/186/180 86/159/180 85/158/180 
f 92/450/172 89/439/172 96/435/172 
f 102/451/98 101/452/98 218/453/98 
f 141/290/11 147/289/11 104/294/11 
f 99/454/11 102/455/11 128/456/11 
f 130/457/20 114/223/20 117/222/20 
f 125/458/98 219/459/98 118/225/98 
f 130/259/98 117/460/98 132/260/98 
f 126/252/98 128/251/98 127/461/98 
f 136/462/98 138/463/98 133/464/98 
f 134/465/98 133/464/98 138/463/98 
f 135/263/20 134/262/20 220/466/20 
f 136/467/20 131/270/20 138/269/20 
f 147/289/11 221/468/11 104/294/11 
f 222/469/11 150/470/11 149/471/11 
f 223/472/181 224/473/181 225/474/181 
f 220/475/109 226/476/109 227/477/109 
f 228/478/182 224/473/182 223/472/182 
f 229/479/98 220/480/98 227/481/98 
f 230/482/183 231/483/183 232/484/183 
f 223/485/184 231/483/184 230/482/184 
f 223/485/184 230/482/184 233/486/184 
f 139/487/20 135/263/20 220/466/20 
f 234/488/106 200/489/106 226/476/106 
f 223/472/185 232/490/185 231/491/185 
f 235/492/186 226/476/186 200/489/186 
f 234/493/12 226/494/12 236/495/12 
f 200/496/20 234/497/20 236/498/20 
f 60/499/187 237/500/187 233/501/187 
f 227/502/20 235/503/20 229/504/20 
f 124/278/20 140/276/20 238/505/20 
f 229/504/20 238/505/20 140/276/20 
f 238/506/188 107/207/188 161/507/188 
f 223/508/189 233/509/189 239/510/189 
f 124/240/190 238/506/190 122/241/190 
f 161/507/190 122/241/190 238/506/190 
f 204/511/98 161/321/98 155/323/98 
f 239/512/191 240/513/191 241/514/191 
f 123/515/11 122/516/11 161/517/11 
f 123/515/11 161/517/11 204/518/11 
f 220/480/98 229/479/98 242/519/98 
f 220/466/20 242/520/20 139/487/20 
f 229/521/109 140/522/109 242/523/109 
f 139/524/109 242/523/109 140/522/109 
f 230/525/192 243/526/192 233/527/192 
f 243/526/193 244/528/193 233/527/193 
f 107/529/12 245/530/12 159/531/12 
f 160/532/12 159/531/12 245/530/12 
f 230/482/183 232/484/183 243/533/183 
f 232/534/194 246/535/194 247/536/194 
f 232/490/195 223/472/195 246/537/195 
f 233/501/196 244/538/196 60/499/196 
f 202/539/197 201/540/197 248/541/197 
f 57/542/198 249/543/198 60/544/198 
f 160/545/199 245/546/199 198/547/199 
f 61/103/200 60/102/200 244/548/200 
f 149/296/119 160/320/119 198/549/119 
f 250/550/11 203/551/11 225/552/11 
f 245/530/12 107/529/12 251/553/12 
f 238/554/12 251/553/12 107/529/12 
f 106/206/188 161/507/188 107/207/188 
f 251/555/11 252/556/11 248/557/11 
f 199/558/11 248/557/11 252/556/11 
f 253/559/11 251/555/11 248/557/11 
f 248/560/12 254/561/12 253/562/12 
f 255/563/12 253/562/12 254/561/12 
f 199/558/11 202/564/11 248/557/11 
f 198/547/201 254/565/201 196/566/201 
f 149/567/12 198/381/12 203/386/12 
f 198/547/202 245/546/202 254/565/202 
f 256/568/12 201/384/12 257/569/12 
f 245/546/20 255/570/20 254/565/20 
f 255/571/203 251/572/203 253/573/203 
f 256/574/204 258/575/204 197/576/204 
f 255/571/203 245/577/203 251/572/203 
f 238/554/12 235/578/12 251/553/12 
f 252/579/12 251/553/12 235/578/12 
f 238/505/20 229/504/20 235/503/20 
f 170/580/12 257/569/12 200/383/12 
f 235/492/109 227/477/109 226/476/109 
f 200/496/20 236/498/20 170/581/20 
f 199/582/119 252/583/119 200/489/119 
f 235/492/119 200/489/119 252/583/119 
f 17/584/12 13/585/12 153/586/12 
f 153/586/12 13/585/12 167/587/12 
f 209/588/12 167/587/12 210/589/12 
f 13/585/12 17/584/12 15/590/12 
f 210/589/12 167/587/12 13/585/12 
f 184/591/11 241/514/11 180/592/11 
f 185/593/11 180/592/11 241/514/11 
f 259/594/205 260/595/205 261/596/205 
f 260/595/206 262/597/206 261/596/206 
f 263/598/206 261/596/206 262/597/206 
f 262/597/206 264/599/206 265/600/206 
f 262/597/207 265/600/207 266/601/207 
f 262/597/206 266/601/206 267/602/206 
f 262/597/207 267/602/207 268/603/207 
f 262/597/206 268/603/206 269/604/206 
f 262/597/206 269/604/206 270/605/206 
f 262/597/208 270/605/208 271/606/208 
f 262/597/205 271/606/205 272/607/205 
f 262/597/206 272/607/206 273/608/206 
f 262/597/206 273/608/206 274/609/206 
f 262/597/205 274/609/205 275/610/205 
f 262/597/208 275/610/208 276/611/208 
f 262/597/205 276/611/205 277/612/205 
f 262/597/206 277/612/206 278/613/206 
f 263/598/206 262/597/206 278/613/206 
f 279/614/209 262/615/209 260/616/209 
f 280/617/210 281/618/210 268/619/210 
f 282/620/211 283/621/211 264/622/211 
f 259/623/212 284/624/212 260/616/212 
f 285/625/213 286/626/213 261/627/213 
f 285/625/214 261/627/214 263/628/214 
f 270/629/215 287/630/215 271/631/215 
f 287/630/216 270/629/216 281/618/216 
f 269/632/216 281/618/216 270/629/216 
f 269/632/210 268/619/210 281/618/210 
f 280/633/217 268/634/217 267/635/217 
f 266/636/218 182/637/218 267/635/218 
f 182/637/219 266/636/219 283/621/219 
f 265/638/219 283/621/219 266/636/219 
f 265/638/211 264/622/211 283/621/211 
f 262/615/220 288/639/220 264/640/220 
f 194/641/221 277/642/221 276/643/221 
f 194/641/222 276/643/222 275/644/222 
f 190/645/223 274/646/223 273/647/223 
f 272/648/224 187/393/224 190/645/224 
f 272/648/224 190/645/224 273/647/224 
f 271/631/225 205/391/225 272/648/225 
f 279/614/209 288/639/209 262/615/209 
f 279/614/212 260/616/212 284/624/212 
f 284/624/226 259/623/226 289/649/226 
f 286/626/227 289/649/227 261/627/227 
f 267/635/217 290/650/217 280/633/217 
f 182/637/218 290/650/218 267/635/218 
f 282/651/220 264/640/220 288/639/220 
f 287/630/215 291/652/215 271/631/215 
f 207/653/228 278/654/228 195/655/228 
f 277/642/228 195/655/228 278/654/228 
f 277/642/221 194/641/221 195/655/221 
f 275/644/222 193/656/222 194/641/222 
f 191/657/229 193/656/229 274/658/229 
f 275/644/229 274/658/229 193/656/229 
f 274/646/223 190/645/223 191/659/223 
f 187/393/148 272/648/148 205/391/148 
f 291/652/230 205/391/230 271/631/230 
f 183/363/206 282/660/206 288/661/206 
f 288/661/206 279/662/206 183/363/206 
f 292/663/206 183/363/206 279/662/206 
f 279/662/206 284/664/206 292/663/206 
f 289/665/206 292/663/206 284/664/206 
f 287/666/206 281/667/206 181/361/206 
f 181/361/206 206/668/206 287/666/206 
f 281/667/206 280/669/206 181/361/206 
f 280/669/206 290/670/206 181/361/206 
f 182/362/206 181/361/206 290/670/206 
f 183/363/206 182/362/206 283/671/206 
f 283/671/206 282/660/206 183/363/206 
f 205/672/206 291/673/206 206/668/206 
f 287/666/206 206/668/206 291/673/206 
f 121/674/98 120/675/98 100/676/98 
f 120/675/98 112/677/98 109/678/98 
f 109/678/98 100/676/98 120/675/98 
f 115/679/98 129/680/98 112/677/98 
f 124/681/98 109/678/98 112/677/98 
f 129/680/98 124/681/98 112/677/98 
f 293/682/98 294/683/98 295/684/98 
f 293/682/231 295/684/231 296/685/231 
f 297/686/232 298/687/232 299/688/232 
f 297/689/98 300/690/98 298/691/98 
f 297/689/98 297/689/98 298/691/98 
f 295/684/233 298/691/233 296/685/233 
f 299/692/234 301/693/234 297/694/234 
f 301/693/235 302/695/235 297/694/235 
f 296/685/98 298/691/98 300/690/98 
f 300/690/98 297/689/98 303/696/98 
f 299/697/236 298/691/236 295/684/236 
f 299/692/237 295/698/237 301/693/237 
f 218/453/98 101/452/98 221/699/98 
f 101/700/11 104/294/11 221/468/11 
f 300/701/133 302/702/133 221/703/133 
f 302/702/133 128/704/133 221/703/133 
f 300/701/133 221/703/133 147/705/133 
f 218/706/133 221/703/133 128/704/133 
f 301/707/238 304/708/238 302/709/238 
f 297/710/239 297/694/239 302/695/239 
f 303/711/240 302/712/240 300/713/240 
f 302/714/241 303/715/241 297/715/241 
f 128/456/11 102/455/11 218/716/11 
f 128/704/133 302/702/133 304/717/133 
f 295/684/98 294/683/98 305/718/98 
f 305/719/11 294/720/11 306/721/11 
f 305/719/11 306/721/11 307/722/11 
f 308/723/206 309/724/206 306/725/206 
f 308/723/206 306/725/206 294/726/206 
f 308/727/20 310/728/20 311/729/20 
f 308/727/20 311/729/20 309/730/20 
f 312/731/206 313/732/206 308/723/206 
f 312/731/206 308/723/206 294/726/206 
f 295/733/206 305/734/206 307/735/206 
f 295/733/206 307/735/206 301/736/206 
f 304/737/242 307/722/242 314/738/242 
f 306/721/242 314/738/242 307/722/242 
f 309/730/243 311/729/243 315/739/243 
f 315/740/238 314/741/238 309/742/238 
f 306/743/238 309/742/238 314/741/238 
f 307/744/238 304/708/238 301/707/238 
f 316/745/98 317/746/98 318/747/98 
f 319/748/244 316/745/244 318/747/244 
f 320/749/245 319/748/245 321/750/245 
f 319/748/246 318/747/246 321/750/246 
f 321/751/247 318/752/247 322/753/247 
f 322/754/248 317/755/248 323/756/248 
f 323/756/249 320/757/249 322/754/249 
f 320/757/249 321/758/249 322/754/249 
f 320/749/98 310/759/98 319/748/98 
f 308/760/98 319/748/98 310/759/98 
f 313/732/206 319/761/206 308/723/206 
f 323/762/206 311/763/206 320/764/206 
f 310/765/206 320/764/206 311/763/206 
f 116/226/98 118/225/98 219/459/98 
f 125/249/11 127/248/11 219/766/11 
f 304/717/133 324/767/133 116/768/133 
f 324/767/133 132/769/133 116/768/133 
f 117/770/133 116/768/133 132/769/133 
f 116/768/133 219/771/133 304/717/133 
f 127/772/133 128/704/133 219/771/133 
f 304/717/133 219/771/133 128/704/133 
f 324/773/98 304/774/98 315/740/98 
f 315/740/98 304/774/98 314/741/98 
f 315/739/243 311/729/243 324/775/243 
f 325/776/238 324/777/238 323/778/238 
f 324/767/133 325/779/133 132/769/133 
f 311/780/238 323/778/238 324/777/238 
f 325/779/133 317/781/133 134/782/133 
f 138/783/133 132/769/133 134/782/133 
f 325/779/133 134/782/133 132/769/133 
f 325/784/250 323/756/250 317/755/250 
f 322/750/98 318/747/98 317/746/98 
f 326/785/206 312/731/206 293/786/206 
f 327/787/251 328/788/251 329/789/251 
f 328/788/252 327/787/252 326/790/252 
f 293/791/253 296/792/253 326/793/253 
f 328/794/253 326/793/253 296/792/253 
f 330/795/254 326/790/254 327/787/254 
f 331/796/255 330/797/255 327/798/255 
f 332/799/12 326/790/12 330/795/12 
f 331/800/206 332/801/206 330/802/206 
f 250/803/12 222/804/12 203/386/12 
f 200/383/12 257/569/12 201/384/12 
f 333/805/20 220/466/20 134/262/20 
f 226/806/20 220/466/20 333/805/20 
f 236/495/12 226/494/12 333/807/12 
f 168/808/20 152/809/20 257/810/20 
f 334/811/206 335/812/206 336/813/206 
f 336/814/256 258/815/256 334/816/256 
f 258/817/257 12/24/257 334/818/257 
f 203/551/11 337/819/11 225/552/11 
f 338/820/258 197/821/258 339/822/258 
f 340/823/259 339/822/259 197/821/259 
f 338/824/206 336/813/206 197/825/206 
f 203/826/204 197/576/204 337/827/204 
f 337/827/204 197/576/204 258/575/204 
f 337/828/260 223/472/260 225/474/260 
f 339/829/98 340/830/98 337/828/98 
f 246/537/98 337/828/98 340/830/98 
f 339/829/98 337/828/98 338/831/98 
f 337/828/98 258/832/98 338/831/98 
f 336/833/98 338/831/98 258/832/98 
f 149/567/12 203/386/12 222/804/12 
f 39/834/12 341/835/12 250/803/12 
f 342/836/12 143/837/12 150/838/12 
f 300/701/133 147/705/133 343/839/133 
f 344/840/12 342/836/12 150/838/12 
f 147/289/11 143/288/11 342/841/11 
f 147/705/261 342/842/261 343/839/261 
f 343/839/262 342/842/262 344/843/262 
f 343/839/263 344/843/263 222/844/263 
f 343/845/11 328/794/11 300/846/11 
f 328/794/11 296/792/11 300/846/11 
f 343/847/264 327/787/264 329/789/264 
f 343/847/265 329/789/265 328/788/265 
f 222/469/11 344/848/11 150/470/11 
f 241/849/266 345/850/266 239/851/266 
f 345/850/267 223/472/267 239/851/267 
f 210/408/20 257/810/20 171/405/20 
f 334/852/12 346/853/12 335/854/12 
f 256/855/20 335/856/20 347/857/20 
f 348/858/20 347/857/20 335/856/20 
f 256/859/206 197/825/206 336/813/206 
f 256/859/206 336/813/206 335/812/206 
f 348/860/12 335/854/12 346/853/12 
f 152/809/20 171/405/20 257/810/20 
f 210/861/268 13/21/268 258/575/268 
f 12/20/269 258/575/269 13/21/269 
f 258/575/270 256/574/270 210/861/270 
f 257/862/271 210/861/271 256/574/271 
f 16/26/15 23/41/15 346/863/15 
f 23/41/272 348/864/272 346/863/272 
f 12/24/273 16/26/273 346/863/273 
f 334/818/274 12/24/274 346/863/274 
f 22/36/275 174/430/275 349/865/275 
f 350/866/13 23/37/13 349/865/13 
f 22/36/13 349/865/13 23/37/13 
f 228/867/276 343/839/276 36/868/276 
f 36/868/277 343/839/277 222/844/277 
f 327/798/278 343/869/278 351/870/278 
f 351/870/279 343/869/279 228/871/279 
f 36/54/280 37/56/280 228/478/280 
f 224/473/281 228/478/281 37/56/281 
f 223/472/282 345/850/282 228/478/282 
f 345/850/283 351/872/283 228/478/283 
f 352/873/284 331/874/284 27/875/284 
f 40/876/285 353/877/285 222/844/285 
f 353/877/286 36/868/286 222/844/286 
f 354/878/284 27/875/284 331/874/284 
f 354/879/255 331/796/255 327/798/255 
f 353/880/287 32/55/287 36/54/287 
f 347/881/288 348/864/288 350/882/288 
f 23/41/288 350/882/288 348/864/288 
f 350/883/289 355/884/289 347/885/289 
f 340/823/290 197/821/290 356/886/290 
f 357/887/291 256/855/291 347/857/291 
f 223/472/98 337/828/98 246/537/98 
f 356/886/292 358/888/292 340/823/292 
f 357/887/293 347/857/293 355/889/293 
f 358/890/294 356/891/294 246/537/294 
f 246/537/295 356/891/295 247/892/295 
f 357/887/296 359/893/296 201/540/296 
f 360/894/297 357/895/297 355/884/297 
f 254/896/298 361/897/298 356/886/298 
f 361/898/299 247/892/299 356/891/299 
f 360/894/300 362/899/300 357/895/300 
f 340/830/301 358/890/301 246/537/301 
f 357/895/302 362/899/302 359/900/302 
f 356/886/303 197/821/303 254/896/303 
f 361/897/304 254/896/304 363/901/304 
f 254/561/12 248/560/12 363/902/12 
f 197/821/305 196/903/305 254/896/305 
f 364/904/12 363/902/12 248/560/12 
f 357/887/306 201/540/306 256/855/306 
f 364/905/307 248/541/307 201/540/307 
f 361/906/308 363/907/308 247/536/308 
f 201/540/309 359/893/309 364/905/309 
f 365/908/308 247/536/308 363/907/308 
f 365/908/310 243/909/310 247/536/310 
f 362/910/311 364/911/311 359/912/311 
f 365/908/312 363/907/312 364/911/312 
f 366/913/313 244/914/313 365/915/313 
f 366/913/314 367/916/314 244/914/314 
f 232/534/310 247/536/310 243/909/310 
f 365/908/315 244/917/315 243/909/315 
f 68/123/48 58/95/48 61/103/48 
f 58/95/42 57/94/42 61/103/42 
f 355/884/297 350/883/297 360/894/297 
f 350/883/316 349/918/316 360/894/316 
f 362/910/317 360/919/317 368/920/317 
f 364/911/311 362/910/311 366/921/311 
f 366/921/318 365/908/318 364/911/318 
f 362/910/319 368/920/319 366/921/319 
f 369/922/319 366/921/319 368/920/319 
f 68/923/320 244/924/320 367/925/320 
f 68/923/321 61/926/321 244/924/321 
f 72/130/322 69/124/322 97/927/322 
f 68/123/322 97/927/322 69/124/322 
f 367/928/323 97/927/323 68/123/323 
f 369/922/324 367/929/324 366/921/324 
f 370/930/325 174/931/325 173/932/325 
f 173/932/326 179/933/326 370/930/326 
f 174/931/327 370/930/327 349/918/327 
f 360/894/328 349/918/328 370/930/328 
f 179/933/329 371/934/329 370/930/329 
f 368/935/330 360/894/330 370/930/330 
f 371/934/331 368/935/331 370/930/331 
f 87/441/90 72/191/90 98/190/90 
f 372/936/90 369/937/90 371/938/90 
f 368/939/90 371/938/90 369/937/90 
f 371/938/173 179/940/173 372/936/173 
f 178/941/173 372/936/173 179/940/173 
f 177/354/332 98/446/332 97/942/332 
f 97/942/333 367/943/333 177/354/333 
f 369/944/334 372/945/334 177/357/334 
f 372/945/335 178/355/335 177/357/335 
f 177/357/336 367/946/336 369/944/336 
f 237/947/198 60/544/198 249/543/198 
f 9/948/337 373/949/337 374/950/337 
f 9/951/338 374/952/338 375/953/338 
f 249/954/339 57/955/339 375/956/339 
f 55/89/340 9/951/340 375/953/340 
f 57/955/341 55/957/341 375/956/341 
f 233/958/342 237/959/342 249/960/342 
f 233/958/342 249/960/342 375/961/342 
f 240/962/189 239/510/189 375/963/189 
f 233/509/189 375/963/189 239/510/189 
f 185/593/191 241/514/191 240/513/191 
f 16/147/12 14/34/12 3/3/12 
f 20/104/343 18/964/343 62/105/343 
f 62/105/344 18/964/344 213/421/344 
f 186/367/345 62/105/345 213/421/345 
f 62/105/346 376/965/346 1/1/346 
f 1/1/347 3/3/347 62/105/347 
f 1/8/3 376/966/3 5/9/3 
f 11/967/337 373/949/337 9/948/337 
f 376/968/348 62/969/348 6/970/348 
f 376/968/348 6/970/348 5/971/348 
f 6/972/349 374/973/349 373/974/349 
f 375/975/349 374/973/349 6/972/349 
f 11/17/350 6/19/350 373/976/350 
f 62/977/189 240/962/189 6/978/189 
f 375/963/189 6/978/189 240/962/189 
f 240/979/351 62/105/351 186/367/351 
f 185/366/352 240/979/352 186/367/352 
f 354/879/353 327/798/353 351/870/353 
f 183/980/354 292/981/354 354/982/354 
f 40/61/287 32/55/287 353/880/287 
f 345/850/355 354/982/355 351/872/355 
f 345/850/356 183/980/356 354/982/356 
f 184/983/357 183/980/357 345/850/357 
f 241/849/358 184/983/358 345/850/358 
f 27/45/354 354/982/354 292/981/354 
f 189/371/133 286/984/133 285/985/133 
f 189/371/133 285/985/133 377/986/133 
f 189/371/133 377/986/133 207/397/133 
f 259/623/359 261/627/359 289/649/359 
f 285/625/214 263/628/214 377/987/214 
f 207/988/360 377/987/360 278/989/360 
f 263/628/360 278/989/360 377/987/360 
f 158/403/361 31/348/361 292/663/361 
f 158/403/362 292/663/362 286/990/362 
f 158/403/363 286/990/363 189/991/363 
f 286/990/364 292/663/364 289/665/364 
f 292/981/365 31/49/365 25/43/365 
f 292/981/366 25/43/366 27/45/366 
f 312/992/12 326/790/12 332/799/12 
f 294/726/206 293/786/206 312/731/206 
f 378/993/367 25/994/367 29/995/367 
f 379/996/368 352/997/368 25/998/368 
f 380/999/369 29/1000/369 28/1001/369 
f 352/873/370 27/875/370 26/1002/370 
f 42/1003/371 41/1004/371 341/1005/371 
f 341/1006/372 41/1007/372 40/876/372 
f 341/1006/285 40/876/285 222/844/285 
f 312/1008/11 332/1009/11 379/996/11 
f 352/997/11 379/996/11 332/1009/11 
f 313/732/206 312/731/206 378/1010/206 
f 379/1011/206 378/1010/206 312/731/206 
f 25/994/373 378/993/373 379/1012/373 
f 378/1013/20 380/999/20 313/1014/20 
f 381/1015/20 313/1014/20 380/999/20 
f 29/1000/374 380/999/374 378/1013/374 
f 331/800/206 352/1016/206 332/801/206 
f 25/998/375 352/997/375 26/1017/375 
f 382/1018/376 383/1019/376 384/1020/376 
f 385/1021/377 384/1020/377 383/1019/377 
f 385/1021/378 383/1019/378 386/1022/378 
f 319/1023/250 386/1024/250 316/1025/250 
f 383/1026/250 316/1025/250 386/1024/250 
f 317/1027/20 316/1025/20 383/1026/20 
f 384/1028/249 385/1029/249 387/1030/249 
f 387/1030/379 388/1031/379 384/1028/379 
f 381/1032/12 385/1021/12 313/1033/12 
f 386/1022/12 313/1033/12 385/1021/12 
f 319/761/206 313/732/206 386/1034/206 
f 387/1035/206 385/1036/206 380/1037/206 
f 381/1038/206 380/1037/206 385/1036/206 
f 380/1039/380 28/1040/380 387/1041/380 
f 28/1040/381 30/1042/381 387/1041/381 
f 146/1043/382 387/1041/382 30/1042/382 
f 388/1044/383 387/1041/383 146/1043/383 
f 257/569/12 170/580/12 168/1045/12 
f 48/73/384 54/87/384 39/1046/384 
f 42/1003/385 39/1046/385 54/87/385 
f 170/339/133 148/338/133 389/1047/133 
f 75/135/133 389/1047/133 148/338/133 
f 341/1005/386 39/1046/386 42/1003/386 
f 75/135/387 74/134/387 389/1047/387 
f 222/804/12 250/803/12 341/835/12 
f 166/1048/12 168/1045/12 389/1049/12 
f 38/58/388 48/85/388 39/59/388 
f 166/1048/389 389/1049/389 74/1050/389 
f 37/1051/390 34/60/390 250/1052/390 
f 39/59/390 250/1052/390 34/60/390 
f 250/550/11 224/1053/11 37/1054/11 
f 168/334/391 164/335/391 152/1055/391 
f 166/1056/392 70/128/392 44/127/392 
f 74/132/393 70/128/393 166/1056/393 
f 170/580/12 389/1049/12 168/1045/12 
f 157/333/394 168/334/394 166/331/394 
f 225/552/11 224/1053/11 250/550/11 
f 388/1057/133 146/340/133 170/339/133 
f 390/1058/133 388/1057/133 170/339/133 
f 382/1059/395 388/1031/395 390/1060/395 
f 382/1059/396 384/1028/396 388/1031/396 
f 390/1058/133 333/1061/133 317/781/133 
f 134/782/133 317/781/133 333/1061/133 
f 333/1061/133 390/1058/133 170/339/133 
f 236/1062/133 333/1061/133 170/339/133 
f 383/1026/20 390/1063/20 317/1027/20 
f 382/1018/397 390/1064/397 383/1019/397 
# 792 faces

