# 3ds Max Wavefront OBJ Exporter v0.99 - (c)2007 guruware
# File Created: 26.12.2024 18:37:22

#
# object Escopeta
#

v  0.0443 0.0692 0.4357
v  0.0019 0.0668 0.4628
v  0.0196 0.0603 0.4483
v  0.0019 0.1096 0.4628
v  0.0443 0.1079 0.4357
v  0.0196 0.1167 0.4483
v  -0.1093 0.0656 0.4593
v  0.0438 0.0523 0.4367
v  0.0014 0.0533 0.4628
v  -0.1270 0.1134 0.4436
v  -0.1093 0.1071 0.4593
v  -0.1474 0.1058 0.4272
v  -0.1270 0.0587 0.4436
v  -0.1088 0.0520 0.4593
v  -0.1474 0.0524 0.4273
v  -0.1474 0.0625 0.4272
v  0.0395 0.0578 -0.0002
v  0.0644 0.0235 -0.0002
v  0.0203 0.0676 -0.0002
v  -0.0413 0.0578 -0.0002
v  -0.0222 0.0676 -0.0002
v  -0.0009 0.0709 -0.0002
v  0.0395 -0.0534 -0.0002
v  0.0547 -0.0382 -0.0002
v  0.0203 -0.0631 -0.0002
v  0.0644 -0.0190 -0.0002
v  -0.0009 -0.0665 -0.0002
v  -0.0222 -0.0631 -0.0002
v  0.0678 0.0022 -0.0002
v  0.0547 0.0426 -0.0002
v  -0.0413 -0.0534 -0.0002
v  -0.0565 -0.0382 -0.0002
v  -0.0663 -0.0190 -0.0002
v  -0.0696 0.0022 -0.0002
v  -0.0663 0.0235 -0.0002
v  -0.0565 0.0426 -0.0002
v  -0.0009 0.0709 0.1520
v  0.0395 0.0578 0.1520
v  -0.0098 0.0695 0.1520
v  -0.0009 -0.0665 0.1520
v  -0.0098 -0.0651 0.1520
v  0.0203 0.0676 0.1520
v  -0.0413 0.0578 0.1549
v  -0.0222 0.0676 0.1549
v  0.0547 0.0426 0.1520
v  0.0624 0.0273 0.1520
v  0.0644 -0.0190 0.1530
v  0.0624 -0.0229 0.1520
v  0.0547 -0.0382 0.1520
v  0.0395 -0.0534 0.1520
v  0.0203 -0.0631 0.1520
v  -0.0222 -0.0631 0.1549
v  -0.0663 -0.0190 0.1549
v  -0.0565 0.0426 0.1549
v  0.0624 0.0804 0.1520
v  -0.0098 0.0804 0.1520
v  -0.0098 -0.0724 0.1520
v  0.0624 -0.0724 0.1520
v  0.0241 0.3024 0.1837
v  0.0241 0.2090 0.1835
v  -0.1259 0.3024 0.1837
v  -0.1259 0.2090 0.1835
v  -0.0233 0.3727 0.2225
v  -0.0233 0.3590 0.2225
v  -0.0784 0.3590 0.2225
v  -0.0784 0.3727 0.2225
v  0.0286 0.3235 0.3973
v  0.0374 0.3126 0.5778
v  0.0374 0.3130 0.3807
v  -0.0012 0.3590 0.3989
v  -0.0290 0.3356 0.3989
v  -0.0100 0.3697 0.3827
v  -0.0022 0.1447 0.6933
v  0.0082 0.1163 0.6937
v  -0.0058 0.1436 0.6937
v  0.0241 0.2080 0.6925
v  0.0485 0.2090 0.6925
v  0.0077 0.1468 0.6924
v  0.0131 0.1179 0.6932
v  -0.0067 0.1432 0.6939
v  0.0070 0.1157 0.6938
v  -0.0949 0.1432 0.6939
v  -0.1116 0.1157 0.6938
v  0.0264 0.1210 0.6924
v  -0.1312 0.1210 0.6924
v  -0.1094 0.1468 0.6924
v  -0.0958 0.1436 0.6937
v  -0.0995 0.1447 0.6933
v  -0.1533 0.2090 0.6925
v  -0.1259 0.2080 0.6925
v  0.0196 0.0040 0.4483
v  0.0043 -0.0017 0.4629
v  0.0431 -0.0031 0.4381
v  0.0438 0.0121 0.4367
v  0.0014 0.0109 0.4628
v  0.0431 -0.0452 0.4381
v  0.0736 -0.0031 0.3778
v  0.0196 -0.1087 0.4483
v  0.0426 -0.1023 0.4392
v  0.0065 -0.1034 0.4629
v  0.0426 -0.0586 0.4392
v  0.0065 -0.0571 0.4629
v  0.0196 -0.0523 0.4483
v  0.0043 -0.0464 0.4629
v  -0.1688 0.0487 0.3624
v  -0.1474 0.0091 0.4273
v  -0.1688 0.0091 0.3624
v  -0.1088 0.0109 0.4593
v  -0.1270 0.0040 0.4436
v  -0.1117 -0.0017 0.4592
v  -0.1117 -0.0451 0.4592
v  -0.1475 -0.0012 0.4267
v  -0.1270 -0.1054 0.4436
v  -0.0311 -0.1087 0.4010
v  -0.1138 -0.1007 0.4591
v  -0.1138 -0.0558 0.4591
v  -0.1270 -0.0507 0.4436
v  -0.1478 -0.0549 0.4254
v  -0.1478 -0.0969 0.4254
v  -0.1475 -0.0441 0.4267
v  -0.1540 -0.0460 0.3617
v  -0.1685 -0.0513 0.3625
v  -0.0233 0.3574 0.8287
v  0.0780 0.3461 0.7443
v  0.0241 0.3008 0.8286
v  0.0305 0.4027 0.7444
v  0.0241 0.3014 0.5777
v  -0.0233 0.3702 1.1871
v  -0.0233 0.3580 0.5779
v  -0.1796 0.3459 0.7443
v  -0.0784 0.3574 0.8287
v  -0.1258 0.3008 0.8286
v  -0.1322 0.4026 0.7444
v  -0.1533 0.2072 1.0823
v  -0.1258 0.2067 1.0823
v  0.0306 0.4021 0.9952
v  0.0780 0.3454 0.9951
v  0.0241 0.3019 0.3807
v  -0.0784 0.3702 1.1871
v  -0.1321 0.4020 0.9952
v  -0.0784 0.3568 1.0795
v  -0.0233 0.3585 0.3827
v  -0.1795 0.3453 0.9951
v  0.0007 0.2998 0.5613
v  0.0007 0.3001 0.3972
v  0.0077 0.1478 0.2220
v  -0.0113 0.1449 0.2741
v  -0.1094 0.1478 0.2220
v  -0.0134 0.0690 0.1549
v  -0.0687 0.0860 0.1978
v  -0.0098 0.1216 0.2561
v  -0.0621 0.1112 0.2653
v  -0.1228 0.0833 0.2635
v  0.0779 0.0750 0.1598
v  0.0077 0.1473 0.3997
v  -0.0112 0.1440 0.3217
v  -0.0112 0.1434 0.3519
v  -0.0111 0.1428 0.3822
v  -0.0111 0.1425 0.3951
v  -0.0904 0.1425 0.3951
v  -0.0112 0.1444 0.2979
v  0.0624 0.1216 0.2561
v  0.0779 0.1133 0.2565
v  0.0602 0.1167 0.3677
v  0.0759 0.1087 0.3601
v  0.0723 0.1079 0.3803
v  0.0723 0.0692 0.3803
v  0.0602 0.0603 0.3677
v  -0.0113 -0.1069 0.3711
v  -0.0112 0.1167 0.3710
v  -0.0111 0.1167 0.3927
v  -0.0111 0.1167 0.3811
v  -0.0256 0.1167 0.3927
v  -0.0090 0.1167 0.3677
v  0.0728 0.0523 0.3792
v  0.0728 0.0121 0.3792
v  -0.1094 0.1473 0.3997
v  -0.0906 0.1449 0.2741
v  -0.0906 0.1444 0.2979
v  -0.0905 0.1440 0.3217
v  -0.0906 0.0987 0.2697
v  -0.0906 0.1005 0.2833
v  0.0264 0.1201 0.8873
v  0.0485 0.2072 1.0823
v  0.0288 0.1288 1.0822
v  0.0173 0.1177 0.8879
v  0.0242 0.2067 1.0823
v  -0.1277 0.1182 1.0819
v  -0.1312 0.1191 1.0822
v  -0.0704 0.1081 0.2706
v  -0.0905 0.1098 0.3920
v  -0.0797 0.1117 0.3922
v  -0.0905 0.1428 0.3822
v  -0.0174 0.3788 1.1872
v  -0.0843 0.3788 1.1872
v  -0.0174 0.3787 1.2208
v  -0.0905 0.1434 0.3519
v  -0.0905 0.1053 0.3678
v  -0.0905 0.1077 0.3807
v  0.0242 0.3002 1.0794
v  -0.0906 0.0502 0.2800
v  -0.0906 -0.1088 0.2496
v  -0.0906 0.0509 0.2833
v  -0.0585 0.0473 0.2647
v  -0.0113 -0.1088 0.2496
v  -0.0233 0.3568 1.0795
v  0.0242 0.2999 1.1870
v  -0.0233 0.3565 1.1871
v  0.0401 0.3101 1.1870
v  -0.1001 0.0520 0.2893
v  -0.0906 0.0677 0.2833
v  0.0401 0.3100 1.2207
v  0.0401 0.1967 1.2204
v  0.0122 0.2138 1.1820
v  0.0122 0.2923 1.1822
v  -0.1138 0.2923 1.1822
v  0.0122 0.2137 1.2204
v  0.0122 0.2922 1.2206
v  -0.0277 0.3398 1.2208
v  -0.0843 0.3787 1.2208
v  -0.1258 0.3002 1.0794
v  -0.1001 0.0969 0.2893
v  -0.0621 0.0538 0.2653
v  -0.1258 0.2999 1.1870
v  -0.0784 0.3565 1.1871
v  -0.1418 0.3101 1.1870
v  -0.0740 0.3398 1.1823
v  -0.0277 0.3398 1.1823
v  -0.0740 0.3398 1.2208
v  -0.1138 0.2922 1.2206
v  -0.1418 0.1968 1.1868
v  -0.1000 0.1623 1.1819
v  -0.0016 0.1623 1.1819
v  -0.1138 0.2138 1.1820
v  -0.1138 0.2137 1.2204
v  -0.1418 0.3100 1.2207
v  -0.1418 0.1967 1.2204
v  -0.1630 0.0517 0.3058
v  -0.1688 0.0588 0.3624
v  -0.1630 0.0841 0.3058
v  -0.1468 0.0861 0.2901
v  -0.1468 0.0450 0.2901
v  -0.0906 -0.0901 0.3676
v  -0.0906 -0.0611 0.3676
v  -0.0311 0.1167 0.4010
v  -0.0768 0.1134 0.3987
v  -0.0926 0.1040 0.3631
v  -0.1540 0.1040 0.3617
v  -0.1131 0.0861 0.2913
v  -0.1688 0.0984 0.3624
v  -0.1540 0.0541 0.3617
v  -0.1631 0.0416 0.3057
v  -0.0134 0.0243 0.1549
v  -0.0696 0.0022 0.1549
v  -0.0565 -0.0382 0.1549
v  -0.0413 -0.0534 0.1549
v  0.0242 0.2065 1.1868
v  0.0096 0.1522 1.0822
v  0.0078 0.1456 1.0802
v  0.0264 0.1192 1.0801
v  0.0078 0.1453 1.1866
v  0.0051 0.1449 1.0800
v  0.0229 0.1182 1.0800
v  -0.0016 0.1623 1.2203
v  0.0401 0.1968 1.1868
v  0.0202 0.1226 1.1866
v  -0.0663 0.0235 0.1549
v  -0.1219 0.1226 1.1866
v  0.0202 0.1225 1.2202
v  -0.0098 0.0242 0.1549
v  -0.0111 0.0243 0.1549
v  -0.0098 -0.0651 0.1549
v  -0.0098 -0.1136 0.2561
v  -0.1000 0.1623 1.2203
v  -0.1094 0.1456 1.0822
v  -0.1258 0.2065 1.1868
v  -0.1094 0.1453 1.1866
v  -0.1068 0.1449 1.0820
v  -0.1219 0.1225 1.2202
v  0.0678 0.0022 0.1547
v  0.0779 -0.0670 0.1598
v  0.0644 0.0235 0.1530
v  -0.0618 0.0474 0.2647
v  -0.0687 0.0334 0.1986
v  -0.1228 0.0451 0.2635
v  -0.0098 0.0443 0.2561
v  -0.0090 -0.1087 0.3677
v  -0.0113 -0.1080 0.3711
v  0.0602 -0.0523 0.3677
v  0.0602 0.0040 0.3677
v  0.0759 -0.1006 0.3601
v  0.0624 -0.1136 0.2561
v  0.0779 -0.1052 0.2565
v  0.0741 -0.0586 0.3767
v  0.0736 -0.0452 0.3778
v  0.0602 -0.1087 0.3677
v  0.0741 -0.1023 0.3767
v  -0.0906 -0.1088 0.3713
v  -0.0114 -0.1087 0.3713
v  -0.0885 -0.0984 0.3723
v  -0.0113 -0.1088 0.3713
v  -0.0113 -0.1087 0.3711
v  -0.0113 -0.1087 0.3713
v  -0.0113 -0.1087 0.3712
v  -0.0906 0.0470 0.2647
v  -0.0622 0.0474 0.2647
v  -0.1468 0.0040 0.2901
v  -0.1631 0.0091 0.3057
v  -0.1540 0.0040 0.3617
v  -0.1630 -0.0012 0.3063
v  -0.1468 -0.0370 0.2901
v  -0.0768 -0.1054 0.3987
v  -0.1687 -0.0012 0.3624
v  -0.1630 -0.0334 0.3063
v  -0.1687 -0.0405 0.3624
v  -0.1131 -0.0780 0.2913
v  -0.1468 -0.0780 0.2901
v  -0.1630 -0.0759 0.3075
v  -0.1630 -0.0444 0.3075
v  -0.0906 -0.0976 0.3691
v  -0.0906 -0.0972 0.3676
v  -0.0926 -0.0960 0.3631
v  -0.0906 -0.0983 0.3717
v  -0.0906 -0.0979 0.3704
v  -0.1540 -0.0960 0.3617
v  -0.0906 -0.0984 0.3723
v  -0.1685 -0.0897 0.3625
v  0.0286 0.3232 0.5614
v  -0.0100 0.3692 0.5779
v  -0.0012 0.3587 0.5615
v  -0.0290 0.3353 0.5615
# 331 vertices

vn 0.5200 -0.3411 0.7831
vn 0.5389 0.0000 0.8423
vn 0.5184 0.3293 0.7892
vn -0.0028 -0.9146 0.4044
vn 0.4952 0.3571 0.7920
vn -0.0332 0.9142 0.4040
vn -0.6434 0.0904 0.7602
vn -0.0332 0.9140 0.4044
vn -0.0317 0.0000 0.9995
vn -0.6441 0.0000 0.7649
vn -0.0233 0.9101 0.4136
vn -0.0232 0.9098 0.4145
vn -0.6360 0.0743 0.7681
vn -0.6343 -0.1154 0.7644
vn 0.0000 0.0000 -1.0000
vn 0.0000 -0.0000 -1.0000
vn -0.0000 -0.0000 -1.0000
vn -0.0000 0.0000 -1.0000
vn 0.1570 0.9876 0.0000
vn 0.4531 0.8915 0.0000
vn 0.7071 0.7071 0.0000
vn -0.1570 0.9876 -0.0000
vn 0.1570 -0.9876 0.0000
vn -0.1569 -0.9876 -0.0000
vn -0.4531 0.8915 -0.0000
vn -0.1569 0.9876 -0.0000
vn 0.8915 0.4531 -0.0000
vn 0.8915 0.4531 0.0000
vn 0.9876 -0.1570 0.0000
vn 0.8915 -0.4531 -0.0000
vn 0.8915 -0.4531 0.0000
vn 0.8915 -0.4530 0.0000
vn 0.7071 -0.7071 0.0000
vn 0.4531 -0.8915 0.0000
vn -0.1571 -0.9876 -0.0000
vn -0.1570 -0.9876 -0.0000
vn -0.8915 -0.4530 -0.0000
vn -0.9876 -0.1570 -0.0000
vn -0.7071 0.7071 -0.0000
vn 0.0000 0.0021 -1.0000
vn 0.0000 0.0028 -1.0000
vn 0.0000 0.5649 -0.8251
vn 0.7659 0.6430 0.0015
vn 0.0215 -0.0273 0.9994
vn 0.7671 0.6415 0.0031
vn 0.7671 0.6415 0.0030
vn -0.1026 -0.0513 -0.9934
vn -0.0017 0.0024 -1.0000
vn -0.0779 -0.0430 -0.9960
vn 0.0000 0.0014 -1.0000
vn -0.0745 -0.0410 -0.9964
vn -0.1022 -0.0511 -0.9935
vn -0.1372 -0.0671 -0.9883
vn 1.0000 0.0000 0.0000
vn -0.0560 -0.0389 -0.9977
vn -0.0002 0.0014 -1.0000
vn 0.0607 -0.0497 -0.9969
vn 0.1321 -0.0792 -0.9881
vn 0.0760 -0.0507 -0.9958
vn 0.0978 -0.0598 -0.9934
vn 0.0002 0.0014 -1.0000
vn 0.0015 0.0023 -1.0000
vn 0.4646 0.5434 0.6992
vn 0.4956 -0.3615 0.7897
vn 0.5237 0.0000 0.8519
vn 0.8928 0.0000 0.4505
vn 0.4242 -0.6633 0.6165
vn 0.5488 0.0000 0.8359
vn 0.4222 0.6791 0.6004
vn 0.4640 -0.5393 0.7028
vn 0.5377 0.0000 0.8432
vn -0.9497 0.0000 0.3131
vn -0.0320 0.0000 0.9995
vn -0.6382 0.0000 0.7699
vn -0.6338 -0.0807 0.7693
vn -0.0132 -0.9100 0.4144
vn -0.0318 0.0000 0.9995
vn -0.6526 0.2286 0.7224
vn -0.0114 0.9340 0.3570
vn -0.0114 0.9340 0.3572
vn -0.0133 -0.9102 0.4139
vn -0.0230 -0.9994 0.0247
vn -0.0311 -0.9494 0.3124
vn -0.0311 -0.9495 0.3123
vn -0.6563 0.3479 0.6695
vn -0.7051 0.0000 0.7092
vn -0.6941 -0.2686 0.6679
vn 0.0005 0.9500 0.3122
vn -0.6601 -0.2107 0.7210
vn -0.3327 0.9289 0.1624
vn -0.3298 0.9300 0.1623
vn 0.0005 0.9498 0.3128
vn -0.6721 0.0000 0.7404
vn -0.0217 -0.9337 0.3575
vn -0.0218 -0.9341 0.3564
vn -0.5894 -0.4921 -0.6406
vn 0.7668 0.6419 0.0015
vn 0.5899 -0.4924 -0.6399
vn 0.5900 -0.4922 -0.6401
vn 0.0157 0.9999 0.0046
vn -1.0000 0.0001 0.0002
vn -0.6424 0.7664 0.0020
vn 0.6418 -0.7669 -0.0020
vn 0.7676 0.6410 0.0015
vn 0.6416 0.7670 0.0017
vn -0.0153 0.0218 -0.9996
vn -0.6422 0.7666 0.0020
vn 0.6419 0.7668 0.0018
vn -0.7670 0.6416 0.0017
vn 0.7671 0.6416 0.0019
vn -0.7668 0.6419 0.0016
vn 0.7671 0.6416 0.0012
vn -1.0000 0.0000 -0.0000
vn -1.0000 -0.0000 0.0001
vn 0.0212 -0.0286 0.9994
vn -0.0000 1.0000 0.0026
vn 0.0000 -0.9985 -0.0556
vn 0.0000 -0.5322 -0.8466
vn -0.1571 0.9876 -0.0000
vn -0.6197 0.0000 -0.7849
vn -0.1945 0.9121 -0.3609
vn -0.2394 0.9172 -0.3186
vn -0.3926 0.8737 -0.2874
vn 0.4509 -0.0000 -0.8926
vn 0.9657 -0.2595 -0.0009
vn 0.1805 -0.9836 -0.0017
vn 0.2057 -0.9786 -0.0016
vn 0.6821 -0.7311 -0.0151
vn 0.3003 -0.9539 -0.0027
vn 0.8107 -0.5853 -0.0124
vn 0.3844 -0.9231 -0.0036
vn 0.9659 -0.2590 -0.0005
vn -0.0000 -1.0000 0.0022
vn 0.0980 -0.9950 -0.0199
vn 0.4783 -0.8780 -0.0177
vn 0.2436 -0.9697 -0.0176
vn 0.1656 -0.9862 -0.0027
vn 0.0000 0.9298 -0.3679
vn 0.4571 0.8270 -0.3273
vn 0.4557 0.8276 -0.3277
vn 0.4732 0.8796 0.0485
vn 0.4741 0.8792 0.0483
vn -0.6416 -0.7670 -0.0017
vn 0.0357 0.9994 0.0032
vn -0.0000 0.9990 0.0443
vn 0.7216 0.0000 -0.6923
vn 0.4354 0.0000 0.9002
vn 1.0000 -0.0004 -0.0013
vn 1.0000 -0.0003 -0.0013
vn 1.0000 -0.0005 -0.0000
vn 1.0000 -0.0005 0.0000
vn -0.0000 -0.0946 0.9955
vn 1.0000 -0.0004 -0.0012
vn 0.0000 1.0000 -0.0000
vn 0.4211 0.8818 0.2124
vn 0.4225 -0.8809 0.2131
vn 0.4218 -0.8813 0.2130
vn 0.8926 0.0000 0.4508
vn 0.4204 0.8822 0.2123
vn 0.3920 0.8984 0.1978
vn 0.8928 0.0000 0.4504
vn 0.3921 0.8984 0.1978
vn -0.9659 -0.2590 -0.0005
vn -0.1453 -0.9894 -0.0026
vn -0.1611 -0.9869 -0.0017
vn -0.9659 -0.2591 -0.0004
vn -0.4397 -0.8980 -0.0156
vn -0.9656 -0.2600 -0.0007
vn -0.2499 -0.9681 -0.0187
vn -0.2048 -0.9788 -0.0030
vn -1.0000 -0.0002 0.0017
vn -0.9699 -0.2436 -0.0009
vn 0.9699 -0.2436 -0.0013
vn 0.9698 -0.2438 -0.0012
vn 0.2471 -0.9690 -0.0043
vn 1.0000 0.0001 -0.0001
vn -0.0000 -1.0000 0.0065
vn -0.2505 -0.9681 -0.0041
vn 0.2218 -0.9751 -0.0046
vn 0.3199 -0.9474 -0.0116
vn 0.0000 0.0961 -0.9954
vn 0.0001 0.0962 -0.9954
vn 0.3994 -0.9167 -0.0119
vn -0.0001 -0.0945 0.9955
vn -1.0000 0.0003 0.0030
vn -0.3843 -0.9232 -0.0043
vn 0.0000 0.0018 -1.0000
vn -0.7952 -0.6062 -0.0105
vn -0.0000 1.0000 0.0023
vn -0.6639 -0.7477 -0.0146
vn -1.0000 0.0005 0.0014
vn -0.2943 -0.9557 -0.0040
vn -0.7659 -0.6428 -0.0115
vn -1.0000 -0.0003 0.0024
vn 0.5894 0.4921 0.6406
vn 0.7668 0.6419 0.0016
vn -0.6420 0.7667 0.0018
vn -0.0005 0.0019 -1.0000
vn -0.0009 0.0014 -1.0000
vn 0.0134 -0.9788 0.2041
vn 0.0134 -0.9789 0.2041
vn -1.0000 -0.0001 0.0015
vn 0.5335 0.0001 0.8458
vn 0.0002 0.0017 -1.0000
vn -1.0000 -0.0002 0.0018
vn -0.0000 -0.0020 1.0000
vn -0.0001 -0.0025 1.0000
vn 0.0002 -0.0024 1.0000
vn 0.0003 -0.0021 1.0000
vn 0.0001 -0.0024 1.0000
vn 0.7666 0.6422 0.0015
vn -1.0000 -0.0002 0.0016
vn -0.6419 -0.7668 -0.0018
vn -0.4119 0.9039 -0.1150
vn -0.0000 0.0961 -0.9954
vn -0.0003 0.0963 -0.9954
vn 0.5336 0.0000 0.8458
vn -0.5899 0.4924 0.6399
vn -0.5900 0.4922 0.6401
vn -0.7670 0.6416 0.0016
vn -0.4119 0.9039 -0.1152
vn -0.4119 0.9039 -0.1153
vn -0.4119 0.9039 -0.1149
vn -0.7670 0.6416 0.0015
vn -1.0000 -0.0012 0.0002
vn -1.0000 -0.0001 0.0014
vn 0.0009 0.0014 -1.0000
vn 0.0005 0.0019 -1.0000
vn 0.0000 -1.0000 -0.0020
vn -0.0000 -0.0025 1.0000
vn -0.0002 0.0017 -1.0000
vn 0.7670 -0.6417 -0.0013
vn -0.7664 -0.6424 -0.0013
vn 0.0013 0.0021 -1.0000
vn -0.0000 -0.0023 1.0000
vn 0.5336 0.0000 0.8457
vn 0.5335 -0.0000 0.8458
vn 0.1737 0.0000 0.9848
vn 0.1740 -0.0002 0.9847
vn 0.0001 -0.0025 1.0000
vn -0.0002 -0.0024 1.0000
vn -0.0003 -0.0021 1.0000
vn -0.7502 0.0000 0.6612
vn -0.9949 0.0000 -0.1007
vn -0.6939 0.0000 -0.7200
vn 0.0000 -0.0945 0.9955
vn -1.0000 0.0004 0.0005
vn -1.0000 0.0003 0.0000
vn -0.0749 0.9940 0.0803
vn 0.9145 0.0000 -0.4045
vn -0.0215 0.9995 -0.0240
vn -0.1638 0.9693 -0.1834
vn -0.1642 0.9693 -0.1833
vn -1.0000 0.0004 0.0013
vn 0.0027 0.9934 -0.1147
vn -0.1639 0.9693 -0.1832
vn -0.1639 0.9693 -0.1831
vn -0.1638 0.9694 -0.1831
vn 0.0088 0.9700 -0.2428
vn 0.0058 0.9696 -0.2445
vn -0.3552 0.8973 -0.2619
vn -0.3578 0.8965 -0.2612
vn -0.3571 0.9340 0.0108
vn -0.3563 0.9343 0.0107
vn -0.9496 0.0000 0.3135
vn -0.3363 0.9400 0.0574
vn -0.3368 0.9398 0.0575
vn -0.3418 0.9275 -0.1512
vn -0.2955 -0.9433 0.1513
vn -0.3005 -0.9496 0.0894
vn -0.0000 0.0000 1.0000
vn -0.7071 -0.7071 -0.0000
vn -0.0001 -0.0024 1.0000
vn 0.0016 -0.0019 1.0000
vn 0.0006 -0.0012 1.0000
vn 1.0000 -0.0000 -0.0002
vn 0.9653 -0.2610 -0.0007
vn 0.9659 -0.2589 -0.0006
vn -0.0506 -0.0352 0.9981
vn 0.0130 0.0000 0.9999
vn -0.0595 0.0000 0.9982
vn 0.2460 -0.9693 -0.0025
vn -0.9657 0.2595 0.0005
vn 0.0015 0.0025 -1.0000
vn 0.0010 0.0017 -1.0000
vn -0.0013 0.0021 -1.0000
vn -0.0000 1.0000 0.0020
vn -0.0010 0.0029 -1.0000
vn -0.9876 0.1570 -0.0000
vn 0.0000 0.0034 -1.0000
vn 0.9659 -0.2591 -0.0006
vn -0.0370 -0.0277 0.9989
vn 0.0000 0.0000 1.0000
vn -0.4531 -0.8915 -0.0000
vn -0.2954 -0.2106 0.9319
vn -0.1947 -0.1615 0.9675
vn 0.9702 -0.2423 -0.0013
vn 0.2471 -0.9690 -0.0044
vn 0.2579 -0.9662 -0.0049
vn 0.2997 -0.9540 -0.0062
vn -0.0002 -0.0021 1.0000
vn 0.9659 -0.2590 -0.0003
vn 0.0000 -0.0023 1.0000
vn -0.9700 -0.2431 -0.0010
vn -0.0005 -0.0010 1.0000
vn -0.0014 -0.0017 1.0000
vn -1.0000 0.0000 0.0002
vn -0.0010 0.0017 -1.0000
vn -0.9659 -0.2590 -0.0003
vn -0.9660 -0.2586 -0.0006
vn -0.0015 0.0025 -1.0000
vn 0.0001 -1.0000 0.0037
vn -0.0000 -1.0000 0.0037
vn -0.2497 -0.9683 -0.0025
vn 0.9659 0.2588 0.0005
vn 0.0010 0.0029 -1.0000
vn -0.9659 -0.2591 -0.0006
vn 0.0000 -1.0000 -0.0023
vn 0.0643 -0.0545 0.9964
vn 0.0875 -0.0700 0.9937
vn -0.2572 -0.9663 -0.0045
vn 0.0130 0.0072 0.9999
vn 0.0175 -0.0152 0.9997
vn 0.0001 -1.0000 0.0065
vn 0.0002 -0.0021 1.0000
vn 0.4508 0.0000 -0.8926
vn 0.4509 0.0000 -0.8926
vn 0.4508 -0.0000 -0.8926
vn 0.4511 0.0001 -0.8925
vn -0.0000 -0.9786 0.2058
vn 0.0000 -0.0000 1.0000
vn -0.8915 0.4531 -0.0000
vn -0.6196 -0.0000 -0.7849
vn -0.0000 -0.0000 1.0000
vn -0.7689 -0.0096 -0.6393
vn -0.6138 -0.0118 -0.7894
vn -0.6196 0.0000 -0.7849
vn 0.8915 0.4530 0.0000
vn 0.9876 0.1570 0.0000
vn 0.4511 -0.0001 -0.8925
vn -0.0234 -0.9807 0.1942
vn -1.0000 0.0000 0.0074
vn -0.0261 -0.9806 0.1942
vn 1.0000 0.0000 0.0008
vn 1.0000 -0.0004 -0.0014
vn 0.6045 0.0000 -0.7966
vn 0.3535 0.9183 0.1784
vn 0.3537 0.9182 0.1784
vn 0.3921 -0.8984 0.1978
vn 0.3920 -0.8985 0.1977
vn 0.6730 0.0000 -0.7396
vn 0.9998 0.0000 0.0197
vn 0.0000 -0.9298 -0.3679
vn 1.0000 -0.0002 0.0000
vn 1.0000 -0.0002 -0.0000
vn 1.0000 0.0002 -0.0017
vn 0.4557 -0.8276 -0.3277
vn 0.4571 -0.8270 -0.3273
vn 0.8929 0.0000 0.4504
vn 0.5448 0.0000 -0.8385
vn 0.3521 -0.9190 0.1776
vn 0.3519 -0.9191 0.1775
vn 0.4749 -0.8787 0.0485
vn 0.4740 -0.8792 0.0486
vn -0.0000 -0.9990 0.0443
vn -0.0000 -0.0944 0.9955
vn 0.0000 -1.0000 -0.0000
vn -0.8326 0.0000 -0.5538
vn -0.8330 0.0000 -0.5533
vn -0.0000 -0.0989 0.9951
vn 0.3198 -0.9336 0.1613
vn 0.3198 0.9337 0.1613
vn 0.3198 0.9336 0.1613
vn -1.0000 0.0003 -0.0000
vn -0.0010 0.0963 -0.9953
vn 0.0140 -0.9787 0.2048
vn 0.0127 -0.9788 0.2043
vn 0.0138 -0.9787 0.2046
vn -0.0000 -0.9786 0.2060
vn 0.0002 -0.9786 0.2059
vn -0.0263 -0.9806 0.1941
vn 0.0479 -0.9753 0.2157
vn -0.7719 0.0000 -0.6358
vn 0.0361 0.0000 -0.9993
vn -0.3227 -0.9459 -0.0324
vn -0.6913 0.0000 -0.7226
vn -0.3414 0.9276 -0.1513
vn -0.3013 -0.9493 0.0895
vn -0.3382 0.9405 -0.0339
vn -0.7054 0.0000 -0.7088
vn -1.0000 0.0004 0.0012
vn 0.9143 0.0000 -0.4050
vn -0.3153 -0.9433 0.1039
vn -0.9950 0.0000 -0.0999
vn -0.3378 0.9406 -0.0340
vn -0.3296 0.9378 0.1087
vn -0.9950 0.0000 -0.1002
vn -0.3151 -0.9433 0.1039
vn -0.3297 0.9378 0.1087
vn -0.9497 0.0000 0.3133
vn 0.9615 0.0000 -0.2749
vn -0.7330 0.0000 -0.6802
vn -1.0000 0.0004 0.0001
vn 0.0000 -0.0946 0.9955
vn -0.0672 -0.9949 -0.0751
vn -1.0000 -0.0000 0.0000
vn 0.0498 0.0000 -0.9988
vn 0.9146 -0.0001 -0.4043
vn 0.9144 0.0000 -0.4048
vn 0.9145 0.0002 -0.4047
vn -0.0786 -0.9930 -0.0878
vn 0.0007 -0.0945 0.9955
vn -1.0000 0.0000 0.0076
vn 0.0058 -0.9695 -0.2450
vn 0.0061 -0.9661 -0.2579
vn 0.0059 -0.9666 -0.2563
vn 0.0061 -0.9662 -0.2577
vn 0.0063 -0.9659 -0.2589
vn 0.0061 -0.9662 -0.2576
vn 0.0073 -0.9661 -0.2581
vn 0.0061 -0.9663 -0.2575
vn -0.8327 0.0000 -0.5538
vn -0.8326 0.0000 -0.5539
vn 0.0088 -0.9699 -0.2433
vn -0.3964 -0.9177 0.0256
vn -0.3977 -0.9172 0.0257
vn -0.9497 0.0000 0.3130
vn -0.9950 0.0000 -0.1003
vn -0.3970 -0.8798 -0.2614
vn -0.3485 -0.9353 0.0613
vn -0.3546 -0.9226 -0.1518
vn -0.3490 -0.9351 0.0613
vn -0.3374 0.9376 0.0839
vn -0.3398 0.9367 0.0843
vn -0.3558 -0.9222 -0.1516
vn 0.7685 0.6399 0.0012
vn 1.0000 0.0002 -0.0001
vn 0.9660 -0.2584 -0.0006
vn 1.0000 -0.0002 -0.0002
vn 0.7670 0.6416 0.0031
vn 0.7659 0.6430 0.0016
vn -0.0008 0.0027 -1.0000
vn -0.6435 0.7654 0.0018
vn -0.6436 0.7654 0.0015
vn 1.0000 0.0011 -0.0000
vn 1.0000 -0.0040 -0.0002
vn -1.0000 0.0018 0.0000
vn -0.7671 0.6416 0.0017
vn -0.7668 0.6419 0.0017
vn -1.0000 0.0002 0.0001
vn -0.0008 0.0026 -1.0000
vn 0.7670 0.6416 0.0012
vn 0.6436 -0.7654 -0.0015
vn -0.0003 -0.0031 1.0000
vn 0.6422 -0.7666 -0.0021
vn 0.6446 -0.7645 -0.0018
vn -0.0403 0.9992 0.0032
vn -0.0177 0.9998 0.0046
# 458 vertex normals

vt 0.0203 0.9331 0.0000
vt 0.0503 0.9347 0.0000
vt 0.0378 0.9393 0.0000
vt 0.0503 0.9045 0.0000
vt 0.0203 0.9057 0.0000
vt 0.0378 0.8995 0.0000
vt 0.7393 0.4238 0.0000
vt 0.6483 0.4315 0.0000
vt 0.6608 0.4213 0.0000
vt 0.8279 0.8093 0.0000
vt 0.8222 0.7921 0.0000
vt 0.8272 0.7793 0.0000
vt 0.2318 0.3512 0.0000
vt 0.3353 0.3515 0.0000
vt 0.3225 0.3622 0.0000
vt 0.1288 0.9063 0.0000
vt 0.1413 0.9018 0.0000
vt 0.1557 0.9072 0.0000
vt 0.2439 0.3619 0.0000
vt 0.1288 0.9356 0.0000
vt 0.7518 0.4348 0.0000
vt 0.8657 0.8208 0.0000
vt 0.8659 0.7429 0.0000
vt 0.8766 0.7304 0.0000
vt 0.8763 0.8340 0.0000
vt 0.5662 0.9042 0.0000
vt 0.5773 0.8995 0.0000
vt 0.5888 0.9040 0.0000
vt 0.1557 0.9378 0.0000
vt 0.1413 0.9404 0.0000
vt 0.7542 0.6395 0.0000
vt 0.7273 0.6526 0.0000
vt 0.7633 0.6274 0.0000
vt 0.7641 0.5833 0.0000
vt 0.7686 0.5978 0.0000
vt 0.7683 0.6130 0.0000
vt 0.6769 0.6259 0.0000
vt 0.6856 0.6383 0.0000
vt 0.6725 0.6113 0.0000
vt 0.6977 0.6474 0.0000
vt 0.6727 0.5962 0.0000
vt 0.6777 0.5818 0.0000
vt 0.7121 0.6524 0.0000
vt 0.7418 0.6482 0.0000
vt 0.6868 0.5697 0.0000
vt 0.6992 0.5610 0.0000
vt 0.7138 0.5565 0.0000
vt 0.7289 0.5568 0.0000
vt 0.7433 0.5617 0.0000
vt 0.7554 0.5709 0.0000
vt 0.5952 0.7461 0.0000
vt 0.5952 0.7311 0.0000
vt 0.7027 0.7311 0.0000
vt 0.7027 0.7596 0.0000
vt 0.5952 0.7596 0.0000
vt 0.5952 0.7703 0.0000
vt 0.5952 0.7161 0.0000
vt 0.7027 0.7248 0.0000
vt 0.5517 0.5556 0.0000
vt 0.6592 0.5706 0.0000
vt 0.5517 0.5706 0.0000
vt 0.6592 0.5768 0.0000
vt 0.7027 0.7461 0.0000
vt 0.7047 0.7025 0.0000
vt 0.7047 0.7161 0.0000
vt 0.5952 0.7025 0.0000
vt 0.7027 0.7703 0.0000
vt 0.7111 0.7722 0.0000
vt 0.7219 0.6647 0.0000
vt 0.7247 0.7722 0.0000
vt 0.7111 0.6647 0.0000
vt 0.7397 0.7722 0.0000
vt 0.7547 0.6640 0.0000
vt 0.7547 0.7722 0.0000
vt 0.7574 0.6647 0.0000
vt 0.7682 0.7722 0.0000
vt 0.7682 0.6647 0.0000
vt 0.7789 0.6647 0.0000
vt 0.7789 0.7722 0.0000
vt 0.5517 0.5420 0.0000
vt 0.6592 0.5556 0.0000
vt 0.6592 0.5420 0.0000
vt 0.6612 0.5856 0.0000
vt 0.5517 0.5856 0.0000
vt 0.5614 0.6242 0.0000
vt 0.6709 0.6377 0.0000
vt 0.5614 0.6377 0.0000
vt 0.5614 0.6527 0.0000
vt 0.7047 0.6918 0.0000
vt 0.5952 0.6918 0.0000
vt 0.8226 0.3865 0.0000
vt 0.7929 0.3956 0.0000
vt 0.7716 0.3865 0.0000
vt 0.7779 0.3932 0.0000
vt 0.8064 0.4025 0.0000
vt 0.7716 0.3942 0.0000
vt 0.7716 0.4893 0.0000
vt 0.7779 0.4903 0.0000
vt 0.7716 0.4945 0.0000
vt 0.7929 0.4879 0.0000
vt 0.8226 0.4595 0.0000
vt 0.8226 0.4945 0.0000
vt 0.8172 0.4703 0.0000
vt 0.8064 0.4810 0.0000
vt 0.8172 0.4132 0.0000
vt 0.8226 0.4240 0.0000
vt 0.7832 0.8333 0.0000
vt 0.7832 0.8992 0.0000
vt 0.6773 0.8333 0.0000
vt 0.6773 0.8992 0.0000
vt 0.7498 0.7836 0.0000
vt 0.7498 0.7933 0.0000
vt 0.7108 0.7933 0.0000
vt 0.7108 0.7836 0.0000
vt 0.0569 0.7472 0.0000
vt 0.0647 0.6197 0.0000
vt 0.0643 0.7589 0.0000
vt 0.6374 0.5082 0.0000
vt 0.6400 0.5338 0.0000
vt 0.6048 0.5117 0.0000
vt 0.0243 0.7575 0.0000
vt 0.0318 0.7460 0.0000
vt 0.8918 0.4957 0.0000
vt 0.9118 0.4883 0.0000
vt 0.8926 0.4982 0.0000
vt 0.8471 0.4771 0.0000
vt 0.8464 0.4599 0.0000
vt 0.8903 0.4887 0.0000
vt 0.9107 0.4849 0.0000
vt 0.8929 0.4989 0.0000
vt 0.9122 0.4892 0.0000
vt 0.8929 0.5612 0.0000
vt 0.9122 0.5730 0.0000
vt 0.5241 0.3313 0.0000
vt 0.9085 0.4755 0.0000
vt 0.8416 0.6918 0.0000
vt 0.8419 0.6927 0.0000
vt 0.9085 0.5868 0.0000
vt 0.8903 0.5714 0.0000
vt 0.8926 0.5618 0.0000
vt 0.8918 0.5644 0.0000
vt 0.8464 0.6024 0.0000
vt 0.8471 0.5830 0.0000
vt 0.8234 0.8051 0.0000
vt 0.8193 0.8158 0.0000
vt 0.8184 0.7884 0.0000
vt 0.8620 0.7921 0.0000
vt 0.8563 0.8093 0.0000
vt 0.8571 0.7793 0.0000
vt 0.9382 0.8657 0.0000
vt 0.9808 0.8955 0.0000
vt 0.9382 0.8955 0.0000
vt 0.9686 0.3320 0.0000
vt 0.9623 0.3158 0.0000
vt 0.9790 0.3413 0.0000
vt 0.9327 0.9891 0.0000
vt 0.9072 0.9902 0.0000
vt 0.9072 0.9575 0.0000
vt 0.9327 0.9582 0.0000
vt 0.5700 0.7182 0.0000
vt 0.5537 0.7118 0.0000
vt 0.5445 0.7015 0.0000
vt 0.7836 0.8051 0.0000
vt 0.7886 0.7884 0.0000
vt 0.7878 0.8158 0.0000
vt 0.6346 0.9066 0.0000
vt 0.5888 0.9346 0.0000
vt 0.6346 0.9346 0.0000
vt 0.8571 0.7015 0.0000
vt 0.8281 0.7015 0.0000
vt 0.5662 0.9333 0.0000
vt 0.5773 0.9381 0.0000
vt 0.7566 0.4391 0.0000
vt 0.6660 0.4468 0.0000
vt 0.6532 0.4358 0.0000
vt 0.8193 0.8978 0.0000
vt 0.7887 0.8978 0.0000
vt 0.7028 0.9092 0.0000
vt 0.7147 0.9129 0.0000
vt 0.6918 0.9133 0.0000
vt 0.6788 0.3831 0.0000
vt 0.6681 0.3941 0.0000
vt 0.5753 0.3864 0.0000
vt 0.5861 0.3967 0.0000
vt 0.7438 0.4493 0.0000
vt 0.9653 0.4355 0.0000
vt 0.9352 0.3678 0.0000
vt 0.9763 0.4263 0.0000
vt 0.5207 0.6880 0.0000
vt 0.5179 0.6768 0.0000
vt 0.5217 0.6642 0.0000
vt 0.5513 0.6663 0.0000
vt 0.5524 0.6902 0.0000
vt 0.5564 0.6795 0.0000
vt 0.4503 0.7151 0.0000
vt 0.4595 0.7042 0.0000
vt 0.7028 0.9478 0.0000
vt 0.6918 0.9439 0.0000
vt 0.7147 0.9432 0.0000
vt 0.8611 0.9177 0.0000
vt 0.8655 0.8728 0.0000
vt 0.8757 0.8733 0.0000
vt 0.8464 0.9306 0.0000
vt 0.8222 0.9911 0.0000
vt 0.8222 0.9594 0.0000
vt 0.4928 0.4937 0.0000
vt 0.4510 0.5884 0.0000
vt 0.4785 0.4996 0.0000
vt 0.4454 0.5746 0.0000
vt 0.5596 0.5169 0.0000
vt 0.5082 0.4665 0.0000
vt 0.5579 0.4648 0.0000
vt 0.5100 0.5187 0.0000
vt 0.0330 0.4425 0.0000
vt 0.0730 0.4426 0.0000
vt 0.0726 0.6198 0.0000
vt 0.3150 0.8966 0.0000
vt 0.3150 0.6435 0.0000
vt 0.0326 0.6197 0.0000
vt 0.5652 0.4561 0.0000
vt 0.5082 0.4123 0.0000
vt 0.5601 0.4068 0.0000
vt 0.5134 0.4616 0.0000
vt 0.3103 0.6242 0.0000
vt 0.3103 0.8994 0.0000
vt 0.2908 0.8995 0.0000
vt 0.3551 0.1384 0.0000
vt 0.0799 0.1393 0.0000
vt 0.2590 0.0729 0.0000
vt 0.3202 0.8399 0.0000
vt 0.3518 0.7223 0.0000
vt 0.3522 0.8995 0.0000
vt 0.0415 0.3250 0.0000
vt 0.0410 0.5021 0.0000
vt 0.0014 0.3249 0.0000
vt 0.0010 0.5021 0.0000
vt 0.0722 0.7589 0.0000
vt 0.0719 0.8980 0.0000
vt 0.0319 0.8706 0.0000
vt 0.5782 0.0010 0.0000
vt 0.3249 0.0012 0.0000
vt 0.1790 0.4486 0.0000
vt 0.1411 0.5082 0.0000
vt 0.1411 0.3311 0.0000
vt 0.5196 0.5753 0.0000
vt 0.5179 0.5231 0.0000
vt 0.5319 0.5749 0.0000
vt 0.5301 0.5227 0.0000
vt 0.5161 0.1942 0.0000
vt 0.5165 0.3321 0.0000
vt 0.5082 0.1943 0.0000
vt 0.1791 0.2715 0.0000
vt 0.0222 0.8706 0.0000
vt 0.0322 0.7575 0.0000
vt 0.3185 0.0010 0.0000
vt 0.3186 0.0410 0.0000
vt 0.1414 0.0014 0.0000
vt 0.1415 0.0414 0.0000
vt 0.1378 0.8982 0.0000
vt 0.0484 0.7461 0.0000
vt 0.0737 0.6313 0.0000
vt 0.0735 0.7472 0.0000
vt 0.6871 0.0318 0.0000
vt 0.2590 0.0329 0.0000
vt 0.6870 0.0221 0.0000
vt 0.7145 0.0718 0.0000
vt 0.7146 0.1377 0.0000
vt 0.6075 0.5373 0.0000
vt 0.0058 0.9478 0.0000
vt 0.6870 0.9479 0.0000
vt 0.0058 0.9868 0.0000
vt 0.1865 0.8705 0.0000
vt 0.1999 0.8336 0.0000
vt 0.2692 0.8705 0.0000
vt 0.2808 0.8976 0.0000
vt 0.1749 0.8976 0.0000
vt 0.7047 0.7223 0.0000
vt 0.7691 0.3946 0.0000
vt 0.2598 0.1429 0.0000
vt 0.3003 0.1766 0.0000
vt 0.2573 0.2163 0.0000
vt 0.2939 0.2241 0.0000
vt 0.3369 0.2243 0.0000
vt 0.8336 0.3904 0.0000
vt 0.1814 0.7455 0.0000
vt 0.1810 0.8710 0.0000
vt 0.1865 0.7450 0.0000
vt 0.1865 0.5382 0.0000
vt 0.1998 0.8000 0.0000
vt 0.1935 0.5376 0.0000
vt 0.1998 0.7787 0.0000
vt 0.1998 0.7573 0.0000
vt 0.1960 0.5373 0.0000
vt 0.1998 0.7482 0.0000
vt 0.1967 0.5372 0.0000
vt 0.1385 0.5387 0.0000
vt 0.1817 0.5388 0.0000
vt 0.2558 0.7482 0.0000
vt 0.1998 0.8168 0.0000
vt 0.2088 0.1411 0.0000
vt 0.2063 0.2146 0.0000
vt 0.1977 0.1462 0.0000
vt 0.1953 0.2144 0.0000
vt 0.2051 0.2934 0.0000
vt 0.1942 0.2876 0.0000
vt 0.2909 0.6242 0.0000
vt 0.5372 0.2812 0.0000
vt 0.5458 0.2874 0.0000
vt 0.5458 0.3147 0.0000
vt 0.5372 0.3210 0.0000
vt 0.3630 0.4372 0.0000
vt 0.3232 0.4372 0.0000
vt 0.3574 0.4261 0.0000
vt 0.5673 0.2972 0.0000
vt 0.7440 0.2837 0.0000
vt 0.5668 0.3186 0.0000
vt 0.5677 0.2758 0.0000
vt 0.5861 0.2838 0.0000
vt 0.5679 0.2667 0.0000
vt 0.5861 0.2684 0.0000
vt 0.5861 0.2766 0.0000
vt 0.4166 0.8983 0.0000
vt 0.4624 0.8800 0.0000
vt 0.4726 0.8983 0.0000
vt 0.2548 0.3128 0.0000
vt 0.2551 0.3045 0.0000
vt 0.2554 0.2974 0.0000
vt 0.2539 0.2951 0.0000
vt 0.2146 0.3417 0.0000
vt 0.5131 0.3628 0.0000
vt 0.5188 0.3440 0.0000
vt 0.5398 0.4041 0.0000
vt 0.5275 0.4041 0.0000
vt 0.6532 0.4792 0.0000
vt 0.6922 0.5066 0.0000
vt 0.6532 0.5066 0.0000
vt 0.6922 0.4792 0.0000
vt 0.1963 0.3020 0.0000
vt 0.9500 0.6293 0.0000
vt 0.9506 0.6748 0.0000
vt 0.9390 0.6782 0.0000
vt 0.5954 0.4729 0.0000
vt 0.5954 0.5135 0.0000
vt 0.5671 0.4729 0.0000
vt 0.5671 0.5135 0.0000
vt 0.9382 0.6145 0.0000
vt 0.5619 0.1813 0.0000
vt 0.3552 0.1816 0.0000
vt 0.2692 0.7450 0.0000
vt 0.2559 0.8336 0.0000
vt 0.2559 0.8168 0.0000
vt 0.2692 0.5382 0.0000
vt 0.2558 0.8000 0.0000
vt 0.6874 0.1809 0.0000
vt 0.2589 0.5372 0.0000
vt 0.2622 0.5376 0.0000
vt 0.5676 0.1848 0.0000
vt 0.5653 0.1943 0.0000
vt 0.5348 0.1846 0.0000
vt 0.9182 0.0107 0.0000
vt 0.9195 0.2859 0.0000
vt 0.8573 0.2860 0.0000
vt 0.9249 0.0058 0.0000
vt 0.9871 0.0059 0.0000
vt 0.9243 0.1435 0.0000
vt 0.9858 0.2812 0.0000
vt 0.9304 0.2811 0.0000
vt 0.8354 0.1439 0.0000
vt 0.8289 0.0067 0.0000
vt 0.8418 0.1435 0.0000
vt 0.1394 0.2634 0.0000
vt 0.7443 0.0069 0.0000
vt 0.8280 0.0069 0.0000
vt 0.7329 0.2809 0.0000
vt 0.7305 0.2811 0.0000
vt 0.8324 0.0064 0.0000
vt 0.8417 0.0058 0.0000
vt 0.3585 0.8951 0.0000
vt 0.4002 0.8691 0.0000
vt 0.4145 0.8951 0.0000
vt 0.4145 0.8625 0.0000
vt 0.5227 0.1942 0.0000
vt 0.4165 0.8752 0.0000
vt 0.4241 0.8765 0.0000
vt 0.5283 0.2606 0.0000
vt 0.5507 0.2700 0.0000
vt 0.5276 0.2697 0.0000
vt 0.2596 0.5373 0.0000
vt 0.2558 0.7573 0.0000
vt 0.8392 0.5807 0.0000
vt 0.8319 0.5807 0.0000
vt 0.5336 0.2853 0.0000
vt 0.5336 0.3242 0.0000
vt 0.5276 0.2812 0.0000
vt 0.5276 0.3284 0.0000
vt 0.4715 0.9378 0.0000
vt 0.5187 0.9140 0.0000
vt 0.5187 0.9378 0.0000
vt 0.2558 0.7787 0.0000
vt 0.5557 0.2533 0.0000
vt 0.5531 0.2621 0.0000
vt 0.5301 0.2393 0.0000
vt 0.0734 0.2655 0.0000
vt 0.6009 0.1956 0.0000
vt 0.7148 0.1861 0.0000
vt 0.6002 0.1979 0.0000
vt 0.3919 0.8262 0.0000
vt 0.3585 0.7160 0.0000
vt 0.0334 0.2654 0.0000
vt 0.0736 0.1895 0.0000
vt 0.0336 0.1894 0.0000
vt 0.3198 0.6628 0.0000
vt 0.0239 0.1894 0.0000
vt 0.3655 0.4608 0.0000
vt 0.3170 0.5014 0.0000
vt 0.3498 0.4566 0.0000
vt 0.3098 0.4901 0.0000
vt 0.4799 0.5369 0.0000
vt 0.4807 0.5290 0.0000
vt 0.4818 0.5383 0.0000
vt 0.5320 0.2180 0.0000
vt 0.8550 0.5704 0.0000
vt 0.8662 0.5662 0.0000
vt 0.8669 0.5704 0.0000
vt 0.3595 0.4566 0.0000
vt 0.2929 0.9143 0.0000
vt 0.2928 0.9381 0.0000
vt 0.2128 0.9379 0.0000
vt 0.5883 0.1967 0.0000
vt 0.4045 0.3875 0.0000
vt 0.4599 0.3875 0.0000
vt 0.4599 0.4765 0.0000
vt 0.7281 0.9625 0.0000
vt 0.7836 0.9896 0.0000
vt 0.7282 0.9897 0.0000
vt 0.4865 0.3044 0.0000
vt 0.4865 0.2490 0.0000
vt 0.5063 0.2370 0.0000
vt 0.5063 0.3170 0.0000
vt 0.4584 0.3380 0.0000
vt 0.4656 0.3655 0.0000
vt 0.5594 0.9141 0.0000
vt 0.5594 0.9379 0.0000
vt 0.7835 0.9624 0.0000
vt 0.3247 0.0073 0.0000
vt 0.8391 0.5952 0.0000
vt 0.8319 0.5966 0.0000
vt 0.4715 0.9140 0.0000
vt 0.5334 0.2013 0.0000
vt 0.0819 0.0733 0.0000
vt 0.3201 0.2420 0.0000
vt 0.3136 0.2375 0.0000
vt 0.3944 0.8308 0.0000
vt 0.9440 0.8145 0.0000
vt 0.9440 0.8550 0.0000
vt 0.9382 0.8528 0.0000
vt 0.0818 0.0333 0.0000
vt 0.0059 0.0735 0.0000
vt 0.0058 0.0335 0.0000
vt 0.2997 0.2280 0.0000
vt 0.3139 0.2279 0.0000
vt 0.4309 0.9379 0.0000
vt 0.0058 0.0238 0.0000
vt 0.0014 0.7614 0.0000
vt 0.0010 0.5842 0.0000
vt 0.0105 0.5082 0.0000
vt 0.9188 0.6145 0.0000
vt 0.9188 0.6905 0.0000
vt 0.3098 0.3843 0.0000
vt 0.3170 0.3730 0.0000
vt 0.3498 0.4177 0.0000
vt 0.3655 0.4136 0.0000
vt 0.9990 0.9896 0.0000
vt 0.9663 0.9624 0.0000
vt 0.9990 0.9624 0.0000
vt 0.4935 0.4156 0.0000
vt 0.4935 0.4483 0.0000
vt 0.3595 0.4177 0.0000
vt 0.9663 0.9896 0.0000
vt 0.9382 0.9895 0.0000
vt 0.8172 0.9623 0.0000
vt 0.8172 0.9895 0.0000
vt 0.2370 0.3730 0.0000
vt 0.3681 0.4667 0.0000
vt 0.3681 0.3972 0.0000
vt 0.4045 0.4765 0.0000
vt 0.8344 0.5662 0.0000
vt 0.8319 0.5704 0.0000
vt 0.9074 0.7763 0.0000
vt 0.8803 0.7762 0.0000
vt 0.8804 0.7208 0.0000
vt 0.9810 0.8624 0.0000
vt 0.9466 0.8099 0.0000
vt 0.4309 0.9141 0.0000
vt 0.4257 0.3380 0.0000
vt 0.9382 0.9623 0.0000
vt 0.3975 0.3044 0.0000
vt 0.3778 0.2370 0.0000
vt 0.3975 0.2490 0.0000
vt 0.3778 0.3170 0.0000
vt 0.4184 0.3655 0.0000
vt 0.7015 0.4889 0.0000
vt 0.7332 0.4889 0.0000
vt 0.7236 0.5072 0.0000
vt 0.9076 0.7208 0.0000
vt 0.6725 0.4503 0.0000
vt 0.7125 0.4553 0.0000
vt 0.6725 0.4732 0.0000
vt 0.6739 0.8981 0.0000
vt 0.6624 0.8994 0.0000
vt 0.6739 0.8751 0.0000
vt 0.6624 0.8705 0.0000
vt 0.6929 0.2675 0.0000
vt 0.6726 0.2654 0.0000
vt 0.2687 0.3191 0.0000
vt 0.3010 0.3186 0.0000
vt 0.9775 0.5678 0.0000
vt 0.9744 0.4511 0.0000
vt 0.9777 0.4503 0.0000
vt 0.3108 0.3143 0.0000
vt 0.3032 0.3141 0.0000
vt 0.3130 0.2939 0.0000
vt 0.3115 0.2971 0.0000
vt 0.3564 0.2944 0.0000
vt 0.3111 0.3062 0.0000
vt 0.4726 0.8800 0.0000
vt 0.2650 0.3131 0.0000
vt 0.3531 0.2437 0.0000
vt 0.3293 0.2437 0.0000
vt 0.3642 0.2552 0.0000
vt 0.3668 0.2953 0.0000
vt 0.7125 0.4833 0.0000
vt 0.3501 0.3405 0.0000
vt 0.7582 0.4579 0.0000
vt 0.8463 0.9191 0.0000
vt 0.8510 0.8728 0.0000
vt 0.8614 0.8733 0.0000
vt 0.7582 0.4885 0.0000
vt 0.8319 0.9306 0.0000
vt 0.8574 0.8332 0.0000
vt 0.7922 0.7586 0.0000
vt 0.7940 0.7122 0.0000
vt 0.8048 0.7721 0.0000
vt 0.7836 0.7112 0.0000
vt 0.7932 0.6722 0.0000
vt 0.9406 0.7436 0.0000
vt 0.9779 0.7742 0.0000
vt 0.9382 0.7586 0.0000
vt 0.9474 0.7301 0.0000
vt 0.9582 0.7194 0.0000
vt 0.6612 0.6098 0.0000
vt 0.5517 0.6098 0.0000
vt 0.5517 0.5991 0.0000
vt 0.6612 0.5991 0.0000
vt 0.6709 0.6242 0.0000
vt 0.1396 0.1897 0.0000
vt 0.9528 0.6957 0.0000
vt 0.9140 0.7232 0.0000
vt 0.9143 0.7060 0.0000
vt 0.9694 0.7093 0.0000
vt 0.9575 0.6944 0.0000
vt 0.9761 0.7076 0.0000
vt 0.1779 0.2635 0.0000
vt 0.1828 0.1897 0.0000
vt 0.1826 0.2649 0.0000
vt 0.9580 0.6925 0.0000
vt 0.9768 0.7051 0.0000
vt 0.9335 0.6145 0.0000
vt 0.9333 0.6897 0.0000
vt 0.9285 0.6145 0.0000
vt 0.9285 0.6897 0.0000
vt 0.9239 0.6897 0.0000
vt 0.9237 0.6145 0.0000
vt 0.8337 0.6898 0.0000
vt 0.8319 0.6897 0.0000
vt 0.8319 0.6145 0.0000
vt 0.6919 0.9898 0.0000
vt 0.6918 0.9626 0.0000
vt 0.2370 0.5014 0.0000
vt 0.2438 0.4901 0.0000
vt 0.2006 0.4786 0.0000
vt 0.2129 0.9142 0.0000
vt 0.5662 0.4213 0.0000
vt 0.6357 0.4213 0.0000
vt 0.5662 0.4484 0.0000
vt 0.1846 0.4874 0.0000
vt 0.6709 0.6527 0.0000
vt 0.6709 0.6677 0.0000
vt 0.5614 0.6677 0.0000
vt 0.1846 0.3870 0.0000
vt 0.1605 0.9140 0.0000
vt 0.1604 0.9378 0.0000
vt 0.9804 0.7742 0.0000
vt 0.9795 0.7742 0.0000
vt 0.9804 0.7111 0.0000
vt 0.9717 0.7125 0.0000
vt 0.6612 0.5768 0.0000
vt 0.6340 0.8623 0.0000
vt 0.6340 0.8675 0.0000
vt 0.6320 0.8623 0.0000
vt 0.5605 0.8966 0.0000
vt 0.9237 0.2797 0.0000
vt 0.8418 0.2797 0.0000
vt 0.8393 0.2795 0.0000
vt 0.4768 0.2127 0.0000
vt 0.4922 0.1846 0.0000
vt 0.4073 0.2127 0.0000
vt 0.8560 0.0107 0.0000
vt 0.9140 0.5807 0.0000
vt 0.9762 0.5963 0.0000
vt 0.9575 0.6117 0.0000
vt 0.9143 0.6001 0.0000
vt 0.2438 0.3843 0.0000
vt 0.2006 0.3958 0.0000
vt 0.0061 0.1395 0.0000
vt 0.0799 0.1825 0.0000
vt 0.0062 0.1827 0.0000
vt 0.9128 0.6884 0.0000
vt 0.9146 0.6145 0.0000
vt 0.9146 0.6882 0.0000
vt 0.9073 0.8126 0.0000
vt 0.6357 0.4484 0.0000
vt 0.4281 0.9140 0.0000
vt 0.4282 0.9378 0.0000
vt 0.3757 0.9142 0.0000
vt 0.9040 0.9177 0.0000
vt 0.8802 0.9177 0.0000
vt 0.9040 0.8174 0.0000
vt 0.9768 0.5987 0.0000
vt 0.9580 0.6135 0.0000
vt 0.7304 0.0058 0.0000
vt 0.8802 0.8125 0.0000
vt 0.3919 0.1846 0.0000
vt 0.2957 0.9143 0.0000
vt 0.3757 0.9379 0.0000
vt 0.2957 0.9381 0.0000
vt 0.8802 0.8174 0.0000
vt 0.7397 0.6628 0.0000
vt 0.8336 0.4906 0.0000
vt 0.8264 0.4418 0.0000
vt 0.8240 0.4268 0.0000
vt 0.8240 0.4568 0.0000
vt 0.5168 0.6369 0.0000
vt 0.4777 0.5610 0.0000
vt 0.5178 0.6357 0.0000
vt 0.9406 0.7736 0.0000
vt 0.5614 0.6812 0.0000
vt 0.7300 0.4197 0.0000
vt 0.9474 0.7872 0.0000
vt 0.9582 0.7979 0.0000
vt 0.6709 0.6812 0.0000
vt 0.6918 0.4115 0.0000
vt 0.7300 0.3826 0.0000
vt 0.9717 0.8048 0.0000
vt 0.9779 0.8058 0.0000
vt 0.7691 0.4262 0.0000
vt 0.7247 0.6640 0.0000
vt 0.5163 0.6377 0.0000
vt 0.4599 0.5936 0.0000
vt 0.4817 0.8931 0.0000
vt 0.5605 0.7851 0.0000
vt 0.6320 0.7992 0.0000
vt 0.4763 0.5628 0.0000
vt 0.7448 0.2837 0.0000
vt 0.5605 0.7304 0.0000
vt 0.4817 0.7339 0.0000
vt 0.8609 0.6918 0.0000
vt 0.9007 0.6918 0.0000
vt 0.8956 0.7012 0.0000
vt 0.5466 0.3295 0.0000
vt 0.5587 0.3792 0.0000
vt 0.5372 0.3366 0.0000
vt 0.5498 0.3821 0.0000
vt 0.5437 0.4001 0.0000
vt 0.5227 0.3399 0.0000
vt 0.5348 0.3392 0.0000
vt 0.6011 0.4648 0.0000
vt 0.5614 0.4648 0.0000
vt 0.2835 0.4372 0.0000
vt 0.2096 0.4261 0.0000
vt 0.2437 0.4372 0.0000
vt 0.4419 0.6399 0.0000
vt 0.3688 0.4889 0.0000
vt 0.4419 0.4922 0.0000
vt 0.7594 0.3018 0.0000
vt 0.8329 0.3018 0.0000
vt 0.7594 0.3528 0.0000
vt 0.8329 0.3528 0.0000
vt 0.4145 0.7160 0.0000
vt 0.7453 0.3694 0.0000
vt 0.5665 0.3353 0.0000
vt 0.5662 0.3521 0.0000
vt 0.7649 0.2908 0.0000
vt 0.8332 0.2908 0.0000
vt 0.3688 0.6432 0.0000
vt 0.3005 0.6162 0.0000
vt 0.3005 0.5159 0.0000
vt 0.6048 0.4599 0.0000
vt 0.6357 0.4599 0.0000
vt 0.6048 0.5041 0.0000
vt 0.9808 0.8657 0.0000
vt 0.6387 0.4599 0.0000
vt 0.6485 0.4644 0.0000
vt 0.6387 0.4997 0.0000
vt 0.6485 0.4952 0.0000
vt 0.8659 0.7012 0.0000
vt 0.4514 0.6065 0.0000
vt 0.4930 0.6364 0.0000
vt 0.4828 0.6424 0.0000
vt 0.2039 0.4372 0.0000
vt 0.9064 0.2923 0.0000
vt 0.9117 0.3034 0.0000
vt 0.9117 0.3522 0.0000
vt 0.4164 0.7208 0.0000
vt 0.4724 0.7209 0.0000
vt 0.4179 0.7281 0.0000
vt 0.7739 0.6521 0.0000
vt 0.8300 0.5662 0.0000
vt 0.8300 0.6521 0.0000
vt 0.7452 0.2837 0.0000
vt 0.7453 0.2835 0.0000
vt 0.4792 0.8926 0.0000
vt 0.4792 0.8918 0.0000
vt 0.4792 0.8931 0.0000
vt 0.4793 0.7339 0.0000
vt 0.7452 0.2835 0.0000
vt 0.4725 0.7208 0.0000
vt 0.4725 0.7209 0.0000
vt 0.7452 0.2836 0.0000
vt 0.9143 0.3539 0.0000
vt 0.9143 0.3538 0.0000
vt 0.9142 0.3538 0.0000
vt 0.9181 0.2935 0.0000
vt 0.6357 0.5041 0.0000
vt 0.5922 0.7623 0.0000
vt 0.5824 0.7687 0.0000
vt 0.3942 0.8262 0.0000
vt 0.4903 0.5450 0.0000
vt 0.5176 0.5859 0.0000
vt 0.4779 0.5608 0.0000
vt 0.9810 0.8077 0.0000
vt 0.6966 0.5072 0.0000
vt 0.5050 0.5276 0.0000
vt 0.6918 0.3845 0.0000
vt 0.6387 0.8994 0.0000
vt 0.6624 0.8415 0.0000
vt 0.2035 0.5163 0.0000
vt 0.1942 0.5034 0.0000
vt 0.2436 0.5155 0.0000
vt 0.6856 0.9381 0.0000
vt 0.6746 0.9346 0.0000
vt 0.6856 0.9092 0.0000
vt 0.6746 0.9116 0.0000
vt 0.8459 0.8222 0.0000
vt 0.8061 0.6628 0.0000
vt 0.8365 0.8728 0.0000
vt 0.8314 0.8222 0.0000
vt 0.8429 0.8337 0.0000
vt 0.8112 0.9092 0.0000
vt 0.8112 0.9382 0.0000
vt 0.7998 0.9129 0.0000
vt 0.7545 0.3772 0.0000
vt 0.6000 0.3772 0.0000
vt 0.7533 0.3726 0.0000
vt 0.2901 0.5173 0.0000
vt 0.2426 0.5259 0.0000
vt 0.8469 0.8733 0.0000
vt 0.8319 0.9187 0.0000
vt 0.7998 0.9356 0.0000
vt 0.7601 0.9129 0.0000
vt 0.3035 0.5046 0.0000
vt 0.8174 0.9306 0.0000
vt 0.7601 0.9406 0.0000
vt 0.4145 0.8260 0.0000
vt 0.3944 0.8262 0.0000
vt 0.6043 0.1852 0.0000
vt 0.6624 0.8125 0.0000
vt 0.6387 0.7836 0.0000
vt 0.6624 0.7836 0.0000
vt 0.9237 0.5797 0.0000
vt 0.9237 0.4638 0.0000
vt 0.6739 0.7851 0.0000
vt 0.6739 0.8073 0.0000
vt 0.6981 0.2691 0.0000
vt 0.6979 0.2681 0.0000
vt 0.7058 0.2715 0.0000
vt 0.7739 0.5662 0.0000
vt 0.9336 0.4001 0.0000
vt 0.9744 0.5924 0.0000
vt 0.5056 0.6580 0.0000
vt 0.5079 0.6903 0.0000
vt 0.3511 0.6580 0.0000
vt 0.3488 0.6903 0.0000
vt 0.9775 0.5882 0.0000
vt 0.6049 0.3585 0.0000
vt 0.9775 0.5932 0.0000
vt 0.6984 0.2711 0.0000
vt 0.6983 0.2701 0.0000
vt 0.9075 0.4546 0.0000
vt 0.4165 0.7281 0.0000
vt 0.6985 0.2714 0.0000
vt 0.8578 0.4257 0.0000
vt 0.9085 0.4112 0.0000
vt 0.9117 0.4098 0.0000
vt 0.9127 0.4098 0.0000
vt 0.9137 0.4098 0.0000
vt 0.9146 0.4098 0.0000
vt 0.9150 0.4098 0.0000
vt 0.9150 0.4084 0.0000
vt 0.5079 0.6942 0.0000
vt 0.3488 0.7042 0.0000
vt 0.8569 0.4495 0.0000
vt 0.9525 0.4502 0.0000
vt 0.9080 0.4649 0.0000
vt 0.5223 0.6197 0.0000
vt 0.5494 0.6216 0.0000
vt 0.5423 0.5822 0.0000
vt 0.5201 0.5807 0.0000
vt 0.8693 0.4609 0.0000
vt 0.7981 0.7112 0.0000
vt 0.8084 0.7122 0.0000
vt 0.8066 0.7583 0.0000
vt 0.8075 0.6725 0.0000
vt 0.8193 0.7721 0.0000
vt 0.8604 0.8222 0.0000
vt 0.8718 0.8345 0.0000
vt 0.8205 0.6628 0.0000
vt 0.0571 0.6313 0.0000
vt 0.0247 0.6196 0.0000
vt 0.0321 0.6312 0.0000
vt 0.6532 0.5142 0.0000
vt 0.6858 0.5131 0.0000
vt 0.6541 0.5399 0.0000
vt 0.5086 0.3321 0.0000
vt 0.5663 0.4187 0.0000
vt 0.6821 0.4020 0.0000
vt 0.6821 0.4185 0.0000
vt 0.5662 0.4022 0.0000
vt 0.6868 0.5388 0.0000
vt 0.0486 0.6312 0.0000
vt 0.6870 0.9868 0.0000
vt 0.2770 0.5759 0.0000
vt 0.2715 0.5240 0.0000
vt 0.2837 0.5227 0.0000
vt 0.2893 0.5746 0.0000
vt 0.2715 0.8656 0.0000
vt 0.2716 0.5904 0.0000
vt 0.2887 0.8657 0.0000
vt 0.2888 0.5904 0.0000
# 849 texture coords

o Escopeta
g Escopeta
s off
f 1/1/1 2/2/1 3/3/1 
f 2/2/2 1/1/2 4/4/2 
f 5/5/2 4/4/2 1/1/2 
f 5/5/3 6/6/3 4/4/3 
f 7/7/4 3/8/4 2/9/4 
f 8/10/5 3/11/5 9/12/5 
f 6/13/6 10/14/6 11/15/6 
f 11/16/7 10/17/7 12/18/7 
f 11/15/8 4/19/8 6/13/8 
f 2/2/9 4/4/9 11/16/9 
f 7/20/9 2/2/9 11/16/9 
f 11/16/10 12/18/10 7/20/10 
f 7/7/4 13/21/4 3/8/4 
f 14/22/11 9/23/11 3/24/11 
f 14/22/12 3/24/12 13/25/12 
f 14/26/13 13/27/13 15/28/13 
f 16/29/10 7/20/10 12/18/10 
f 13/30/14 7/20/14 16/29/14 
f 17/31/15 18/32/15 19/33/15 
f 19/33/16 20/34/16 21/35/16 
f 19/33/15 21/35/15 22/36/15 
f 23/37/15 19/33/15 24/38/15 
f 25/39/17 19/33/17 23/37/17 
f 24/38/15 19/33/15 26/40/15 
f 27/41/16 19/33/16 25/39/16 
f 28/42/18 19/33/18 27/41/18 
f 26/40/17 19/33/17 29/43/17 
f 30/44/17 18/32/17 17/31/17 
f 29/43/15 19/33/15 18/32/15 
f 31/45/16 19/33/16 28/42/16 
f 32/46/15 19/33/15 31/45/15 
f 33/47/15 19/33/15 32/46/15 
f 34/48/16 19/33/16 33/47/16 
f 35/49/18 19/33/18 34/48/18 
f 36/50/16 19/33/16 35/49/16 
f 20/34/18 19/33/18 36/50/18 
f 19/51/19 22/52/19 37/53/19 
f 38/54/20 17/55/20 19/51/20 
f 38/54/21 30/56/21 17/55/21 
f 21/57/22 39/58/22 22/52/22 
f 25/59/23 40/60/23 27/61/23 
f 40/60/24 41/62/24 27/61/24 
f 37/53/19 42/63/19 19/51/19 
f 19/51/20 42/63/20 38/54/20 
f 43/64/25 44/65/25 20/66/25 
f 37/53/26 22/52/26 39/58/26 
f 38/54/21 45/67/21 30/56/21 
f 30/68/27 46/69/27 18/70/27 
f 45/71/28 46/69/28 30/68/28 
f 29/72/29 47/73/29 26/74/29 
f 26/74/30 48/75/30 24/76/30 
f 49/77/31 24/76/31 48/75/31 
f 47/73/32 48/75/32 26/74/32 
f 49/77/33 50/78/33 23/79/33 
f 49/77/33 23/79/33 24/76/33 
f 25/59/34 23/80/34 51/81/34 
f 50/82/34 51/81/34 23/80/34 
f 51/81/23 40/60/23 25/59/23 
f 52/83/35 28/84/35 41/62/35 
f 28/84/36 27/61/36 41/62/36 
f 32/85/37 53/86/37 33/87/37 
f 53/86/38 34/88/38 33/87/38 
f 54/89/39 20/66/39 36/90/39 
f 55/91/15 42/92/15 56/93/15 
f 37/94/17 56/93/17 42/92/17 
f 42/92/16 55/91/16 38/95/16 
f 37/94/15 39/96/15 56/93/15 
f 41/97/18 40/98/18 57/99/18 
f 40/98/16 51/100/16 57/99/16 
f 48/101/15 58/102/15 49/103/15 
f 50/104/18 49/103/18 58/102/18 
f 50/104/17 58/102/17 51/100/17 
f 58/102/15 57/99/15 51/100/15 
f 38/95/18 55/91/18 45/105/18 
f 46/106/16 45/105/16 55/91/16 
f 59/107/40 60/108/40 61/109/40 
f 62/110/40 61/109/40 60/108/40 
f 63/111/41 64/112/41 65/113/41 
f 63/111/41 65/113/41 66/114/41 
f 64/112/42 59/107/42 65/113/42 
f 61/109/42 65/113/42 59/107/42 
f 67/115/43 68/116/43 69/117/43 
f 70/118/44 71/119/44 67/120/44 
f 67/115/45 69/117/45 72/121/45 
f 72/121/46 70/122/46 67/115/46 
f 73/123/47 74/124/47 75/125/47 
f 76/126/48 77/127/48 78/128/48 
f 79/129/49 73/123/49 78/128/49 
f 80/130/50 81/131/50 82/132/50 
f 79/129/51 74/124/51 73/123/51 
f 75/125/52 74/124/52 81/131/52 
f 81/131/53 80/130/53 75/125/53 
f 83/133/50 82/132/50 81/131/50 
f 81/134/54 81/134/54 81/134/54 
f 81/134/54 81/134/54 81/134/54 
f 81/134/54 81/134/54 81/134/54 
f 78/128/55 84/135/55 79/129/55 
f 78/128/56 77/127/56 84/135/56 
f 81/136/54 81/136/54 74/137/54 
f 85/138/57 86/139/57 83/133/57 
f 83/133/58 87/140/58 82/132/58 
f 88/141/59 83/133/59 86/139/59 
f 88/141/60 87/140/60 83/133/60 
f 86/139/61 85/138/61 89/142/61 
f 86/139/62 89/142/62 90/143/62 
f 91/144/63 92/145/63 93/146/63 
f 91/147/64 94/148/64 95/149/64 
f 8/10/65 9/12/65 94/148/65 
f 94/148/65 9/12/65 95/149/65 
f 96/150/66 97/151/66 93/152/66 
f 98/153/67 99/154/67 100/155/67 
f 101/156/68 102/157/68 100/158/68 
f 101/156/68 100/158/68 99/159/68 
f 101/160/69 103/161/69 102/162/69 
f 103/163/70 96/164/70 104/165/70 
f 96/164/71 93/146/71 104/165/71 
f 92/145/71 104/165/71 93/146/71 
f 15/28/72 105/166/72 106/167/72 
f 107/168/72 106/167/72 105/166/72 
f 108/169/73 95/149/73 14/170/73 
f 106/167/74 108/171/74 15/28/74 
f 14/26/74 15/28/74 108/171/74 
f 106/167/75 109/172/75 108/171/75 
f 14/170/73 95/149/73 9/12/73 
f 91/173/76 108/174/76 109/175/76 
f 110/176/77 111/177/77 92/145/77 
f 109/178/78 112/179/78 110/180/78 
f 109/181/79 110/182/79 91/183/79 
f 91/183/80 110/182/80 92/184/80 
f 91/173/81 95/185/81 108/174/81 
f 98/153/82 113/186/82 114/187/82 
f 100/155/83 115/188/83 98/153/83 
f 115/188/84 113/186/84 98/153/84 
f 116/189/85 117/190/85 118/191/85 
f 116/189/86 118/191/86 119/192/86 
f 116/189/86 119/192/86 115/193/86 
f 119/192/87 113/194/87 115/193/87 
f 103/161/88 117/195/88 116/196/88 
f 117/197/89 111/198/89 120/199/89 
f 118/200/90 121/201/90 122/202/90 
f 121/201/91 118/200/91 117/203/91 
f 116/204/73 115/205/73 102/157/73 
f 100/158/73 102/157/73 115/205/73 
f 102/162/92 103/161/92 116/196/92 
f 104/165/77 92/145/77 111/177/77 
f 111/198/93 110/180/93 120/199/93 
f 112/179/93 120/199/93 110/180/93 
f 117/206/94 103/207/94 111/208/94 
f 111/208/95 103/207/95 104/209/95 
f 123/210/96 124/211/96 125/212/96 
f 126/213/96 124/211/96 123/210/96 
f 123/214/97 125/215/97 127/216/97 
f 128/217/54 123/218/54 128/217/54 
f 129/219/97 123/214/97 127/216/97 
f 130/220/98 131/221/98 132/222/98 
f 130/220/99 133/223/99 131/221/99 
f 89/224/100 134/225/100 135/226/100 
f 90/227/101 135/228/101 132/229/101 
f 123/230/102 136/231/102 126/232/102 
f 137/233/97 124/234/97 136/235/97 
f 126/236/97 136/235/97 124/234/97 
f 137/233/103 125/215/103 124/234/103 
f 138/237/104 59/238/104 64/239/104 
f 131/240/54 139/241/54 139/241/54 
f 140/242/105 141/243/105 131/244/105 
f 138/245/106 142/246/106 69/247/106 
f 72/248/106 69/247/106 142/246/106 
f 142/249/107 129/250/107 72/251/107 
f 140/242/108 131/244/108 133/252/108 
f 64/239/54 63/253/54 142/254/54 
f 133/255/109 130/256/109 140/257/109 
f 138/237/110 64/239/110 142/254/110 
f 140/257/111 130/256/111 143/258/111 
f 138/237/54 60/259/54 59/238/54 
f 71/260/112 144/261/112 145/262/112 
f 65/263/113 131/264/113 66/265/113 
f 90/227/114 61/266/114 62/267/114 
f 145/268/115 67/120/115 71/119/115 
f 128/269/116 63/270/116 139/271/116 
f 146/272/117 147/273/117 148/274/117 
f 148/274/118 62/275/118 60/276/118 
f 148/274/118 60/276/118 146/272/118 
f 54/89/39 43/64/39 20/66/39 
f 21/57/25 20/66/25 44/65/25 
f 39/58/22 21/57/22 149/277/22 
f 44/65/119 149/277/119 21/57/119 
f 39/96/120 149/278/120 56/93/120 
f 56/279/121 150/280/121 151/281/121 
f 150/280/122 152/282/122 151/281/122 
f 152/282/123 150/280/123 153/283/123 
f 46/106/124 55/91/124 154/284/124 
f 155/285/125 146/286/125 60/259/125 
f 155/287/126 78/288/126 156/289/126 
f 78/288/127 73/290/127 157/291/127 
f 158/292/128 157/291/128 73/290/128 
f 73/290/129 75/293/129 158/292/129 
f 159/294/130 158/292/130 75/293/130 
f 159/294/131 75/293/131 80/295/131 
f 76/296/132 78/297/132 155/285/132 
f 80/295/133 160/298/133 159/294/133 
f 161/299/134 147/273/134 146/272/134 
f 156/289/135 78/288/135 157/291/135 
f 161/299/136 155/287/136 156/289/136 
f 146/272/137 155/287/137 161/299/137 
f 56/279/138 151/281/138 55/300/138 
f 162/301/138 55/300/138 151/281/138 
f 154/302/139 55/300/139 162/301/139 
f 163/303/140 154/302/140 162/301/140 
f 162/301/141 164/304/141 165/305/141 
f 165/305/142 163/303/142 162/301/142 
f 143/258/143 130/256/143 132/229/143 
f 90/306/144 89/224/144 135/226/144 
f 162/301/145 151/281/145 164/304/145 
f 164/307/146 166/308/146 167/309/146 
f 164/307/146 167/309/146 168/310/146 
f 164/311/147 168/312/147 165/313/147 
f 157/314/148 169/315/148 156/316/148 
f 157/314/149 158/317/149 170/318/149 
f 159/319/150 171/320/150 158/317/150 
f 172/321/151 158/317/151 171/320/151 
f 160/322/152 173/323/152 159/324/152 
f 158/317/153 172/321/153 170/318/153 
f 6/13/154 164/304/154 171/325/154 
f 172/326/154 164/304/154 170/327/154 
f 171/325/154 164/304/154 172/326/154 
f 174/328/154 170/327/154 164/304/154 
f 5/329/155 164/304/155 6/13/155 
f 174/328/145 164/304/145 151/281/145 
f 1/330/156 3/331/156 168/332/156 
f 1/330/157 168/332/157 167/333/157 
f 1/334/158 166/335/158 5/336/158 
f 1/334/158 167/337/158 166/335/158 
f 166/338/159 164/304/159 5/329/159 
f 8/339/160 175/340/160 168/341/160 
f 175/342/161 8/343/161 176/344/161 
f 94/345/161 176/344/161 8/343/161 
f 8/339/162 168/341/162 3/346/162 
f 90/227/163 177/347/163 86/348/163 
f 177/349/164 148/274/164 178/350/164 
f 177/349/165 179/351/165 86/352/165 
f 90/227/166 62/267/166 177/347/166 
f 179/351/167 180/353/167 86/352/167 
f 62/267/168 148/354/168 177/347/168 
f 82/355/133 160/298/133 80/295/133 
f 177/349/169 178/350/169 179/351/169 
f 88/356/170 86/352/170 180/353/170 
f 181/357/171 182/358/171 178/359/171 
f 134/360/172 89/361/172 85/362/172 
f 84/363/173 77/364/173 183/365/173 
f 184/366/174 185/367/174 183/365/174 
f 186/368/175 74/369/175 183/370/175 
f 76/296/176 125/215/176 187/371/176 
f 178/350/117 148/274/117 147/273/117 
f 83/372/177 81/373/177 188/374/177 
f 188/374/178 189/375/178 83/372/178 
f 183/370/179 79/376/179 84/377/179 
f 79/376/180 183/370/180 74/369/180 
f 147/378/181 190/379/181 178/380/181 
f 181/381/182 178/380/182 190/379/182 
f 186/368/183 81/373/183 74/369/183 
f 186/382/54 81/134/54 81/134/54 
f 191/383/184 192/384/184 160/322/184 
f 193/385/185 191/386/185 160/387/185 
f 82/355/186 87/388/186 193/389/186 
f 128/390/54 128/390/54 194/391/54 
f 128/392/187 139/393/187 194/394/187 
f 195/395/187 194/394/187 139/393/187 
f 193/389/188 160/298/188 82/355/188 
f 195/396/189 196/397/189 194/398/189 
f 88/356/190 180/353/190 197/399/190 
f 198/400/191 199/401/191 197/402/191 
f 87/388/192 88/356/192 197/399/192 
f 193/389/193 87/388/193 197/399/193 
f 125/215/103 137/233/103 200/403/103 
f 201/404/194 202/405/194 203/406/194 
f 204/407/181 147/378/181 205/408/181 
f 136/235/195 206/409/195 137/233/195 
f 207/410/196 200/403/196 208/411/196 
f 200/403/195 137/233/195 206/409/195 
f 208/411/196 200/403/196 206/409/196 
f 206/412/197 136/231/197 123/230/197 
f 123/214/54 128/413/54 206/409/54 
f 206/409/54 128/413/54 208/411/54 
f 194/414/198 209/415/198 208/416/198 
f 208/416/199 209/415/199 207/417/199 
f 203/418/200 210/419/200 201/420/201 
f 202/405/202 180/421/202 203/406/202 
f 211/422/203 210/423/203 203/424/203 
f 208/416/204 128/425/204 194/414/204 
f 209/426/54 212/427/54 213/428/54 
f 211/429/205 203/406/205 180/421/205 
f 214/430/206 215/431/206 216/432/206 
f 217/433/113 215/434/113 214/435/113 
f 218/436/207 217/437/207 213/438/207 
f 218/436/208 213/438/208 212/439/208 
f 219/440/209 212/439/209 196/441/209 
f 219/440/210 218/436/210 212/439/210 
f 212/442/211 209/443/211 196/397/211 
f 209/443/211 194/398/211 196/397/211 
f 215/434/113 217/433/113 218/444/113 
f 195/445/54 139/241/54 139/241/54 
f 139/446/54 139/446/54 195/447/54 
f 196/397/189 195/396/189 220/448/189 
f 179/449/212 178/359/212 182/358/212 
f 143/258/213 132/229/213 221/450/213 
f 153/283/214 222/451/214 182/452/214 
f 190/379/215 147/378/215 223/453/215 
f 204/407/216 223/453/216 147/378/216 
f 223/454/217 152/455/217 190/456/217 
f 141/457/218 140/257/218 143/258/218 
f 221/450/219 141/457/219 143/258/219 
f 224/458/220 225/459/220 221/450/220 
f 190/460/221 152/282/221 181/461/221 
f 153/283/222 181/461/222 152/282/222 
f 181/461/223 153/283/223 182/452/223 
f 220/448/224 195/396/224 226/462/224 
f 141/457/113 225/459/113 139/463/113 
f 179/449/171 211/429/171 180/421/171 
f 131/464/225 141/465/225 139/466/225 
f 139/467/54 139/467/54 141/468/54 
f 179/449/226 182/358/226 211/429/226 
f 224/469/227 226/470/227 225/471/227 
f 225/471/228 226/470/228 195/472/228 
f 141/457/220 221/450/220 225/459/220 
f 219/473/229 227/474/229 228/475/229 
f 215/431/230 228/476/230 216/432/230 
f 227/477/230 216/432/230 228/476/230 
f 139/478/231 225/471/231 195/472/231 
f 227/474/229 219/473/229 229/479/229 
f 229/479/232 230/480/232 227/474/232 
f 219/481/233 228/482/233 218/444/233 
f 215/434/233 218/444/233 228/482/233 
f 231/483/234 226/470/234 224/469/234 
f 135/228/113 224/458/113 221/450/113 
f 232/484/235 233/485/235 234/486/235 
f 222/487/236 210/423/236 211/422/236 
f 214/430/206 216/432/206 234/486/206 
f 222/487/237 211/422/237 182/488/237 
f 235/489/54 234/490/54 216/491/54 
f 152/455/238 223/454/238 151/492/238 
f 204/493/239 151/492/239 223/454/239 
f 220/448/224 226/462/224 236/494/224 
f 219/440/206 196/441/206 229/495/206 
f 216/496/232 227/474/232 230/480/232 
f 230/497/240 237/498/240 235/499/240 
f 230/497/241 236/500/241 237/498/241 
f 220/501/242 236/500/242 229/495/242 
f 220/501/206 229/495/206 196/441/206 
f 210/502/243 222/503/243 153/504/243 
f 235/489/54 216/491/54 230/505/54 
f 238/506/244 239/507/244 240/508/244 
f 240/509/245 241/510/245 238/511/245 
f 242/512/245 238/511/245 241/510/245 
f 192/384/246 173/323/246 160/322/246 
f 243/513/247 244/514/247 180/421/247 
f 197/402/248 180/421/248 244/514/248 
f 6/13/249 245/515/249 246/516/249 
f 244/517/250 247/518/250 198/519/250 
f 193/385/185 199/401/185 191/386/185 
f 10/14/251 6/13/251 246/516/251 
f 191/520/252 246/516/252 192/521/252 
f 247/522/253 10/14/253 198/523/253 
f 193/385/254 197/402/254 199/401/254 
f 248/524/255 10/14/255 247/522/255 
f 191/520/256 10/14/256 246/516/256 
f 191/520/257 199/525/257 10/14/257 
f 199/525/258 198/523/258 10/14/258 
f 171/526/152 159/324/152 173/323/152 
f 171/325/154 173/527/154 6/13/154 
f 245/515/154 6/13/154 173/527/154 
f 241/528/259 248/524/259 249/529/259 
f 248/524/260 247/522/260 249/529/260 
f 240/530/261 250/531/261 248/524/261 
f 239/507/244 250/532/244 240/508/244 
f 241/528/262 240/530/262 248/524/262 
f 12/533/263 10/14/263 248/524/263 
f 12/533/264 248/524/264 250/531/264 
f 239/507/265 16/534/265 250/532/265 
f 15/535/266 251/536/266 105/537/266 
f 16/534/265 12/538/265 250/532/265 
f 15/535/267 13/539/267 251/536/267 
f 251/536/268 252/540/268 105/537/268 
f 16/541/269 251/542/269 13/543/269 
f 16/541/269 239/544/269 251/542/269 
f 251/542/270 239/544/270 238/545/270 
f 53/546/271 253/547/271 254/548/271 
f 255/549/271 253/547/271 53/546/271 
f 256/550/271 253/547/271 255/549/271 
f 255/551/272 32/552/272 31/553/272 
f 255/551/272 31/553/272 256/554/272 
f 53/86/37 32/85/37 255/555/37 
f 229/495/273 236/500/273 230/497/273 
f 200/403/54 207/410/54 187/371/54 
f 257/556/54 187/371/54 207/410/54 
f 258/557/274 184/558/274 187/559/274 
f 184/558/275 258/557/275 185/560/275 
f 125/215/276 200/403/276 187/371/276 
f 259/561/54 260/562/54 259/561/54 
f 258/563/277 261/564/277 259/565/277 
f 257/556/278 258/563/278 187/371/278 
f 262/566/279 263/567/279 259/561/279 
f 263/567/280 259/561/280 259/561/280 
f 259/561/281 262/566/281 259/561/281 
f 259/568/54 259/568/54 261/569/54 
f 259/570/54 259/570/54 261/571/54 
f 259/572/113 259/572/113 261/573/113 
f 262/574/282 259/575/282 261/576/282 
f 233/577/283 264/578/283 214/435/283 
f 265/579/284 257/580/284 207/417/284 
f 257/580/285 265/579/285 261/581/285 
f 257/556/132 261/564/132 258/563/132 
f 217/433/283 214/435/283 264/578/283 
f 209/415/286 265/579/286 207/417/286 
f 209/426/54 213/428/54 265/582/54 
f 233/583/287 232/584/287 264/585/287 
f 265/579/288 266/586/288 261/581/288 
f 254/587/38 34/88/38 53/86/38 
f 267/588/289 35/589/289 34/88/289 
f 267/588/289 34/88/289 254/587/289 
f 268/590/290 261/581/290 266/586/290 
f 266/591/291 265/582/291 269/592/291 
f 263/567/292 260/562/292 259/561/292 
f 270/593/271 271/594/271 272/595/271 
f 52/596/293 272/595/293 253/547/293 
f 256/550/271 52/596/271 253/547/271 
f 271/594/271 253/547/271 272/595/271 
f 41/62/35 272/597/35 52/83/35 
f 31/553/294 28/84/294 256/554/294 
f 28/84/294 52/83/294 256/554/294 
f 41/598/113 57/599/113 272/600/113 
f 57/599/113 273/601/113 272/600/113 
f 258/557/295 259/561/295 260/562/295 
f 260/562/296 185/560/296 258/557/296 
f 183/365/297 185/367/297 260/602/297 
f 260/603/298 186/368/298 183/370/298 
f 260/603/299 263/604/299 186/368/299 
f 81/373/300 186/368/300 263/604/300 
f 264/605/301 269/606/301 213/438/301 
f 269/592/302 265/582/302 213/428/302 
f 217/437/303 264/605/303 213/438/303 
f 264/605/206 274/607/206 269/606/206 
f 189/608/304 134/360/304 85/362/304 
f 134/609/305 189/610/305 275/611/305 
f 275/611/306 135/612/306 134/609/306 
f 221/450/307 132/229/307 135/228/307 
f 276/613/308 277/614/308 231/483/308 
f 276/615/309 275/616/309 277/617/309 
f 276/615/310 135/228/310 275/616/310 
f 276/613/311 231/483/311 224/469/311 
f 276/615/113 224/458/113 135/228/113 
f 261/576/312 278/618/312 262/574/312 
f 261/581/290 268/590/290 277/614/290 
f 277/619/313 278/618/313 261/576/313 
f 277/619/314 275/620/314 278/618/314 
f 235/489/315 274/621/315 234/490/315 
f 232/584/287 274/622/287 264/585/287 
f 214/430/235 234/486/235 233/485/235 
f 268/590/316 231/483/316 277/614/316 
f 268/623/317 279/624/317 231/625/317 
f 266/626/318 269/627/318 268/628/318 
f 275/611/319 189/610/319 188/629/319 
f 278/630/320 275/611/320 188/629/320 
f 189/375/321 85/631/321 83/372/321 
f 188/629/322 263/567/322 262/566/322 
f 81/373/54 81/373/54 188/374/54 
f 188/629/323 262/566/323 278/630/323 
f 263/604/324 188/374/324 81/373/324 
f 274/607/235 235/499/235 237/498/235 
f 232/632/315 234/490/315 274/621/315 
f 279/633/325 274/607/325 237/498/325 
f 226/634/113 237/635/113 236/636/113 
f 279/633/206 269/606/206 274/607/206 
f 231/625/309 279/624/309 237/635/309 
f 269/627/318 279/637/318 268/628/318 
f 226/634/113 231/625/113 237/635/113 
f 280/638/29 47/73/29 29/72/29 
f 281/639/326 280/640/326 154/284/326 
f 58/102/327 48/101/327 281/639/327 
f 280/640/326 282/641/326 154/284/326 
f 280/640/328 281/639/328 47/642/328 
f 47/642/329 281/639/329 48/101/329 
f 271/643/330 283/644/330 253/645/330 
f 267/646/331 254/548/331 253/547/331 
f 36/647/332 35/589/332 267/588/332 
f 56/93/333 149/278/333 284/648/333 
f 54/649/334 253/547/334 43/650/334 
f 267/646/293 253/547/293 54/649/293 
f 54/651/332 36/647/332 267/588/332 
f 285/652/335 150/653/335 284/648/335 
f 44/654/331 43/650/331 253/547/331 
f 149/655/334 44/654/334 253/547/334 
f 150/653/336 56/93/336 284/648/336 
f 253/656/337 284/648/337 149/278/337 
f 46/69/338 282/657/338 18/70/338 
f 280/638/339 29/72/339 282/657/339 
f 18/70/339 282/657/339 29/72/339 
f 282/641/340 46/106/340 154/284/340 
f 270/658/341 286/659/341 271/643/341 
f 273/601/342 287/660/342 286/661/342 
f 270/662/113 272/600/113 286/661/113 
f 204/663/343 271/643/343 286/659/343 
f 288/664/344 156/316/344 169/315/344 
f 157/314/345 170/318/345 169/315/345 
f 151/665/342 286/661/342 174/666/342 
f 289/667/346 290/668/346 97/669/346 
f 290/670/347 93/671/347 97/672/347 
f 93/671/348 290/670/348 91/183/348 
f 94/673/349 91/674/349 290/675/349 
f 176/676/350 94/673/350 290/675/350 
f 168/677/351 175/342/351 176/344/351 
f 168/677/351 176/344/351 290/678/351 
f 168/312/147 290/679/147 165/313/147 
f 291/680/147 290/679/147 289/681/147 
f 291/680/147 165/313/147 290/679/147 
f 291/682/352 163/683/352 165/684/352 
f 58/685/353 292/686/353 57/687/353 
f 273/688/353 57/687/353 292/686/353 
f 202/689/181 204/407/181 205/408/181 
f 156/316/354 288/664/354 205/690/354 
f 205/690/355 161/691/355 156/316/355 
f 205/690/356 147/692/356 161/691/356 
f 273/601/113 286/661/113 272/600/113 
f 281/693/357 293/694/357 292/686/357 
f 58/685/358 281/693/358 292/686/358 
f 163/683/352 291/682/352 293/695/352 
f 293/695/54 281/696/54 163/683/54 
f 154/697/54 163/683/54 281/696/54 
f 101/698/359 99/699/359 294/700/359 
f 295/701/66 97/151/66 96/150/66 
f 289/702/360 294/703/360 296/704/360 
f 297/705/360 296/704/360 294/703/360 
f 295/706/346 289/667/346 97/669/346 
f 96/707/361 103/207/361 289/708/361 
f 295/709/362 96/707/362 289/708/362 
f 296/710/147 291/680/147 289/681/147 
f 291/711/363 296/712/363 292/686/363 
f 293/694/364 291/711/364 292/686/364 
f 273/688/365 296/712/365 287/713/365 
f 292/686/365 296/712/365 273/688/365 
f 298/714/366 299/715/366 300/716/366 
f 298/717/367 205/718/367 301/719/367 
f 288/664/54 302/720/54 205/690/54 
f 301/721/54 205/690/54 302/720/54 
f 174/666/342 286/661/342 287/660/342 
f 288/722/368 169/723/368 287/660/368 
f 287/660/368 302/724/368 288/722/368 
f 169/723/368 174/666/368 287/660/368 
f 170/725/369 174/666/369 169/723/369 
f 303/726/54 301/721/54 303/726/54 
f 299/715/370 301/727/370 303/728/370 
f 298/714/370 301/727/370 299/715/370 
f 304/729/54 303/729/54 301/721/54 
f 303/729/54 303/726/54 301/721/54 
f 301/721/54 302/720/54 304/729/54 
f 114/187/367 299/730/367 98/153/367 
f 296/712/367 303/731/367 303/731/367 
f 303/732/367 296/712/367 303/731/367 
f 287/713/367 296/712/367 302/732/367 
f 296/712/367 98/153/367 303/731/367 
f 303/731/367 98/153/367 299/730/367 
f 304/732/367 296/712/367 303/732/367 
f 302/732/367 296/712/367 304/732/367 
f 99/154/371 98/153/371 296/712/371 
f 297/733/371 99/154/371 296/712/371 
f 99/699/359 297/734/359 294/700/359 
f 101/160/372 294/735/372 289/736/372 
f 101/160/373 289/736/373 103/161/373 
f 180/421/374 202/405/374 243/513/374 
f 283/737/375 204/407/375 202/689/375 
f 305/738/376 201/420/376 210/419/376 
f 210/419/377 284/739/377 305/738/377 
f 306/740/378 305/738/378 284/739/378 
f 283/644/379 306/740/379 284/739/379 
f 284/739/380 253/645/380 283/644/380 
f 283/644/381 271/643/381 204/663/381 
f 286/741/238 151/492/238 204/493/238 
f 210/502/243 153/504/243 285/742/243 
f 284/739/382 210/419/382 285/743/382 
f 285/652/383 153/744/383 150/653/383 
f 242/512/384 249/745/384 307/746/384 
f 241/510/384 249/745/384 242/512/384 
f 308/747/385 307/748/385 309/749/385 
f 307/750/386 308/751/386 242/752/386 
f 252/753/386 242/752/386 308/751/386 
f 252/540/387 251/536/387 242/754/387 
f 238/545/388 242/755/388 251/542/388 
f 309/756/389 307/757/389 310/758/389 
f 307/759/390 311/760/390 310/761/390 
f 300/716/152 299/715/152 192/384/152 
f 198/400/391 197/402/391 244/514/391 
f 246/762/392 312/763/392 192/764/392 
f 106/765/393 107/766/393 309/749/393 
f 308/751/394 107/168/394 252/753/394 
f 105/166/394 252/753/394 107/168/394 
f 309/749/385 107/766/385 308/747/385 
f 309/756/395 310/758/395 313/767/395 
f 313/767/396 112/768/396 309/756/396 
f 314/769/397 313/770/397 310/761/397 
f 109/771/398 106/765/398 309/749/398 
f 112/768/399 109/772/399 309/756/399 
f 313/770/400 315/773/400 112/179/400 
f 202/689/181 305/774/181 306/775/181 
f 201/404/212 305/776/212 202/405/212 
f 306/775/181 283/737/181 202/689/181 
f 311/777/384 316/778/384 317/779/384 
f 249/745/384 316/778/384 307/746/384 
f 311/777/384 307/746/384 316/778/384 
f 316/780/401 249/781/401 247/518/401 
f 318/782/402 319/783/402 317/779/402 
f 311/777/402 317/779/402 319/783/402 
f 314/769/390 310/761/390 311/760/390 
f 320/784/403 321/785/403 298/786/403 
f 173/323/404 192/384/404 299/715/404 
f 202/787/367 205/718/367 298/717/367 
f 113/186/405 312/788/405 114/187/405 
f 321/785/406 243/513/406 202/405/406 
f 298/786/374 321/785/374 202/405/374 
f 316/780/401 247/518/401 322/789/401 
f 246/790/407 245/791/407 312/792/407 
f 114/793/407 312/792/407 245/791/407 
f 244/517/408 243/794/408 322/789/408 
f 322/789/392 247/518/392 244/517/392 
f 300/795/409 192/764/409 312/763/409 
f 321/796/410 322/789/410 243/794/410 
f 323/797/403 324/798/403 298/786/403 
f 324/798/403 320/784/403 298/786/403 
f 325/799/411 312/788/411 113/186/411 
f 326/800/412 298/714/412 300/716/412 
f 326/801/413 323/797/413 298/786/413 
f 325/799/414 316/802/414 322/803/414 
f 322/803/415 321/804/415 325/799/415 
f 321/804/416 320/805/416 325/799/416 
f 320/805/417 324/806/417 325/799/417 
f 324/806/418 323/807/418 325/799/418 
f 323/807/419 326/808/419 325/799/419 
f 300/809/420 312/788/420 326/808/420 
f 312/788/421 325/799/421 326/808/421 
f 114/793/422 173/810/422 299/811/422 
f 245/791/423 173/810/423 114/793/423 
f 325/799/424 317/812/424 316/802/424 
f 113/186/425 119/813/425 325/799/425 
f 327/814/426 325/799/426 119/813/426 
f 120/199/400 112/179/400 315/773/400 
f 315/773/397 313/770/397 314/769/397 
f 122/815/427 327/816/427 118/191/427 
f 119/192/427 118/191/427 327/816/427 
f 327/816/428 122/815/428 318/817/428 
f 319/818/428 318/817/428 122/815/428 
f 318/819/429 317/812/429 325/799/429 
f 325/799/429 327/814/429 318/819/429 
f 315/820/430 121/821/430 120/822/430 
f 315/820/431 314/823/431 121/821/431 
f 120/822/432 121/821/432 117/824/432 
f 311/825/433 319/826/433 121/201/433 
f 319/826/434 122/202/434 121/201/434 
f 314/823/435 311/827/435 121/821/435 
f 67/115/436 328/828/436 68/116/436 
f 60/259/437 138/237/437 76/296/437 
f 155/285/438 60/259/438 76/296/438 
f 76/296/439 138/237/439 127/216/439 
f 328/828/440 329/829/440 68/116/440 
f 330/830/440 329/829/440 328/828/440 
f 330/830/441 72/121/441 329/829/441 
f 330/830/436 70/122/436 72/121/436 
f 144/831/442 331/832/442 328/833/442 
f 329/834/443 72/251/443 129/250/443 
f 67/835/444 144/836/444 328/837/444 
f 144/836/444 67/835/444 145/838/444 
f 63/253/445 128/413/445 123/214/445 
f 123/214/446 129/219/446 63/253/446 
f 63/253/54 129/219/54 142/254/54 
f 139/463/447 66/265/447 131/264/447 
f 65/263/448 61/266/448 132/229/448 
f 65/263/449 132/229/449 131/264/449 
f 61/266/450 90/227/450 132/229/450 
f 330/839/451 328/833/451 331/832/451 
f 144/261/452 71/260/452 331/840/452 
f 331/840/453 71/260/453 330/830/453 
f 70/122/453 330/830/453 71/260/453 
f 66/841/116 139/271/116 63/270/116 
f 129/842/454 127/843/454 68/844/454 
f 68/844/454 329/845/454 129/842/454 
f 69/117/455 127/216/455 138/237/455 
f 127/216/456 69/117/456 68/116/456 
f 76/846/457 187/847/457 77/848/457 
f 184/366/173 183/365/173 77/364/173 
f 77/848/458 187/847/458 184/849/458 
f 125/215/54 76/296/54 127/216/54 
# 688 faces

