# 3ds Max Wavefront OBJ Exporter v0.99 - (c)2007 guruware
# File Created: 07.01.2025 12:59:03

#
# object CabezaBoss001
#

v  -0.1547 0.0366 -0.1039
v  -0.1547 0.0366 0.1581
v  -0.1547 0.1756 -0.1035
v  -0.1547 0.1756 0.1581
v  -0.1180 0.0366 -0.1532
v  0.1177 0.0366 -0.1532
v  -0.1177 0.1756 -0.1532
v  -0.0974 0.2526 -0.0263
v  -0.1310 0.1625 0.1938
v  -0.1301 0.1620 0.1939
v  -0.0820 0.2267 0.1939
v  -0.0824 0.2274 0.1938
v  -0.0974 0.2526 0.1581
v  -0.1273 0.1317 0.1259
v  -0.1259 0.1300 0.1259
v  -0.1273 0.1317 0.1544
v  -0.1081 0.1544 0.1544
v  -0.1092 0.1531 0.1265
v  -0.1301 0.1620 0.1258
v  -0.1301 0.1317 0.1258
v  -0.0820 0.2267 0.1258
v  -0.1081 0.1544 0.1265
v  -0.0595 0.1657 0.1277
v  -0.1301 0.0366 0.1258
v  -0.0746 0.0366 -0.0262
v  -0.0638 0.0366 -0.0475
v  -0.0783 0.0366 -0.0026
v  -0.0746 0.0366 0.0210
v  -0.1301 0.0366 0.1939
v  -0.1312 0.0362 0.1938
v  -0.1081 0.1089 0.1544
v  -0.1081 0.1089 0.1264
v  0.0430 -0.0493 -0.0644
v  0.0217 -0.0493 0.0700
v  0.0217 -0.0493 -0.0753
v  -0.0019 -0.0493 0.0738
v  -0.0019 -0.0493 -0.0790
v  0.0599 -0.0493 -0.0475
v  0.0707 -0.0493 -0.0262
v  0.0745 -0.0493 -0.0026
v  0.0707 -0.0493 0.0210
v  0.0599 -0.0493 0.0423
v  0.0430 -0.0493 0.0592
v  -0.0469 -0.0493 0.0592
v  -0.0638 -0.0493 0.0423
v  -0.0256 -0.0493 0.0700
v  -0.0746 -0.0493 0.0210
v  -0.0783 -0.0493 -0.0026
v  -0.0746 -0.0493 -0.0262
v  -0.0638 -0.0493 -0.0475
v  -0.0469 -0.0493 -0.0644
v  -0.0256 -0.0493 -0.0753
v  0.1544 0.1756 -0.1035
v  0.1544 0.1756 0.1581
v  0.1544 0.0366 0.1207
v  0.0970 0.2526 0.0543
v  0.0236 0.2526 0.0786
v  0.0970 0.2526 0.1581
v  0.0236 0.2526 0.1450
v  0.0820 0.2274 0.1938
v  0.1306 0.1625 0.1938
v  0.0816 0.2267 0.1939
v  0.1297 0.1620 0.1939
v  0.1077 0.1089 0.1544
v  0.1269 0.1317 0.1544
v  0.0763 0.1317 0.1544
v  0.1269 0.1317 0.1259
v  0.1255 0.1300 0.1259
v  0.1089 0.1531 0.1265
v  0.1077 0.1544 0.1544
v  0.1297 0.1317 0.1258
v  0.1224 0.1263 0.1258
v  0.1077 0.1544 0.1265
v  0.1297 0.1620 0.1258
v  0.1297 0.0366 0.1939
v  0.1544 0.0366 0.1581
v  0.0270 0.1869 0.1274
v  0.0265 0.1871 0.1544
v  0.0533 0.1772 0.1272
v  0.0591 0.1657 0.1277
v  0.0265 0.2107 0.1259
v  0.0816 0.2267 0.1258
v  0.0265 0.2107 0.1544
v  0.0020 0.2235 0.1259
v  -0.0002 0.2247 0.1544
v  -0.0002 0.1969 0.1544
v  -0.0002 0.1969 0.1694
v  -0.0269 0.2107 0.1544
v  0.0265 0.1876 0.1274
v  0.0265 0.1871 0.1274
v  0.0409 0.1666 0.1660
v  0.0533 0.1772 0.1694
v  0.0648 0.1544 0.1544
v  0.0648 0.1544 0.1277
v  0.0763 0.1317 0.1694
v  0.0648 0.1089 0.1544
v  0.0585 0.1317 0.1660
v  0.0409 0.0967 0.1509
v  0.0585 0.1317 0.1509
v  0.0533 0.0861 0.1694
v  0.0409 0.1666 0.1509
v  0.0292 0.1317 0.1711
v  -0.0002 0.1567 0.1711
v  0.1308 0.0362 0.1938
v  0.1297 0.0366 0.1258
v  0.1077 0.1089 0.1258
v  0.0986 0.1089 0.1258
v  0.0718 0.1089 0.1274
v  0.0648 0.1089 0.1276
v  0.0630 0.1054 0.1276
v  0.0533 0.0861 0.1266
v  0.0265 0.0562 0.1258
v  -0.0002 0.0665 0.1694
v  0.0265 0.0763 0.1544
v  -0.0002 0.0816 0.1509
v  0.0409 0.0967 0.1660
v  -0.0002 0.1067 0.1711
v  0.0270 0.0765 0.1274
v  0.0265 0.0758 0.1274
v  0.0265 0.0527 0.1544
v  0.0265 0.0763 0.1274
v  -0.0002 0.0665 0.1544
v  0.0265 0.0527 0.1258
v  0.0095 0.0437 0.1258
v  -0.0002 0.0366 0.1258
v  -0.0239 0.2526 0.0786
v  -0.0156 0.3945 -0.0499
v  -0.0002 0.2526 0.0786
v  0.0152 0.3945 -0.0499
v  -0.0239 0.2526 0.1450
v  -0.0156 0.3945 0.0165
v  -0.0002 0.2526 0.1559
v  -0.0002 0.2247 0.1259
v  -0.0024 0.2235 0.1259
v  -0.0002 0.2267 0.1258
v  -0.0269 0.1871 0.1544
v  -0.0269 0.2107 0.1259
v  -0.0269 0.1876 0.1274
v  -0.0536 0.1772 0.1272
v  -0.0269 0.1871 0.1274
v  -0.0274 0.1869 0.1274
v  -0.0536 0.1772 0.1694
v  -0.0002 0.1817 0.1660
v  -0.0002 0.1817 0.1509
v  -0.0412 0.1666 0.1660
v  -0.0412 0.1666 0.1509
v  -0.0589 0.1317 0.1509
v  -0.0652 0.1544 0.1544
v  -0.0767 0.1317 0.1694
v  -0.0589 0.1317 0.1660
v  -0.0296 0.1317 0.1711
v  -0.0002 0.1317 0.1769
v  -0.0767 0.1317 0.1544
v  -0.0652 0.1544 0.1277
v  -0.0412 0.0967 0.1660
v  -0.0412 0.0967 0.1509
v  -0.0019 0.0366 0.0738
v  0.0217 0.0366 0.0700
v  -0.0002 0.0816 0.1660
v  -0.0256 0.0366 0.0700
v  0.0020 0.0398 0.1259
v  -0.0002 0.0387 0.1544
v  -0.0002 0.0387 0.1259
v  -0.0269 0.0527 0.1266
v  -0.0269 0.0527 0.1544
v  -0.0269 0.0763 0.1544
v  -0.0269 0.0724 0.1277
v  -0.0269 0.0763 0.1278
v  -0.0536 0.0861 0.1694
v  -0.0536 0.0861 0.1278
v  -0.0652 0.1089 0.1544
v  -0.0545 0.0878 0.1279
v  -0.0722 0.1089 0.1274
v  -0.0652 0.1089 0.1276
v  -0.0634 0.1054 0.1276
v  -0.0469 0.0366 0.0592
v  0.1544 0.0366 -0.1039
v  0.1173 0.1756 -0.1532
v  0.0598 0.2526 -0.0763
v  0.0599 0.0366 0.0423
v  0.0707 0.0366 0.0210
v  0.0745 0.0366 -0.0026
v  0.0707 0.0366 -0.0262
v  -0.0256 0.0366 -0.0753
v  -0.0019 0.0366 -0.0790
v  -0.0602 0.2526 -0.0763
v  -0.0002 0.3945 0.0274
v  0.0152 0.3945 0.0165
v  0.0217 0.0366 -0.0753
v  -0.0469 0.0366 -0.0644
v  0.0430 0.0366 0.0592
v  0.0599 0.0366 -0.0475
v  0.0430 0.0366 -0.0644
v  -0.0638 0.0366 0.0423
# 194 vertices

vn -1.0000 0.0000 -0.0000
vn 0.0000 -1.0000 -0.0000
vn -0.8018 0.0017 -0.5975
vn -0.8020 0.0018 -0.5974
vn -0.8022 0.5971 -0.0000
vn -0.1395 0.1038 0.9848
vn -0.1343 0.0998 0.9859
vn -0.6401 0.4784 0.6011
vn -0.6396 0.4761 0.6035
vn -0.7657 -0.6432 -0.0000
vn -0.7647 0.6444 0.0000
vn -0.7647 0.6444 -0.0000
vn 1.0000 0.0000 -0.0000
vn -0.0354 0.0000 0.9994
vn -0.0349 0.0000 0.9994
vn 0.8024 -0.5968 -0.0000
vn -0.7643 0.6448 -0.0000
vn -0.0289 0.0141 0.9995
vn -0.0288 0.0146 0.9995
vn -0.0354 -0.0193 0.9992
vn 0.0036 -1.0000 -0.0000
vn 0.0000 -1.0000 0.0004
vn -0.0001 -1.0000 0.0003
vn 0.3848 -0.9230 -0.0000
vn -0.0049 -1.0000 -0.0065
vn -0.8345 0.0011 0.5510
vn -0.7653 -0.6437 0.0000
vn -0.7653 -0.6437 -0.0000
vn -0.0280 0.0000 0.9996
vn -0.0278 0.0000 0.9996
vn -0.1958 0.0003 0.9807
vn -0.1645 0.0000 0.9864
vn -0.8327 0.0000 0.5538
vn 0.0000 1.0000 -0.0000
vn 0.6397 0.4761 0.6034
vn 0.0000 0.8180 0.5752
vn 0.8022 0.5971 -0.0000
vn 0.6401 0.4784 0.6011
vn 0.1395 0.1038 0.9848
vn 0.0000 0.0000 1.0000
vn 0.7660 -0.6429 -0.0000
vn 0.7647 0.6443 0.0000
vn 0.7647 0.6443 -0.0000
vn 0.0354 -0.0193 0.9992
vn 0.7653 -0.6437 0.0001
vn 0.0599 -0.0819 0.9948
vn 0.7646 0.6445 -0.0000
vn 0.0354 0.0000 0.9994
vn 0.0349 0.0000 0.9994
vn 0.0289 0.0141 0.9995
vn -0.8024 -0.5968 -0.0000
vn 0.8327 0.0000 0.5537
vn 0.3451 0.9386 -0.0000
vn 0.0312 0.0625 0.9976
vn 0.0312 0.0626 0.9975
vn 0.0312 0.0626 0.9976
vn 0.1343 0.0998 0.9859
vn 0.4645 0.8856 -0.0000
vn 0.3450 0.9386 -0.0000
vn 0.3452 0.9385 -0.0000
vn 0.0211 0.0573 0.9981
vn 0.0310 0.0625 0.9976
vn 0.0319 0.0646 0.9974
vn -0.0813 -0.2210 0.9719
vn 0.3451 0.9386 0.0001
vn 0.8923 0.4514 -0.0000
vn 0.8924 0.4513 -0.0000
vn 0.0288 0.0146 0.9995
vn 0.0287 0.0145 0.9995
vn 0.8917 -0.4527 -0.0000
vn -0.1892 -0.0960 0.9772
vn 0.8913 0.4533 -0.0000
vn 0.8918 0.4524 -0.0019
vn -0.1897 -0.0960 0.9771
vn -0.8924 0.4512 -0.0000
vn -0.1892 0.0959 0.9772
vn -0.8922 -0.4517 -0.0000
vn 0.5446 0.2757 0.7921
vn 0.3297 0.3872 0.8610
vn 0.0148 -0.9999 -0.0000
vn -0.3998 -0.9069 -0.1333
vn -0.0036 -1.0000 -0.0000
vn 0.1957 0.0003 0.9807
vn 0.1643 0.0000 0.9864
vn 0.7653 -0.6436 0.0001
vn 0.8346 0.0012 0.5509
vn 0.7653 -0.6437 -0.0000
vn 0.8925 -0.4510 -0.0000
vn 0.8923 -0.4514 -0.0000
vn 0.8920 -0.4520 -0.0012
vn 0.0353 -0.0178 0.9992
vn 0.8923 -0.4514 0.0001
vn 0.0606 -0.0825 0.9947
vn 0.0604 -0.0826 0.9948
vn 0.0602 -0.0821 0.9948
vn 0.3451 -0.9386 0.0000
vn 0.3451 -0.9386 -0.0000
vn -0.3454 0.9384 -0.0000
vn -0.0813 0.2211 0.9719
vn -0.1898 0.0960 0.9771
vn 0.3294 -0.3869 0.8612
vn 0.5446 -0.2754 0.7922
vn 0.0618 -0.0868 0.9943
vn 0.3456 -0.9384 -0.0000
vn 0.0219 -0.0595 0.9980
vn 0.4644 -0.8856 -0.0000
vn 0.0601 -0.0823 0.9948
vn 0.0000 -0.6711 -0.7414
vn -0.9983 0.0586 -0.0000
vn -0.4645 0.8856 -0.0000
vn -0.4645 0.8856 0.0000
vn -0.0203 0.0551 0.9983
vn 0.0203 0.0551 0.9983
vn 0.0316 0.0634 0.9975
vn 0.0309 0.0623 0.9976
vn 0.0000 0.1830 0.9831
vn -0.0310 0.0625 0.9976
vn -0.0309 0.0623 0.9976
vn -0.0316 0.0634 0.9975
vn -0.3451 0.9386 0.0000
vn -0.3450 0.9386 -0.0000
vn -0.0210 0.0573 0.9981
vn -0.0312 0.0626 0.9975
vn -0.3451 0.9386 0.0001
vn -0.0815 -0.2213 0.9718
vn -0.3455 -0.9384 -0.0000
vn 0.0815 -0.2213 0.9718
vn 0.0813 -0.2210 0.9719
vn 0.3455 -0.9384 -0.0000
vn 0.2251 0.6115 0.7585
vn 0.8922 -0.4517 -0.0000
vn -0.8918 0.4524 -0.0020
vn 0.1892 -0.0960 0.9772
vn -0.3451 0.9386 -0.0000
vn -0.8924 0.4513 -0.0000
vn -0.0319 0.0646 0.9974
vn -0.1877 0.2205 0.9571
vn -0.3297 0.3872 0.8610
vn -0.2251 0.6115 0.7585
vn -0.1877 -0.2205 0.9571
vn 0.1877 0.2205 0.9571
vn -0.0312 0.0625 0.9976
vn -0.0287 0.0145 0.9995
vn 0.8924 0.4512 -0.0000
vn -0.8913 0.4534 -0.0000
vn -0.5446 0.2757 0.7921
vn -0.5446 -0.2754 0.7922
vn 0.1897 -0.0960 0.9771
vn 0.0001 -1.0000 0.0004
vn -0.2249 -0.6109 0.7591
vn 0.2249 -0.6109 0.7591
vn 0.1877 -0.2205 0.9571
vn -0.3294 -0.3869 0.8612
vn 0.3455 0.9384 -0.0000
vn -0.0815 0.2213 0.9718
vn -0.0001 -1.0000 0.0004
vn 0.4648 -0.8854 0.0001
vn 0.4645 -0.8856 -0.0001
vn -0.4645 -0.8856 -0.0000
vn 0.0180 -0.0544 0.9984
vn 0.0614 -0.0839 0.9946
vn 0.0005 -0.0544 0.9985
vn 0.0000 -0.0554 0.9985
vn 0.4643 -0.8857 -0.0000
vn -0.3451 -0.9386 -0.0000
vn -0.8917 -0.4527 -0.0000
vn -0.8920 -0.4520 -0.0013
vn -0.8923 -0.4514 -0.0000
vn 0.1892 0.0959 0.9772
vn -0.8928 -0.4504 -0.0000
vn 0.0815 0.2213 0.9718
vn 0.1898 0.0959 0.9771
vn 0.0813 0.2210 0.9719
vn -0.0099 -0.0267 0.9996
vn -0.0101 -0.0264 0.9996
vn -0.8926 -0.4508 -0.0000
vn -0.8923 -0.4515 0.0001
vn -0.0279 -0.0000 0.9996
vn -0.0279 -0.0001 0.9996
vn -0.0282 0.0002 0.9996
vn -0.0353 -0.0178 0.9992
vn 0.0000 -0.0552 0.9985
vn -0.0096 -0.0262 0.9996
vn 0.8018 0.0017 -0.5975
vn 0.8020 0.0018 -0.5974
vn 0.5143 0.7672 -0.3833
vn -0.0000 -1.0000 0.0004
vn 0.0001 -1.0000 0.0003
vn 0.0000 0.0000 -1.0000
vn 0.0000 -1.0000 0.0002
vn 0.0000 0.7067 -0.7075
vn 0.9983 0.0586 -0.0000
vn 0.4648 0.5943 0.6563
vn -0.3236 0.6351 0.7014
vn 0.3197 0.6461 0.6930
vn -0.4573 0.6114 0.6458
vn -0.5143 0.7672 -0.3833
vn -0.5144 0.7672 -0.3832
vn -0.1172 0.8751 -0.4696
vn 0.6537 0.7131 0.2532
vn -0.0000 -1.0000 0.0002
vn 0.0000 -1.0000 0.0003
vn -0.0000 -1.0000 0.0005
vn 0.4530 0.0000 0.8915
vn 0.7071 0.0000 0.7071
vn 0.8915 0.0000 0.4531
vn 0.9876 0.0000 -0.1570
vn 0.8915 0.0000 -0.4531
vn 0.0001 -1.0000 0.0006
vn 0.7071 0.0000 -0.7071
vn 0.0000 -1.0000 0.0005
vn 0.4530 0.0000 -0.8915
vn 0.1570 0.0000 0.9876
vn -0.0001 -1.0000 0.0006
vn -0.4530 0.0000 -0.8915
vn -0.7071 0.0000 -0.7071
vn -0.9876 0.0000 -0.1570
vn -0.9876 0.0000 0.1570
vn -0.0000 -1.0000 0.0003
vn -0.8915 0.0000 0.4531
vn -0.7071 0.0000 0.7071
vn -0.4530 0.0000 0.8915
vn -0.1570 0.0000 0.9876
vn 0.1570 0.0000 -0.9876
vn -0.1570 0.0000 -0.9876
vn 0.9876 0.0000 0.1570
vn -0.8915 0.0000 -0.4531
# 227 vertex normals

vt 0.3813 0.2515 0.0000
vt 0.4307 0.2515 0.0000
vt 0.3814 0.2777 0.0000
vt 0.4307 0.2777 0.0000
vt 0.5413 0.2561 0.0000
vt 0.5857 0.2561 0.0000
vt 0.5344 0.2654 0.0000
vt 0.3720 0.2777 0.0000
vt 0.3720 0.2515 0.0000
vt 0.3960 0.2922 0.0000
vt 0.4678 0.4678 0.0000
vt 0.4676 0.4679 0.0000
vt 0.4585 0.4556 0.0000
vt 0.4586 0.4555 0.0000
vt 0.4374 0.2752 0.0000
vt 0.4375 0.2875 0.0000
vt 0.4307 0.2922 0.0000
vt 0.7948 0.7338 0.0000
vt 0.7948 0.7341 0.0000
vt 0.7894 0.7338 0.0000
vt 0.7802 0.7455 0.0000
vt 0.7802 0.7419 0.0000
vt 0.7854 0.7421 0.0000
vt 0.7855 0.7455 0.0000
vt 0.3935 0.6029 0.0000
vt 0.3935 0.5900 0.0000
vt 0.3992 0.6029 0.0000
vt 0.5013 0.5158 0.0000
vt 0.5013 0.5163 0.0000
vt 0.4955 0.5158 0.0000
vt 0.4972 0.5197 0.0000
vt 0.3813 0.6029 0.0000
vt 0.7854 0.7419 0.0000
vt 0.4970 0.5200 0.0000
vt 0.4949 0.5291 0.0000
vt 0.5016 0.5166 0.0000
vt 0.3813 0.5900 0.0000
vt 0.5390 0.3087 0.0000
vt 0.5344 0.3148 0.0000
vt 0.5495 0.2800 0.0000
vt 0.5515 0.2760 0.0000
vt 0.5488 0.2845 0.0000
vt 0.5495 0.2889 0.0000
vt 0.5390 0.3215 0.0000
vt 0.5388 0.3215 0.0000
vt 0.4374 0.2514 0.0000
vt 0.7894 0.7374 0.0000
vt 0.7947 0.7374 0.0000
vt 0.5056 0.5200 0.0000
vt 0.5192 0.5158 0.0000
vt 0.4171 0.5900 0.0000
vt 0.4171 0.6029 0.0000
vt 0.4678 0.4916 0.0000
vt 0.4676 0.4915 0.0000
vt 0.6749 0.6175 0.0000
vt 0.6666 0.6417 0.0000
vt 0.6713 0.6148 0.0000
vt 0.6621 0.6416 0.0000
vt 0.6671 0.6133 0.0000
vt 0.6775 0.6211 0.0000
vt 0.6788 0.6255 0.0000
vt 0.6788 0.6300 0.0000
vt 0.6773 0.6342 0.0000
vt 0.6746 0.6378 0.0000
vt 0.6709 0.6404 0.0000
vt 0.6542 0.6375 0.0000
vt 0.6516 0.6338 0.0000
vt 0.6578 0.6402 0.0000
vt 0.6503 0.6295 0.0000
vt 0.6504 0.6250 0.0000
vt 0.6519 0.6207 0.0000
vt 0.6546 0.6171 0.0000
vt 0.6583 0.6145 0.0000
vt 0.6626 0.6132 0.0000
vt 0.4029 0.3860 0.0000
vt 0.4029 0.4353 0.0000
vt 0.3767 0.4283 0.0000
vt 0.4946 0.2881 0.0000
vt 0.4992 0.2743 0.0000
vt 0.5142 0.2881 0.0000
vt 0.5117 0.2743 0.0000
vt 0.4127 0.4421 0.0000
vt 0.4175 0.4353 0.0000
vt 0.5142 0.2514 0.0000
vt 0.5209 0.2543 0.0000
vt 0.4649 0.2989 0.0000
vt 0.5142 0.2989 0.0000
vt 0.4005 0.4421 0.0000
vt 0.4277 0.4556 0.0000
vt 0.4186 0.4679 0.0000
vt 0.4184 0.4678 0.0000
vt 0.7987 0.7374 0.0000
vt 0.8030 0.7338 0.0000
vt 0.8030 0.7433 0.0000
vt 0.8180 0.7455 0.0000
vt 0.8126 0.7455 0.0000
vt 0.8180 0.7452 0.0000
vt 0.8219 0.7338 0.0000
vt 0.8272 0.7372 0.0000
vt 0.8219 0.7374 0.0000
vt 0.8273 0.7338 0.0000
vt 0.5013 0.5648 0.0000
vt 0.5013 0.5643 0.0000
vt 0.5016 0.5640 0.0000
vt 0.8180 0.7446 0.0000
vt 0.5023 0.5634 0.0000
vt 0.8272 0.7374 0.0000
vt 0.4955 0.5648 0.0000
vt 0.4972 0.5609 0.0000
vt 0.4970 0.5606 0.0000
vt 0.4218 0.8162 0.0000
vt 0.3982 0.8162 0.0000
vt 0.4039 0.8034 0.0000
vt 0.3982 0.8034 0.0000
vt 0.3859 0.8162 0.0000
vt 0.3767 0.4353 0.0000
vt 0.4197 0.7185 0.0000
vt 0.4196 0.7134 0.0000
vt 0.4246 0.7186 0.0000
vt 0.4949 0.5515 0.0000
vt 0.4927 0.5504 0.0000
vt 0.4864 0.5453 0.0000
vt 0.3859 0.8034 0.0000
vt 0.4276 0.4555 0.0000
vt 0.8080 0.7206 0.0000
vt 0.8126 0.7152 0.0000
vt 0.8130 0.7206 0.0000
vt 0.8409 0.7152 0.0000
vt 0.8409 0.7205 0.0000
vt 0.8358 0.7179 0.0000
vt 0.4146 0.7134 0.0000
vt 0.4146 0.7106 0.0000
vt 0.8459 0.7179 0.0000
vt 0.6689 0.9332 0.0000
vt 0.6740 0.9333 0.0000
vt 0.6689 0.9377 0.0000
vt 0.6742 0.9377 0.0000
vt 0.6739 0.9332 0.0000
vt 0.4196 0.7185 0.0000
vt 0.4907 0.5453 0.0000
vt 0.4908 0.5453 0.0000
vt 0.4909 0.5454 0.0000
vt 0.8080 0.7153 0.0000
vt 0.3860 0.7913 0.0000
vt 0.3875 0.7940 0.0000
vt 0.3768 0.7940 0.0000
vt 0.4246 0.7106 0.0000
vt 0.8219 0.7455 0.0000
vt 0.8269 0.7455 0.0000
vt 0.6902 0.6910 0.0000
vt 0.6953 0.6931 0.0000
vt 0.6874 0.6953 0.0000
vt 0.6953 0.6910 0.0000
vt 0.6954 0.6953 0.0000
vt 0.4970 0.5525 0.0000
vt 0.8073 0.7374 0.0000
vt 0.8073 0.7455 0.0000
vt 0.6874 0.6867 0.0000
vt 0.6902 0.6824 0.0000
vt 0.6902 0.6867 0.0000
vt 0.3945 0.7874 0.0000
vt 0.3914 0.7862 0.0000
vt 0.7709 0.7060 0.0000
vt 0.7737 0.7126 0.0000
vt 0.7709 0.7126 0.0000
vt 0.3934 0.7778 0.0000
vt 0.7709 0.7191 0.0000
vt 0.7737 0.7191 0.0000
vt 0.3720 0.4853 0.0000
vt 0.3758 0.4853 0.0000
vt 0.3758 0.4919 0.0000
vt 0.7493 0.6942 0.0000
vt 0.7415 0.6923 0.0000
vt 0.7471 0.6876 0.0000
vt 0.5926 0.3148 0.0000
vt 0.5882 0.3215 0.0000
vt 0.5926 0.3077 0.0000
vt 0.5880 0.3215 0.0000
vt 0.5880 0.3087 0.0000
vt 0.4184 0.4916 0.0000
vt 0.4186 0.4915 0.0000
vt 0.8126 0.7419 0.0000
vt 0.4218 0.8034 0.0000
vt 0.3767 0.4421 0.0000
vt 0.8180 0.7419 0.0000
vt 0.8180 0.7402 0.0000
vt 0.5056 0.5606 0.0000
vt 0.5192 0.5648 0.0000
vt 0.5056 0.5589 0.0000
vt 0.7987 0.7455 0.0000
vt 0.8126 0.7338 0.0000
vt 0.8177 0.7351 0.0000
vt 0.8177 0.7338 0.0000
vt 0.6953 0.6824 0.0000
vt 0.6953 0.6818 0.0000
vt 0.6874 0.6781 0.0000
vt 0.6955 0.6781 0.0000
vt 0.5056 0.5539 0.0000
vt 0.5056 0.5525 0.0000
vt 0.5062 0.5522 0.0000
vt 0.5099 0.5504 0.0000
vt 0.5155 0.5453 0.0000
vt 0.3821 0.7106 0.0000
vt 0.3771 0.7134 0.0000
vt 0.3720 0.7106 0.0000
vt 0.3720 0.7187 0.0000
vt 0.7230 0.7134 0.0000
vt 0.7307 0.7106 0.0000
vt 0.7307 0.7134 0.0000
vt 0.3905 0.7789 0.0000
vt 0.3852 0.7709 0.0000
vt 0.7737 0.7060 0.0000
vt 0.7493 0.6810 0.0000
vt 0.7415 0.6829 0.0000
vt 0.3758 0.4787 0.0000
vt 0.5117 0.5454 0.0000
vt 0.5118 0.5453 0.0000
vt 0.9935 0.7199 0.0000
vt 0.9980 0.7199 0.0000
vt 0.9936 0.7250 0.0000
vt 0.9935 0.7250 0.0000
vt 0.8548 0.7205 0.0000
vt 0.8598 0.7179 0.0000
vt 0.8598 0.7223 0.0000
vt 0.3771 0.7185 0.0000
vt 0.3770 0.7185 0.0000
vt 0.3821 0.7134 0.0000
vt 0.5117 0.5453 0.0000
vt 0.9980 0.7253 0.0000
vt 0.9973 0.7253 0.0000
vt 0.8320 0.7206 0.0000
vt 0.8288 0.7152 0.0000
vt 0.8320 0.7152 0.0000
vt 0.5162 0.5453 0.0000
vt 0.5178 0.5421 0.0000
vt 0.5192 0.5403 0.0000
vt 0.7234 0.6639 0.0000
vt 0.6967 0.6623 0.0000
vt 0.7234 0.6594 0.0000
vt 0.6967 0.6565 0.0000
vt 0.4794 0.2514 0.0000
vt 0.4992 0.2653 0.0000
vt 0.3698 0.9829 0.0000
vt 0.3674 0.9469 0.0000
vt 0.3785 0.9739 0.0000
vt 0.5138 0.2698 0.0000
vt 0.5117 0.2653 0.0000
vt 0.8130 0.7152 0.0000
vt 0.8134 0.7152 0.0000
vt 0.8181 0.7206 0.0000
vt 0.9842 0.9177 0.0000
vt 0.9842 0.8868 0.0000
vt 0.9971 0.9023 0.0000
vt 0.9971 0.9177 0.0000
vt 0.4839 0.5399 0.0000
vt 0.4837 0.5403 0.0000
vt 0.4833 0.5403 0.0000
vt 0.4839 0.5407 0.0000
vt 0.4833 0.5557 0.0000
vt 0.9971 0.8868 0.0000
vt 0.5209 0.2853 0.0000
vt 0.4833 0.5249 0.0000
vt 0.8459 0.7223 0.0000
vt 0.8358 0.7223 0.0000
vt 0.8181 0.7153 0.0000
vt 0.4907 0.5353 0.0000
vt 0.4864 0.5353 0.0000
vt 0.4927 0.5302 0.0000
vt 0.1633 0.9332 0.0000
vt 0.1677 0.9335 0.0000
vt 0.1633 0.9386 0.0000
vt 0.1678 0.9386 0.0000
vt 0.1678 0.9335 0.0000
vt 0.4094 0.7185 0.0000
vt 0.4045 0.7186 0.0000
vt 0.4095 0.7134 0.0000
vt 0.4095 0.7185 0.0000
vt 0.4909 0.5352 0.0000
vt 0.4908 0.5353 0.0000
vt 0.4045 0.7106 0.0000
vt 0.3777 0.7913 0.0000
vt 0.6859 0.7134 0.0000
vt 0.6859 0.7106 0.0000
vt 0.6936 0.7134 0.0000
vt 0.3714 0.7860 0.0000
vt 0.3686 0.7871 0.0000
vt 0.6936 0.7106 0.0000
vt 0.6781 0.7134 0.0000
vt 0.7044 0.7144 0.0000
vt 0.6967 0.7106 0.0000
vt 0.7044 0.7106 0.0000
vt 0.6781 0.7106 0.0000
vt 0.7644 0.7284 0.0000
vt 0.7616 0.7284 0.0000
vt 0.7644 0.7218 0.0000
vt 0.6763 0.6824 0.0000
vt 0.6735 0.6867 0.0000
vt 0.6735 0.6781 0.0000
vt 0.3706 0.7787 0.0000
vt 0.3674 0.7775 0.0000
vt 0.6814 0.6803 0.0000
vt 0.6815 0.6781 0.0000
vt 0.7360 0.6876 0.0000
vt 0.7415 0.6876 0.0000
vt 0.7338 0.6942 0.0000
vt 0.7122 0.7106 0.0000
vt 0.7616 0.7218 0.0000
vt 0.9050 0.7826 0.0000
vt 0.9050 0.7731 0.0000
vt 0.9093 0.7790 0.0000
vt 0.7802 0.7338 0.0000
vt 0.7852 0.7338 0.0000
vt 0.6814 0.6824 0.0000
vt 0.4970 0.5281 0.0000
vt 0.7616 0.7152 0.0000
vt 0.7644 0.7152 0.0000
vt 0.6763 0.6867 0.0000
vt 0.9008 0.7790 0.0000
vt 0.9093 0.7709 0.0000
vt 0.7515 0.7384 0.0000
vt 0.7515 0.7450 0.0000
vt 0.7477 0.7450 0.0000
vt 0.7515 0.7516 0.0000
vt 0.5632 0.2989 0.0000
vt 0.5676 0.2982 0.0000
vt 0.5635 0.3087 0.0000
vt 0.7230 0.7106 0.0000
vt 0.7415 0.6781 0.0000
vt 0.7338 0.6810 0.0000
vt 0.7152 0.7134 0.0000
vt 0.3842 0.7736 0.0000
vt 0.5587 0.2982 0.0000
vt 0.8274 0.7153 0.0000
vt 0.8269 0.7206 0.0000
vt 0.8269 0.7153 0.0000
vt 0.8219 0.7154 0.0000
vt 0.6926 0.9332 0.0000
vt 0.6926 0.9377 0.0000
vt 0.6876 0.9369 0.0000
vt 0.5186 0.5407 0.0000
vt 0.5188 0.5403 0.0000
vt 0.6874 0.9332 0.0000
vt 0.5162 0.5353 0.0000
vt 0.5124 0.5353 0.0000
vt 0.6876 0.9377 0.0000
vt 0.8548 0.7152 0.0000
vt 0.8497 0.7179 0.0000
vt 0.8497 0.7223 0.0000
vt 0.8219 0.7206 0.0000
vt 0.3871 0.7134 0.0000
vt 0.3922 0.7106 0.0000
vt 0.3922 0.7184 0.0000
vt 0.6763 0.6910 0.0000
vt 0.6735 0.6953 0.0000
vt 0.9008 0.7709 0.0000
vt 0.6813 0.6950 0.0000
vt 0.3744 0.7709 0.0000
vt 0.7152 0.7106 0.0000
vt 0.3871 0.7184 0.0000
vt 0.7945 0.7442 0.0000
vt 0.6813 0.6953 0.0000
vt 0.3759 0.7736 0.0000
vt 0.5099 0.5302 0.0000
vt 0.5095 0.5301 0.0000
vt 0.7894 0.7455 0.0000
vt 0.7945 0.7455 0.0000
vt 0.6814 0.6910 0.0000
vt 0.6814 0.6917 0.0000
vt 0.5056 0.5267 0.0000
vt 0.5062 0.5284 0.0000
vt 0.5056 0.5281 0.0000
vt 0.5547 0.2961 0.0000
vt 0.5117 0.5353 0.0000
vt 0.3767 0.3859 0.0000
vt 0.5811 0.5535 0.0000
vt 0.5811 0.5797 0.0000
vt 0.5741 0.5535 0.0000
vt 0.5741 0.5797 0.0000
vt 0.4700 0.2811 0.0000
vt 0.4555 0.2919 0.0000
vt 0.5926 0.2654 0.0000
vt 0.5748 0.2929 0.0000
vt 0.5769 0.2889 0.0000
vt 0.5776 0.2845 0.0000
vt 0.5769 0.2800 0.0000
vt 0.5297 0.5797 0.0000
vt 0.5298 0.5535 0.0000
vt 0.5587 0.2708 0.0000
vt 0.5632 0.2701 0.0000
vt 0.5406 0.5390 0.0000
vt 0.4875 0.2669 0.0000
vt 0.4896 0.2698 0.0000
vt 0.4875 0.2727 0.0000
vt 0.4750 0.2727 0.0000
vt 0.4750 0.2669 0.0000
vt 0.3722 0.9267 0.0000
vt 0.3629 0.9183 0.0000
vt 0.3721 0.8906 0.0000
vt 0.4700 0.2585 0.0000
vt 0.5632 0.5390 0.0000
vt 0.3865 0.2922 0.0000
vt 0.3628 0.8822 0.0000
vt 0.4992 0.2698 0.0000
vt 0.3761 0.9379 0.0000
vt 0.7234 0.6549 0.0000
vt 0.5676 0.2708 0.0000
vt 0.5547 0.2728 0.0000
vt 0.5716 0.2961 0.0000
vt 0.7189 0.6943 0.0000
vt 0.7189 0.6781 0.0000
vt 0.7229 0.6943 0.0000
vt 0.5251 0.6626 0.0000
vt 0.5413 0.6626 0.0000
vt 0.5251 0.6658 0.0000
vt 0.5413 0.6658 0.0000
vt 0.5413 0.6586 0.0000
vt 0.5748 0.2760 0.0000
vt 0.5413 0.6541 0.0000
vt 0.5251 0.6541 0.0000
vt 0.5413 0.6497 0.0000
vt 0.5251 0.6497 0.0000
vt 0.5413 0.6457 0.0000
vt 0.5716 0.2728 0.0000
vt 0.4494 0.6364 0.0000
vt 0.4494 0.6526 0.0000
vt 0.4462 0.6364 0.0000
vt 0.4462 0.6526 0.0000
vt 0.4534 0.6364 0.0000
vt 0.4534 0.6526 0.0000
vt 0.7144 0.6781 0.0000
vt 0.4664 0.6526 0.0000
vt 0.4623 0.6526 0.0000
vt 0.4664 0.6364 0.0000
vt 0.4623 0.6364 0.0000
vt 0.4695 0.6364 0.0000
vt 0.5227 0.6573 0.0000
vt 0.5227 0.6618 0.0000
vt 0.5065 0.6573 0.0000
vt 0.5515 0.2929 0.0000
vt 0.5065 0.6529 0.0000
vt 0.5227 0.6489 0.0000
vt 0.5227 0.6529 0.0000
vt 0.5065 0.6489 0.0000
vt 0.5065 0.6457 0.0000
vt 0.7060 0.6781 0.0000
vt 0.7100 0.6781 0.0000
vt 0.7060 0.6943 0.0000
vt 0.7100 0.6943 0.0000
vt 0.7144 0.6943 0.0000
vt 0.4579 0.6526 0.0000
vt 0.4579 0.6364 0.0000
vt 0.7229 0.6781 0.0000
vt 0.5251 0.6586 0.0000
vt 0.5251 0.6457 0.0000
vt 0.4695 0.6526 0.0000
vt 0.5227 0.6658 0.0000
vt 0.5065 0.6618 0.0000
vt 0.5065 0.6658 0.0000
vt 0.5227 0.6457 0.0000
# 459 texture coords

o CabezaBoss001
g CabezaBoss001
s off
f 1/1/1 2/2/1 3/3/1 
f 4/4/1 3/3/1 2/2/1 
f 5/5/2 6/6/2 1/7/2 
f 1/1/3 3/3/3 7/8/3 
f 1/1/4 7/8/4 5/9/4 
f 3/3/5 4/4/5 8/10/5 
f 9/11/6 10/12/6 11/13/6 
f 9/11/7 11/13/7 12/14/7 
f 4/4/8 9/15/8 12/16/8 
f 4/4/9 12/16/9 13/17/9 
f 8/10/5 4/4/5 13/17/5 
f 14/18/10 15/19/10 16/20/10 
f 16/21/11 17/22/11 18/23/11 
f 16/21/12 18/23/12 14/24/12 
f 19/25/13 10/26/13 20/27/13 
f 20/28/14 14/29/14 19/30/14 
f 18/31/15 19/30/15 14/29/15 
f 21/32/16 10/26/16 19/25/16 
f 18/23/17 17/22/17 22/33/17 
f 19/30/18 18/31/18 22/34/18 
f 19/30/19 22/34/19 23/35/19 
f 20/28/20 15/36/20 14/29/20 
f 21/32/16 11/37/16 10/26/16 
f 24/38/21 2/39/21 1/7/21 
f 25/40/22 1/7/22 26/41/22 
f 24/38/22 1/7/22 27/42/22 
f 27/42/23 28/43/23 24/38/23 
f 29/44/24 30/45/24 24/38/24 
f 30/45/25 2/39/25 24/38/25 
f 2/2/26 30/46/26 9/15/26 
f 16/20/27 15/19/27 31/47/27 
f 32/48/28 31/47/28 15/19/28 
f 32/49/29 15/36/29 24/50/29 
f 20/28/30 24/50/30 15/36/30 
f 20/27/13 10/26/13 29/51/13 
f 20/27/13 29/51/13 24/52/13 
f 9/11/31 30/53/31 10/12/31 
f 29/54/32 10/12/32 30/53/32 
f 9/15/33 4/4/33 2/2/33 
f 33/55/2 34/56/2 35/57/2 
f 35/57/2 36/58/2 37/59/2 
f 38/60/2 39/61/2 33/55/2 
f 33/55/2 39/61/2 40/62/2 
f 33/55/2 40/62/2 41/63/2 
f 33/55/2 41/63/2 42/64/2 
f 33/55/2 42/64/2 43/65/2 
f 33/55/2 43/65/2 34/56/2 
f 44/66/2 45/67/2 46/68/2 
f 45/67/2 47/69/2 46/68/2 
f 36/58/2 46/68/2 47/69/2 
f 36/58/2 47/69/2 48/70/2 
f 36/58/2 48/70/2 49/71/2 
f 36/58/2 49/71/2 50/72/2 
f 36/58/2 50/72/2 51/73/2 
f 36/58/2 51/73/2 52/74/2 
f 34/56/2 36/58/2 35/57/2 
f 52/74/2 37/59/2 36/58/2 
f 53/75/13 54/76/13 55/77/13 
f 56/78/34 57/79/34 58/80/34 
f 57/79/34 59/81/34 58/80/34 
f 60/82/35 54/76/35 58/83/35 
f 13/84/36 12/85/36 58/80/36 
f 53/86/37 56/78/37 54/87/37 
f 60/82/38 61/88/38 54/76/38 
f 62/89/39 63/90/39 61/91/39 
f 64/92/40 65/93/40 66/94/40 
f 67/95/41 65/96/41 68/97/41 
f 65/98/42 69/99/42 70/100/42 
f 67/101/43 69/99/43 65/98/43 
f 71/102/44 67/103/44 68/104/44 
f 68/97/45 65/96/45 72/105/45 
f 68/104/46 72/106/46 71/102/46 
f 73/107/47 70/100/47 69/99/47 
f 71/102/48 74/108/48 67/103/48 
f 69/109/49 67/103/49 74/108/49 
f 74/108/50 73/110/50 69/109/50 
f 75/111/1 63/112/1 71/113/1 
f 74/114/1 71/113/1 63/112/1 
f 62/115/51 74/114/51 63/112/51 
f 61/88/52 76/116/52 54/76/52 
f 77/117/53 78/118/53 79/119/53 
f 80/120/54 74/108/54 79/121/54 
f 74/108/55 81/122/56 79/121/55 
f 62/115/51 82/123/51 74/114/51 
f 61/91/57 60/124/57 62/89/57 
f 83/125/58 84/126/58 85/127/58 
f 85/128/40 86/129/40 83/130/40 
f 86/131/59 87/132/59 78/118/59 
f 88/133/40 86/129/40 85/128/40 
f 78/134/13 89/135/13 83/136/13 
f 81/137/13 83/136/13 89/135/13 
f 90/138/13 89/135/13 78/134/13 
f 90/139/60 78/118/60 77/117/60 
f 89/140/61 90/141/61 77/142/61 
f 81/143/58 84/126/58 83/125/58 
f 89/140/62 79/121/62 81/122/62 
f 77/142/63 79/121/63 89/140/63 
f 91/144/64 92/145/64 87/146/64 
f 92/147/53 79/119/53 78/118/53 
f 92/147/65 78/118/65 87/132/65 
f 93/148/34 70/100/34 94/149/34 
f 93/150/66 80/151/66 92/152/66 
f 94/153/66 80/151/66 93/150/66 
f 73/107/34 94/149/34 70/100/34 
f 79/154/67 92/152/67 80/151/67 
f 74/108/68 80/120/68 73/110/68 
f 94/155/69 73/110/69 80/120/69 
f 70/156/40 93/157/40 66/94/40 
f 95/158/70 96/159/70 66/160/70 
f 95/161/71 92/145/71 97/162/71 
f 66/160/72 93/150/72 95/158/72 
f 95/158/73 93/150/73 92/152/73 
f 97/162/74 92/145/74 91/144/74 
f 98/163/75 97/164/75 99/165/75 
f 100/166/76 95/161/76 97/162/76 
f 101/167/77 99/165/77 91/168/77 
f 97/164/77 91/168/77 99/165/77 
f 102/169/78 99/170/78 101/171/78 
f 101/172/79 103/173/79 102/174/79 
f 76/175/80 104/176/80 55/177/80 
f 104/176/81 75/178/81 55/177/81 
f 75/178/82 105/179/82 55/177/82 
f 104/180/83 61/91/83 63/90/83 
f 63/90/84 75/181/84 104/180/84 
f 70/156/40 66/94/40 65/93/40 
f 65/96/85 64/182/85 72/105/85 
f 71/113/1 105/183/1 75/111/1 
f 76/116/86 61/88/86 104/184/86 
f 64/182/87 106/185/87 72/105/87 
f 64/182/2 107/186/2 106/185/2 
f 106/187/40 105/188/40 72/106/40 
f 71/102/40 72/106/40 105/188/40 
f 107/189/40 105/188/40 106/187/40 
f 64/92/40 66/94/40 96/190/40 
f 64/182/2 96/191/2 108/192/2 
f 109/193/2 108/192/2 96/191/2 
f 109/194/88 96/159/88 110/195/88 
f 100/196/89 111/197/89 96/159/89 
f 100/196/90 96/159/90 95/158/90 
f 108/198/91 109/199/91 110/200/91 
f 107/186/2 64/182/2 108/192/2 
f 110/195/92 96/159/92 111/197/92 
f 110/200/93 111/201/93 108/198/93 
f 112/202/94 107/189/94 111/201/94 
f 107/189/95 108/198/95 111/201/95 
f 112/202/40 105/188/40 107/189/40 
f 113/203/96 114/204/96 100/205/96 
f 100/205/97 114/204/97 111/206/97 
f 115/207/98 116/208/98 98/209/98 
f 116/210/99 113/211/99 100/166/99 
f 116/210/100 100/166/100 97/162/100 
f 116/212/75 97/164/75 98/163/75 
f 98/213/101 102/174/101 117/214/101 
f 98/215/102 99/170/102 102/169/102 
f 118/216/103 119/217/103 111/201/103 
f 114/218/13 120/219/13 119/220/13 
f 114/218/13 119/220/13 121/221/13 
f 122/222/40 120/223/40 114/224/40 
f 121/225/104 118/226/104 114/204/104 
f 118/226/97 111/206/97 114/204/97 
f 122/227/97 114/204/97 113/203/97 
f 118/216/105 121/228/105 119/217/105 
f 123/229/13 112/230/13 120/219/13 
f 119/220/13 120/219/13 112/230/13 
f 120/231/106 124/232/106 123/233/106 
f 112/202/107 111/201/107 119/217/107 
f 123/234/40 105/188/40 112/202/40 
f 123/234/40 124/235/40 105/188/40 
f 125/236/40 105/188/40 124/235/40 
f 126/237/108 127/238/108 128/239/108 
f 129/240/108 128/239/108 127/238/108 
f 8/241/34 13/84/34 126/242/34 
f 130/243/109 131/244/109 126/245/109 
f 59/81/34 132/246/34 58/80/34 
f 13/84/34 58/80/34 132/246/34 
f 132/246/34 130/247/34 13/84/34 
f 130/247/34 126/242/34 13/84/34 
f 85/127/110 133/248/110 134/249/110 
f 85/127/111 134/249/111 88/250/111 
f 62/251/2 11/252/2 135/253/2 
f 82/254/2 62/251/2 135/253/2 
f 134/255/112 133/256/112 135/257/112 
f 133/248/58 85/127/58 84/126/58 
f 133/256/113 84/258/113 135/257/113 
f 74/108/114 135/257/114 81/122/114 
f 84/258/115 81/122/115 135/257/115 
f 74/108/40 82/259/40 135/257/40 
f 60/124/116 12/14/116 62/89/116 
f 11/13/116 62/89/116 12/14/116 
f 135/253/2 11/252/2 21/260/2 
f 60/261/36 58/80/36 12/85/36 
f 135/257/40 21/262/40 19/30/40 
f 86/129/40 88/133/40 136/263/40 
f 78/264/40 83/130/40 86/129/40 
f 88/250/110 134/249/110 137/265/110 
f 138/266/117 137/267/117 139/268/117 
f 134/255/118 135/257/118 137/267/118 
f 19/30/119 137/267/119 135/257/119 
f 137/269/1 138/270/1 88/271/1 
f 136/272/1 138/270/1 140/273/1 
f 141/274/120 139/275/120 136/276/120 
f 140/277/121 141/274/121 136/276/121 
f 141/278/122 140/279/122 138/266/122 
f 136/272/1 88/271/1 138/270/1 
f 19/30/123 139/268/123 137/267/123 
f 86/131/121 136/276/121 87/132/121 
f 142/280/124 87/132/124 136/276/124 
f 91/144/125 87/146/125 143/281/125 
f 143/282/126 144/283/126 91/284/126 
f 145/285/127 143/281/127 87/146/127 
f 142/286/128 145/285/128 87/146/128 
f 101/287/126 91/284/126 144/283/126 
f 143/282/129 145/288/129 144/283/129 
f 103/289/130 101/290/130 144/291/130 
f 146/292/129 144/283/129 145/288/129 
f 146/293/131 145/294/131 147/295/131 
f 148/296/132 149/297/132 142/298/132 
f 150/299/133 142/286/133 149/300/133 
f 142/280/134 136/276/134 139/275/134 
f 23/301/135 142/298/135 139/302/135 
f 141/278/136 138/266/136 139/268/136 
f 151/303/137 152/304/137 103/173/137 
f 103/173/138 146/305/138 151/303/138 
f 103/289/139 144/291/139 146/306/139 
f 152/304/140 151/303/140 117/214/140 
f 103/173/141 152/304/141 102/174/141 
f 145/294/131 150/307/131 147/295/131 
f 16/308/40 153/309/40 17/310/40 
f 148/311/34 154/312/34 17/22/34 
f 148/296/135 142/298/135 23/301/135 
f 139/268/142 19/30/142 23/35/142 
f 22/33/34 17/22/34 154/312/34 
f 154/313/135 148/296/135 23/301/135 
f 154/314/143 23/35/143 22/34/143 
f 155/315/144 156/316/144 147/295/144 
f 149/297/145 148/296/145 153/317/145 
f 16/308/40 31/318/40 153/309/40 
f 148/319/40 17/310/40 153/309/40 
f 146/320/146 147/321/146 151/322/146 
f 156/323/147 151/322/147 147/321/147 
f 142/286/148 150/299/148 145/285/148 
f 157/324/149 158/325/149 125/326/149 
f 116/208/98 115/207/98 159/327/98 
f 115/328/150 117/214/150 156/329/150 
f 98/213/151 117/214/151 115/328/151 
f 102/174/152 152/304/152 117/214/152 
f 151/303/153 156/329/153 117/214/153 
f 115/207/154 156/330/154 159/327/154 
f 159/331/155 113/211/155 116/210/155 
f 125/326/156 160/332/156 157/324/156 
f 161/333/157 124/232/157 162/334/157 
f 120/231/158 162/334/158 124/232/158 
f 163/335/159 162/334/159 164/336/159 
f 165/337/1 166/338/1 167/339/1 
f 161/340/160 163/341/160 125/236/160 
f 125/236/161 124/235/161 161/340/161 
f 164/342/1 165/337/1 167/339/1 
f 164/343/162 125/236/162 163/341/162 
f 167/344/163 24/50/163 164/343/163 
f 167/339/1 166/338/1 168/345/1 
f 162/346/40 122/222/40 165/347/40 
f 120/223/40 122/222/40 162/346/40 
f 166/348/40 165/347/40 122/222/40 
f 163/335/164 161/333/164 162/334/164 
f 165/349/159 164/336/159 162/334/159 
f 122/227/165 113/203/165 166/350/165 
f 169/351/165 170/352/165 166/350/165 
f 169/351/165 166/350/165 113/203/165 
f 150/307/144 155/315/144 147/295/144 
f 149/297/166 153/317/166 171/353/166 
f 149/297/167 171/353/167 169/354/167 
f 171/355/40 153/309/40 31/318/40 
f 169/354/168 171/353/168 172/356/168 
f 149/300/169 169/357/169 150/299/169 
f 159/327/154 156/330/154 155/358/154 
f 168/359/165 166/350/165 170/352/165 
f 31/47/2 32/48/2 173/360/2 
f 170/361/170 169/354/170 172/356/170 
f 155/362/171 113/211/171 159/331/171 
f 150/299/172 169/357/172 155/362/172 
f 113/211/173 155/362/173 169/357/173 
f 24/50/174 167/344/174 170/363/174 
f 170/363/175 172/364/175 24/50/175 
f 171/365/2 31/47/2 173/360/2 
f 171/365/2 173/360/2 174/366/2 
f 174/367/176 175/368/176 171/353/176 
f 172/356/177 171/353/177 175/368/177 
f 173/369/178 32/49/178 24/50/178 
f 172/364/179 175/370/179 24/50/179 
f 173/369/180 24/50/180 175/370/180 
f 175/370/181 174/371/181 173/369/181 
f 24/38/22 176/372/22 160/332/22 
f 24/38/22 160/332/22 125/326/22 
f 125/236/182 164/343/182 24/50/182 
f 168/373/183 170/363/183 167/344/183 
f 55/77/13 177/374/13 53/75/13 
f 76/116/13 55/77/13 54/76/13 
f 53/375/184 177/376/184 178/377/184 
f 178/377/185 177/376/185 6/378/185 
f 179/379/186 53/86/186 178/380/186 
f 58/80/37 54/87/37 56/78/37 
f 105/179/82 177/381/82 55/177/82 
f 180/382/156 181/383/156 105/179/156 
f 177/381/187 105/179/187 182/384/187 
f 181/383/188 182/384/188 105/179/188 
f 182/384/23 183/385/23 177/381/23 
f 6/378/189 5/386/189 178/377/189 
f 7/387/189 178/377/189 5/386/189 
f 184/388/190 1/7/190 185/389/190 
f 177/381/2 1/7/2 6/6/2 
f 7/387/191 186/390/191 178/377/191 
f 131/391/34 187/392/34 188/393/34 
f 188/393/34 129/394/34 131/391/34 
f 131/391/34 129/394/34 127/395/34 
f 59/396/192 57/397/192 188/398/192 
f 188/393/193 187/392/193 132/246/193 
f 130/247/194 132/246/194 187/392/194 
f 188/393/195 132/246/195 59/81/195 
f 130/247/196 187/392/196 131/391/196 
f 8/241/34 126/242/34 186/399/34 
f 179/400/191 178/377/191 186/390/191 
f 7/8/197 3/3/197 186/401/197 
f 3/3/198 8/10/198 186/401/198 
f 129/402/192 188/398/192 57/397/192 
f 128/403/34 57/79/34 56/78/34 
f 53/86/199 128/403/199 56/78/199 
f 179/379/200 128/403/200 53/86/200 
f 127/404/109 126/245/109 131/244/109 
f 57/405/108 128/239/108 129/240/108 
f 179/379/34 186/399/34 128/403/34 
f 128/403/34 186/399/34 126/242/34 
f 185/389/201 177/381/201 189/406/201 
f 177/381/202 185/389/202 1/7/202 
f 184/388/203 190/407/203 1/7/203 
f 191/408/202 180/382/202 105/179/202 
f 158/325/187 191/408/187 105/179/187 
f 158/409/204 34/410/204 191/411/204 
f 42/412/205 180/413/205 43/414/205 
f 191/415/205 43/414/205 180/413/205 
f 42/412/206 181/416/206 180/413/206 
f 183/385/187 192/417/187 177/381/187 
f 182/418/207 40/419/207 183/420/207 
f 183/420/208 39/421/208 192/422/208 
f 193/423/209 177/381/209 192/417/209 
f 33/424/210 193/425/210 38/426/210 
f 192/427/210 38/426/210 193/425/210 
f 189/406/211 177/381/211 193/423/211 
f 33/424/212 35/428/212 189/429/212 
f 33/424/212 189/429/212 193/425/212 
f 105/179/22 125/326/22 158/325/22 
f 34/410/213 158/409/213 36/430/213 
f 26/41/214 1/7/214 190/407/214 
f 190/431/215 184/432/215 51/433/215 
f 52/434/215 51/433/215 184/432/215 
f 51/433/216 50/435/216 190/431/216 
f 27/42/188 1/7/188 25/40/188 
f 27/436/217 25/437/217 48/438/217 
f 28/43/149 194/439/149 24/38/149 
f 48/438/218 47/440/218 27/436/218 
f 176/372/219 24/38/219 194/439/219 
f 194/441/220 28/442/220 45/443/220 
f 45/443/221 44/444/221 194/441/221 
f 44/445/222 46/446/222 176/447/222 
f 160/448/223 46/446/223 36/430/223 
f 157/449/223 160/448/223 36/430/223 
f 189/429/224 35/428/224 185/450/224 
f 37/451/224 185/450/224 35/428/224 
f 184/432/225 185/450/225 52/434/225 
f 37/451/225 52/434/225 185/450/225 
f 157/449/213 36/430/213 158/409/213 
f 43/452/204 191/411/204 34/410/204 
f 181/416/206 42/412/206 41/453/206 
f 181/416/226 41/453/226 182/418/226 
f 40/419/226 182/418/226 41/453/226 
f 39/421/207 183/420/207 40/419/207 
f 192/422/208 39/421/208 38/454/208 
f 26/455/216 190/431/216 50/435/216 
f 25/437/227 26/456/227 49/457/227 
f 50/458/227 49/457/227 26/456/227 
f 25/437/217 49/457/217 48/438/217 
f 28/442/218 27/436/218 47/440/218 
f 28/442/220 47/440/220 45/443/220 
f 176/459/221 194/441/221 44/444/221 
f 160/448/222 176/447/222 46/446/222 
# 384 faces

