# 3ds Max Wavefront OBJ Exporter v0.99 - (c)2007 guruware
# File Created: 26.12.2024 18:31:33

#
# object Piernas
#

v  -0.1767 -0.9103 -0.1882
v  -0.1767 -0.9103 0.3957
v  -0.4747 -0.9103 0.3957
v  -0.4747 -0.9103 -0.1882
v  -0.1572 -0.1176 0.1447
v  -0.1358 0.1266 0.1234
v  -0.3597 0.1461 0.1216
v  -0.3812 -0.0981 0.1430
v  -0.1715 0.0928 0.0797
v  -0.1715 0.0778 -0.0911
v  -0.3163 0.0904 -0.0922
v  -0.3163 0.1054 0.0786
v  -0.1358 0.1036 -0.1400
v  -0.1572 -0.1406 -0.1186
v  -0.3812 -0.1211 -0.1203
v  -0.3597 0.1231 -0.1417
v  -0.1812 -0.1186 0.1093
v  -0.1812 -0.1355 -0.0836
v  -0.3572 -0.1033 0.1080
v  -0.3572 -0.1201 -0.0849
v  -0.2145 -0.7676 -0.1269
v  -0.2145 -0.7676 0.1485
v  -0.1767 -0.8621 0.3957
v  -0.1767 -0.8621 -0.1882
v  -0.4356 -0.7483 0.1485
v  -0.4356 -0.7483 -0.1269
v  -0.4747 -0.8621 -0.1882
v  -0.4747 -0.8621 0.3957
v  -0.1831 -0.4088 0.1991
v  -0.1831 -0.4088 -0.0763
v  -0.2057 -0.4067 -0.0387
v  -0.2057 -0.4067 0.1549
v  -0.4042 -0.3894 0.1991
v  -0.3816 -0.3913 0.1549
v  -0.4042 -0.3894 -0.0763
v  -0.3816 -0.3913 -0.0387
v  0.1768 -0.9103 -0.1882
v  0.4748 -0.9103 -0.1882
v  0.4748 -0.9103 0.3957
v  0.1768 -0.9103 0.3957
v  0.1573 -0.1176 0.1447
v  0.3813 -0.0981 0.1430
v  0.3598 0.1461 0.1216
v  0.1359 0.1266 0.1234
v  0.1716 0.0928 0.0797
v  0.3164 0.1054 0.0786
v  0.3164 0.0904 -0.0922
v  0.1716 0.0778 -0.0911
v  0.1359 0.1036 -0.1400
v  0.3598 0.1231 -0.1417
v  0.3813 -0.1211 -0.1203
v  0.1573 -0.1406 -0.1186
v  0.1813 -0.1355 -0.0836
v  0.1813 -0.1186 0.1093
v  0.3573 -0.1033 0.1080
v  0.3573 -0.1201 -0.0849
v  0.2146 -0.7676 -0.1269
v  0.1768 -0.8621 -0.1882
v  0.1768 -0.8621 0.3957
v  0.2146 -0.7676 0.1485
v  0.4357 -0.7483 0.1485
v  0.4748 -0.8621 0.3957
v  0.4748 -0.8621 -0.1882
v  0.4357 -0.7483 -0.1269
v  0.1832 -0.4088 0.1991
v  0.2058 -0.4067 0.1549
v  0.2058 -0.4067 -0.0387
v  0.1832 -0.4088 -0.0763
v  0.4043 -0.3894 0.1991
v  0.3817 -0.3913 0.1549
v  0.4043 -0.3894 -0.0763
v  0.3817 -0.3913 -0.0387
v  -0.1860 -0.0727 0.0941
v  -0.1860 -0.0876 -0.0766
v  0.1861 -0.0876 -0.0766
v  0.1861 -0.0727 0.0941
v  -0.1532 -0.0905 -0.0763
v  -0.1532 -0.0755 0.0944
v  -0.1358 0.1076 -0.0937
v  -0.3134 0.1231 -0.0950
v  -0.3134 0.1381 0.0757
v  -0.1358 0.1226 0.0770
v  0.1359 0.1226 0.0770
v  0.1533 -0.0755 0.0944
v  0.3135 0.1381 0.0757
v  0.3135 0.1231 -0.0950
v  0.1359 0.1076 -0.0937
v  0.1533 -0.0905 -0.0763
# 88 vertices

vn 0.0000 -1.0000 -0.0000
vn -0.0000 0.0872 0.9962
vn 0.0872 0.9924 -0.0869
vn 0.0871 0.9924 -0.0868
vn 0.0000 -0.0872 -0.9962
vn -0.0872 -0.9924 0.0868
vn -0.0871 -0.9924 0.0868
vn -0.9962 0.0868 -0.0076
vn 0.9287 0.3709 0.0000
vn -0.9459 0.3245 -0.0000
vn 1.0000 0.0000 0.0000
vn -0.0000 0.0000 1.0000
vn -1.0000 0.0000 -0.0000
vn 0.0000 0.0000 -1.0000
vn 0.0917 0.9958 0.0000
vn 0.0872 0.9962 0.0024
vn 0.0826 0.9966 0.0000
vn 0.0872 0.9962 -0.0028
vn 0.9962 -0.0872 0.0000
vn -0.0121 -0.1386 0.9903
vn -0.9962 0.0872 -0.0000
vn 0.0121 0.1386 -0.9903
vn 0.9964 -0.0846 0.0000
vn 0.9960 -0.0885 0.0077
vn 0.0140 0.1597 0.9871
vn 0.0060 0.1558 0.9878
vn -0.9960 0.0898 -0.0000
vn -0.9965 0.0834 -0.0073
vn -0.0142 -0.1619 -0.9867
vn -0.0071 -0.1674 -0.9859
vn 0.0788 0.9006 0.4274
vn -0.0000 0.9340 0.3572
vn 0.0488 0.5575 -0.8288
vn 0.0000 0.4744 -0.8803
vn -0.0871 0.9924 -0.0868
vn -0.0872 0.9924 -0.0869
vn 0.0871 -0.9924 0.0868
vn 0.0872 -0.9924 0.0868
vn 0.9962 0.0868 -0.0076
vn -0.9287 0.3709 -0.0000
vn 0.9459 0.3245 0.0000
vn -0.0917 0.9958 -0.0000
vn -0.0872 0.9962 0.0024
vn -0.0826 0.9966 -0.0000
vn -0.0872 0.9962 -0.0028
vn -0.9962 -0.0872 -0.0000
vn 0.0121 -0.1386 0.9903
vn 0.9962 0.0872 0.0000
vn -0.0121 0.1386 -0.9903
vn -0.9960 -0.0885 0.0077
vn -0.9964 -0.0846 -0.0000
vn -0.0061 0.1558 0.9878
vn -0.0140 0.1597 0.9871
vn 0.9965 0.0834 -0.0073
vn 0.9960 0.0898 0.0000
vn 0.0071 -0.1674 -0.9859
vn 0.0142 -0.1619 -0.9867
vn -0.0788 0.9006 0.4274
vn -0.0488 0.5575 -0.8288
vn 0.9962 -0.0868 0.0076
vn -0.9962 -0.0868 0.0076
vn 0.0872 0.9924 -0.0868
vn -0.0872 0.9924 -0.0868
# 63 vertex normals

vt 0.3137 0.3827 0.0000
vt 0.3137 0.5245 0.0000
vt 0.2413 0.5245 0.0000
vt 0.2413 0.3827 0.0000
vt 0.8643 0.2534 0.0000
vt 0.8049 0.2565 0.0000
vt 0.8020 0.2020 0.0000
vt 0.8615 0.1989 0.0000
vt 0.5664 0.3190 0.0000
vt 0.6080 0.3167 0.0000
vt 0.6099 0.3519 0.0000
vt 0.5684 0.3542 0.0000
vt 0.5665 0.1895 0.0000
vt 0.6258 0.1947 0.0000
vt 0.6210 0.2491 0.0000
vt 0.5617 0.2439 0.0000
vt 0.7669 0.4066 0.0000
vt 0.7669 0.4706 0.0000
vt 0.7610 0.4620 0.0000
vt 0.7610 0.4151 0.0000
vt 0.7125 0.4702 0.0000
vt 0.7183 0.4617 0.0000
vt 0.7125 0.4062 0.0000
vt 0.7183 0.4148 0.0000
vt 0.9292 0.6728 0.0000
vt 0.9348 0.6088 0.0000
vt 0.9942 0.6140 0.0000
vt 0.9886 0.6780 0.0000
vt 0.5436 0.7902 0.0000
vt 0.6105 0.7902 0.0000
vt 0.6705 0.8132 0.0000
vt 0.5287 0.8132 0.0000
vt 0.9551 0.2383 0.0000
vt 0.9551 0.1714 0.0000
vt 0.9828 0.1565 0.0000
vt 0.9828 0.2983 0.0000
vt 0.6705 0.8249 0.0000
vt 0.5287 0.8249 0.0000
vt 0.6936 0.7000 0.0000
vt 0.6936 0.6277 0.0000
vt 0.7053 0.6277 0.0000
vt 0.7053 0.7000 0.0000
vt 0.9945 0.1565 0.0000
vt 0.9945 0.2983 0.0000
vt 0.6394 0.6984 0.0000
vt 0.6394 0.7707 0.0000
vt 0.6277 0.7707 0.0000
vt 0.6277 0.6984 0.0000
vt 0.7181 0.1725 0.0000
vt 0.6512 0.1725 0.0000
vt 0.6604 0.1670 0.0000
vt 0.7074 0.1670 0.0000
vt 0.7181 0.1188 0.0000
vt 0.7074 0.1243 0.0000
vt 0.6512 0.1188 0.0000
vt 0.6604 0.1243 0.0000
vt 0.5559 0.7031 0.0000
vt 0.6228 0.7031 0.0000
vt 0.5637 0.5463 0.0000
vt 0.5099 0.5491 0.0000
vt 0.5052 0.4609 0.0000
vt 0.5590 0.4581 0.0000
vt 0.8680 0.2506 0.0000
vt 0.8680 0.1837 0.0000
vt 0.6623 0.7616 0.0000
vt 0.6670 0.7078 0.0000
vt 0.7542 0.7155 0.0000
vt 0.7495 0.7692 0.0000
vt 0.6888 0.6301 0.0000
vt 0.6900 0.7010 0.0000
vt 0.6434 0.6944 0.0000
vt 0.6418 0.6277 0.0000
vt 0.9198 0.4239 0.0000
vt 0.9909 0.4204 0.0000
vt 0.9931 0.4632 0.0000
vt 0.9221 0.4668 0.0000
vt 0.7354 0.5806 0.0000
vt 0.8013 0.5918 0.0000
vt 0.8013 0.6388 0.0000
vt 0.7313 0.6274 0.0000
vt 0.6520 0.5964 0.0000
vt 0.5853 0.5903 0.0000
vt 0.5890 0.5476 0.0000
vt 0.6558 0.5536 0.0000
vt 0.7876 0.6383 0.0000
vt 0.7882 0.6921 0.0000
vt 0.7219 0.7000 0.0000
vt 0.7236 0.6277 0.0000
vt 0.4533 0.6795 0.0000
vt 0.5257 0.6795 0.0000
vt 0.5257 0.8213 0.0000
vt 0.4533 0.8213 0.0000
vt 0.5648 0.1853 0.0000
vt 0.5600 0.2396 0.0000
vt 0.5005 0.2344 0.0000
vt 0.5052 0.1801 0.0000
vt 0.5117 0.3540 0.0000
vt 0.5099 0.3188 0.0000
vt 0.5515 0.3167 0.0000
vt 0.5532 0.3520 0.0000
vt 0.8143 0.3131 0.0000
vt 0.8114 0.2586 0.0000
vt 0.8709 0.2554 0.0000
vt 0.8737 0.3100 0.0000
vt 0.4136 0.2130 0.0000
vt 0.4051 0.2189 0.0000
vt 0.3583 0.2189 0.0000
vt 0.3497 0.2130 0.0000
vt 0.3586 0.2616 0.0000
vt 0.3501 0.2674 0.0000
vt 0.4054 0.2616 0.0000
vt 0.4140 0.2674 0.0000
vt 0.7863 0.5444 0.0000
vt 0.7832 0.4850 0.0000
vt 0.8473 0.4816 0.0000
vt 0.8504 0.5411 0.0000
vt 0.3513 0.5143 0.0000
vt 0.3284 0.5292 0.0000
vt 0.3284 0.3874 0.0000
vt 0.3513 0.4474 0.0000
vt 0.4268 0.6300 0.0000
vt 0.4868 0.6577 0.0000
vt 0.3450 0.6577 0.0000
vt 0.3599 0.6300 0.0000
vt 0.3167 0.5292 0.0000
vt 0.3167 0.3874 0.0000
vt 0.7078 0.6277 0.0000
vt 0.7195 0.6277 0.0000
vt 0.7195 0.7000 0.0000
vt 0.7078 0.7000 0.0000
vt 0.4868 0.6694 0.0000
vt 0.3450 0.6694 0.0000
vt 0.5163 0.0811 0.0000
vt 0.5280 0.0811 0.0000
vt 0.5280 0.1535 0.0000
vt 0.5163 0.1535 0.0000
vt 0.7888 0.1235 0.0000
vt 0.7781 0.1290 0.0000
vt 0.7310 0.1290 0.0000
vt 0.7219 0.1235 0.0000
vt 0.7888 0.1772 0.0000
vt 0.7781 0.1717 0.0000
vt 0.7219 0.1772 0.0000
vt 0.7310 0.1717 0.0000
vt 0.4385 0.4351 0.0000
vt 0.4385 0.5020 0.0000
vt 0.5949 0.0953 0.0000
vt 0.5872 0.1833 0.0000
vt 0.5334 0.1785 0.0000
vt 0.5412 0.0905 0.0000
vt 0.3722 0.5429 0.0000
vt 0.4390 0.5429 0.0000
vt 0.4934 0.1443 0.0000
vt 0.4062 0.1519 0.0000
vt 0.4015 0.0982 0.0000
vt 0.4887 0.0906 0.0000
vt 0.6560 0.6086 0.0000
vt 0.6600 0.5617 0.0000
vt 0.7259 0.5726 0.0000
vt 0.7259 0.6196 0.0000
vt 0.6421 0.1416 0.0000
vt 0.5994 0.1378 0.0000
vt 0.6055 0.0670 0.0000
vt 0.6482 0.0707 0.0000
vt 0.9198 0.4154 0.0000
vt 0.9239 0.3685 0.0000
vt 0.9948 0.3694 0.0000
vt 0.9866 0.4158 0.0000
vt 0.5900 0.3897 0.0000
vt 0.6328 0.3874 0.0000
vt 0.6365 0.4543 0.0000
vt 0.5937 0.4566 0.0000
vt 0.9260 0.4713 0.0000
vt 0.9907 0.4675 0.0000
vt 0.9849 0.5396 0.0000
vt 0.9198 0.5248 0.0000
vt 0.5052 0.2765 0.0000
vt 0.5467 0.2743 0.0000
vt 0.5489 0.3147 0.0000
vt 0.5073 0.3169 0.0000
vt 0.5558 0.2696 0.0000
vt 0.5973 0.2732 0.0000
vt 0.5938 0.3135 0.0000
vt 0.5523 0.3099 0.0000
vt 0.7060 0.4624 0.0000
vt 0.6418 0.4613 0.0000
vt 0.6533 0.4502 0.0000
vt 0.6949 0.4509 0.0000
vt 0.6428 0.4015 0.0000
vt 0.6541 0.4017 0.0000
vt 0.8234 0.4702 0.0000
vt 0.7690 0.4706 0.0000
vt 0.7803 0.4593 0.0000
vt 0.8234 0.4589 0.0000
vt 0.7690 0.4066 0.0000
vt 0.7803 0.4178 0.0000
vt 0.8234 0.4062 0.0000
vt 0.8234 0.4175 0.0000
vt 0.7070 0.4026 0.0000
vt 0.6957 0.4024 0.0000
vt 0.9888 0.6073 0.0000
vt 0.9292 0.6021 0.0000
vt 0.9302 0.5909 0.0000
vt 0.9785 0.5951 0.0000
vt 0.4251 0.2674 0.0000
vt 0.4255 0.2130 0.0000
vt 0.4366 0.2243 0.0000
vt 0.4363 0.2674 0.0000
vt 0.4894 0.2130 0.0000
vt 0.4781 0.2243 0.0000
vt 0.4890 0.2674 0.0000
vt 0.4778 0.2674 0.0000
vt 0.9349 0.5382 0.0000
vt 0.9944 0.5434 0.0000
vt 0.9822 0.5536 0.0000
vt 0.9339 0.5494 0.0000
vt 0.2923 0.2964 0.0000
vt 0.2508 0.2964 0.0000
vt 0.2507 0.2884 0.0000
vt 0.2922 0.2884 0.0000
vt 0.5711 0.0113 0.0000
vt 0.6194 0.0104 0.0000
vt 0.6116 0.0186 0.0000
vt 0.5713 0.0193 0.0000
vt 0.6202 0.0537 0.0000
vt 0.6122 0.0539 0.0000
vt 0.6646 0.3584 0.0000
vt 0.6230 0.3577 0.0000
vt 0.6231 0.3497 0.0000
vt 0.6647 0.3504 0.0000
vt 0.9151 0.6001 0.0000
vt 0.9189 0.5570 0.0000
vt 0.9261 0.5657 0.0000
vt 0.9231 0.6008 0.0000
vt 0.9672 0.5612 0.0000
vt 0.9665 0.5692 0.0000
vt 0.7380 0.3923 0.0000
vt 0.6897 0.3931 0.0000
vt 0.6975 0.3850 0.0000
vt 0.7378 0.3843 0.0000
vt 0.6889 0.3498 0.0000
vt 0.6969 0.3497 0.0000
vt 0.4533 0.2686 0.0000
vt 0.4570 0.2272 0.0000
vt 0.4650 0.2279 0.0000
vt 0.4613 0.2693 0.0000
vt 0.8350 0.4116 0.0000
vt 0.8313 0.4548 0.0000
vt 0.8240 0.4461 0.0000
vt 0.8271 0.4109 0.0000
vt 0.7832 0.4505 0.0000
vt 0.7839 0.4426 0.0000
vt 0.3914 0.2776 0.0000
vt 0.3498 0.2782 0.0000
vt 0.3497 0.2702 0.0000
vt 0.3913 0.2696 0.0000
# 256 texture coords

o Piernas
g Piernas
s off
f 1/1/1 2/2/1 3/3/1 
f 3/3/1 4/4/1 1/1/1 
f 5/5/2 6/6/2 7/7/2 
f 7/7/2 8/8/2 5/5/2 
f 9/9/3 10/10/3 11/11/3 
f 11/11/4 12/12/4 9/9/4 
f 13/13/5 14/14/5 15/15/5 
f 15/15/5 16/16/5 13/13/5 
f 14/17/6 5/18/6 17/19/6 
f 17/19/7 18/20/7 14/17/7 
f 5/18/6 8/21/6 19/22/6 
f 19/22/6 17/19/6 5/18/6 
f 8/21/6 15/23/6 20/24/6 
f 20/24/7 19/22/7 8/21/7 
f 15/23/6 14/17/6 18/20/6 
f 18/20/6 20/24/6 15/23/6 
f 7/25/8 16/26/8 15/27/8 
f 15/27/8 8/28/8 7/25/8 
f 21/29/9 22/30/9 23/31/9 
f 23/31/9 24/32/9 21/29/9 
f 25/33/10 26/34/10 27/35/10 
f 27/35/10 28/36/10 25/33/10 
f 24/32/11 23/31/11 2/37/11 
f 2/37/11 1/38/11 24/32/11 
f 23/39/12 28/40/12 3/41/12 
f 3/41/12 2/42/12 23/39/12 
f 28/36/13 27/35/13 4/43/13 
f 4/43/13 3/44/13 28/36/13 
f 27/45/14 24/46/14 1/47/14 
f 1/47/14 4/48/14 27/45/14 
f 29/49/15 30/50/15 31/51/15 
f 31/51/15 32/52/15 29/49/15 
f 33/53/16 29/49/16 32/52/16 
f 32/52/16 34/54/16 33/53/16 
f 35/55/17 33/53/17 34/54/17 
f 34/54/17 36/56/17 35/55/17 
f 30/50/18 35/55/18 36/56/18 
f 36/56/18 31/51/18 30/50/18 
f 22/30/19 21/29/19 30/57/19 
f 30/57/19 29/58/19 22/30/19 
f 25/59/20 22/60/20 29/61/20 
f 29/61/20 33/62/20 25/59/20 
f 26/34/21 25/33/21 33/63/21 
f 33/63/21 35/64/21 26/34/21 
f 21/65/22 26/66/22 35/67/22 
f 35/67/22 30/68/22 21/65/22 
f 17/69/23 32/70/23 31/71/23 
f 31/71/24 18/72/24 17/69/24 
f 19/73/25 34/74/25 32/75/25 
f 32/75/26 17/76/26 19/73/26 
f 20/77/27 36/78/27 34/79/27 
f 34/79/28 19/80/28 20/77/28 
f 18/81/29 31/82/29 36/83/29 
f 36/83/30 20/84/30 18/81/30 
f 22/85/31 25/86/31 28/87/31 
f 28/87/32 23/88/32 22/85/32 
f 26/66/33 21/65/33 24/46/33 
f 24/46/34 27/45/34 26/66/34 
f 37/89/1 38/90/1 39/91/1 
f 39/91/1 40/92/1 37/89/1 
f 41/93/2 42/94/2 43/95/2 
f 43/95/2 44/96/2 41/93/2 
f 45/97/35 46/98/35 47/99/35 
f 47/99/36 48/100/36 45/97/36 
f 49/101/5 50/102/5 51/103/5 
f 51/103/5 52/104/5 49/101/5 
f 52/105/37 53/106/37 54/107/37 
f 54/107/38 41/108/38 52/105/38 
f 41/108/38 54/107/38 55/109/38 
f 55/109/38 42/110/38 41/108/38 
f 42/110/37 55/109/37 56/111/37 
f 56/111/38 51/112/38 42/110/38 
f 51/112/38 56/111/38 53/106/38 
f 53/106/38 52/105/38 51/112/38 
f 43/113/39 42/114/39 51/115/39 
f 51/115/39 50/116/39 43/113/39 
f 57/117/40 58/118/40 59/119/40 
f 59/119/40 60/120/40 57/117/40 
f 61/121/41 62/122/41 63/123/41 
f 63/123/41 64/124/41 61/121/41 
f 58/118/13 37/125/13 40/126/13 
f 40/126/13 59/119/13 58/118/13 
f 59/127/12 40/128/12 39/129/12 
f 39/129/12 62/130/12 59/127/12 
f 62/122/11 39/131/11 38/132/11 
f 38/132/11 63/123/11 62/122/11 
f 63/133/14 38/134/14 37/135/14 
f 37/135/14 58/136/14 63/133/14 
f 65/137/42 66/138/42 67/139/42 
f 67/139/42 68/140/42 65/137/42 
f 69/141/43 70/142/43 66/138/43 
f 66/138/43 65/137/43 69/141/43 
f 71/143/44 72/144/44 70/142/44 
f 70/142/44 69/141/44 71/143/44 
f 68/140/45 67/139/45 72/144/45 
f 72/144/45 71/143/45 68/140/45 
f 60/120/46 65/145/46 68/146/46 
f 68/146/46 57/117/46 60/120/46 
f 61/147/47 69/148/47 65/149/47 
f 65/149/47 60/150/47 61/147/47 
f 64/124/48 71/151/48 69/152/48 
f 69/152/48 61/121/48 64/124/48 
f 57/153/49 68/154/49 71/155/49 
f 71/155/49 64/156/49 57/153/49 
f 54/157/50 53/158/50 67/159/50 
f 67/159/51 66/160/51 54/157/51 
f 55/161/52 54/162/52 66/163/52 
f 66/163/53 70/164/53 55/161/53 
f 56/165/54 55/166/54 70/167/54 
f 70/167/55 72/168/55 56/165/55 
f 53/169/56 56/170/56 72/171/56 
f 72/171/57 67/172/57 53/169/57 
f 60/173/32 59/174/32 62/175/32 
f 62/175/58 61/176/58 60/173/58 
f 64/156/34 63/133/34 58/136/34 
f 58/136/59 57/153/59 64/156/59 
f 73/177/60 74/178/60 10/179/60 
f 10/179/60 9/180/60 73/177/60 
f 75/181/61 76/182/61 45/183/61 
f 45/183/61 48/184/61 75/181/61 
f 5/185/60 14/186/60 77/187/60 
f 77/187/60 78/188/60 5/185/60 
f 14/186/60 13/189/60 79/190/60 
f 79/190/60 77/187/60 14/186/60 
f 13/191/62 16/192/62 80/193/62 
f 80/193/62 79/194/62 13/191/62 
f 16/192/62 7/195/62 81/196/62 
f 81/196/62 80/193/62 16/192/62 
f 7/195/62 6/197/62 82/198/62 
f 82/198/62 81/196/62 7/195/62 
f 6/199/60 5/185/60 78/188/60 
f 78/188/60 82/200/60 6/199/60 
f 41/201/61 44/202/61 83/203/61 
f 83/203/61 84/204/61 41/201/61 
f 44/205/63 43/206/63 85/207/63 
f 85/207/63 83/208/63 44/205/63 
f 43/206/63 50/209/63 86/210/63 
f 86/210/63 85/207/63 43/206/63 
f 50/209/63 49/211/63 87/212/63 
f 87/212/63 86/210/63 50/209/63 
f 49/213/61 52/214/61 88/215/61 
f 88/215/61 87/216/61 49/213/61 
f 52/214/61 41/201/61 84/204/61 
f 84/204/61 88/215/61 52/214/61 
f 78/217/62 77/218/62 74/219/62 
f 74/219/62 73/220/62 78/217/62 
f 77/221/2 79/222/2 10/223/2 
f 10/223/2 74/224/2 77/221/2 
f 79/222/2 80/225/2 11/226/2 
f 11/226/2 10/223/2 79/222/2 
f 80/227/60 81/228/60 12/229/60 
f 12/229/60 11/230/60 80/227/60 
f 81/231/5 82/232/5 9/233/5 
f 9/233/5 12/234/5 81/231/5 
f 82/232/5 78/235/5 73/236/5 
f 73/236/5 9/233/5 82/232/5 
f 84/237/5 83/238/5 45/239/5 
f 45/239/5 76/240/5 84/237/5 
f 83/238/5 85/241/5 46/242/5 
f 46/242/5 45/239/5 83/238/5 
f 85/243/61 86/244/61 47/245/61 
f 47/245/61 46/246/61 85/243/61 
f 86/247/2 87/248/2 48/249/2 
f 48/249/2 47/250/2 86/247/2 
f 87/248/2 88/251/2 75/252/2 
f 75/252/2 48/249/2 87/248/2 
f 88/253/63 84/254/63 76/255/63 
f 76/255/63 75/256/63 88/253/63 
# 168 faces

