# 3ds Max Wavefront OBJ Exporter v0.99 - (c)2007 guruware
# File Created: 26.12.2024 18:32:53

#
# object BrazoIzquierdo
#

v  0.1441 0.0904 0.1787
v  0.1448 -0.1766 0.0846
v  0.1443 -0.0860 -0.1724
v  0.1437 0.1811 -0.0782
v  0.1203 -0.0934 0.8730
v  -0.0921 -0.0940 0.8731
v  -0.0876 -0.2899 0.8863
v  0.1248 -0.2894 0.8861
v  -0.1392 0.0897 0.1790
v  -0.1397 0.1803 -0.0780
v  -0.0988 0.1208 -0.0558
v  0.0951 0.1214 -0.0560
v  0.0955 -0.0537 -0.1177
v  -0.0983 -0.0542 -0.1176
v  -0.1391 -0.0868 -0.1722
v  -0.1386 -0.1774 0.0848
v  -0.1032 -0.1439 0.0966
v  -0.1037 0.0563 0.1672
v  0.1088 0.0569 0.1670
v  0.1093 -0.1433 0.0964
v  -0.1025 -0.3174 0.4026
v  -0.1030 -0.1171 0.4732
v  0.1094 -0.1165 0.4731
v  0.1099 -0.3168 0.4025
v  -0.0980 -0.1151 0.0550
v  -0.0985 0.0600 0.1167
v  0.0954 -0.0401 -0.1562
v  0.0950 0.1349 -0.0944
v  -0.1392 -0.0408 -0.1560
v  -0.1388 -0.1152 0.0550
v  -0.1392 0.0599 0.1168
v  -0.1396 0.1343 -0.0942
# 32 vertices

vn 1.0000 0.0028 -0.0008
vn 0.0006 0.0672 0.9977
vn -0.0023 0.9431 0.3326
vn -0.0017 0.3326 -0.9431
vn 0.0023 -0.9431 -0.3326
vn 0.0017 -0.3326 0.9431
vn -1.0000 -0.0027 0.0007
vn -0.0020 0.8700 0.4931
vn 1.0000 0.0027 -0.0007
vn 0.0020 -0.8700 -0.4931
vn -1.0000 -0.0028 0.0008
vn 0.0028 -0.9984 0.0565
vn -0.0028 0.9983 -0.0578
vn -0.9993 -0.0208 0.0319
vn -0.9995 -0.0123 0.0279
vn 0.9994 0.0210 -0.0284
vn 0.9994 0.0136 -0.0315
# 17 vertex normals

vt 0.5861 0.3786 0.0000
vt 0.5855 0.4474 0.0000
vt 0.5193 0.4467 0.0000
vt 0.5200 0.3780 0.0000
vt 0.7701 0.3450 0.0000
vt 0.8217 0.3451 0.0000
vt 0.8206 0.3891 0.0000
vt 0.7690 0.3890 0.0000
vt 0.8067 0.6258 0.0000
vt 0.8068 0.5570 0.0000
vt 0.8730 0.5571 0.0000
vt 0.8729 0.6259 0.0000
vt 0.6088 0.2556 0.0000
vt 0.6559 0.2554 0.0000
vt 0.6560 0.3005 0.0000
vt 0.6089 0.3006 0.0000
vt 0.7787 0.4910 0.0000
vt 0.7788 0.5599 0.0000
vt 0.7126 0.5600 0.0000
vt 0.7125 0.4911 0.0000
vt 0.8067 0.7059 0.0000
vt 0.8154 0.6973 0.0000
vt 0.8669 0.6975 0.0000
vt 0.8755 0.7061 0.0000
vt 0.8670 0.6459 0.0000
vt 0.8757 0.6373 0.0000
vt 0.8155 0.6457 0.0000
vt 0.8069 0.6371 0.0000
vt 0.8020 0.0781 0.0000
vt 0.8860 0.0623 0.0000
vt 0.8865 0.1138 0.0000
vt 0.8025 0.1296 0.0000
vt 0.3400 0.2486 0.0000
vt 0.2560 0.2484 0.0000
vt 0.2561 0.1968 0.0000
vt 0.3400 0.1970 0.0000
vt 0.5999 0.0909 0.0000
vt 0.5181 0.0664 0.0000
vt 0.5240 0.0151 0.0000
vt 0.6058 0.0396 0.0000
vt 0.9903 0.0602 0.0000
vt 0.9064 0.0575 0.0000
vt 0.9081 0.0059 0.0000
vt 0.9920 0.0087 0.0000
vt 0.6135 0.3030 0.0000
vt 0.6586 0.3026 0.0000
vt 0.6591 0.3470 0.0000
vt 0.6140 0.3474 0.0000
vt 0.7060 0.5410 0.0000
vt 0.6373 0.5412 0.0000
vt 0.6491 0.5293 0.0000
vt 0.6942 0.5292 0.0000
vt 0.6371 0.4723 0.0000
vt 0.6489 0.4723 0.0000
vt 0.6333 0.5363 0.0000
vt 0.5671 0.5369 0.0000
vt 0.5788 0.5249 0.0000
vt 0.6331 0.5244 0.0000
vt 0.5664 0.4681 0.0000
vt 0.5784 0.4798 0.0000
vt 0.6326 0.4675 0.0000
vt 0.6327 0.4793 0.0000
vt 0.7059 0.4722 0.0000
vt 0.6940 0.4722 0.0000
vt 0.5456 0.2512 0.0000
vt 0.5006 0.2516 0.0000
vt 0.5005 0.2417 0.0000
vt 0.5455 0.2413 0.0000
vt 0.7408 0.2884 0.0000
vt 0.7978 0.2885 0.0000
vt 0.7878 0.2984 0.0000
vt 0.7408 0.2983 0.0000
vt 0.7977 0.3429 0.0000
vt 0.7878 0.3428 0.0000
vt 0.5005 0.2555 0.0000
vt 0.5455 0.2554 0.0000
vt 0.5456 0.2653 0.0000
vt 0.5005 0.2654 0.0000
vt 0.9366 0.7034 0.0000
vt 0.8822 0.7035 0.0000
vt 0.8921 0.6936 0.0000
vt 0.9365 0.6935 0.0000
vt 0.8821 0.6465 0.0000
vt 0.8920 0.6465 0.0000
vt 0.7973 0.0573 0.0000
vt 0.7990 0.0057 0.0000
vt 0.1659 0.2458 0.0000
vt 0.1660 0.1942 0.0000
vt 0.9950 0.1066 0.0000
vt 0.9766 0.1506 0.0000
vt 0.4247 0.0935 0.0000
vt 0.4109 0.0478 0.0000
# 92 texture coords

o BrazoIzquierdo
g BrazoIzquierdo
s off
f 1/1/1 2/2/1 3/3/1 
f 3/3/1 4/4/1 1/1/1 
f 5/5/2 6/6/2 7/7/2 
f 7/7/2 8/8/2 5/5/2 
f 9/9/3 1/10/3 4/11/3 
f 4/11/3 10/12/3 9/9/3 
f 11/13/4 12/14/4 13/15/4 
f 13/15/4 14/16/4 11/13/4 
f 15/17/5 3/18/5 2/19/5 
f 2/19/5 16/20/5 15/17/5 
f 16/21/6 17/22/6 18/23/6 
f 18/23/6 9/24/6 16/21/6 
f 9/24/6 18/23/6 19/25/6 
f 19/25/6 1/26/6 9/24/6 
f 1/26/6 19/25/6 20/27/6 
f 20/27/6 2/28/6 1/26/6 
f 2/28/6 20/27/6 17/22/6 
f 17/22/6 16/21/6 2/28/6 
f 17/29/7 21/30/7 22/31/7 
f 22/31/7 18/32/7 17/29/7 
f 18/33/8 22/34/8 23/35/8 
f 23/35/8 19/36/8 18/33/8 
f 19/37/9 23/38/9 24/39/9 
f 24/39/9 20/40/9 19/37/9 
f 20/41/10 24/42/10 21/43/10 
f 21/43/10 17/44/10 20/41/10 
f 11/45/11 14/46/11 25/47/11 
f 25/47/11 26/48/11 11/45/11 
f 4/49/4 3/50/4 27/51/4 
f 27/51/4 28/52/4 4/49/4 
f 3/50/4 15/53/4 29/54/4 
f 29/54/4 27/51/4 3/50/4 
f 15/55/11 16/56/11 30/57/11 
f 30/57/11 29/58/11 15/55/11 
f 16/56/11 9/59/11 31/60/11 
f 31/60/11 30/57/11 16/56/11 
f 9/59/11 10/61/11 32/62/11 
f 32/62/11 31/60/11 9/59/11 
f 10/63/4 4/49/4 28/52/4 
f 28/52/4 32/64/4 10/63/4 
f 28/65/11 27/66/11 13/67/11 
f 13/67/11 12/68/11 28/65/11 
f 27/69/3 29/70/3 14/71/3 
f 14/71/3 13/72/3 27/69/3 
f 29/70/3 30/73/3 25/74/3 
f 25/74/3 14/71/3 29/70/3 
f 30/75/4 31/76/4 26/77/4 
f 26/77/4 25/78/4 30/75/4 
f 31/79/5 32/80/5 11/81/5 
f 11/81/5 26/82/5 31/79/5 
f 32/80/5 28/83/5 12/84/5 
f 12/84/5 11/81/5 32/80/5 
f 24/42/12 8/85/12 7/86/12 
f 7/86/12 21/43/12 24/42/12 
f 22/34/13 6/87/13 5/88/13 
f 5/88/13 23/35/13 22/34/13 
f 21/30/14 7/89/14 6/90/14 
f 6/90/15 22/31/15 21/30/15 
f 23/38/16 5/91/16 8/92/16 
f 8/92/17 24/39/17 23/38/17 
# 60 faces

