# 3ds Max Wavefront OBJ Exporter v0.99 - (c)2007 guruware
# File Created: 26.12.2024 18:36:37

#
# object V1
#

v  -0.2857 -0.0005 -0.0849
v  -0.0765 -0.0005 -0.0849
v  -0.0765 -0.0005 0.1129
v  -0.2857 -0.0005 0.1129
v  0.0000 0.4451 0.3255
v  0.0000 0.4451 -0.2974
v  -0.4540 0.4451 -0.2974
v  -0.4540 0.4451 0.3255
v  0.0000 0.4274 0.3373
v  0.0000 1.0496 0.3373
v  -0.4648 1.0496 0.3373
v  -0.4648 0.4274 0.3373
v  -0.6685 0.2816 0.1145
v  -0.8470 0.3603 0.1145
v  -0.8470 0.3603 -0.0864
v  -0.6685 0.2816 -0.0864
v  0.0000 1.0611 0.3373
v  0.0000 1.0611 0.3255
v  -0.4540 1.0611 0.3255
v  -0.4648 1.0611 0.3373
v  -0.4648 1.0611 -0.3093
v  -0.4540 1.0611 -0.2974
v  -0.4648 0.9265 -0.4234
v  0.0000 0.9265 -0.4234
v  0.0000 0.9127 -0.4234
v  -0.4648 0.9150 -0.4234
v  -0.6130 0.9673 0.3373
v  -0.6130 0.9673 -0.3093
v  -0.6130 0.9558 -0.3093
v  -0.6130 0.9558 0.3373
v  -0.4648 0.9090 0.4538
v  -0.4648 0.9205 0.4538
v  0.0000 0.9090 0.4538
v  -0.4648 1.0496 -0.3093
v  0.0000 1.0611 -0.3093
v  -0.4648 0.4274 -0.3093
v  0.0000 1.0474 -0.3093
v  0.0000 0.4274 -0.3093
v  0.0000 1.0611 -0.2974
v  0.0000 0.9205 0.4538
v  -0.4642 0.7756 0.1145
v  -0.4642 0.7756 -0.0864
v  -0.4642 0.9689 0.1145
v  -0.4642 0.9689 -0.0864
v  -0.5510 0.6682 0.1145
v  -0.5510 0.6682 -0.0864
v  -0.7295 0.7470 0.1145
v  -0.7295 0.7470 -0.0864
v  -0.2857 0.4274 -0.0849
v  -0.2857 0.4274 0.1129
v  -0.0765 0.4274 -0.0849
v  -0.0765 0.4274 0.1129
v  0.2858 -0.0005 -0.0849
v  0.2858 -0.0005 0.1129
v  0.0766 -0.0005 0.1129
v  0.0766 -0.0005 -0.0849
v  0.4541 0.4451 0.3255
v  0.4541 0.4451 -0.2974
v  0.4649 0.4274 0.3373
v  0.4649 1.0496 0.3373
v  0.6686 0.2816 0.1145
v  0.6686 0.2816 -0.0864
v  0.8470 0.3603 -0.0864
v  0.8470 0.3603 0.1145
v  0.4649 1.0611 0.3373
v  0.4541 1.0611 0.3255
v  0.4649 1.0611 -0.3093
v  0.4541 1.0611 -0.2974
v  0.4649 0.9265 -0.4234
v  0.4649 0.9150 -0.4234
v  0.6131 0.9673 0.3373
v  0.6131 0.9558 0.3373
v  0.6131 0.9558 -0.3093
v  0.6131 0.9673 -0.3093
v  0.4649 0.9205 0.4538
v  0.4649 0.9090 0.4538
v  0.4649 1.0496 -0.3093
v  0.4649 0.4274 -0.3093
v  0.4643 0.7756 -0.0864
v  0.4643 0.7756 0.1145
v  0.4643 0.9689 0.1145
v  0.4643 0.9689 -0.0864
v  0.5511 0.6682 -0.0864
v  0.5511 0.6682 0.1145
v  0.7296 0.7470 0.1145
v  0.7296 0.7470 -0.0864
v  0.2858 0.4274 0.1129
v  0.2858 0.4274 -0.0849
v  0.0766 0.4274 -0.0849
v  0.0766 0.4274 0.1129
# 90 vertices

vn 0.0000 -1.0000 -0.0000
vn 0.0000 1.0000 -0.0000
vn -0.0000 -0.0000 1.0000
vn -0.0000 0.0000 1.0000
vn -0.4035 -0.9150 -0.0000
vn 0.0000 1.0000 0.0000
vn 0.0000 0.0000 -1.0000
vn 1.0000 0.0000 0.0000
vn -1.0000 0.0000 -0.0000
vn 0.0000 -0.6382 -0.7699
vn -0.5349 0.8449 -0.0000
vn 0.5349 -0.8449 0.0000
vn 0.5349 -0.8449 -0.0000
vn 0.0000 0.0000 1.0000
vn 0.0000 0.6468 -0.7627
vn -0.0000 1.0000 0.0000
vn -0.0000 0.6382 0.7699
vn -0.0031 -0.6468 0.7627
vn -1.0000 0.0016 -0.0000
vn -1.0000 0.0000 -0.0025
vn -1.0000 -0.0069 -0.0000
vn -1.0000 0.0000 0.0025
vn 0.7780 -0.6282 0.0000
vn -0.6418 0.7668 -0.0000
vn 0.0000 -0.0000 -1.0000
vn 0.9568 -0.2908 0.0000
vn -0.9568 0.2908 -0.0000
vn 0.4035 -0.9150 0.0000
vn -0.0000 1.0000 -0.0000
vn 0.5349 0.8449 0.0000
vn -0.5349 -0.8449 -0.0000
vn 0.0031 -0.6468 0.7627
vn 1.0000 0.0016 0.0000
vn 1.0000 0.0000 -0.0025
vn 1.0000 -0.0069 0.0000
vn 1.0000 0.0000 0.0025
vn -0.7780 -0.6282 -0.0000
vn 0.6418 0.7668 0.0000
vn -0.9568 -0.2908 -0.0000
vn 0.9568 0.2908 0.0000
# 40 vertex normals

vt 0.5091 0.3992 0.0000
vt 0.5698 0.3992 0.0000
vt 0.5698 0.4565 0.0000
vt 0.5091 0.4565 0.0000
vt 0.8567 0.2925 0.0000
vt 0.8567 0.4673 0.0000
vt 0.7293 0.4677 0.0000
vt 0.7293 0.2929 0.0000
vt 0.1466 0.6220 0.0000
vt 0.1466 0.8023 0.0000
vt 0.0119 0.8023 0.0000
vt 0.0119 0.6220 0.0000
vt 0.8093 0.5722 0.0000
vt 0.7637 0.5732 0.0000
vt 0.7626 0.5262 0.0000
vt 0.8082 0.5252 0.0000
vt 0.1612 0.1783 0.0000
vt 0.1612 0.1745 0.0000
vt 0.3070 0.1743 0.0000
vt 0.3105 0.1781 0.0000
vt 0.2204 0.1441 0.0000
vt 0.0141 0.1441 0.0000
vt 0.0179 0.1407 0.0000
vt 0.2167 0.1407 0.0000
vt 0.6347 0.3718 0.0000
vt 0.6347 0.1980 0.0000
vt 0.7628 0.1980 0.0000
vt 0.7628 0.3718 0.0000
vt 0.9614 0.1924 0.0000
vt 0.7866 0.1924 0.0000
vt 0.7866 0.0196 0.0000
vt 0.9614 0.0196 0.0000
vt 0.3090 0.1568 0.0000
vt 0.1606 0.1568 0.0000
vt 0.1606 0.1524 0.0000
vt 0.3090 0.1531 0.0000
vt 0.2200 0.1334 0.0000
vt 0.0136 0.1334 0.0000
vt 0.0136 0.1297 0.0000
vt 0.2200 0.1297 0.0000
vt 0.3004 0.1269 0.0000
vt 0.2970 0.1297 0.0000
vt 0.2281 0.1301 0.0000
vt 0.2315 0.1273 0.0000
vt 0.1513 0.3115 0.0000
vt 0.1513 0.3639 0.0000
vt 0.0178 0.3639 0.0000
vt 0.0178 0.3115 0.0000
vt 0.3005 0.4180 0.0000
vt 0.4879 0.4180 0.0000
vt 0.4879 0.4610 0.0000
vt 0.3005 0.4610 0.0000
vt 0.2964 0.1340 0.0000
vt 0.2941 0.1377 0.0000
vt 0.2279 0.1381 0.0000
vt 0.2302 0.1344 0.0000
vt 0.2979 0.5188 0.0000
vt 0.4852 0.5188 0.0000
vt 0.4852 0.5618 0.0000
vt 0.2979 0.5618 0.0000
vt 0.2948 0.1181 0.0000
vt 0.2972 0.1218 0.0000
vt 0.2310 0.1222 0.0000
vt 0.2287 0.1186 0.0000
vt 0.1520 0.2562 0.0000
vt 0.1520 0.3069 0.0000
vt 0.0186 0.3069 0.0000
vt 0.0187 0.2562 0.0000
vt 0.2945 0.1461 0.0000
vt 0.2978 0.1489 0.0000
vt 0.2313 0.1492 0.0000
vt 0.2279 0.1464 0.0000
vt 0.2783 0.8099 0.0000
vt 0.2783 0.9902 0.0000
vt 0.1436 0.9895 0.0000
vt 0.1436 0.8099 0.0000
vt 0.1612 0.1722 0.0000
vt 0.0120 0.1728 0.0000
vt 0.0154 0.1690 0.0000
vt 0.1612 0.1684 0.0000
vt 0.5065 0.1936 0.0000
vt 0.5061 0.0199 0.0000
vt 0.6342 0.0195 0.0000
vt 0.6346 0.1933 0.0000
vt 0.0132 0.1640 0.0000
vt 0.0132 0.1604 0.0000
vt 0.1615 0.1604 0.0000
vt 0.1615 0.1640 0.0000
vt 0.2850 0.1993 0.0000
vt 0.2852 0.2517 0.0000
vt 0.1517 0.2522 0.0000
vt 0.1515 0.1998 0.0000
vt 0.2826 0.3686 0.0000
vt 0.2829 0.4194 0.0000
vt 0.1493 0.4206 0.0000
vt 0.1490 0.3699 0.0000
vt 0.2898 0.8093 0.0000
vt 0.4781 0.8093 0.0000
vt 0.4132 0.9106 0.0000
vt 0.3547 0.9106 0.0000
vt 0.4781 0.9904 0.0000
vt 0.4132 0.9669 0.0000
vt 0.2898 0.9904 0.0000
vt 0.3547 0.9669 0.0000
vt 0.8683 0.7064 0.0000
vt 0.8214 0.7065 0.0000
vt 0.8213 0.6743 0.0000
vt 0.8682 0.6742 0.0000
vt 0.8079 0.7106 0.0000
vt 0.7892 0.7540 0.0000
vt 0.7511 0.6785 0.0000
vt 0.7988 0.6781 0.0000
vt 0.7415 0.7446 0.0000
vt 0.6972 0.7447 0.0000
vt 0.6971 0.6685 0.0000
vt 0.7413 0.6684 0.0000
vt 0.9095 0.7534 0.0000
vt 0.8901 0.7102 0.0000
vt 0.8986 0.6776 0.0000
vt 0.9463 0.6772 0.0000
vt 0.0204 0.6082 0.0000
vt 0.0204 0.4318 0.0000
vt 0.0693 0.4930 0.0000
vt 0.0693 0.5470 0.0000
vt 0.1473 0.4318 0.0000
vt 0.1264 0.4930 0.0000
vt 0.1473 0.6082 0.0000
vt 0.1264 0.5470 0.0000
vt 0.5628 0.9801 0.0000
vt 0.5054 0.9801 0.0000
vt 0.5054 0.8560 0.0000
vt 0.5628 0.8560 0.0000
vt 0.6343 0.7174 0.0000
vt 0.5737 0.7174 0.0000
vt 0.5737 0.5933 0.0000
vt 0.6343 0.5933 0.0000
vt 0.5663 0.7173 0.0000
vt 0.5090 0.7173 0.0000
vt 0.5090 0.5933 0.0000
vt 0.5663 0.5933 0.0000
vt 0.6314 0.9786 0.0000
vt 0.5708 0.9786 0.0000
vt 0.5708 0.8545 0.0000
vt 0.6314 0.8545 0.0000
vt 0.8210 0.5799 0.0000
vt 0.8679 0.5798 0.0000
vt 0.7620 0.5803 0.0000
vt 0.8097 0.5798 0.0000
vt 0.6969 0.5795 0.0000
vt 0.7411 0.5794 0.0000
vt 0.8860 0.5796 0.0000
vt 0.9337 0.5792 0.0000
vt 0.6386 0.3977 0.0000
vt 0.6386 0.4550 0.0000
vt 0.5780 0.4550 0.0000
vt 0.5780 0.3977 0.0000
vt 0.9841 0.2925 0.0000
vt 0.9841 0.4673 0.0000
vt 0.2813 0.6220 0.0000
vt 0.2813 0.8023 0.0000
vt 0.8223 0.7912 0.0000
vt 0.8226 0.7411 0.0000
vt 0.8712 0.7414 0.0000
vt 0.8709 0.7915 0.0000
vt 0.0119 0.1785 0.0000
vt 0.0153 0.1747 0.0000
vt 0.0125 0.1385 0.0000
vt 0.0163 0.1351 0.0000
vt 0.2151 0.1351 0.0000
vt 0.2188 0.1385 0.0000
vt 0.5066 0.3718 0.0000
vt 0.5066 0.1980 0.0000
vt 0.3151 0.1902 0.0000
vt 0.3151 0.0174 0.0000
vt 0.4899 0.0174 0.0000
vt 0.4899 0.1902 0.0000
vt 0.0123 0.1568 0.0000
vt 0.0123 0.1531 0.0000
vt 0.0131 0.1267 0.0000
vt 0.0131 0.1231 0.0000
vt 0.2194 0.1231 0.0000
vt 0.2194 0.1267 0.0000
vt 0.3002 0.1455 0.0000
vt 0.2313 0.1457 0.0000
vt 0.2279 0.1429 0.0000
vt 0.2968 0.1427 0.0000
vt 0.2847 0.3115 0.0000
vt 0.2847 0.3639 0.0000
vt 0.4866 0.4643 0.0000
vt 0.4866 0.5072 0.0000
vt 0.2992 0.5072 0.0000
vt 0.2992 0.4643 0.0000
vt 0.2974 0.1260 0.0000
vt 0.2313 0.1263 0.0000
vt 0.2289 0.1226 0.0000
vt 0.2951 0.1223 0.0000
vt 0.4849 0.5667 0.0000
vt 0.4849 0.6097 0.0000
vt 0.2976 0.6097 0.0000
vt 0.2976 0.5667 0.0000
vt 0.2941 0.1420 0.0000
vt 0.2279 0.1424 0.0000
vt 0.2302 0.1387 0.0000
vt 0.2964 0.1383 0.0000
vt 0.2854 0.2563 0.0000
vt 0.2854 0.3069 0.0000
vt 0.2947 0.1333 0.0000
vt 0.2281 0.1340 0.0000
vt 0.2314 0.1311 0.0000
vt 0.2980 0.1305 0.0000
vt 0.0100 0.8099 0.0000
vt 0.0100 0.9902 0.0000
vt 0.3069 0.1677 0.0000
vt 0.3104 0.1715 0.0000
vt 0.7627 0.1930 0.0000
vt 0.7623 0.0192 0.0000
vt 0.3098 0.1640 0.0000
vt 0.3098 0.1604 0.0000
vt 0.0181 0.2002 0.0000
vt 0.0183 0.2527 0.0000
vt 0.0155 0.3702 0.0000
vt 0.0158 0.4209 0.0000
vt 0.4764 0.6212 0.0000
vt 0.4115 0.7226 0.0000
vt 0.3530 0.7226 0.0000
vt 0.2881 0.6212 0.0000
vt 0.3530 0.7789 0.0000
vt 0.2881 0.8024 0.0000
vt 0.4115 0.7789 0.0000
vt 0.4764 0.8024 0.0000
vt 0.7550 0.9380 0.0000
vt 0.7549 0.9037 0.0000
vt 0.8049 0.9035 0.0000
vt 0.8050 0.9378 0.0000
vt 0.8258 0.9398 0.0000
vt 0.8349 0.9050 0.0000
vt 0.8858 0.9047 0.0000
vt 0.8464 0.9858 0.0000
vt 0.9049 0.9787 0.0000
vt 0.9041 0.8975 0.0000
vt 0.9513 0.8971 0.0000
vt 0.9521 0.9782 0.0000
vt 0.7147 0.9864 0.0000
vt 0.6746 0.9057 0.0000
vt 0.7254 0.9055 0.0000
vt 0.7349 0.9402 0.0000
vt 0.2741 0.6082 0.0000
vt 0.2253 0.5470 0.0000
vt 0.2253 0.4930 0.0000
vt 0.2741 0.4318 0.0000
vt 0.1682 0.4930 0.0000
vt 0.1682 0.5470 0.0000
vt 0.5111 0.5881 0.0000
vt 0.5111 0.4640 0.0000
vt 0.5685 0.4640 0.0000
vt 0.5685 0.5881 0.0000
vt 0.5745 0.5899 0.0000
vt 0.5745 0.4659 0.0000
vt 0.6351 0.4659 0.0000
vt 0.6351 0.5899 0.0000
vt 0.5071 0.8477 0.0000
vt 0.5071 0.7237 0.0000
vt 0.5644 0.7237 0.0000
vt 0.5644 0.8477 0.0000
vt 0.5711 0.8484 0.0000
vt 0.5711 0.7243 0.0000
vt 0.6317 0.7243 0.0000
vt 0.6317 0.8484 0.0000
vt 0.7546 0.8031 0.0000
vt 0.8045 0.8030 0.0000
vt 0.8216 0.8006 0.0000
vt 0.8724 0.8003 0.0000
vt 0.9032 0.8027 0.0000
vt 0.9503 0.8022 0.0000
vt 0.6870 0.8011 0.0000
vt 0.7379 0.8010 0.0000
# 276 texture coords

o V1
g V1
s 2
f 1/1/1 2/2/1 3/3/1 
f 3/3/1 4/4/1 1/1/1 
s 4
f 5/5/2 6/6/2 7/7/2 
f 7/7/2 8/8/2 5/5/2 
s 8
f 9/9/3 10/10/4 11/11/3 
f 11/11/3 12/12/3 9/9/3 
s 64
f 13/13/5 14/14/5 15/15/5 
f 15/15/5 16/16/5 13/13/5 
s off
f 17/17/2 18/18/2 19/19/2 
f 19/19/2 20/20/2 17/17/2 
f 21/21/6 20/22/6 19/23/6 
f 19/23/6 22/24/6 21/21/6 
f 18/25/7 5/26/7 8/27/7 
f 8/27/7 19/28/7 18/25/7 
f 22/29/8 19/30/8 8/31/8 
f 8/31/8 7/32/8 22/29/8 
s 32
f 23/33/7 24/34/7 25/35/7 
f 25/35/7 26/36/7 23/33/7 
s 64
f 27/37/9 28/38/9 29/39/9 
f 29/39/9 30/40/9 27/37/9 
s off
f 20/41/9 11/42/9 31/43/9 
f 31/43/9 32/44/9 20/41/9 
f 10/45/10 33/46/10 31/47/10 
f 31/47/10 11/48/10 10/45/10 
f 20/49/11 21/50/11 28/51/11 
f 28/51/11 27/52/11 20/49/11 
f 21/53/7 34/54/7 29/55/7 
f 29/55/7 28/56/7 21/53/7 
f 34/57/12 11/58/12 30/59/12 
f 30/59/13 29/60/13 34/57/13 
f 11/61/4 20/62/4 27/63/4 
f 27/63/14 30/64/14 11/61/14 
f 35/65/15 24/66/15 23/67/15 
f 23/67/15 21/68/15 35/65/15 
f 34/69/9 21/70/9 23/71/9 
f 23/71/9 26/72/9 34/69/9 
s 32
f 36/73/7 34/74/7 37/75/7 
f 37/75/7 38/76/7 36/73/7 
s off
f 35/77/16 21/78/16 22/79/16 
f 22/79/16 39/80/16 35/77/16 
f 22/81/4 7/82/4 6/83/4 
f 6/83/4 39/84/4 22/81/4 
s 8
f 32/85/4 31/86/4 33/87/4 
f 33/87/4 40/88/4 32/85/4 
s off
f 20/89/17 32/90/17 40/91/17 
f 40/91/17 17/92/17 20/89/17 
f 34/93/18 26/94/18 25/95/18 
f 25/95/18 37/96/18 34/93/18 
f 36/97/19 12/98/19 41/99/19 
f 41/99/19 42/100/19 36/97/19 
f 12/98/20 11/101/20 43/102/20 
f 43/102/20 41/99/20 12/98/20 
f 11/101/21 34/103/21 44/104/21 
f 44/104/21 43/102/21 11/101/21 
f 34/103/22 36/97/22 42/100/22 
f 42/100/22 44/104/22 34/103/22 
f 42/105/23 41/106/23 45/107/23 
f 45/107/23 46/108/23 42/105/23 
f 41/109/3 43/110/3 47/111/3 
f 47/111/3 45/112/3 41/109/3 
f 43/113/24 44/114/24 48/115/24 
f 48/115/24 47/116/24 43/113/24 
f 44/117/7 42/118/7 46/119/7 
f 46/119/25 48/120/25 44/117/25 
f 12/121/1 36/122/1 49/123/1 
f 49/123/1 50/124/1 12/121/1 
f 36/122/1 38/125/1 51/126/1 
f 51/126/1 49/123/1 36/122/1 
f 38/125/1 9/127/1 52/128/1 
f 52/128/1 51/126/1 38/125/1 
f 9/127/1 12/121/1 50/124/1 
f 50/124/1 52/128/1 9/127/1 
f 50/129/9 49/130/9 1/131/9 
f 1/131/9 4/132/9 50/129/9 
f 49/133/7 51/134/7 2/135/7 
f 2/135/7 1/136/7 49/133/7 
f 51/137/8 52/138/8 3/139/8 
f 3/139/8 2/140/8 51/137/8 
f 52/141/4 50/142/4 4/143/4 
f 4/143/4 3/144/4 52/141/4 
f 46/108/26 45/107/26 13/145/26 
f 13/145/26 16/146/26 46/108/26 
f 45/112/3 47/111/3 14/147/3 
f 14/147/3 13/148/3 45/112/3 
f 47/116/27 48/115/27 15/149/27 
f 15/149/27 14/150/27 47/116/27 
f 48/120/25 46/119/25 16/151/25 
f 16/151/25 15/152/25 48/120/25 
s 2
f 53/153/1 54/154/1 55/155/1 
f 55/155/1 56/156/1 53/153/1 
s 4
f 5/5/2 57/157/2 58/158/2 
f 58/158/2 6/6/2 5/5/2 
s 8
f 9/9/3 59/159/3 60/160/3 
f 60/160/3 10/10/4 9/9/3 
s 64
f 61/161/28 62/162/28 63/163/28 
f 63/163/28 64/164/28 61/161/28 
s off
f 17/17/2 65/165/2 66/166/2 
f 66/166/2 18/18/2 17/17/2 
f 67/167/29 68/168/29 66/169/29 
f 66/169/29 65/170/29 67/167/29 
f 18/25/7 66/171/7 57/172/7 
f 57/172/7 5/26/7 18/25/7 
f 68/173/9 58/174/9 57/175/9 
f 57/175/9 66/176/9 68/173/9 
s 32
f 69/177/7 70/178/7 25/35/7 
f 25/35/7 24/34/7 69/177/7 
s 64
f 71/179/8 72/180/8 73/181/8 
f 73/181/8 74/182/8 71/179/8 
s off
f 65/183/8 75/184/8 76/185/8 
f 76/185/8 60/186/8 65/183/8 
f 10/45/10 60/187/10 76/188/10 
f 76/188/10 33/46/10 10/45/10 
f 65/189/30 71/190/30 74/191/30 
f 74/191/30 67/192/30 65/189/30 
f 67/193/7 74/194/7 73/195/7 
f 73/195/7 77/196/7 67/193/7 
f 77/197/31 73/198/31 72/199/31 
f 72/199/31 60/200/31 77/197/31 
f 60/201/4 72/202/4 71/203/4 
f 71/203/14 65/204/14 60/201/14 
f 35/65/15 67/205/15 69/206/15 
f 69/206/15 24/66/15 35/65/15 
f 77/207/8 70/208/8 69/209/8 
f 69/209/8 67/210/8 77/207/8 
s 32
f 78/211/7 38/76/7 37/75/7 
f 37/75/7 77/212/7 78/211/7 
s off
f 35/77/16 39/80/16 68/213/16 
f 68/213/16 67/214/16 35/77/16 
f 68/215/4 39/84/4 6/83/4 
f 6/83/4 58/216/4 68/215/4 
s 8
f 75/217/4 40/88/4 33/87/4 
f 33/87/4 76/218/4 75/217/4 
s off
f 65/219/17 17/92/17 40/91/17 
f 40/91/17 75/220/17 65/219/17 
f 77/221/32 37/96/32 25/95/32 
f 25/95/32 70/222/32 77/221/32 
f 78/223/33 79/224/33 80/225/33 
f 80/225/33 59/226/33 78/223/33 
f 59/226/34 80/225/34 81/227/34 
f 81/227/34 60/228/34 59/226/34 
f 60/228/35 81/227/35 82/229/35 
f 82/229/35 77/230/35 60/228/35 
f 77/230/36 82/229/36 79/224/36 
f 79/224/36 78/223/36 77/230/36 
f 79/231/37 83/232/37 84/233/37 
f 84/233/37 80/234/37 79/231/37 
f 80/235/3 84/236/3 85/237/3 
f 85/237/3 81/238/3 80/235/3 
f 81/239/38 85/240/38 86/241/38 
f 86/241/38 82/242/38 81/239/38 
f 82/243/25 86/244/25 83/245/25 
f 83/245/7 79/246/7 82/243/7 
f 59/247/1 87/248/1 88/249/1 
f 88/249/1 78/250/1 59/247/1 
f 78/250/1 88/249/1 89/251/1 
f 89/251/1 38/125/1 78/250/1 
f 38/125/1 89/251/1 90/252/1 
f 90/252/1 9/127/1 38/125/1 
f 9/127/1 90/252/1 87/248/1 
f 87/248/1 59/247/1 9/127/1 
f 87/253/8 54/254/8 53/255/8 
f 53/255/8 88/256/8 87/253/8 
f 88/257/7 53/258/7 56/259/7 
f 56/259/7 89/260/7 88/257/7 
f 89/261/9 56/262/9 55/263/9 
f 55/263/9 90/264/9 89/261/9 
f 90/265/4 55/266/4 54/267/4 
f 54/267/4 87/268/4 90/265/4 
f 83/232/39 62/269/39 61/270/39 
f 61/270/39 84/233/39 83/232/39 
f 84/236/3 61/271/3 64/272/3 
f 64/272/3 85/237/3 84/236/3 
f 85/240/40 64/273/40 63/274/40 
f 63/274/40 86/241/40 85/240/40 
f 86/244/25 63/275/25 62/276/25 
f 62/276/25 83/245/25 86/244/25 
# 176 faces

