# 3ds Max Wavefront OBJ Exporter v0.99 - (c)2007 guruware
# File Created: 26.12.2024 18:32:24

#
# object V2
#

v  -0.1218 -0.0883 -0.1051
v  0.1219 -0.0883 -0.1051
v  0.1219 -0.0883 0.0928
v  -0.1218 -0.0883 0.0928
v  0.4541 0.2820 0.3053
v  0.4541 0.2820 -0.3176
v  -0.4540 0.2820 -0.3176
v  -0.4540 0.2820 0.3053
v  -0.4648 0.8980 -0.3295
v  -0.4648 0.8980 0.3171
v  -0.4540 0.8980 0.3053
v  -0.4540 0.8980 -0.3176
v  -0.4648 0.8193 -0.4535
v  0.4649 0.8193 -0.4535
v  0.4649 0.8078 -0.4535
v  -0.4648 0.8078 -0.4535
v  -0.6130 0.8042 0.3171
v  -0.6130 0.8042 -0.3295
v  -0.6130 0.7926 -0.3295
v  -0.6130 0.7926 0.3171
v  -0.4648 0.8864 0.3171
v  -0.4648 0.7459 0.4336
v  -0.4648 0.7574 0.4336
v  0.4649 0.8980 -0.3295
v  -0.4648 0.8844 -0.3291
v  -0.3460 0.3888 -0.3291
v  -0.3460 0.7574 -0.3291
v  -0.1188 0.7562 -0.3291
v  -0.1188 0.3889 -0.3291
v  0.4541 0.8980 -0.3176
v  0.4649 0.7574 0.4336
v  0.4649 0.8980 0.3171
v  0.0000 0.8822 -0.3291
v  0.4649 0.8844 -0.3291
v  -0.4648 0.2623 -0.3291
v  -0.4648 0.2643 0.3171
v  -0.4642 0.5031 0.0645
v  -0.4642 0.5031 -0.0769
v  -0.4642 0.6392 0.0645
v  -0.4642 0.6392 -0.0769
v  -0.2972 0.2643 0.2032
v  0.2973 0.2643 0.2032
v  0.4649 0.2643 0.3171
v  -0.2972 0.2643 -0.2155
v  -0.2972 0.1522 -0.2155
v  -0.2972 0.1522 0.2032
v  0.1219 0.1521 0.0928
v  -0.1218 0.1521 0.0928
v  -0.1218 -0.0464 0.0534
v  -0.1218 -0.0464 -0.0518
v  -0.1218 0.0515 0.0534
v  -0.1218 0.1521 -0.1051
v  -0.1218 0.0515 -0.0518
v  -0.2330 -0.0461 0.0534
v  -0.2330 -0.0461 -0.0518
v  -0.2341 0.0514 0.0536
v  -0.2341 0.0514 -0.0516
v  0.2973 0.1522 0.2032
v  -0.6786 0.6419 -0.0688
v  -0.6813 0.6420 0.0726
v  0.0000 0.2623 -0.3291
v  -0.3965 0.3535 -0.3291
v  -0.0683 0.3535 -0.3291
v  -0.3965 0.7929 -0.3291
v  -0.0683 0.7913 -0.3291
v  0.0684 0.7913 -0.3291
v  0.0684 0.3535 -0.3291
v  -0.1016 0.2368 -0.5387
v  -0.4298 0.2368 -0.5387
v  -0.3793 0.2721 -0.5387
v  -0.1521 0.2722 -0.5387
v  -0.4298 0.6762 -0.5387
v  -0.3793 0.6407 -0.5387
v  -0.1016 0.6746 -0.5387
v  -0.1521 0.6395 -0.5387
v  -0.6799 0.5090 0.0639
v  -0.6771 0.5089 -0.0776
v  0.1219 0.1521 -0.1051
v  0.4649 0.8864 0.3171
v  0.4541 0.8980 0.3053
v  0.6131 0.8042 0.3171
v  0.6131 0.7926 0.3171
v  0.6131 0.7926 -0.3295
v  0.6131 0.8042 -0.3295
v  0.4649 0.7459 0.4336
v  0.3461 0.3888 -0.3291
v  0.1189 0.3889 -0.3291
v  0.1189 0.7562 -0.3291
v  0.3461 0.7574 -0.3291
v  0.4649 0.2623 -0.3291
v  0.4643 0.5031 -0.0769
v  0.4643 0.5031 0.0645
v  0.4643 0.6392 0.0645
v  0.4643 0.6392 -0.0769
v  0.2973 0.2643 -0.2155
v  0.2973 0.1522 -0.2155
v  0.1219 -0.0464 -0.0518
v  0.1219 -0.0464 0.0534
v  0.1219 0.0515 0.0534
v  0.1219 0.0515 -0.0518
v  0.2296 -0.0461 -0.0518
v  0.2296 -0.0461 0.0534
v  0.2269 0.0514 0.0535
v  0.2269 0.0514 -0.0516
v  0.6824 0.6420 0.0728
v  0.6797 0.6419 -0.0686
v  0.3966 0.3535 -0.3291
v  0.3966 0.7929 -0.3291
v  0.1017 0.2368 -0.5387
v  0.1522 0.2722 -0.5387
v  0.3794 0.2721 -0.5387
v  0.4299 0.2368 -0.5387
v  0.3794 0.6407 -0.5387
v  0.4299 0.6762 -0.5387
v  0.1522 0.6395 -0.5387
v  0.1017 0.6746 -0.5387
v  0.6771 0.5089 -0.0776
v  0.6798 0.5090 0.0639
# 118 vertices

vn -0.0000 -1.0000 0.0000
vn 0.0000 1.0000 -0.0000
vn 0.0000 1.0000 0.0000
vn 1.0000 0.0000 0.0000
vn 0.0000 -0.0000 -1.0000
vn -1.0000 0.0000 -0.0000
vn -0.5349 0.8449 -0.0000
vn -0.0000 0.0000 1.0000
vn 0.0000 0.8445 -0.5355
vn 0.0000 0.0000 -1.0000
vn -0.0000 0.0000 -1.0000
vn -0.0000 1.0000 0.0000
vn -0.0000 0.6382 0.7699
vn -0.0000 -0.8513 0.5246
vn -0.0042 -0.8649 0.5019
vn 0.0041 -0.8513 0.5246
vn -1.0000 0.0023 -0.0000
vn -1.0000 0.0000 -0.0022
vn -1.0000 -0.0023 0.0000
vn -1.0000 -0.0023 -0.0000
vn -1.0000 -0.0000 0.0022
vn -1.0000 0.0000 0.0022
vn -1.0000 -0.0000 -0.0000
vn -1.0000 -0.0000 0.0000
vn -1.0000 0.0000 0.0000
vn -0.0025 -1.0000 -0.0000
vn 0.0021 0.0000 1.0000
vn -0.0000 -0.0025 1.0000
vn -0.0012 1.0000 0.0000
vn -0.0021 0.0024 -1.0000
vn -0.0006 -1.0000 0.0000
vn -0.0000 -1.0000 0.0010
vn 0.0126 0.9999 0.0000
vn 0.0128 0.9999 -0.0004
vn 0.0185 -0.0261 -0.9995
vn 0.5349 -0.8449 0.0026
vn 0.5267 -0.8500 0.0000
vn 0.0098 -0.9999 0.0031
vn -0.0000 -1.0000 -0.0000
vn -0.0274 -0.9996 -0.0000
vn -0.0273 -0.9996 0.0001
vn 0.0372 -0.0000 0.9993
vn -0.0050 -0.0658 0.9978
vn 0.0031 -0.0000 -1.0000
vn -0.0368 0.0653 -0.9972
vn -0.0000 -0.8737 0.4864
vn -0.9876 -0.0000 0.1569
vn -0.9876 0.0000 0.1569
vn 0.0042 0.8735 -0.4869
vn 0.9876 0.0000 -0.1569
vn -0.0004 0.8738 -0.4863
vn -0.0046 -0.8734 0.4869
vn -0.0000 -0.0000 1.0000
vn -0.0000 1.0000 -0.0000
vn 0.0000 -0.6382 -0.7699
vn 0.5349 0.8449 0.0000
vn 0.0000 0.0000 1.0000
vn 1.0000 0.0023 0.0000
vn 1.0000 0.0023 -0.0000
vn 1.0000 0.0000 -0.0022
vn 1.0000 -0.0023 0.0000
vn 1.0000 0.0000 0.0022
vn 1.0000 -0.0000 0.0022
vn -0.0000 -0.9998 0.0176
vn 1.0000 0.0000 -0.0000
vn 1.0000 -0.0000 0.0000
vn 0.0026 -1.0000 -0.0000
vn 0.0026 -1.0000 0.0000
vn 0.0000 -0.0016 1.0000
vn -0.0015 0.0000 1.0000
vn 0.0011 1.0000 -0.0000
vn 0.0011 1.0000 0.0000
vn 0.0015 0.0017 -1.0000
vn 0.0006 -1.0000 0.0000
vn -0.0129 0.9999 -0.0004
vn -0.0127 0.9999 0.0000
vn -0.0185 -0.0261 -0.9995
vn -0.5267 -0.8500 -0.0000
vn -0.5349 -0.8449 0.0026
vn 0.0000 -1.0000 0.0000
vn -0.0098 -0.9999 0.0031
vn 0.0274 -0.9996 0.0001
vn 0.0274 -0.9996 0.0000
vn 0.0050 -0.0673 0.9977
vn -0.0379 -0.0000 0.9993
vn 0.0375 0.0664 -0.9971
vn -0.0031 -0.0000 -1.0000
vn 0.9876 0.0000 0.1570
vn 0.9876 -0.0000 0.1570
vn -0.0042 0.8735 -0.4869
vn -0.9876 0.0000 -0.1570
vn 0.0004 0.8738 -0.4863
vn 0.0046 -0.8734 0.4869
vn 0.0000 -1.0000 -0.0010
# 94 vertex normals

vt 0.9066 0.4392 0.0000
vt 0.9066 0.4984 0.0000
vt 0.8586 0.4984 0.0000
vt 0.8586 0.4392 0.0000
vt 0.3125 0.7587 0.0000
vt 0.1612 0.7587 0.0000
vt 0.1612 0.5382 0.0000
vt 0.3125 0.5382 0.0000
vt 0.1910 0.9948 0.0000
vt 0.0340 0.9948 0.0000
vt 0.0369 0.9922 0.0000
vt 0.1882 0.9922 0.0000
vt 0.8119 0.9940 0.0000
vt 0.6607 0.9940 0.0000
vt 0.6607 0.8444 0.0000
vt 0.8119 0.8444 0.0000
vt 0.4671 0.0085 0.0000
vt 0.2413 0.0085 0.0000
vt 0.2413 0.0057 0.0000
vt 0.4671 0.0057 0.0000
vt 0.2028 0.5256 0.0000
vt 0.2028 0.3685 0.0000
vt 0.2056 0.3685 0.0000
vt 0.2056 0.5256 0.0000
vt 0.9292 0.5781 0.0000
vt 0.9312 0.5760 0.0000
vt 0.9753 0.5711 0.0000
vt 0.9733 0.5732 0.0000
vt 0.1801 0.5256 0.0000
vt 0.1801 0.3685 0.0000
vt 0.8376 0.3911 0.0000
vt 0.8356 0.3931 0.0000
vt 0.8256 0.3517 0.0000
vt 0.8275 0.3497 0.0000
vt 0.2413 0.0276 0.0000
vt 0.4671 0.0276 0.0000
vt 0.9918 0.8364 0.0000
vt 0.9895 0.8387 0.0000
vt 0.9811 0.8040 0.0000
vt 0.9830 0.8020 0.0000
vt 0.8539 0.7172 0.0000
vt 0.9434 0.7172 0.0000
vt 0.9431 0.7724 0.0000
vt 0.8539 0.7724 0.0000
vt 0.1882 0.7717 0.0000
vt 0.1910 0.7690 0.0000
vt 0.0057 0.9948 0.0000
vt 0.0057 0.7690 0.0000
vt 0.0340 0.7690 0.0000
vt 0.0010 0.2649 0.0000
vt 0.0196 0.2649 0.0000
vt 0.0196 0.4907 0.0000
vt 0.0015 0.3778 0.0000
vt 0.0010 0.4907 0.0000
vt 0.5013 0.8350 0.0000
vt 0.5008 0.9919 0.0000
vt 0.4428 0.9306 0.0000
vt 0.4428 0.8963 0.0000
vt 0.3497 0.9919 0.0000
vt 0.4097 0.9306 0.0000
vt 0.3502 0.8350 0.0000
vt 0.4097 0.8963 0.0000
vt 0.3917 0.0340 0.0000
vt 0.3510 0.0617 0.0000
vt 0.2066 0.0617 0.0000
vt 0.1659 0.0340 0.0000
vt 0.2676 0.2507 0.0000
vt 0.2676 0.2779 0.0000
vt 0.1659 0.2779 0.0000
vt 0.1659 0.2507 0.0000
vt 0.8942 0.3751 0.0000
vt 0.8350 0.3751 0.0000
vt 0.8350 0.3167 0.0000
vt 0.8942 0.3167 0.0000
vt 0.6607 0.2846 0.0000
vt 0.6607 0.2366 0.0000
vt 0.6708 0.2462 0.0000
vt 0.6708 0.2717 0.0000
vt 0.7191 0.2366 0.0000
vt 0.6946 0.2462 0.0000
vt 0.7191 0.2846 0.0000
vt 0.6946 0.2717 0.0000
vt 0.6783 0.3638 0.0000
vt 0.6783 0.3894 0.0000
vt 0.6512 0.3894 0.0000
vt 0.6512 0.3638 0.0000
vt 0.9907 0.7162 0.0000
vt 0.9669 0.7162 0.0000
vt 0.9670 0.6889 0.0000
vt 0.9906 0.6892 0.0000
vt 0.8963 0.6512 0.0000
vt 0.9219 0.6512 0.0000
vt 0.9218 0.6785 0.0000
vt 0.8963 0.6785 0.0000
vt 0.9387 0.6795 0.0000
vt 0.9624 0.6795 0.0000
vt 0.9624 0.7065 0.0000
vt 0.9387 0.7068 0.0000
vt 0.4245 0.7221 0.0000
vt 0.3765 0.7221 0.0000
vt 0.3497 0.6795 0.0000
vt 0.4514 0.6795 0.0000
vt 0.3765 0.7813 0.0000
vt 0.3497 0.8239 0.0000
vt 0.6720 0.2884 0.0000
vt 0.7064 0.2884 0.0000
vt 0.7044 0.3405 0.0000
vt 0.6701 0.3412 0.0000
vt 0.1521 0.1469 0.0000
vt 0.1521 0.2598 0.0000
vt 0.1299 0.2432 0.0000
vt 0.1299 0.1635 0.0000
vt 0.0010 0.2598 0.0000
vt 0.0232 0.2432 0.0000
vt 0.0015 0.1469 0.0000
vt 0.0236 0.1635 0.0000
vt 0.0236 0.1303 0.0000
vt 0.1299 0.1303 0.0000
vt 0.3497 0.4247 0.0000
vt 0.3497 0.3450 0.0000
vt 0.3582 0.3572 0.0000
vt 0.3583 0.4124 0.0000
vt 0.4564 0.3450 0.0000
vt 0.4478 0.3572 0.0000
vt 0.4560 0.4247 0.0000
vt 0.4475 0.4124 0.0000
vt 0.7690 0.3949 0.0000
vt 0.7708 0.3921 0.0000
vt 0.8131 0.3922 0.0000
vt 0.8116 0.3946 0.0000
vt 0.3390 0.5995 0.0000
vt 0.3395 0.7564 0.0000
vt 0.3167 0.7564 0.0000
vt 0.3167 0.5994 0.0000
vt 0.3917 0.1909 0.0000
vt 0.3510 0.1633 0.0000
vt 0.7554 0.3451 0.0000
vt 0.7554 0.3795 0.0000
vt 0.7031 0.3793 0.0000
vt 0.7037 0.3450 0.0000
vt 0.8491 0.1714 0.0000
vt 0.8491 0.1383 0.0000
vt 0.9019 0.1376 0.0000
vt 0.9015 0.1699 0.0000
vt 0.8781 0.5570 0.0000
vt 0.9111 0.5570 0.0000
vt 0.9098 0.6087 0.0000
vt 0.8774 0.6091 0.0000
vt 0.9652 0.3064 0.0000
vt 0.8855 0.3064 0.0000
vt 0.8774 0.2554 0.0000
vt 0.9571 0.2554 0.0000
vt 0.7627 0.1132 0.0000
vt 0.6560 0.1132 0.0000
vt 0.6843 0.0623 0.0000
vt 0.7910 0.0623 0.0000
vt 0.4628 0.4388 0.0000
vt 0.4628 0.3591 0.0000
vt 0.5137 0.3672 0.0000
vt 0.5137 0.4469 0.0000
vt 0.7953 0.8341 0.0000
vt 0.6890 0.8341 0.0000
vt 0.6607 0.7832 0.0000
vt 0.7670 0.7832 0.0000
vt 0.6405 0.1753 0.0000
vt 0.6957 0.1753 0.0000
vt 0.6876 0.2263 0.0000
vt 0.6324 0.2263 0.0000
vt 0.4995 0.4628 0.0000
vt 0.4995 0.5520 0.0000
vt 0.4486 0.5237 0.0000
vt 0.4486 0.4345 0.0000
vt 0.7616 0.2310 0.0000
vt 0.7064 0.2310 0.0000
vt 0.6984 0.1801 0.0000
vt 0.7535 0.1801 0.0000
vt 0.7737 0.7832 0.0000
vt 0.8633 0.7832 0.0000
vt 0.8916 0.8341 0.0000
vt 0.8021 0.8341 0.0000
vt 0.9083 0.3780 0.0000
vt 0.9083 0.4363 0.0000
vt 0.8491 0.4363 0.0000
vt 0.8491 0.3780 0.0000
vt 0.0057 0.7592 0.0000
vt 0.0057 0.5334 0.0000
vt 0.1568 0.5334 0.0000
vt 0.1568 0.7592 0.0000
vt 0.0369 0.7717 0.0000
vt 0.1742 0.3026 0.0000
vt 0.1742 0.5231 0.0000
vt 0.0246 0.5231 0.0000
vt 0.0246 0.3026 0.0000
vt 0.8162 0.9940 0.0000
vt 0.8162 0.8444 0.0000
vt 0.9674 0.8444 0.0000
vt 0.9674 0.9940 0.0000
vt 0.6277 0.0085 0.0000
vt 0.6277 0.0057 0.0000
vt 0.7847 0.0057 0.0000
vt 0.7847 0.0085 0.0000
vt 0.9057 0.1471 0.0000
vt 0.9500 0.1473 0.0000
vt 0.9522 0.1491 0.0000
vt 0.9078 0.1489 0.0000
vt 0.2315 0.0293 0.0000
vt 0.0057 0.0293 0.0000
vt 0.0057 0.0010 0.0000
vt 0.2315 0.0010 0.0000
vt 0.6277 0.0313 0.0000
vt 0.7847 0.0313 0.0000
vt 0.9072 0.1615 0.0000
vt 0.9498 0.1612 0.0000
vt 0.9483 0.1636 0.0000
vt 0.9057 0.1638 0.0000
vt 0.8139 0.3996 0.0000
vt 0.7785 0.3994 0.0000
vt 0.7799 0.3970 0.0000
vt 0.8156 0.3968 0.0000
vt 0.7596 0.7724 0.0000
vt 0.7596 0.7172 0.0000
vt 0.8488 0.7172 0.0000
vt 0.8491 0.7724 0.0000
vt 0.1942 0.7737 0.0000
vt 0.3438 0.7737 0.0000
vt 0.3438 0.9943 0.0000
vt 0.1942 0.9943 0.0000
vt 0.2366 0.0010 0.0000
vt 0.4624 0.0010 0.0000
vt 0.4624 0.0038 0.0000
vt 0.2366 0.0038 0.0000
vt 0.6568 0.9919 0.0000
vt 0.5983 0.9307 0.0000
vt 0.5983 0.8963 0.0000
vt 0.6563 0.8350 0.0000
vt 0.5652 0.8963 0.0000
vt 0.5052 0.8350 0.0000
vt 0.5652 0.9307 0.0000
vt 0.5057 0.9919 0.0000
vt 0.2788 0.1909 0.0000
vt 0.2066 0.1633 0.0000
vt 0.1659 0.1909 0.0000
vt 0.0293 0.2649 0.0000
vt 0.1310 0.2649 0.0000
vt 0.1310 0.2921 0.0000
vt 0.0293 0.2921 0.0000
vt 0.2355 0.3827 0.0000
vt 0.2355 0.5271 0.0000
vt 0.2083 0.5271 0.0000
vt 0.2083 0.3827 0.0000
vt 0.7897 0.2846 0.0000
vt 0.7796 0.2717 0.0000
vt 0.7796 0.2462 0.0000
vt 0.7897 0.2366 0.0000
vt 0.7558 0.2462 0.0000
vt 0.7313 0.2366 0.0000
vt 0.7558 0.2717 0.0000
vt 0.7313 0.2846 0.0000
vt 0.4675 0.2978 0.0000
vt 0.4936 0.2978 0.0000
vt 0.4936 0.3234 0.0000
vt 0.4675 0.3234 0.0000
vt 0.4984 0.3499 0.0000
vt 0.4722 0.3498 0.0000
vt 0.4729 0.3261 0.0000
vt 0.4984 0.3261 0.0000
vt 0.4553 0.2743 0.0000
vt 0.4554 0.2998 0.0000
vt 0.4298 0.2998 0.0000
vt 0.4298 0.2743 0.0000
vt 0.4936 0.2934 0.0000
vt 0.4681 0.2933 0.0000
vt 0.4675 0.2696 0.0000
vt 0.4936 0.2696 0.0000
vt 0.4245 0.7813 0.0000
vt 0.4514 0.8239 0.0000
vt 0.7702 0.3369 0.0000
vt 0.7172 0.3389 0.0000
vt 0.7179 0.3046 0.0000
vt 0.7702 0.3026 0.0000
vt 0.1299 0.0506 0.0000
vt 0.1521 0.0340 0.0000
vt 0.0232 0.0506 0.0000
vt 0.0010 0.0340 0.0000
vt 0.5005 0.6684 0.0000
vt 0.5127 0.6598 0.0000
vt 0.5679 0.6599 0.0000
vt 0.5802 0.6684 0.0000
vt 0.5679 0.5703 0.0000
vt 0.5802 0.5617 0.0000
vt 0.5127 0.5706 0.0000
vt 0.5005 0.5621 0.0000
vt 0.8868 0.6189 0.0000
vt 0.9282 0.6088 0.0000
vt 0.9302 0.6108 0.0000
vt 0.8892 0.6212 0.0000
vt 0.6278 0.0563 0.0000
vt 0.6277 0.0340 0.0000
vt 0.7847 0.0340 0.0000
vt 0.7847 0.0568 0.0000
vt 0.2371 0.3181 0.0000
vt 0.1854 0.3182 0.0000
vt 0.1848 0.2839 0.0000
vt 0.2371 0.2837 0.0000
vt 0.8539 0.5005 0.0000
vt 0.9062 0.5019 0.0000
vt 0.9068 0.5342 0.0000
vt 0.8539 0.5335 0.0000
vt 0.2790 0.2514 0.0000
vt 0.3313 0.2507 0.0000
vt 0.3307 0.2831 0.0000
vt 0.2790 0.2845 0.0000
vt 0.9057 0.3629 0.0000
vt 0.9138 0.3120 0.0000
vt 0.9935 0.3120 0.0000
vt 0.9854 0.3629 0.0000
vt 0.2131 0.3723 0.0000
vt 0.1848 0.3214 0.0000
vt 0.2915 0.3214 0.0000
vt 0.3198 0.3723 0.0000
vt 0.6362 0.6791 0.0000
vt 0.5853 0.6872 0.0000
vt 0.5853 0.6075 0.0000
vt 0.6362 0.5994 0.0000
vt 0.4439 0.5240 0.0000
vt 0.4948 0.5524 0.0000
vt 0.4948 0.6587 0.0000
vt 0.4439 0.6303 0.0000
vt 0.8435 0.1928 0.0000
vt 0.7926 0.2009 0.0000
vt 0.7926 0.1457 0.0000
vt 0.8435 0.1376 0.0000
vt 0.9572 0.7832 0.0000
vt 0.9855 0.8341 0.0000
vt 0.8963 0.8341 0.0000
vt 0.8680 0.7832 0.0000
vt 0.9481 0.7219 0.0000
vt 0.9990 0.7300 0.0000
vt 0.9990 0.7852 0.0000
vt 0.9481 0.7771 0.0000
vt 0.3921 0.2074 0.0000
vt 0.4204 0.1565 0.0000
vt 0.5100 0.1565 0.0000
vt 0.4816 0.2074 0.0000
vt 0.9989 0.8491 0.0000
vt 0.9989 0.9935 0.0000
vt 0.9716 0.9935 0.0000
vt 0.9716 0.8491 0.0000
# 348 texture coords

o V2
g V2
s 2
f 1/1/1 2/2/1 3/3/1 
f 3/3/1 4/4/1 1/1/1 
s 4
f 5/5/2 6/6/2 7/7/2 
f 7/7/2 8/8/2 5/5/2 
s off
f 9/9/3 10/10/3 11/11/3 
f 11/11/3 12/12/3 9/9/3 
f 12/13/4 11/14/4 8/15/4 
f 8/15/4 7/16/4 12/13/4 
s 32
f 13/17/5 14/18/5 15/19/5 
f 15/19/5 16/20/5 13/17/5 
s 64
f 17/21/6 18/22/6 19/23/6 
f 19/23/6 20/24/6 17/21/6 
s off
f 10/25/6 21/26/6 22/27/6 
f 22/27/6 23/28/6 10/25/6 
f 10/29/7 9/30/7 18/22/7 
f 18/22/7 17/21/7 10/29/7 
f 21/31/8 10/32/8 17/33/8 
f 17/33/8 20/34/8 21/31/8 
f 24/35/9 14/18/9 13/17/9 
f 13/17/9 9/36/9 24/35/9 
f 25/37/6 9/38/6 13/39/6 
f 13/39/6 16/40/6 25/37/6 
s 32
f 26/41/10 27/42/11 28/43/10 
f 28/43/10 29/44/10 26/41/10 
s off
f 12/12/12 30/45/12 24/46/12 
f 24/46/12 9/9/12 12/12/12 
f 23/47/13 31/48/13 32/49/13 
f 32/49/13 10/10/13 23/47/13 
f 25/50/14 16/51/14 15/52/14 
f 33/53/15 25/50/15 15/52/15 
f 33/53/16 15/52/16 34/54/16 
f 35/55/17 36/56/17 37/57/17 
f 37/57/17 38/58/17 35/55/17 
f 36/56/18 21/59/18 39/60/18 
f 39/60/18 37/57/18 36/56/18 
f 21/59/19 25/61/19 40/62/19 
f 40/62/20 39/60/20 21/59/20 
f 25/61/21 35/55/21 38/58/21 
f 38/58/22 40/62/22 25/61/22 
f 36/63/1 41/64/1 42/65/1 
f 42/65/1 43/66/1 36/63/1 
f 44/67/6 45/68/6 46/69/6 
f 46/69/6 41/70/6 44/67/6 
f 4/71/8 3/72/8 47/73/8 
f 47/73/8 48/74/8 4/71/8 
f 1/75/6 4/76/6 49/77/6 
f 49/77/6 50/78/6 1/75/6 
f 4/76/6 48/79/6 51/80/6 
f 51/80/6 49/77/6 4/76/6 
f 48/79/23 52/81/23 53/82/23 
f 53/82/23 51/80/23 48/79/23 
f 52/81/24 1/75/24 50/78/24 
f 50/78/25 53/82/25 52/81/25 
f 50/83/26 49/84/26 54/85/26 
f 54/85/26 55/86/26 50/83/26 
f 49/87/27 51/88/27 56/89/27 
f 56/89/28 54/90/28 49/87/28 
f 51/91/29 53/92/29 57/93/29 
f 57/93/29 56/94/29 51/91/29 
f 53/95/10 50/96/10 55/97/10 
f 55/97/30 57/98/30 53/95/30 
f 52/99/31 48/100/31 46/101/31 
f 46/101/31 45/102/31 52/99/31 
f 46/101/32 48/100/32 47/103/32 
f 47/103/32 58/104/32 46/101/32 
f 39/105/33 40/106/33 59/107/33 
f 59/107/34 60/108/34 39/105/34 
f 61/109/10 35/110/10 62/111/10 
f 62/111/10 63/112/10 61/109/10 
f 35/110/10 25/113/10 64/114/10 
f 64/114/10 62/111/10 35/110/10 
f 25/113/10 33/115/10 65/116/10 
f 65/116/10 64/114/10 25/113/10 
f 33/115/10 66/117/10 67/118/10 
f 33/115/10 67/118/10 61/109/10 
f 33/115/10 61/109/10 63/112/10 
f 33/115/10 63/112/10 65/116/10 
f 68/119/10 69/120/10 70/121/10 
f 70/121/10 71/122/10 68/119/10 
f 69/120/10 72/123/10 73/124/10 
f 73/124/10 70/121/10 69/120/10 
f 72/123/10 74/125/10 75/126/10 
f 75/126/10 73/124/10 72/123/10 
f 74/125/10 68/119/10 71/122/10 
f 71/122/10 75/126/10 74/125/10 
f 9/127/35 25/128/35 19/129/35 
f 19/129/10 18/130/10 9/127/10 
f 25/131/36 21/132/36 20/133/36 
f 20/133/37 19/134/37 25/131/37 
f 36/63/38 35/135/38 44/136/38 
f 44/136/39 41/64/39 36/63/39 
f 38/137/40 37/138/40 76/139/40 
f 76/139/41 77/140/41 38/137/41 
f 37/141/42 39/142/42 60/143/42 
f 60/143/43 76/144/43 37/141/43 
f 40/145/44 38/146/44 77/147/44 
f 77/147/45 59/148/45 40/145/45 
f 63/149/46 62/150/46 69/151/46 
f 69/151/46 68/152/46 63/149/46 
f 62/153/47 64/154/47 72/155/47 
f 72/155/48 69/156/48 62/153/48 
f 64/157/49 65/158/49 74/159/49 
f 74/159/49 72/160/49 64/157/49 
f 65/161/50 63/162/50 68/163/50 
f 68/163/50 74/164/50 65/161/50 
f 26/165/51 29/166/51 71/167/51 
f 71/167/51 70/168/51 26/165/51 
f 29/169/47 28/170/47 75/171/47 
f 75/171/48 71/172/48 29/169/48 
f 28/173/52 27/174/52 73/175/52 
f 73/175/52 75/176/52 28/173/52 
f 27/177/50 26/178/50 70/179/50 
f 70/179/50 73/180/50 27/177/50 
f 1/181/10 52/182/10 78/183/10 
f 78/183/10 2/184/10 1/181/10 
s 8
f 79/185/53 21/186/53 36/187/53 
f 36/187/53 43/188/53 79/185/53 
s off
f 32/49/2 80/189/2 11/11/2 
f 11/11/2 10/10/2 32/49/2 
f 24/46/54 30/45/54 80/189/54 
f 80/189/54 32/49/54 24/46/54 
f 5/190/5 8/191/5 11/192/5 
f 11/192/5 80/193/5 5/190/5 
f 30/194/6 6/195/6 5/196/6 
f 5/196/6 80/197/6 30/194/6 
s 64
f 81/198/4 82/199/4 83/200/4 
f 83/200/4 84/201/4 81/198/4 
s off
f 32/202/4 31/203/4 85/204/4 
f 85/204/4 79/205/4 32/202/4 
f 85/206/55 22/207/55 21/208/55 
f 21/208/55 79/209/55 85/206/55 
f 32/210/56 81/198/56 84/201/56 
f 84/201/56 24/211/56 32/210/56 
f 79/212/8 82/213/8 81/214/8 
f 81/214/57 32/215/57 79/212/57 
f 34/216/4 15/217/4 14/218/4 
f 14/218/4 24/219/4 34/216/4 
s 32
f 86/220/10 87/221/10 88/222/10 
f 88/222/10 89/223/10 86/220/10 
s off
f 12/224/53 7/225/53 6/226/53 
f 6/226/53 30/227/53 12/224/53 
s 8
f 22/228/8 85/229/8 31/230/8 
f 31/230/8 23/231/8 22/228/8 
s off
f 90/232/58 91/233/58 92/234/58 
f 92/234/59 43/235/59 90/232/59 
f 43/235/60 92/234/60 93/236/60 
f 93/236/60 79/237/60 43/235/60 
f 79/237/61 93/236/61 94/238/61 
f 94/238/61 34/239/61 79/237/61 
f 34/239/62 94/238/62 91/233/62 
f 91/233/63 90/232/63 34/239/63 
f 44/136/64 35/135/64 61/240/64 
f 95/241/64 44/136/64 61/240/64 
f 90/242/64 95/241/64 61/240/64 
f 95/243/4 42/244/4 58/245/4 
f 58/245/4 96/246/4 95/243/4 
f 96/247/5 45/248/5 44/249/5 
f 44/249/5 95/250/5 96/247/5 
f 2/251/4 97/252/4 98/253/4 
f 98/253/4 3/254/4 2/251/4 
f 3/254/65 98/253/65 99/255/65 
f 99/255/65 47/256/65 3/254/65 
f 47/256/66 99/255/66 100/257/66 
f 100/257/66 78/258/66 47/256/66 
f 78/258/4 100/257/4 97/252/4 
f 97/252/66 2/251/66 78/258/66 
f 97/259/67 101/260/67 102/261/67 
f 102/261/68 98/262/68 97/259/68 
f 98/263/69 102/264/69 103/265/69 
f 103/265/70 99/266/70 98/263/70 
f 99/267/71 103/268/71 104/269/71 
f 104/269/72 100/270/72 99/267/72 
f 100/271/73 104/272/73 101/273/73 
f 101/273/10 97/274/10 100/271/10 
f 78/275/74 96/276/74 58/104/74 
f 58/104/74 47/103/74 78/275/74 
f 93/277/75 105/278/75 106/279/75 
f 106/279/76 94/280/76 93/277/76 
f 61/109/10 67/118/10 107/281/10 
f 107/281/10 90/282/10 61/109/10 
f 90/282/10 107/281/10 108/283/10 
f 108/283/10 34/284/10 90/282/10 
f 34/284/10 108/283/10 66/117/10 
f 66/117/10 33/115/10 34/284/10 
f 109/285/10 110/286/10 111/287/10 
f 111/287/10 112/288/10 109/285/10 
f 112/288/10 111/287/10 113/289/10 
f 113/289/10 114/290/10 112/288/10 
f 114/290/10 113/289/10 115/291/10 
f 115/291/10 116/292/10 114/290/10 
f 116/292/10 115/291/10 110/286/10 
f 110/286/10 109/285/10 116/292/10 
f 24/293/10 84/294/10 83/295/10 
f 83/295/77 34/296/77 24/293/77 
f 34/297/78 83/298/78 82/299/78 
f 82/299/79 79/300/79 34/297/79 
f 43/66/80 42/65/80 95/241/80 
f 95/241/81 90/242/81 43/66/81 
f 91/301/82 117/302/82 118/303/82 
f 118/303/83 92/304/83 91/301/83 
f 92/305/84 118/306/84 105/307/84 
f 105/307/85 93/308/85 92/305/85 
f 94/309/86 106/310/86 117/311/86 
f 117/311/87 91/312/87 94/309/87 
f 67/313/46 109/314/46 112/315/46 
f 112/315/46 107/316/46 67/313/46 
f 107/317/88 112/318/88 114/319/88 
f 114/319/89 108/320/89 107/317/89 
f 108/321/90 114/322/90 116/323/90 
f 116/323/90 66/324/90 108/321/90 
f 66/325/91 116/326/91 109/327/91 
f 109/327/91 67/328/91 66/325/91 
f 86/329/92 111/330/92 110/331/92 
f 110/331/92 87/332/92 86/329/92 
f 87/333/88 110/334/88 115/335/88 
f 115/335/89 88/336/89 87/333/89 
f 88/337/93 115/338/93 113/339/93 
f 113/339/93 89/340/93 88/337/93 
f 89/341/91 113/342/91 111/343/91 
f 111/343/91 86/344/91 89/341/91 
f 46/345/8 58/346/8 42/347/8 
f 42/347/8 41/348/8 46/345/8 
f 45/102/94 96/276/94 78/275/94 
f 78/275/94 52/99/94 45/102/94 
# 224 faces

