# 3ds Max Wavefront OBJ Exporter v0.99 - (c)2007 guruware
# File Created: 26.12.2024 18:34:17

#
# object Box003
#

v  0.0957 0.0003 0.0984
v  -0.0004 0.0003 0.0984
v  -0.0004 0.0003 -0.0939
v  0.0957 0.0003 -0.0939
v  0.1405 0.9498 -0.0975
v  0.1405 0.9498 0.1019
v  0.2342 0.9840 0.1019
v  0.2342 0.9840 -0.0975
v  -0.0004 0.5014 -0.1837
v  -0.0004 0.8459 -0.1837
v  0.1855 0.8733 -0.1837
v  0.1462 0.5513 -0.1837
v  0.2722 0.8794 0.1019
v  0.2722 0.8794 -0.0975
v  0.1462 0.5513 0.1881
v  0.0957 0.5341 0.0984
v  0.0957 0.5341 -0.0939
v  -0.0004 0.5014 0.1881
v  -0.0004 0.5014 0.0984
v  0.1161 0.6630 0.1695
v  0.1161 0.7452 0.1695
v  0.0457 0.7452 0.1695
v  0.0457 0.6630 0.1695
v  -0.0004 0.5014 -0.0939
v  0.1161 0.6630 0.1881
v  0.0457 0.6630 0.1881
v  0.1855 0.8733 0.1881
v  0.1161 0.7452 0.1881
v  -0.0004 0.8459 0.1881
v  0.0457 0.7452 0.1881
v  0.1855 0.7620 -0.0975
v  0.1855 0.7620 0.1019
v  0.1855 0.8733 -0.0975
v  0.0858 0.8553 -0.0975
v  0.0858 0.8553 0.1019
v  0.1855 0.8733 0.1019
v  0.1086 0.8670 0.0940
v  0.1972 0.8850 0.0940
v  0.2272 0.9689 0.0940
v  0.1479 0.9400 0.0940
v  0.1972 0.7977 0.0940
v  0.2590 0.8813 0.0940
v  0.1972 0.8850 0.1019
v  0.1086 0.8670 0.1019
v  0.1972 0.7977 0.1019
v  0.2590 0.8813 0.1019
v  0.2272 0.9689 0.1019
v  0.1479 0.9400 0.1019
v  -0.0966 0.0003 0.0984
v  -0.0966 0.0003 -0.0939
v  -0.1414 0.9498 -0.0975
v  -0.2351 0.9840 -0.0975
v  -0.2351 0.9840 0.1019
v  -0.1414 0.9498 0.1019
v  -0.1471 0.5513 -0.1837
v  -0.1864 0.8733 -0.1837
v  -0.2731 0.8794 0.1019
v  -0.2731 0.8794 -0.0975
v  -0.0966 0.5341 -0.0939
v  -0.0966 0.5341 0.0984
v  -0.1471 0.5513 0.1881
v  -0.1170 0.6630 0.1695
v  -0.0466 0.6630 0.1695
v  -0.0466 0.7452 0.1695
v  -0.1170 0.7452 0.1695
v  -0.0466 0.6630 0.1881
v  -0.1170 0.6630 0.1881
v  -0.1170 0.7452 0.1881
v  -0.1864 0.8733 0.1881
v  -0.0466 0.7452 0.1881
v  -0.1864 0.7620 0.1019
v  -0.1864 0.7620 -0.0975
v  -0.1864 0.8733 -0.0975
v  -0.0867 0.8553 -0.0975
v  -0.0867 0.8553 0.1019
v  -0.1864 0.8733 0.1019
v  -0.1095 0.8670 0.0940
v  -0.1488 0.9400 0.0940
v  -0.2281 0.9689 0.0940
v  -0.1981 0.8850 0.0940
v  -0.2599 0.8813 0.0940
v  -0.1981 0.7977 0.0940
v  -0.1095 0.8670 0.1019
v  -0.1981 0.8850 0.1019
v  -0.1981 0.7977 0.1019
v  -0.2599 0.8813 0.1019
v  -0.2281 0.9689 0.1019
v  -0.1488 0.9400 0.1019
# 88 vertices

vn 0.0000 -1.0000 -0.0000
vn -0.3420 0.9397 -0.0000
vn 0.0000 0.0000 -1.0000
vn 0.9397 0.3420 0.0000
vn 0.3227 -0.9465 0.0000
vn 0.3218 -0.9468 0.0000
vn 0.3221 -0.9467 0.0003
vn 1.0000 0.0000 0.0000
vn -0.0000 0.0000 1.0000
vn 0.3221 -0.9467 -0.0003
vn 0.0000 1.0000 -0.0000
vn -1.0000 0.0000 -0.0000
vn 0.9831 -0.1833 0.0000
vn 0.9926 -0.1211 0.0000
vn 0.9100 -0.0000 -0.4146
vn -0.1457 0.9886 0.0379
vn -0.1776 0.9841 -0.0000
vn -0.1084 0.9941 -0.0000
vn -0.1458 0.9893 -0.0000
vn -0.1772 0.9817 -0.0701
vn 0.9807 -0.1197 0.1544
vn 0.8042 -0.5944 0.0000
vn 0.0000 -0.0000 -1.0000
vn -0.8655 0.5009 -0.0000
vn -0.1990 0.9800 -0.0000
vn -0.8042 0.5944 -0.0000
vn -0.9397 -0.3420 -0.0000
vn 0.3420 -0.9397 0.0000
vn 0.8804 -0.4742 0.0000
vn 0.3420 0.9397 0.0000
vn -0.9397 0.3420 -0.0000
vn -0.3227 -0.9465 -0.0000
vn -0.3221 -0.9467 0.0003
vn -0.3218 -0.9468 -0.0000
vn -0.3221 -0.9467 -0.0003
vn -0.9831 -0.1833 -0.0000
vn -0.9100 -0.0000 -0.4146
vn -0.9926 -0.1211 -0.0000
vn 0.1776 0.9841 0.0000
vn 0.1457 0.9886 0.0379
vn 0.1084 0.9941 0.0000
vn 0.1772 0.9817 -0.0701
vn 0.1458 0.9893 0.0000
vn -0.9807 -0.1197 0.1544
vn -0.8042 -0.5944 -0.0000
vn -0.0000 -0.0000 -1.0000
vn 0.8655 0.5009 0.0000
vn 0.1990 0.9800 0.0000
vn 0.8042 0.5944 0.0000
vn 0.9397 -0.3420 0.0000
vn -0.3420 -0.9397 -0.0000
vn -0.8804 -0.4742 -0.0000
# 52 vertex normals

vt 0.4813 0.1067 0.0000
vt 0.5524 0.1067 0.0000
vt 0.5524 0.2489 0.0000
vt 0.4813 0.2489 0.0000
vt 0.7187 0.0695 0.0000
vt 0.7187 0.2170 0.0000
vt 0.6494 0.2170 0.0000
vt 0.6494 0.0695 0.0000
vt 0.3612 0.6284 0.0000
vt 0.6159 0.6284 0.0000
vt 0.6362 0.7659 0.0000
vt 0.3981 0.7368 0.0000
vt 0.7555 0.3481 0.0000
vt 0.7555 0.4956 0.0000
vt 0.6782 0.4956 0.0000
vt 0.6782 0.3481 0.0000
vt 0.7082 0.9960 0.0000
vt 0.4333 0.9960 0.0000
vt 0.4997 0.9586 0.0000
vt 0.6419 0.9586 0.0000
vt 0.4333 0.8875 0.0000
vt 0.4997 0.8875 0.0000
vt 0.1480 0.9961 0.0000
vt 0.0058 0.9961 0.0000
vt 0.0058 0.6014 0.0000
vt 0.1480 0.6014 0.0000
vt 0.1057 0.4773 0.0000
vt 0.1057 0.1067 0.0000
vt 0.1768 0.1067 0.0000
vt 0.1768 0.5014 0.0000
vt 0.6438 0.0346 0.0000
vt 0.6438 0.0954 0.0000
vt 0.5918 0.0954 0.0000
vt 0.5918 0.0346 0.0000
vt 0.7082 0.8875 0.0000
vt 0.6419 0.8875 0.0000
vt 0.3324 0.5014 0.0000
vt 0.3324 0.1067 0.0000
vt 0.4035 0.1067 0.0000
vt 0.4035 0.4773 0.0000
vt 0.7215 0.7004 0.0000
vt 0.7584 0.5920 0.0000
vt 0.8409 0.6143 0.0000
vt 0.8409 0.6663 0.0000
vt 0.9964 0.5630 0.0000
vt 0.9017 0.6143 0.0000
vt 0.9762 0.7004 0.0000
vt 0.9017 0.6663 0.0000
vt 0.6302 0.2212 0.0000
vt 0.6302 0.1691 0.0000
vt 0.6440 0.1691 0.0000
vt 0.6440 0.2212 0.0000
vt 0.2982 0.6062 0.0000
vt 0.2982 0.6670 0.0000
vt 0.2844 0.6670 0.0000
vt 0.2844 0.6062 0.0000
vt 0.6392 0.5774 0.0000
vt 0.6392 0.6294 0.0000
vt 0.6254 0.6294 0.0000
vt 0.6254 0.5774 0.0000
vt 0.5726 0.0954 0.0000
vt 0.5726 0.0346 0.0000
vt 0.5864 0.0346 0.0000
vt 0.5864 0.0954 0.0000
vt 0.9981 0.2844 0.0000
vt 0.9981 0.5593 0.0000
vt 0.8423 0.4956 0.0000
vt 0.8423 0.3481 0.0000
vt 0.7601 0.5593 0.0000
vt 0.7601 0.4956 0.0000
vt 0.6854 0.0058 0.0000
vt 0.8229 0.0058 0.0000
vt 0.7592 0.0695 0.0000
vt 0.6854 0.0695 0.0000
vt 0.8229 0.2808 0.0000
vt 0.7592 0.2170 0.0000
vt 0.6854 0.2808 0.0000
vt 0.6854 0.2170 0.0000
vt 0.7601 0.2844 0.0000
vt 0.7601 0.3481 0.0000
vt 0.6043 0.4723 0.0000
vt 0.5451 0.4152 0.0000
vt 0.5113 0.3324 0.0000
vt 0.5864 0.3659 0.0000
vt 0.5035 0.4775 0.0000
vt 0.4813 0.3998 0.0000
vt 0.6282 0.2659 0.0000
vt 0.5774 0.3093 0.0000
vt 0.5149 0.2886 0.0000
vt 0.5678 0.2556 0.0000
vt 0.6283 0.3491 0.0000
vt 0.5514 0.3470 0.0000
vt 0.1864 0.6064 0.0000
vt 0.2405 0.5546 0.0000
vt 0.2526 0.5526 0.0000
vt 0.2033 0.5978 0.0000
vt 0.1739 0.5062 0.0000
vt 0.2004 0.5147 0.0000
vt 0.2818 0.5053 0.0000
vt 0.2772 0.5141 0.0000
vt 0.3278 0.5735 0.0000
vt 0.3158 0.5712 0.0000
vt 0.2667 0.6148 0.0000
vt 0.2641 0.6060 0.0000
vt 0.1643 0.5805 0.0000
vt 0.1643 0.5149 0.0000
vt 0.1702 0.5149 0.0000
vt 0.1702 0.5805 0.0000
vt 0.3180 0.6467 0.0000
vt 0.3180 0.5822 0.0000
vt 0.3239 0.5822 0.0000
vt 0.3239 0.6467 0.0000
vt 0.3420 0.6271 0.0000
vt 0.3420 0.5653 0.0000
vt 0.3479 0.5653 0.0000
vt 0.3479 0.6271 0.0000
vt 0.3420 0.5005 0.0000
vt 0.3479 0.5005 0.0000
vt 0.0453 0.5101 0.0000
vt 0.0453 0.5687 0.0000
vt 0.0394 0.5687 0.0000
vt 0.0394 0.5101 0.0000
vt 0.0010 0.5929 0.0000
vt 0.0010 0.5389 0.0000
vt 0.0069 0.5389 0.0000
vt 0.0069 0.5929 0.0000
vt 0.6235 0.1067 0.0000
vt 0.6235 0.2489 0.0000
vt 0.9271 0.0695 0.0000
vt 0.9964 0.0695 0.0000
vt 0.9964 0.2170 0.0000
vt 0.9271 0.2170 0.0000
vt 0.3981 0.5200 0.0000
vt 0.6362 0.4909 0.0000
vt 0.2184 0.7555 0.0000
vt 0.2184 0.6782 0.0000
vt 0.3659 0.6782 0.0000
vt 0.3659 0.7555 0.0000
vt 0.7082 0.7791 0.0000
vt 0.6419 0.8164 0.0000
vt 0.4997 0.8164 0.0000
vt 0.4333 0.7791 0.0000
vt 0.3257 0.1067 0.0000
vt 0.3257 0.5014 0.0000
vt 0.1835 0.5014 0.0000
vt 0.1835 0.1067 0.0000
vt 0.0346 0.5014 0.0000
vt 0.0346 0.1067 0.0000
vt 0.2731 0.6206 0.0000
vt 0.2731 0.6726 0.0000
vt 0.2123 0.6726 0.0000
vt 0.2123 0.6206 0.0000
vt 0.4746 0.5014 0.0000
vt 0.4746 0.1067 0.0000
vt 0.8409 0.7346 0.0000
vt 0.8409 0.7866 0.0000
vt 0.7584 0.8089 0.0000
vt 0.9017 0.7866 0.0000
vt 0.9964 0.8379 0.0000
vt 0.9017 0.7346 0.0000
vt 0.6302 0.1067 0.0000
vt 0.6440 0.1067 0.0000
vt 0.6440 0.1587 0.0000
vt 0.6302 0.1587 0.0000
vt 0.4861 0.2556 0.0000
vt 0.4999 0.2556 0.0000
vt 0.4999 0.3163 0.0000
vt 0.4861 0.3163 0.0000
vt 0.6104 0.4037 0.0000
vt 0.5966 0.4037 0.0000
vt 0.5966 0.3516 0.0000
vt 0.6104 0.3516 0.0000
vt 0.3750 0.5565 0.0000
vt 0.3612 0.5565 0.0000
vt 0.3612 0.4957 0.0000
vt 0.3750 0.4957 0.0000
vt 0.1547 0.9981 0.0000
vt 0.2184 0.8423 0.0000
vt 0.3659 0.8423 0.0000
vt 0.4297 0.9981 0.0000
vt 0.3659 0.7601 0.0000
vt 0.4297 0.7601 0.0000
vt 0.9604 0.0058 0.0000
vt 0.9604 0.0695 0.0000
vt 0.8867 0.0695 0.0000
vt 0.8867 0.2170 0.0000
vt 0.9604 0.2170 0.0000
vt 0.9604 0.2808 0.0000
vt 0.1547 0.7601 0.0000
vt 0.2184 0.7601 0.0000
vt 0.8658 0.9981 0.0000
vt 0.7579 0.9990 0.0000
vt 0.7119 0.9308 0.0000
vt 0.7992 0.9498 0.0000
vt 0.7730 0.8896 0.0000
vt 0.8533 0.8979 0.0000
vt 0.0490 0.5047 0.0000
vt 0.1074 0.4861 0.0000
vt 0.1644 0.5115 0.0000
vt 0.1054 0.5407 0.0000
vt 0.1364 0.5744 0.0000
vt 0.0606 0.5871 0.0000
vt 0.9770 0.9760 0.0000
vt 0.9588 0.9705 0.0000
vt 0.9024 0.9346 0.0000
vt 0.9147 0.9343 0.0000
vt 0.9473 0.8881 0.0000
vt 0.9718 0.8752 0.0000
vt 0.8714 0.9008 0.0000
vt 0.8654 0.8930 0.0000
vt 0.8434 0.9638 0.0000
vt 0.8319 0.9682 0.0000
vt 0.9004 0.9891 0.0000
vt 0.8993 0.9982 0.0000
vt 0.5678 0.0069 0.0000
vt 0.5678 0.0010 0.0000
vt 0.6333 0.0010 0.0000
vt 0.6333 0.0069 0.0000
vt 0.1702 0.6515 0.0000
vt 0.1643 0.6515 0.0000
vt 0.1643 0.5870 0.0000
vt 0.1702 0.5870 0.0000
vt 0.1931 0.6110 0.0000
vt 0.1990 0.6110 0.0000
vt 0.1990 0.6728 0.0000
vt 0.1931 0.6728 0.0000
vt 0.1990 0.7376 0.0000
vt 0.1931 0.7376 0.0000
vt 0.1702 0.7128 0.0000
vt 0.1643 0.7128 0.0000
vt 0.1643 0.6542 0.0000
vt 0.1702 0.6542 0.0000
vt 0.0261 0.5929 0.0000
vt 0.0202 0.5929 0.0000
vt 0.0202 0.5389 0.0000
vt 0.0261 0.5389 0.0000
# 236 texture coords

o Box003
g Box003
s 2
f 1/1/1 2/2/1 3/3/1 
f 3/3/1 4/4/1 1/1/1 
s 4
f 5/5/2 6/6/2 7/7/2 
f 7/7/2 8/8/2 5/5/2 
s 8
f 9/9/3 10/10/3 11/11/3 
f 11/11/3 12/12/3 9/9/3 
s 64
f 13/13/4 14/14/4 8/15/4 
f 8/15/4 7/16/4 13/13/4 
s off
f 12/17/5 15/18/5 16/19/5 
f 16/19/5 17/20/5 12/17/5 
f 18/21/6 19/22/6 16/19/6 
f 16/19/7 15/18/7 18/21/7 
f 17/23/8 16/24/8 1/25/8 
f 1/25/8 4/26/8 17/23/8 
f 19/27/9 2/28/9 1/29/9 
f 1/29/9 16/30/9 19/27/9 
s 32
f 20/31/9 21/32/9 22/33/9 
f 22/33/9 23/34/9 20/31/9 
s off
f 9/35/10 12/17/10 17/20/10 
f 17/20/6 24/36/6 9/35/6 
f 17/37/3 4/38/3 3/39/3 
f 3/39/3 24/40/3 17/37/3 
f 18/41/9 15/42/9 25/43/9 
f 25/43/9 26/44/9 18/41/9 
f 15/42/9 27/45/9 28/46/9 
f 28/46/9 25/43/9 15/42/9 
f 27/45/9 29/47/9 30/48/9 
f 30/48/9 28/46/9 27/45/9 
f 29/47/9 18/41/9 26/44/9 
f 26/44/9 30/48/9 29/47/9 
f 26/49/11 25/50/11 20/51/11 
f 20/51/11 23/52/11 26/49/11 
f 25/53/12 28/54/12 21/55/12 
f 21/55/12 20/56/12 25/53/12 
f 28/57/1 30/58/1 22/59/1 
f 22/59/1 21/60/1 28/57/1 
f 30/61/8 26/62/8 23/63/8 
f 23/63/8 22/64/8 30/61/8 
f 15/65/13 12/66/13 31/67/13 
f 31/67/13 32/68/13 15/65/13 
f 12/66/14 11/69/14 33/70/14 
f 33/70/15 31/67/15 12/66/15 
f 11/71/16 10/72/16 34/73/16 
f 34/73/17 33/74/17 11/71/17 
f 10/72/18 29/75/18 35/76/18 
f 35/76/18 34/73/18 10/72/18 
f 29/75/19 27/77/19 36/78/19 
f 36/78/20 35/76/20 29/75/20 
f 27/79/21 15/65/21 32/68/21 
f 32/68/8 36/80/8 27/79/8 
f 32/68/22 31/67/22 14/14/22 
f 14/14/22 13/13/22 32/68/22 
f 31/81/23 33/82/23 8/83/23 
f 8/83/3 14/84/3 31/81/3 
f 33/82/3 34/85/3 5/86/3 
f 5/86/3 8/83/3 33/82/3 
f 34/73/24 35/76/24 6/6/24 
f 6/6/24 5/5/24 34/73/24 
f 37/87/9 38/88/9 39/89/9 
f 39/89/9 40/90/9 37/87/9 
f 38/88/9 41/91/9 42/92/9 
f 42/92/9 39/89/9 38/88/9 
f 35/93/9 36/94/9 43/95/9 
f 43/95/9 44/96/9 35/93/9 
f 36/94/9 32/97/9 45/98/9 
f 45/98/9 43/95/9 36/94/9 
f 32/97/9 13/99/9 46/100/9 
f 46/100/9 45/98/9 32/97/9 
f 13/99/9 7/101/9 47/102/9 
f 47/102/9 46/100/9 13/99/9 
f 7/101/9 6/103/9 48/104/9 
f 48/104/9 47/102/9 7/101/9 
f 6/103/9 35/93/9 44/96/9 
f 44/96/9 48/104/9 6/103/9 
f 44/105/25 43/106/25 38/107/25 
f 38/107/25 37/108/25 44/105/25 
f 43/109/8 45/110/8 41/111/8 
f 41/111/8 38/112/8 43/109/8 
f 45/113/26 46/114/26 42/115/26 
f 42/115/26 41/116/26 45/113/26 
f 46/114/27 47/117/27 39/118/27 
f 39/118/27 42/115/27 46/114/27 
f 47/119/28 48/120/28 40/121/28 
f 40/121/28 39/122/28 47/119/28 
f 48/123/29 44/124/29 37/125/29 
f 37/125/29 40/126/29 48/123/29 
s 2
f 49/127/1 50/128/1 3/3/1 
f 3/3/1 2/2/1 49/127/1 
s 4
f 51/129/30 52/130/30 53/131/30 
f 53/131/30 54/132/30 51/129/30 
s 8
f 9/9/3 55/133/3 56/134/3 
f 56/134/3 10/10/3 9/9/3 
s 64
f 57/135/31 53/136/31 52/137/31 
f 52/137/31 58/138/31 57/135/31 
s off
f 55/139/32 59/140/32 60/141/32 
f 60/141/32 61/142/32 55/139/32 
f 18/21/33 61/142/33 60/141/33 
f 60/141/34 19/22/34 18/21/34 
f 59/143/12 50/144/12 49/145/12 
f 49/145/12 60/146/12 59/143/12 
f 19/27/9 60/147/9 49/148/9 
f 49/148/9 2/28/9 19/27/9 
s 32
f 62/149/9 63/150/9 64/151/9 
f 64/151/9 65/152/9 62/149/9 
s off
f 9/35/34 24/36/34 59/140/34 
f 59/140/35 55/139/35 9/35/35 
f 59/153/3 24/40/3 3/39/3 
f 3/39/3 50/154/3 59/153/3 
f 18/41/9 66/155/9 67/156/9 
f 67/156/9 61/157/9 18/41/9 
f 61/157/9 67/156/9 68/158/9 
f 68/158/9 69/159/9 61/157/9 
f 69/159/9 68/158/9 70/160/9 
f 70/160/9 29/47/9 69/159/9 
f 29/47/9 70/160/9 66/155/9 
f 66/155/9 18/41/9 29/47/9 
f 66/161/11 63/162/11 62/163/11 
f 62/163/11 67/164/11 66/161/11 
f 67/165/8 62/166/8 65/167/8 
f 65/167/8 68/168/8 67/165/8 
f 68/169/1 65/170/1 64/171/1 
f 64/171/1 70/172/1 68/169/1 
f 70/173/12 64/174/12 63/175/12 
f 63/175/12 66/176/12 70/173/12 
f 61/177/36 71/178/36 72/179/36 
f 72/179/36 55/180/36 61/177/36 
f 55/180/37 72/179/37 73/181/37 
f 73/181/38 56/182/38 55/180/38 
f 56/183/39 73/184/39 74/185/39 
f 74/185/40 10/72/40 56/183/40 
f 10/72/41 74/185/41 75/186/41 
f 75/186/41 29/75/41 10/72/41 
f 29/75/42 75/186/42 76/187/42 
f 76/187/43 69/188/43 29/75/43 
f 69/189/12 76/190/12 71/178/12 
f 71/178/44 61/177/44 69/189/44 
f 71/178/45 57/135/45 58/138/45 
f 58/138/45 72/179/45 71/178/45 
f 72/191/3 58/192/3 52/193/3 
f 52/193/46 73/194/46 72/191/46 
f 73/194/3 52/193/3 51/195/3 
f 51/195/3 74/196/3 73/194/3 
f 74/185/47 51/129/47 54/132/47 
f 54/132/47 75/186/47 74/185/47 
f 77/197/9 78/198/9 79/199/9 
f 79/199/9 80/200/9 77/197/9 
f 80/200/9 79/199/9 81/201/9 
f 81/201/9 82/202/9 80/200/9 
f 75/203/9 83/204/9 84/205/9 
f 84/205/9 76/206/9 75/203/9 
f 76/206/9 84/205/9 85/207/9 
f 85/207/9 71/208/9 76/206/9 
f 71/208/9 85/207/9 86/209/9 
f 86/209/9 57/210/9 71/208/9 
f 57/210/9 86/209/9 87/211/9 
f 87/211/9 53/212/9 57/210/9 
f 53/212/9 87/211/9 88/213/9 
f 88/213/9 54/214/9 53/212/9 
f 54/214/9 88/213/9 83/204/9 
f 83/204/9 75/203/9 54/214/9 
f 83/215/48 77/216/48 80/217/48 
f 80/217/48 84/218/48 83/215/48 
f 84/219/12 80/220/12 82/221/12 
f 82/221/12 85/222/12 84/219/12 
f 85/223/49 82/224/49 81/225/49 
f 81/225/49 86/226/49 85/223/49 
f 86/226/50 81/225/50 79/227/50 
f 79/227/50 87/228/50 86/226/50 
f 87/229/51 79/230/51 78/231/51 
f 78/231/51 88/232/51 87/229/51 
f 88/233/52 78/234/52 77/235/52 
f 77/235/52 83/236/52 88/233/52 
# 172 faces

