# 3ds Max Wavefront OBJ Exporter v0.99 - (c)2007 guruware
# File Created: 27.12.2024 11:56:50

#
# object BrazoDerecho
#

v  -0.1399 0.0904 0.1787
v  -0.1395 0.1811 -0.0782
v  -0.1401 -0.0860 -0.1724
v  -0.1406 -0.1766 0.0846
v  -0.1161 -0.0934 0.8730
v  -0.1206 -0.2894 0.8861
v  0.0919 -0.2899 0.8863
v  0.0964 -0.0940 0.8731
v  0.1435 0.0897 0.1790
v  0.1439 0.1803 -0.0780
v  0.1030 0.1208 -0.0558
v  0.1025 -0.0542 -0.1176
v  -0.0913 -0.0537 -0.1177
v  -0.0909 0.1214 -0.0560
v  0.1433 -0.0868 -0.1722
v  0.1428 -0.1774 0.0848
v  0.1079 0.0563 0.1672
v  0.1074 -0.1439 0.0966
v  -0.1045 0.0569 0.1670
v  -0.1050 -0.1433 0.0964
v  0.1072 -0.1171 0.4732
v  0.1067 -0.3174 0.4026
v  -0.1052 -0.1165 0.4731
v  -0.1057 -0.3168 0.4025
v  0.1027 0.0600 0.1167
v  0.1022 -0.1151 0.0550
v  -0.0908 0.1349 -0.0944
v  -0.0912 -0.0401 -0.1562
v  0.1434 -0.0408 -0.1560
v  0.1430 -0.1152 0.0550
v  0.1434 0.0599 0.1168
v  0.1438 0.1343 -0.0942
# 32 vertices

vn -1.0000 0.0028 -0.0008
vn -0.0006 0.0672 0.9977
vn 0.0023 0.9431 0.3326
vn 0.0017 0.3326 -0.9431
vn -0.0023 -0.9431 -0.3326
vn -0.0017 -0.3326 0.9431
vn 1.0000 -0.0027 0.0007
vn 0.0020 0.8700 0.4931
vn -1.0000 0.0027 -0.0007
vn -0.0020 -0.8700 -0.4931
vn 1.0000 -0.0028 0.0008
vn -0.0028 -0.9984 0.0565
vn 0.0028 0.9983 -0.0578
vn 0.9995 -0.0123 0.0279
vn 0.9993 -0.0208 0.0319
vn -0.9994 0.0136 -0.0315
vn -0.9994 0.0210 -0.0284
# 17 vertex normals

vt 0.0220 0.3295 0.0000
vt 0.0209 0.4424 0.0000
vt 0.1383 0.4436 0.0000
vt 0.1394 0.3306 0.0000
vt 0.0010 0.0326 0.0000
vt 0.0761 0.0011 0.0000
vt 0.0763 0.0010 0.0000
vt 0.0012 0.0325 0.0000
vt 0.0223 0.3293 0.0000
vt 0.0212 0.4423 0.0000
vt 0.0416 0.4256 0.0000
vt 0.1185 0.4263 0.0000
vt 0.1183 0.4264 0.0000
vt 0.0414 0.4257 0.0000
vt 0.1386 0.4434 0.0000
vt 0.1397 0.3304 0.0000
vt 0.0369 0.3295 0.0000
vt 0.1249 0.3303 0.0000
vt 0.0367 0.3296 0.0000
vt 0.1247 0.3305 0.0000
vt 0.0639 0.1862 0.0000
vt 0.1519 0.1870 0.0000
vt 0.0637 0.1863 0.0000
vt 0.1517 0.1872 0.0000
vt 0.0423 0.3497 0.0000
vt 0.1192 0.3505 0.0000
vt 0.0412 0.4426 0.0000
vt 0.1181 0.4433 0.0000
vt 0.1184 0.4432 0.0000
vt 0.1193 0.3505 0.0000
vt 0.0414 0.4424 0.0000
# 31 texture coords

o BrazoDerecho
g BrazoDerecho
s off
f 1/1/1 2/2/1 3/3/1 
f 3/3/1 4/4/1 1/1/1 
f 5/5/2 6/6/2 7/7/2 
f 7/7/2 8/8/2 5/5/2 
f 9/9/3 10/10/3 2/2/3 
f 2/2/3 1/1/3 9/9/3 
f 11/11/4 12/12/4 13/13/4 
f 13/13/4 14/14/4 11/11/4 
f 15/15/5 16/16/5 4/4/5 
f 4/4/5 3/3/5 15/15/5 
f 16/16/6 9/9/6 17/17/6 
f 17/17/6 18/18/6 16/16/6 
f 9/9/6 1/1/6 19/19/6 
f 19/19/6 17/17/6 9/9/6 
f 1/1/6 4/4/6 20/20/6 
f 20/20/6 19/19/6 1/1/6 
f 4/4/6 16/16/6 18/18/6 
f 18/18/6 20/20/6 4/4/6 
f 18/18/7 17/17/7 21/21/7 
f 21/21/7 22/22/7 18/18/7 
f 17/17/8 19/19/8 23/23/8 
f 23/23/8 21/21/8 17/17/8 
f 19/19/9 20/20/9 24/24/9 
f 24/24/9 23/23/9 19/19/9 
f 20/20/10 18/18/10 22/22/10 
f 22/22/10 24/24/10 20/20/10 
f 11/11/11 25/25/11 26/26/11 
f 26/26/11 12/12/11 11/11/11 
f 2/2/4 27/27/4 28/28/4 
f 28/28/4 3/3/4 2/2/4 
f 3/3/4 28/28/4 29/29/4 
f 29/29/4 15/15/4 3/3/4 
f 15/15/11 29/29/11 30/30/11 
f 30/30/11 16/16/11 15/15/11 
f 16/16/11 30/30/11 31/25/11 
f 31/25/11 9/9/11 16/16/11 
f 9/9/11 31/25/11 32/31/11 
f 32/31/11 10/10/11 9/9/11 
f 10/10/4 32/31/4 27/27/4 
f 27/27/4 2/2/4 10/10/4 
f 27/27/11 14/14/11 13/13/11 
f 13/13/11 28/28/11 27/27/11 
f 28/28/3 13/13/3 12/12/3 
f 12/12/3 29/29/3 28/28/3 
f 29/29/3 12/12/3 26/26/3 
f 26/26/3 30/30/3 29/29/3 
f 30/30/4 26/26/4 25/25/4 
f 25/25/4 31/25/4 30/30/4 
f 31/25/5 25/25/5 11/11/5 
f 11/11/5 32/31/5 31/25/5 
f 32/31/5 11/11/5 14/14/5 
f 14/14/5 27/27/5 32/31/5 
f 24/24/12 22/22/12 7/7/12 
f 7/7/12 6/6/12 24/24/12 
f 21/21/13 23/23/13 5/5/13 
f 5/5/13 8/8/13 21/21/13 
f 22/22/14 21/21/14 8/8/14 
f 8/8/15 7/7/15 22/22/15 
f 23/23/16 24/24/16 6/6/16 
f 6/6/17 5/5/17 23/23/17 
# 60 faces

