# 3ds Max Wavefront OBJ Exporter v0.97b - (c)2007 guruware
# File Created: 17.12.2024 05:33:26

mtllib BowlingCover.mtl

#
# object BowlingCover
#

v  -0.8833 -0.2000 -22.7140
v  -0.7780 -0.2000 -22.7140
v  -0.7819 -0.2000 -22.6337
v  -0.8833 -0.2000 -22.6337
v  0.7766 -0.2000 -22.7140
v  0.8636 -0.2000 -22.7140
v  0.8636 -0.2000 -22.6337
v  0.7788 -0.2000 -22.6337
v  -0.8833 -0.2000 -24.2905
v  -0.8833 -0.2000 -24.4579
v  -0.7741 -0.2000 -24.4579
v  -0.7741 -0.2000 -24.2905
v  0.7745 -0.2000 -24.2905
v  0.7745 -0.2000 -24.4579
v  0.8636 -0.2000 -24.4579
v  0.8636 -0.2000 -24.2905
v  -0.7741 0.9180 -22.6337
v  -0.7741 0.9180 -22.7140
v  -0.8833 0.9180 -22.7140
v  -0.8833 0.9180 -22.6337
v  0.7745 0.9180 -22.6337
v  0.7745 0.9180 -22.7140
v  0.8636 0.9180 -22.6337
v  0.8636 0.9180 -22.7140
v  -0.8833 0.9180 -24.2905
v  -0.7741 0.9180 -24.2905
v  -0.7741 0.9180 -24.4579
v  -0.8833 0.9180 -24.4579
v  0.7745 0.9180 -24.2905
v  0.7745 0.9180 -24.4579
v  0.8636 0.9180 -24.2905
v  0.8636 0.9180 -24.4579
v  -0.7819 0.5022 -22.6337
v  -0.8833 0.5008 -22.6337
v  0.8636 0.5008 -22.6337
v  0.7788 0.5022 -22.6337
v  -0.8833 0.8173 -22.6337
v  -0.7819 0.8214 -22.6337
v  0.7788 0.8214 -22.6337
v  0.8636 0.8173 -22.6337
v  0.8636 0.5008 -22.7140
v  0.8636 0.5008 -24.4579
v  0.8636 0.5008 -24.2905
v  0.8636 0.8173 -22.7140
v  0.8636 0.8173 -24.2905
v  0.8636 0.8173 -24.4579
v  0.7745 0.5008 -24.4579
v  -0.7741 0.5008 -24.4579
v  -0.8833 0.5008 -24.4579
v  0.7745 0.8173 -24.4579
v  -0.7741 0.8173 -24.4579
v  -0.8833 0.8173 -24.4579
v  -0.8833 0.5008 -24.2905
v  -0.8833 0.8173 -24.2905
v  -0.8833 0.8173 -23.7206
v  -0.8833 0.9180 -23.7206
v  -0.7794 0.5029 -22.7150
v  0.7755 0.5038 -24.2918
v  -0.7761 0.5038 -24.2918
v  -0.8833 -0.2000 -23.7206
v  -0.7761 -0.2000 -23.7206
v  0.7755 -0.2000 -23.7206
v  0.8636 -0.2000 -23.7206
v  -0.7741 0.9180 -23.7206
v  0.7745 0.9180 -23.7206
v  0.8636 0.9180 -23.7206
v  0.8636 0.5008 -23.7206
v  0.8636 0.8173 -23.7206
v  -0.8833 0.5008 -22.7140
v  -0.8833 0.8173 -22.7140
v  -0.7778 0.5034 -23.7217
v  0.7774 0.5029 -22.7150
v  -0.7790 0.8229 -23.7225
v  0.7772 0.8229 -23.7225
v  0.7777 0.8224 -22.7153
v  -0.7799 0.8224 -22.7153
v  -0.8833 0.5008 -23.7206
v  0.7765 0.5034 -23.7217
v  0.7766 0.8234 -24.2931
v  -0.7780 0.8234 -24.2931
# 80 vertices

vn 0.0000 -1.0000 -0.0000
vn 0.0000 1.0000 -0.0000
vn 0.0000 0.0000 1.0000
vn 1.0000 -0.0000 0.0000
vn 1.0000 0.0000 -0.0000
vn 1.0000 -0.0000 -0.0000
vn 1.0000 0.0000 0.0000
vn 0.0000 0.0000 -1.0000
vn -1.0000 0.0000 -0.0000
vn 0.9996 0.0021 0.0297
vn 0.9988 0.0000 0.0480
vn -0.0000 0.0018 1.0000
vn 0.0000 0.0018 1.0000
vn 1.0000 0.0024 0.0017
vn 1.0000 0.0021 0.0019
vn -0.9999 0.0000 0.0166
vn -0.9996 0.0012 0.0269
vn 0.0000 -1.0000 -0.0005
vn -1.0000 0.0021 0.0005
vn -1.0000 0.0008 0.0009
vn 0.0000 0.0040 1.0000
vn -0.0000 0.0040 1.0000
vn 1.0000 0.0038 0.0017
vn 1.0000 0.0060 0.0030
vn 0.0000 -0.0010 -1.0000
vn 0.0000 -1.0000 -0.0093
vn -1.0000 0.0012 0.0009
vn -1.0000 0.0013 0.0011
vn 0.0000 -1.0000 -0.0009
vn -1.0000 0.0034 0.0017
vn -1.0000 0.0021 0.0009
vn 1.0000 0.0015 0.0017
vn 1.0000 0.0038 0.0010
vn -0.0012 0.0001 1.0000
vn -0.0133 0.0017 0.9999
vn -0.0145 0.0018 0.9999
vn -0.0339 -0.9994 -0.0001
vn -0.0343 -0.9994 -0.0000
vn -0.0300 -0.9995 -0.0007
vn -0.0296 -0.9996 -0.0007
vn 0.0118 -0.0001 -0.9999
vn 0.0129 0.0000 -0.9999
vn 0.0010 -0.0015 -1.0000
vn -0.0000 -0.0016 -1.0000
vn -0.0010 -0.0002 -1.0000
vn -0.0000 0.0000 -1.0000
vn -0.0096 -0.0015 -1.0000
vn -0.0106 -0.0016 -0.9999
vn 0.0248 -0.9997 -0.0001
vn 0.0244 -0.9997 -0.0000
vn 0.0277 -0.9996 -0.0006
vn 0.0282 -0.9996 -0.0007
vn 0.0107 0.0002 0.9999
vn 0.0119 0.0000 0.9999
vn 0.0011 0.0016 1.0000
# 55 vertex normals

vt 0.5953 0.7809 0.0000
vt 0.5953 0.7620 0.0000
vt 0.6097 0.7627 0.0000
vt 0.6097 0.7809 0.0000
vt 0.5953 0.7534 0.0000
vt 0.5953 0.7378 0.0000
vt 0.6097 0.7378 0.0000
vt 0.6097 0.7530 0.0000
vt 0.6828 0.2347 0.0000
vt 0.6828 0.2647 0.0000
vt 0.6632 0.2647 0.0000
vt 0.6632 0.2347 0.0000
vt 0.3854 0.2347 0.0000
vt 0.3854 0.2647 0.0000
vt 0.3695 0.2647 0.0000
vt 0.3695 0.2347 0.0000
vt 0.0100 0.3038 0.0000
vt 0.0244 0.3038 0.0000
vt 0.0244 0.3234 0.0000
vt 0.0100 0.3234 0.0000
vt 0.0100 0.0260 0.0000
vt 0.0244 0.0260 0.0000
vt 0.0100 0.0100 0.0000
vt 0.0244 0.0100 0.0000
vt 0.3072 0.3234 0.0000
vt 0.3072 0.3038 0.0000
vt 0.3372 0.3038 0.0000
vt 0.3372 0.3234 0.0000
vt 0.3072 0.0260 0.0000
vt 0.3372 0.0260 0.0000
vt 0.3072 0.0100 0.0000
vt 0.3372 0.0100 0.0000
vt 0.6204 0.7809 0.0000
vt 0.6204 0.6549 0.0000
vt 0.6386 0.6552 0.0000
vt 0.6386 0.7809 0.0000
vt 0.3252 0.7809 0.0000
vt 0.3252 0.6552 0.0000
vt 0.3405 0.6549 0.0000
vt 0.3405 0.7809 0.0000
vt 0.6386 0.5984 0.0000
vt 0.6204 0.5977 0.0000
vt 0.6190 0.5803 0.0000
vt 0.6386 0.5803 0.0000
vt 0.3405 0.5977 0.0000
vt 0.3412 0.5803 0.0000
vt 0.3252 0.5984 0.0000
vt 0.3252 0.5803 0.0000
vt 0.6381 0.5561 0.0000
vt 0.6381 0.4304 0.0000
vt 0.6525 0.4304 0.0000
vt 0.6525 0.5561 0.0000
vt 0.3252 0.5561 0.0000
vt 0.3252 0.4304 0.0000
vt 0.3553 0.4304 0.0000
vt 0.3553 0.5561 0.0000
vt 0.6381 0.3737 0.0000
vt 0.6381 0.3556 0.0000
vt 0.6525 0.3556 0.0000
vt 0.6525 0.3737 0.0000
vt 0.3553 0.3737 0.0000
vt 0.3252 0.3737 0.0000
vt 0.3252 0.3556 0.0000
vt 0.3553 0.3556 0.0000
vt 0.9740 0.5561 0.0000
vt 0.9740 0.4304 0.0000
vt 0.9900 0.4304 0.0000
vt 0.9900 0.5561 0.0000
vt 0.6962 0.5561 0.0000
vt 0.6962 0.4304 0.0000
vt 0.6766 0.5561 0.0000
vt 0.6766 0.4304 0.0000
vt 0.9900 0.3737 0.0000
vt 0.9740 0.3737 0.0000
vt 0.9740 0.3556 0.0000
vt 0.9900 0.3556 0.0000
vt 0.6962 0.3737 0.0000
vt 0.6962 0.3556 0.0000
vt 0.6766 0.3737 0.0000
vt 0.6766 0.3556 0.0000
vt 0.6666 0.2105 0.0000
vt 0.6666 0.0848 0.0000
vt 0.6967 0.0848 0.0000
vt 0.6967 0.2105 0.0000
vt 0.6967 0.0281 0.0000
vt 0.6666 0.0281 0.0000
vt 0.6666 0.0100 0.0000
vt 0.6967 0.0100 0.0000
vt 0.5644 0.0281 0.0000
vt 0.5644 0.0100 0.0000
vt 0.9460 0.7639 0.0000
vt 0.9459 0.6378 0.0000
vt 0.9604 0.6379 0.0000
vt 0.9604 0.7639 0.0000
vt 0.3412 0.9886 0.0000
vt 0.3410 0.8624 0.0000
vt 0.6194 0.8624 0.0000
vt 0.6190 0.9886 0.0000
vt 0.4147 0.7809 0.0000
vt 0.4147 0.7616 0.0000
vt 0.4147 0.7536 0.0000
vt 0.4147 0.7378 0.0000
vt 0.2050 0.3038 0.0000
vt 0.2050 0.3234 0.0000
vt 0.2050 0.0260 0.0000
vt 0.2050 0.0100 0.0000
vt 0.4575 0.5561 0.0000
vt 0.4575 0.4304 0.0000
vt 0.4575 0.3737 0.0000
vt 0.4575 0.3556 0.0000
vt 0.3695 0.2105 0.0000
vt 0.3695 0.0848 0.0000
vt 0.3839 0.0848 0.0000
vt 0.3839 0.2105 0.0000
vt 0.3695 0.0281 0.0000
vt 0.3695 0.0100 0.0000
vt 0.3839 0.0100 0.0000
vt 0.3839 0.0281 0.0000
vt 0.7655 0.7639 0.0000
vt 0.7653 0.6377 0.0000
vt 0.6628 0.9716 0.0000
vt 0.6628 0.8457 0.0000
vt 0.6774 0.8456 0.0000
vt 0.6772 0.9716 0.0000
vt 0.1123 0.6348 0.0000
vt 0.1123 0.3557 0.0000
vt 0.2930 0.3556 0.0000
vt 0.2930 0.6350 0.0000
vt 0.5644 0.0848 0.0000
vt 0.6774 0.7883 0.0000
vt 0.8581 0.7882 0.0000
vt 0.8580 0.8455 0.0000
vt 0.3408 0.8051 0.0000
vt 0.6197 0.8051 0.0000
vt 0.6628 0.5803 0.0000
vt 0.7651 0.5804 0.0000
vt 0.6630 0.6376 0.0000
vt 0.0100 0.6672 0.0000
vt 0.2894 0.6672 0.0000
vt 0.2894 0.7245 0.0000
vt 0.0101 0.7245 0.0000
vt 0.0102 0.7633 0.0000
vt 0.0100 0.7487 0.0000
vt 0.2899 0.7487 0.0000
vt 0.2895 0.7633 0.0000
vt 0.5644 0.2105 0.0000
vt 0.8578 0.9716 0.0000
vt 0.0100 0.6347 0.0000
vt 0.0100 0.3558 0.0000
vt 0.9604 0.7881 0.0000
vt 0.9602 0.8454 0.0000
vt 0.9458 0.5805 0.0000
vt 0.3252 0.9886 0.0000
vt 0.3252 0.8629 0.0000
vt 0.9331 0.9716 0.0000
vt 0.9173 0.9714 0.0000
vt 0.9173 0.8692 0.0000
vt 0.9330 0.8694 0.0000
vt 0.8470 0.0102 0.0000
vt 0.8466 0.0258 0.0000
vt 0.7208 0.0258 0.0000
vt 0.7208 0.0100 0.0000
vt 0.4835 0.7297 0.0000
vt 0.4835 0.7105 0.0000
vt 0.6092 0.7105 0.0000
vt 0.6097 0.7294 0.0000
vt 0.9415 0.8694 0.0000
vt 0.9604 0.8692 0.0000
vt 0.9604 0.9714 0.0000
vt 0.9412 0.9716 0.0000
vt 0.6386 0.8629 0.0000
vt 0.6386 0.9886 0.0000
# 172 texture coords

g BowlingCover
usemtl wire_225143087
s 2
f 1/1/1 2/2/1 3/3/1 
f 3/3/1 4/4/1 1/1/1 
f 5/5/1 6/6/1 7/7/1 
f 7/7/1 8/8/1 5/5/1 
f 9/9/1 10/10/1 11/11/1 
f 11/11/1 12/12/1 9/9/1 
f 13/13/1 14/14/1 15/15/1 
f 15/15/1 16/16/1 13/13/1 
s 4
f 17/17/2 18/18/2 19/19/2 
f 19/19/2 20/20/2 17/17/2 
f 21/21/2 22/22/2 18/18/2 
f 18/18/2 17/17/2 21/21/2 
f 23/23/2 24/24/2 22/22/2 
f 22/22/2 21/21/2 23/23/2 
f 25/25/2 26/26/2 27/27/2 
f 27/27/2 28/28/2 25/25/2 
f 26/26/2 29/29/2 30/30/2 
f 30/30/2 27/27/2 26/26/2 
f 29/29/2 31/31/2 32/32/2 
f 32/32/2 30/30/2 29/29/2 
s 8
f 3/33/3 33/34/3 34/35/3 
f 34/35/3 4/36/3 3/33/3 
f 7/37/3 35/38/3 36/39/3 
f 36/39/3 8/40/3 7/37/3 
f 37/41/3 38/42/3 17/43/3 
f 17/43/3 20/44/3 37/41/3 
f 38/42/3 39/45/3 21/46/3 
f 21/46/3 17/43/3 38/42/3 
f 39/45/3 40/47/3 23/48/3 
f 23/48/3 21/46/3 39/45/3 
s 16
f 6/49/4 41/50/5 35/51/4 
f 35/51/4 7/52/4 6/49/4 
f 15/53/6 42/54/6 43/55/6 
f 43/55/6 16/56/6 15/53/6 
f 44/57/7 24/58/7 23/59/7 
f 23/59/7 40/60/5 44/57/7 
f 45/61/5 46/62/5 32/63/5 
f 32/63/5 31/64/5 45/61/5 
s 32
f 14/65/8 47/66/8 42/67/8 
f 42/67/8 15/68/8 14/65/8 
f 11/69/8 48/70/8 47/66/8 
f 47/66/8 14/65/8 11/69/8 
f 10/71/8 49/72/8 48/70/8 
f 48/70/8 11/69/8 10/71/8 
f 46/73/8 50/74/8 30/75/8 
f 30/75/8 32/76/8 46/73/8 
f 50/74/8 51/77/8 27/78/8 
f 27/78/8 30/75/8 50/74/8 
f 51/77/8 52/79/8 28/80/8 
f 28/80/8 27/78/8 51/77/8 
s 64
f 9/81/9 53/82/9 49/83/9 
f 49/83/9 10/84/9 9/81/9 
f 52/85/9 54/86/9 25/87/9 
f 25/87/9 28/88/9 52/85/9 
f 55/89/9 56/90/9 25/87/9 
f 25/87/9 54/86/9 55/89/9 
s 1
f 13/13/1 12/12/1 11/11/1 
f 11/11/1 14/14/1 13/13/1 
s off
f 2/91/10 57/92/10 33/93/10 
f 33/93/11 3/94/11 2/91/11 
f 13/95/12 58/96/12 59/97/12 
f 59/97/13 12/98/13 13/95/13 
s 2
f 60/99/1 61/100/1 2/2/1 
f 2/2/1 1/1/1 60/99/1 
f 62/101/1 63/102/1 6/6/1 
f 6/6/1 5/5/1 62/101/1 
s 4
f 64/103/2 56/104/2 19/19/2 
f 19/19/2 18/18/2 64/103/2 
f 65/105/2 64/103/2 18/18/2 
f 18/18/2 22/22/2 65/105/2 
f 66/106/2 65/105/2 22/22/2 
f 22/22/2 24/24/2 66/106/2 
s 16
f 63/107/5 67/108/5 41/50/5 
f 41/50/5 6/49/4 63/107/5 
f 68/109/5 66/110/5 24/58/7 
f 24/58/7 44/57/7 68/109/5 
s 64
f 4/111/9 34/112/9 69/113/9 
f 69/113/9 1/114/9 4/111/9 
f 37/115/9 20/116/9 19/117/9 
f 19/117/9 70/118/9 37/115/9 
s off
f 61/119/14 71/120/14 57/92/14 
f 57/92/15 2/91/15 61/119/15 
f 8/121/16 36/122/16 72/123/16 
f 72/123/17 5/124/17 8/121/17 
f 73/125/18 74/126/18 75/127/18 
f 75/127/18 76/128/18 73/125/18 
s 8
f 33/34/3 38/42/3 37/41/3 
f 37/41/3 34/35/3 33/34/3 
f 40/47/3 39/45/3 36/39/3 
f 36/39/3 35/38/3 40/47/3 
s 16
f 44/57/7 40/60/5 35/51/4 
f 35/51/4 41/50/5 44/57/7 
f 46/62/5 45/61/5 43/55/6 
f 43/55/6 42/54/6 46/62/5 
s 32
f 50/74/8 46/73/8 42/67/8 
f 42/67/8 47/66/8 50/74/8 
f 51/77/8 50/74/8 47/66/8 
f 47/66/8 48/70/8 51/77/8 
f 52/79/8 51/77/8 48/70/8 
f 48/70/8 49/72/8 52/79/8 
s 64
f 54/86/9 52/85/9 49/83/9 
f 49/83/9 53/82/9 54/86/9 
f 70/118/9 55/89/9 77/129/9 
f 77/129/9 69/113/9 70/118/9 
s off
f 75/130/19 74/131/19 78/132/19 
f 78/132/20 72/123/20 75/130/20 
f 79/133/21 80/134/21 59/97/21 
f 59/97/22 58/96/22 79/133/22 
s 16
f 45/61/5 68/109/5 67/108/5 
f 67/108/5 43/55/6 45/61/5 
s 64
f 37/115/9 70/118/9 69/113/9 
f 69/113/9 34/112/9 37/115/9 
s off
f 80/135/23 73/136/23 71/120/23 
f 71/120/24 59/137/24 80/135/24 
f 39/45/3 38/42/3 33/34/3 
f 33/34/3 36/39/3 39/45/3 
f 76/138/25 75/139/25 72/140/25 
f 72/140/25 57/141/25 76/138/25 
f 72/142/26 36/143/26 33/144/26 
f 33/144/26 57/145/26 72/142/26 
s 64
f 1/114/9 69/113/9 77/129/9 
f 77/129/9 60/146/9 1/114/9 
f 70/118/9 19/117/9 56/90/9 
f 56/90/9 55/89/9 70/118/9 
s off
f 5/124/27 72/123/27 78/132/27 
f 78/132/28 62/147/28 5/124/28 
s 4
f 26/26/2 25/25/2 56/104/2 
f 56/104/2 64/103/2 26/26/2 
f 29/29/2 26/26/2 64/103/2 
f 64/103/2 65/105/2 29/29/2 
f 31/31/2 29/29/2 65/105/2 
f 65/105/2 66/106/2 31/31/2 
s 16
f 45/61/5 31/64/5 66/110/5 
f 66/110/5 68/109/5 45/61/5 
s off
f 80/148/29 79/149/29 74/126/29 
f 74/126/29 73/125/29 80/148/29 
s 64
f 54/86/9 53/82/9 77/129/9 
f 77/129/9 55/89/9 54/86/9 
s off
f 79/150/30 58/151/30 78/132/30 
f 78/132/31 74/131/31 79/150/31 
s 16
f 44/57/7 41/50/5 67/108/5 
f 67/108/5 68/109/5 44/57/7 
s off
f 76/152/32 57/92/32 71/120/32 
f 71/120/33 73/136/33 76/152/33 
s 4
f 13/95/34 16/153/3 43/154/35 
f 43/154/35 58/96/36 13/95/34 
s 8
f 58/155/37 43/156/38 67/157/39 
f 67/157/39 78/158/40 58/155/37 
s 4
f 78/159/41 67/160/42 63/161/43 
f 63/161/43 62/162/44 78/159/41 
f 61/163/45 60/164/46 77/165/47 
f 77/165/47 71/166/48 61/163/45 
s 8
f 71/167/49 77/168/50 53/169/51 
f 53/169/51 59/170/52 71/167/49 
s 4
f 59/97/53 53/171/54 9/172/55 
f 9/172/55 12/98/13 59/97/53 
# 156 faces

