# 3ds Max Wavefront OBJ Exporter v0.97b - (c)2007 guruware
# File Created: 17.12.2024 05:33:49

mtllib BowlingLaneLeft.mtl

#
# object BowlingLaneLeft
#

v  -0.7601 -0.2000 -22.8600
v  -0.7304 -0.2000 -22.8600
v  -0.7304 -0.2000 -4.5700
v  -0.7601 -0.2000 -4.5700
v  -0.7304 0.0000 -4.5700
v  -0.7304 0.0000 -22.8600
v  -0.7601 0.0000 -22.8600
v  -0.7601 0.0000 -4.5700
v  -0.5319 -0.2000 -4.5700
v  -0.5319 -0.2000 -22.8600
v  -0.5319 0.0000 -22.8600
v  -0.5319 0.0000 -4.5700
v  -0.7601 -0.2000 -23.7300
v  -0.7304 -0.2000 -23.7300
v  -0.7304 0.0000 -23.7300
v  -0.7601 0.0000 -23.7300
v  -0.5319 -0.2000 -23.7300
v  -0.5319 0.0000 -23.7300
v  -0.5551 -0.2000 -23.7300
v  -0.5551 0.0000 -23.7300
v  -0.5551 -0.2000 -4.5700
v  -0.5551 -0.2000 -22.8600
v  -0.5551 0.0000 -22.8600
v  -0.5551 0.0000 -4.5700
v  -0.5780 -0.2000 -23.7300
v  -0.5780 -0.0289 -23.7300
v  -0.7074 -0.2000 -22.8600
v  -0.7074 -0.2000 -4.5700
v  -0.7074 -0.0289 -4.5700
v  -0.7074 -0.0289 -22.8600
v  -0.7074 -0.2000 -23.7300
v  -0.7074 -0.0289 -23.7300
v  -0.5780 -0.2000 -4.5700
v  -0.5780 -0.2000 -22.8600
v  -0.5780 -0.0289 -22.8600
v  -0.5780 -0.0289 -4.5700
# 36 vertices

vn 0.0000 -1.0000 -0.0000
vn 0.4337 0.9010 -0.0000
vn 0.0000 1.0000 -0.0000
vn 0.0000 0.0000 1.0000
vn 1.0000 0.0000 -0.0000
vn -1.0000 0.0000 0.0000
vn 0.0000 0.0000 -1.0000
vn -0.4354 0.9002 0.0000
# 8 vertex normals

vt 0.0545 0.0217 0.0000
vt 0.0545 0.0202 0.0000
vt 0.9900 0.0202 0.0000
vt 0.9900 0.0217 0.0000
vt 0.0100 0.0780 0.0000
vt 0.9455 0.0780 0.0000
vt 0.9455 0.0796 0.0000
vt 0.0100 0.0796 0.0000
vt 0.0202 0.1397 0.0000
vt 0.0202 0.1295 0.0000
vt 0.0217 0.1295 0.0000
vt 0.0217 0.1397 0.0000
vt 0.9900 0.0568 0.0000
vt 0.0545 0.0568 0.0000
vt 0.0545 0.0465 0.0000
vt 0.9900 0.0465 0.0000
vt 0.9455 0.0403 0.0000
vt 0.0100 0.0403 0.0000
vt 0.0100 0.0300 0.0000
vt 0.9455 0.0300 0.0000
vt 0.0100 0.0217 0.0000
vt 0.0100 0.0202 0.0000
vt 0.9900 0.0780 0.0000
vt 0.9900 0.0796 0.0000
vt 0.0100 0.0568 0.0000
vt 0.0100 0.0465 0.0000
vt 0.0205 0.1232 0.0000
vt 0.0205 0.1130 0.0000
vt 0.0217 0.1130 0.0000
vt 0.0217 0.1232 0.0000
vt 0.9900 0.0403 0.0000
vt 0.9900 0.0300 0.0000
vt 0.0545 0.0100 0.0000
vt 0.9900 0.0100 0.0000
vt 0.9900 0.0112 0.0000
vt 0.0545 0.0112 0.0000
vt 0.0100 0.1034 0.0000
vt 0.9455 0.1034 0.0000
vt 0.9455 0.1046 0.0000
vt 0.0100 0.1046 0.0000
vt 0.0100 0.1397 0.0000
vt 0.0100 0.1295 0.0000
vt 0.0112 0.1295 0.0000
vt 0.0112 0.1397 0.0000
vt 0.0100 0.0100 0.0000
vt 0.0100 0.0112 0.0000
vt 0.9900 0.1034 0.0000
vt 0.9900 0.1046 0.0000
vt 0.0193 0.1232 0.0000
vt 0.0193 0.1145 0.0000
vt 0.0545 0.0190 0.0000
vt 0.9900 0.0190 0.0000
vt 0.9900 0.0894 0.0000
vt 0.0545 0.0894 0.0000
vt 0.0545 0.0879 0.0000
vt 0.9900 0.0879 0.0000
vt 0.0190 0.1397 0.0000
vt 0.0190 0.1310 0.0000
vt 0.0100 0.0190 0.0000
vt 0.0100 0.0894 0.0000
vt 0.0100 0.0879 0.0000
vt 0.0100 0.1232 0.0000
vt 0.0100 0.1130 0.0000
vt 0.0115 0.1130 0.0000
vt 0.0115 0.1232 0.0000
vt 0.0127 0.1232 0.0000
vt 0.0127 0.1145 0.0000
vt 0.9900 0.0124 0.0000
vt 0.0545 0.0124 0.0000
vt 0.0100 0.0957 0.0000
vt 0.9455 0.0957 0.0000
vt 0.9455 0.0972 0.0000
vt 0.0100 0.0972 0.0000
vt 0.0124 0.1310 0.0000
vt 0.0124 0.1397 0.0000
vt 0.0100 0.0124 0.0000
vt 0.9900 0.0957 0.0000
vt 0.9900 0.0972 0.0000
vt 0.0100 0.0631 0.0000
vt 0.9455 0.0631 0.0000
vt 0.9455 0.0697 0.0000
vt 0.0100 0.0697 0.0000
vt 0.9900 0.0631 0.0000
vt 0.9900 0.0697 0.0000
# 84 texture coords

g BowlingLaneLeft
usemtl wire_135006006
s 2
f 1/1/1 2/2/1 3/3/1 
f 3/3/1 4/4/1 1/1/1 
s 4
f 5/5/2 6/6/2 7/7/3 
f 7/7/3 8/8/3 5/5/2 
s 8
f 3/9/4 5/10/4 8/11/4 
f 8/11/4 4/12/4 3/9/4 
s 16
f 9/13/5 10/14/5 11/15/5 
f 11/15/5 12/16/5 9/13/5 
s 64
f 1/17/6 4/18/6 8/19/6 
f 8/19/6 7/20/6 1/17/6 
s 2
f 13/21/1 14/22/1 2/2/1 
f 2/2/1 1/1/1 13/21/1 
s 4
f 6/6/2 15/23/2 16/24/3 
f 16/24/3 7/7/3 6/6/2 
s 16
f 10/14/5 17/25/5 18/26/5 
f 18/26/5 11/15/5 10/14/5 
s 32
f 19/27/7 20/28/7 18/29/7 
f 18/29/7 17/30/7 19/27/7 
s 64
f 13/31/6 1/17/6 7/20/6 
f 7/20/6 16/32/6 13/31/6 
s 2
f 10/33/1 9/34/1 21/35/1 
f 21/35/1 22/36/1 10/33/1 
s 4
f 12/37/3 11/38/3 23/39/8 
f 23/39/8 24/40/8 12/37/3 
s 8
f 9/41/4 12/42/4 24/43/4 
f 24/43/4 21/44/4 9/41/4 
s 2
f 17/45/1 10/33/1 22/36/1 
f 22/36/1 19/46/1 17/45/1 
s 4
f 11/38/3 18/47/3 20/48/8 
f 20/48/8 23/39/8 11/38/3 
s 32
f 25/49/7 26/50/7 20/28/7 
f 20/28/7 19/27/7 25/49/7 
s 2
f 27/51/1 28/52/1 3/3/1 
f 3/3/1 2/2/1 27/51/1 
s 4
f 29/53/2 30/54/2 6/55/2 
f 6/55/2 5/56/2 29/53/2 
s 8
f 28/57/4 29/58/4 5/10/4 
f 5/10/4 3/9/4 28/57/4 
s 2
f 31/59/1 27/51/1 2/2/1 
f 2/2/1 14/22/1 31/59/1 
s 4
f 30/54/2 32/60/2 15/61/2 
f 15/61/2 6/55/2 30/54/2 
s 32
f 13/62/7 16/63/7 15/64/7 
f 15/64/7 14/65/7 13/62/7 
f 31/66/7 32/67/7 26/50/7 
f 26/50/7 25/49/7 31/66/7 
s 2
f 22/36/1 21/35/1 33/68/1 
f 33/68/1 34/69/1 22/36/1 
s 4
f 24/70/8 23/71/8 35/72/8 
f 35/72/8 36/73/8 24/70/8 
s 8
f 21/44/4 24/43/4 36/74/4 
f 36/74/4 33/75/4 21/44/4 
s 2
f 19/46/1 22/36/1 34/69/1 
f 34/69/1 25/76/1 19/46/1 
s 4
f 23/71/8 20/77/8 26/78/8 
f 26/78/8 35/72/8 23/71/8 
s 2
f 34/69/1 33/68/1 28/52/1 
f 28/52/1 27/51/1 34/69/1 
s 4
f 36/79/8 35/80/8 30/81/2 
f 30/81/2 29/82/2 36/79/8 
s 8
f 33/75/4 36/74/4 29/58/4 
f 29/58/4 28/57/4 33/75/4 
s 2
f 25/76/1 34/69/1 27/51/1 
f 27/51/1 31/59/1 25/76/1 
s 4
f 35/80/8 26/83/8 32/84/2 
f 32/84/2 30/81/2 35/80/8 
s 32
f 14/65/7 15/64/7 32/67/7 
f 32/67/7 31/66/7 14/65/7 
# 68 faces

