# 3ds Max Wavefront OBJ Exporter v0.97b - (c)2007 guruware
# File Created: 17.12.2024 21:46:25

mtllib HandLeft.mtl

#
# object HandLeft
#

v  0.0546 -0.0106 -0.0304
v  0.0646 -0.0106 -0.0013
v  0.0305 -0.0106 -0.0259
v  0.0305 -0.0106 -0.0510
v  0.0305 0.0106 -0.0259
v  0.0646 0.0106 -0.0013
v  0.0546 0.0106 -0.0304
v  0.0305 0.0105 -0.0510
v  0.0208 -0.0106 0.0231
v  0.0354 -0.0106 0.0231
v  0.0354 0.0106 0.0231
v  0.0208 0.0106 0.0231
v  -0.0481 -0.0106 -0.0510
v  -0.0481 -0.0106 -0.0259
v  -0.0481 0.0106 -0.0259
v  -0.0481 0.0106 -0.0510
v  -0.0317 -0.0106 -0.1310
v  -0.0481 -0.0106 -0.1310
v  -0.0481 0.0106 -0.1310
v  -0.0317 0.0106 -0.1310
v  0.0460 -0.0106 -0.1204
v  0.0460 -0.0106 -0.1410
v  0.0460 0.0106 -0.1410
v  0.0460 0.0106 -0.1204
v  0.0460 -0.0106 -0.0983
v  0.0460 -0.0106 -0.0762
v  0.0305 -0.0106 -0.0762
v  0.0305 -0.0106 -0.0983
v  -0.0481 0.0106 -0.0958
v  -0.0481 0.0106 -0.0762
v  -0.0317 0.0105 -0.0762
v  -0.0317 0.0105 -0.0958
v  -0.0481 -0.0106 -0.0958
v  -0.0481 -0.0106 -0.0762
v  0.0460 0.0106 -0.0762
v  -0.0217 -0.0106 -0.0762
v  -0.0056 -0.0106 -0.0762
v  -0.0056 -0.0106 -0.0510
v  -0.0217 -0.0106 -0.0510
v  -0.0217 0.0106 -0.0259
v  -0.0056 0.0106 -0.0259
v  -0.0056 0.0105 -0.0510
v  -0.0217 0.0105 -0.0510
v  -0.0151 -0.0106 0.0231
v  -0.0040 -0.0106 0.0231
v  -0.0040 0.0106 0.0231
v  -0.0151 0.0106 0.0231
v  0.0205 -0.0106 -0.1511
v  0.0044 -0.0106 -0.1511
v  0.0044 0.0106 -0.1511
v  0.0205 0.0106 -0.1511
v  -0.0217 -0.0106 -0.1445
v  -0.0056 -0.0106 -0.1445
v  -0.0056 -0.0106 -0.1221
v  -0.0217 -0.0106 -0.1221
v  0.0044 0.0105 -0.1255
v  0.0205 0.0105 -0.1255
v  0.0044 -0.0106 -0.0762
v  0.0205 -0.0106 -0.0762
v  0.0205 -0.0106 -0.0510
v  0.0044 -0.0106 -0.0510
v  0.0044 0.0106 -0.0259
v  0.0205 0.0106 -0.0259
v  0.0205 0.0105 -0.0510
v  0.0044 0.0105 -0.0510
v  0.0029 -0.0106 0.0231
v  0.0140 -0.0106 0.0231
v  0.0140 0.0106 0.0231
v  0.0029 0.0106 0.0231
v  -0.0217 0.0106 -0.1445
v  -0.0056 0.0106 -0.1445
v  0.0205 -0.0106 -0.1255
v  0.0044 -0.0106 -0.1255
v  -0.0217 0.0105 -0.1221
v  -0.0056 0.0105 -0.1221
v  -0.0317 -0.0106 -0.0762
v  -0.0317 -0.0106 -0.0510
v  -0.0317 0.0106 -0.0259
v  -0.0317 0.0105 -0.0510
v  -0.0319 -0.0106 0.0231
v  -0.0220 -0.0106 0.0231
v  -0.0220 0.0106 0.0231
v  -0.0319 0.0106 0.0231
v  0.0305 -0.0106 -0.1410
v  0.0305 0.0106 -0.1410
v  -0.0317 -0.0106 -0.1154
v  -0.0481 -0.0106 -0.1154
v  0.0305 0.0105 -0.1204
v  -0.0056 0.0105 -0.0762
v  0.0044 0.0105 -0.0762
v  0.0205 0.0105 -0.0762
v  0.0305 0.0105 -0.0762
v  -0.0217 0.0105 -0.0762
v  -0.0317 0.0105 -0.1154
v  0.0305 -0.0106 -0.1204
v  -0.0317 -0.0106 -0.0259
v  0.0205 -0.0106 -0.0259
v  0.0044 -0.0106 -0.0259
v  -0.0056 -0.0106 -0.0259
v  -0.0217 -0.0106 -0.0259
v  0.1006 -0.0106 -0.0401
v  0.0889 -0.0106 -0.0507
v  0.0889 0.0106 -0.0507
v  0.1006 0.0106 -0.0401
v  0.0734 -0.0106 -0.0391
v  0.0906 -0.0106 -0.0236
v  0.0906 0.0106 -0.0236
v  0.0734 0.0106 -0.0391
v  0.0460 0.0106 -0.0983
v  -0.0481 0.0106 -0.1154
v  -0.0217 -0.0106 -0.0991
v  -0.0056 -0.0106 -0.0991
v  0.0205 0.0105 -0.1008
v  0.0044 0.0105 -0.1008
v  0.0044 -0.0106 -0.1008
v  0.0205 -0.0106 -0.1008
v  -0.0056 0.0105 -0.0991
v  -0.0217 0.0105 -0.0991
v  -0.0317 -0.0106 -0.0958
v  0.0305 0.0105 -0.0983
# 120 vertices

vn 0.0000 -1.0000 -0.0000
vn -0.0001 1.0000 -0.0014
vn 0.0000 1.0000 -0.0000
vn -0.0005 1.0000 -0.0004
vn -0.0011 1.0000 -0.0011
vn 0.0000 0.0000 1.0000
vn -1.0000 0.0000 -0.0000
vn 0.0000 0.0000 -1.0000
vn 1.0000 0.0000 -0.0000
vn 0.0043 1.0000 0.0003
vn 0.0048 1.0000 -0.0005
vn 0.0033 1.0000 -0.0010
vn 0.0037 1.0000 0.0008
vn 0.9828 0.0000 -0.1849
vn 0.9957 0.0000 -0.0928
vn 0.0000 1.0000 -0.0017
vn 0.0000 1.0000 0.0017
vn 0.0000 1.0000 0.0013
vn -0.0000 1.0000 0.0019
vn 0.0000 1.0000 0.0019
vn -0.0000 1.0000 0.0014
vn 0.0010 1.0000 -0.0011
vn 0.0013 1.0000 -0.0012
vn 0.0027 1.0000 -0.0000
vn -0.0012 1.0000 0.0012
vn 0.0000 1.0000 0.0021
vn -0.0025 1.0000 0.0006
vn -0.0028 1.0000 -0.0000
vn -0.9495 0.0000 0.3138
vn 0.6403 0.0000 0.7681
vn -0.0046 1.0000 -0.0002
vn -0.0037 1.0000 -0.0008
vn 0.6717 0.0000 -0.7408
vn 0.0000 1.0000 -0.0008
vn -0.0000 1.0000 -0.0008
vn 0.0000 1.0000 -0.0009
vn 0.6520 0.0000 0.7582
vn -0.4232 0.0000 -0.9061
vn 0.8547 0.0000 0.5191
vn -0.6000 0.0000 -0.8000
vn 0.0014 1.0000 0.0014
vn 0.0030 1.0000 0.0003
vn 0.0020 1.0000 0.0013
vn 0.0000 1.0000 0.0028
vn 0.0000 1.0000 0.0009
vn -0.0000 1.0000 0.0009
vn -0.0039 1.0000 0.0003
vn -0.0045 1.0000 0.0007
vn 1.0000 0.0000 0.0000
vn -1.0000 0.0000 0.0000
# 50 vertex normals

vt 1.0000 0.2500 0.0000
vt 1.0000 0.0000 0.0000
vt 0.7979 0.0000 0.0000
vt 0.7979 0.2500 0.0000
vt 0.2021 0.0000 0.0000
vt 0.0000 0.0000 0.0000
vt 0.0000 0.2500 0.0000
vt 0.2021 0.2500 0.0000
vt 0.0000 1.0000 0.0000
vt 0.2021 1.0000 0.0000
vt 0.2500 0.0000 0.0000
vt 0.2500 1.0000 0.0000
vt 1.0000 0.6250 0.0000
vt 1.0000 0.5000 0.0000
vt 0.7979 0.5000 0.0000
vt 0.7979 0.6250 0.0000
vt 0.6250 0.0000 0.0000
vt 0.5000 0.0000 0.0000
vt 0.5000 1.0000 0.0000
vt 0.6250 1.0000 0.0000
vt 0.7500 0.0000 0.0000
vt 0.7500 1.0000 0.0000
vt 0.2979 0.5000 0.0000
vt 0.4521 0.5000 0.0000
vt 0.4521 0.2500 0.0000
vt 0.2979 0.2500 0.0000
vt 0.7021 0.0000 0.0000
vt 0.5479 0.0000 0.0000
vt 0.5479 0.2500 0.0000
vt 0.7021 0.2500 0.0000
vt 0.5479 1.0000 0.0000
vt 0.7021 1.0000 0.0000
vt 0.2979 1.0000 0.0000
vt 0.4521 1.0000 0.0000
vt 0.4521 0.7500 0.0000
vt 0.2979 0.7500 0.0000
vt 0.5479 0.5000 0.0000
vt 0.7021 0.5000 0.0000
vt 0.4521 0.0000 0.0000
vt 0.2979 0.0000 0.0000
vt 0.7021 0.7500 0.0000
vt 0.5479 0.7500 0.0000
vt 0.0000 0.5000 0.0000
vt 0.2021 0.5000 0.0000
vt 0.7979 1.0000 0.0000
vt 1.0000 1.0000 0.0000
vt 0.2021 0.7500 0.0000
vt 0.0000 0.7500 0.0000
vt 0.5000 0.7500 0.0000
vt 0.7979 0.7500 0.0000
vt 0.3750 0.0000 0.0000
vt 0.3750 1.0000 0.0000
vt 1.0000 0.7500 0.0000
vt 0.2979 0.6250 0.0000
vt 0.4521 0.6250 0.0000
vt 0.5479 0.6250 0.0000
vt 0.7021 0.6250 0.0000
vt 0.0000 0.6250 0.0000
vt 0.2021 0.6250 0.0000
vt 0.4521 0.3750 0.0000
vt 0.4760 0.6250 0.0000
vt 0.2021 0.3750 0.0000
vt 0.3510 0.6250 0.0000
vt 0.7021 0.3750 0.0000
vt 0.6010 0.6250 0.0000
# 65 texture coords

g HandLeft
usemtl wire_177088027
s 1
f 1/1/1 2/2/1 3/3/1 
f 3/3/1 4/4/1 1/1/1 
f 5/5/2 6/6/3 7/7/4 
f 7/7/4 8/8/5 5/5/2 
s 2
f 9/5/6 10/6/6 11/9/6 
f 11/9/6 12/10/6 9/5/6 
s 4
f 13/11/7 14/6/7 15/9/7 
f 15/9/7 16/12/7 13/11/7 
s 2
f 17/5/8 18/6/8 19/9/8 
f 19/9/8 20/10/8 17/5/8 
s 4
f 21/11/9 22/6/9 23/9/9 
f 23/9/9 24/12/9 21/11/9 
s 1
f 25/13/1 26/14/1 27/15/1 
f 27/15/1 28/16/1 25/13/1 
f 29/13/10 30/14/11 31/15/12 
f 31/15/12 32/16/13 29/13/10 
s 4
f 33/17/7 34/18/7 30/19/7 
f 30/19/7 29/20/7 33/17/7 
f 1/21/14 26/18/15 35/19/15 
f 35/19/15 7/22/14 1/21/14 
s 1
f 36/23/1 37/24/1 38/25/1 
f 38/25/1 39/26/1 36/23/1 
f 40/27/16 41/28/16 42/29/16 
f 42/29/16 43/30/16 40/27/16 
s 2
f 44/27/6 45/28/6 46/31/6 
f 46/31/6 47/32/6 44/27/6 
f 48/27/8 49/28/8 50/31/8 
f 50/31/8 51/32/8 48/27/8 
s 1
f 52/33/1 53/34/1 54/35/1 
f 54/35/1 55/36/1 52/33/1 
f 51/33/17 50/34/17 56/35/18 
f 56/35/18 57/36/18 51/33/17 
f 58/37/1 59/38/1 60/30/1 
f 60/30/1 61/29/1 58/37/1 
f 62/39/16 63/40/16 64/26/16 
f 64/26/16 65/25/16 62/39/16 
s 2
f 66/39/6 67/40/6 68/33/6 
f 68/33/6 69/34/6 66/39/6 
f 53/39/8 52/40/8 70/33/8 
f 70/33/8 71/34/8 53/39/8 
s 1
f 49/31/1 48/32/1 72/41/1 
f 72/41/1 73/42/1 49/31/1 
f 71/31/19 70/32/20 74/41/21 
f 74/41/21 75/42/21 71/31/19 
f 34/43/1 76/44/1 77/8/1 
f 77/8/1 13/7/1 34/43/1 
f 15/2/22 78/3/16 79/4/23 
f 79/4/23 16/1/24 15/2/22 
s 2
f 80/2/6 81/3/6 82/45/6 
f 82/45/6 83/46/6 80/2/6 
f 22/2/8 84/3/8 85/45/8 
f 85/45/8 23/46/8 22/2/8 
s 1
f 18/9/1 17/10/1 86/47/1 
f 86/47/1 87/48/1 18/9/1 
f 23/9/25 85/10/26 88/47/27 
f 88/47/27 24/48/28 23/9/25 
f 37/24/1 58/37/1 61/29/1 
f 61/29/1 38/25/1 37/24/1 
f 41/28/16 62/39/16 65/25/16 
f 65/25/16 42/29/16 41/28/16 
s 2
f 66/39/6 69/34/6 46/31/6 
f 46/31/6 45/28/6 66/39/6 
s 1
f 59/38/1 27/15/1 4/4/1 
f 4/4/1 60/30/1 59/38/1 
f 63/40/16 5/5/2 8/8/5 
f 8/8/5 64/26/16 63/40/16 
s 2
f 9/5/6 12/10/6 68/33/6 
f 68/33/6 67/40/6 9/5/6 
s 1
f 76/44/1 36/23/1 39/26/1 
f 39/26/1 77/8/1 76/44/1 
f 78/3/16 40/27/16 43/30/16 
f 43/30/16 79/4/23 78/3/16 
s 2
f 44/27/6 47/32/6 82/45/6 
f 82/45/6 81/3/6 44/27/6 
s off
f 37/24/8 89/24/8 90/37/8 
f 90/37/8 58/37/8 37/24/8 
f 59/38/8 91/38/8 92/15/8 
f 92/15/8 27/15/8 59/38/8 
f 76/44/8 31/44/8 93/23/8 
f 93/23/8 36/23/8 76/44/8 
f 54/25/9 53/39/9 71/31/9 
f 71/31/9 75/49/9 54/25/9 
f 50/31/7 49/31/7 73/42/7 
f 73/42/7 56/49/7 50/31/7 
f 86/8/9 17/5/9 20/45/9 
f 20/45/9 94/49/9 86/8/9 
f 85/45/7 84/45/7 95/50/7 
f 95/50/7 88/49/7 85/45/7 
f 72/30/9 48/27/9 51/33/9 
f 51/33/9 57/49/9 72/30/9 
f 70/33/7 52/33/7 55/36/7 
f 55/36/7 74/49/7 70/33/7 
f 96/3/1 81/3/1 80/2/1 
f 80/2/1 14/2/1 96/3/1 
f 14/2/29 80/2/29 83/46/29 
f 83/46/29 15/46/29 14/2/29 
f 15/46/3 83/46/3 82/45/3 
f 82/45/3 78/45/3 15/46/3 
f 78/45/3 82/45/3 47/32/3 
f 47/32/3 40/32/3 78/45/3 
f 40/32/3 47/32/3 46/31/3 
f 46/31/3 41/31/3 40/32/3 
f 41/31/3 46/31/3 69/34/3 
f 69/34/3 62/34/3 41/31/3 
f 62/34/3 69/34/3 68/33/3 
f 68/33/3 63/33/3 62/34/3 
f 63/33/3 68/33/3 12/10/3 
f 12/10/3 5/10/3 63/33/3 
f 5/10/3 12/10/3 11/9/3 
f 11/9/3 6/9/3 5/10/3 
f 6/9/30 11/9/30 10/6/30 
f 10/6/30 2/6/30 6/9/30 
f 2/6/1 10/6/1 9/5/1 
f 9/5/1 3/5/1 2/6/1 
f 3/5/1 9/5/1 67/40/1 
f 67/40/1 97/40/1 3/5/1 
f 97/40/1 67/40/1 66/39/1 
f 66/39/1 98/39/1 97/40/1 
f 98/39/1 66/39/1 45/28/1 
f 45/28/1 99/28/1 98/39/1 
f 99/28/1 45/28/1 44/27/1 
f 44/27/1 100/27/1 99/28/1 
f 100/27/1 44/27/1 81/3/1 
f 81/3/1 96/3/1 100/27/1 
s 1
f 26/14/1 1/1/1 4/4/1 
f 4/4/1 27/15/1 26/14/1 
f 8/8/5 7/7/4 35/43/31 
f 35/43/31 92/44/32 8/8/5 
s 4
f 34/18/7 13/11/7 16/12/7 
f 16/12/7 30/19/7 34/18/7 
f 101/2/33 102/21/33 103/22/33 
f 103/22/33 104/46/33 101/2/33 
s 1
f 100/40/1 39/26/1 38/25/1 
f 38/25/1 99/39/1 100/40/1 
f 93/38/34 43/30/16 42/29/16 
f 42/29/16 89/37/35 93/38/34 
f 98/28/1 61/29/1 60/30/1 
f 60/30/1 97/27/1 98/28/1 
f 90/24/36 65/25/16 64/26/16 
f 64/26/16 91/23/36 90/24/36 
f 14/6/1 13/7/1 77/8/1 
f 77/8/1 96/5/1 14/6/1 
f 30/14/11 16/1/24 79/4/23 
f 79/4/23 31/15/12 30/14/11 
f 99/39/1 38/25/1 61/29/1 
f 61/29/1 98/28/1 99/39/1 
f 89/37/35 42/29/16 65/25/16 
f 65/25/16 90/24/36 89/37/35 
f 97/27/1 60/30/1 4/4/1 
f 4/4/1 3/3/1 97/27/1 
f 91/23/36 64/26/16 8/8/5 
f 8/8/5 92/44/32 91/23/36 
f 96/5/1 77/8/1 39/26/1 
f 39/26/1 100/40/1 96/5/1 
f 31/15/12 79/4/23 43/30/16 
f 43/30/16 93/38/34 31/15/12 
s off
f 1/21/1 105/21/1 106/2/1 
f 106/2/1 2/2/1 1/21/1 
f 2/2/37 106/2/37 107/46/37 
f 107/46/37 6/46/37 2/2/37 
f 6/46/3 107/46/3 108/22/3 
f 108/22/3 7/22/3 6/46/3 
f 7/22/38 108/22/38 105/21/38 
f 105/21/38 1/21/38 7/22/38 
f 105/21/1 102/21/1 101/2/1 
f 101/2/1 106/2/1 105/21/1 
f 106/2/39 101/2/39 104/46/39 
f 104/46/39 107/46/39 106/2/39 
f 107/46/3 104/46/3 103/22/3 
f 103/22/3 108/22/3 107/46/3 
f 108/22/40 103/22/40 102/21/40 
f 102/21/40 105/21/40 108/22/40 
s 4
f 25/51/9 21/11/9 24/12/9 
f 24/12/9 109/52/9 25/51/9 
s 1
f 22/46/1 21/53/1 95/50/1 
f 95/50/1 84/45/1 22/46/1 
f 19/46/41 110/53/42 94/50/43 
f 94/50/43 20/45/44 19/46/41 
s 4
f 18/2/7 87/21/7 110/22/7 
f 110/22/7 19/46/7 18/2/7 
s 1
f 111/54/1 55/36/1 54/35/1 
f 54/35/1 112/55/1 111/54/1 
f 113/54/45 57/36/18 56/35/18 
f 56/35/18 114/55/45 113/54/45 
f 115/56/1 73/42/1 72/41/1 
f 72/41/1 116/57/1 115/56/1 
f 117/56/46 75/42/21 74/41/21 
f 74/41/21 118/57/46 117/56/46 
f 33/58/1 87/48/1 86/47/1 
f 86/47/1 119/59/1 33/58/1 
f 109/58/47 24/48/28 88/47/27 
f 88/47/27 120/59/48 109/58/47 
s off
f 112/60/9 54/25/9 75/49/9 
f 75/49/49 117/61/49 112/60/49 
f 114/61/7 56/49/7 73/42/7 
f 73/42/7 115/56/7 114/61/7 
f 119/62/9 86/8/9 94/49/9 
f 94/49/9 32/63/9 119/62/9 
f 120/63/7 88/49/7 95/50/7 
f 95/50/7 28/16/7 120/63/7 
f 116/64/9 72/30/9 57/49/9 
f 57/49/9 113/65/9 116/64/9 
f 118/65/7 74/49/7 55/36/7 
f 55/36/7 111/54/7 118/65/7 
s 1
f 21/53/1 25/13/1 28/16/1 
f 28/16/1 95/50/1 21/53/1 
f 110/53/42 29/13/10 32/16/13 
f 32/16/13 94/50/43 110/53/42 
s 4
f 87/21/7 33/17/7 29/20/7 
f 29/20/7 110/22/7 87/21/7 
f 26/18/15 25/51/9 109/52/9 
f 109/52/9 35/19/15 26/18/15 
s 1
f 36/23/1 111/54/1 112/55/1 
f 112/55/1 37/24/1 36/23/1 
f 91/23/36 113/54/45 114/55/45 
f 114/55/45 90/24/36 91/23/36 
f 58/37/1 115/56/1 116/57/1 
f 116/57/1 59/38/1 58/37/1 
f 89/37/35 117/56/46 118/57/46 
f 118/57/46 93/38/34 89/37/35 
f 34/43/1 33/58/1 119/59/1 
f 119/59/1 76/44/1 34/43/1 
f 35/43/31 109/58/47 120/59/48 
f 120/59/48 92/44/32 35/43/31 
s off
f 37/24/9 112/60/9 117/61/9 
f 117/61/49 89/24/49 37/24/49 
f 90/24/50 114/61/50 115/56/50 
f 115/56/50 58/37/50 90/24/50 
f 76/44/9 119/62/9 32/63/9 
f 32/63/9 31/44/9 76/44/9 
f 92/44/7 120/63/7 28/16/7 
f 28/16/7 27/15/7 92/44/7 
f 59/38/9 116/64/9 113/65/9 
f 113/65/9 91/38/9 59/38/9 
f 93/38/7 118/65/7 111/54/7 
f 111/54/7 36/23/7 93/38/7 
# 236 faces

