# 3ds Max Wavefront OBJ Exporter v0.97b - (c)2007 guruware
# File Created: 17.12.2024 21:46:10

mtllib HandRight.mtl

#
# object HandRight
#

v  -0.0546 -0.0106 -0.0304
v  -0.0305 -0.0106 -0.0510
v  -0.0305 -0.0106 -0.0259
v  -0.0646 -0.0106 -0.0013
v  -0.0305 0.0106 -0.0259
v  -0.0305 0.0105 -0.0510
v  -0.0546 0.0106 -0.0304
v  -0.0646 0.0106 -0.0013
v  -0.0208 -0.0106 0.0231
v  -0.0208 0.0106 0.0231
v  -0.0354 0.0106 0.0231
v  -0.0354 -0.0106 0.0231
v  0.0481 -0.0106 -0.0510
v  0.0481 0.0106 -0.0510
v  0.0481 0.0106 -0.0259
v  0.0481 -0.0106 -0.0259
v  0.0317 -0.0106 -0.1310
v  0.0317 0.0106 -0.1310
v  0.0481 0.0106 -0.1310
v  0.0481 -0.0106 -0.1310
v  -0.0460 -0.0106 -0.1204
v  -0.0460 0.0106 -0.1204
v  -0.0460 0.0106 -0.1410
v  -0.0460 -0.0106 -0.1410
v  -0.0460 -0.0106 -0.0983
v  -0.0305 -0.0106 -0.0983
v  -0.0305 -0.0106 -0.0762
v  -0.0460 -0.0106 -0.0762
v  0.0481 0.0106 -0.0958
v  0.0317 0.0105 -0.0958
v  0.0317 0.0105 -0.0762
v  0.0481 0.0106 -0.0762
v  0.0481 -0.0106 -0.0958
v  0.0481 -0.0106 -0.0762
v  -0.0460 0.0106 -0.0762
v  0.0217 -0.0106 -0.0762
v  0.0217 -0.0106 -0.0510
v  0.0056 -0.0106 -0.0510
v  0.0056 -0.0106 -0.0762
v  0.0217 0.0106 -0.0259
v  0.0217 0.0105 -0.0510
v  0.0056 0.0105 -0.0510
v  0.0056 0.0106 -0.0259
v  0.0151 -0.0106 0.0231
v  0.0151 0.0106 0.0231
v  0.0040 0.0106 0.0231
v  0.0040 -0.0106 0.0231
v  -0.0205 -0.0106 -0.1511
v  -0.0205 0.0106 -0.1511
v  -0.0044 0.0106 -0.1511
v  -0.0044 -0.0106 -0.1511
v  0.0217 -0.0106 -0.1445
v  0.0217 -0.0106 -0.1221
v  0.0056 -0.0106 -0.1221
v  0.0056 -0.0106 -0.1445
v  -0.0205 0.0105 -0.1255
v  -0.0044 0.0105 -0.1255
v  -0.0044 -0.0106 -0.0762
v  -0.0044 -0.0106 -0.0510
v  -0.0205 -0.0106 -0.0510
v  -0.0205 -0.0106 -0.0762
v  -0.0044 0.0106 -0.0259
v  -0.0044 0.0105 -0.0510
v  -0.0205 0.0105 -0.0510
v  -0.0205 0.0106 -0.0259
v  -0.0029 -0.0106 0.0231
v  -0.0029 0.0106 0.0231
v  -0.0140 0.0106 0.0231
v  -0.0140 -0.0106 0.0231
v  0.0056 0.0106 -0.1445
v  0.0217 0.0106 -0.1445
v  -0.0044 -0.0106 -0.1255
v  -0.0205 -0.0106 -0.1255
v  0.0056 0.0105 -0.1221
v  0.0217 0.0105 -0.1221
v  0.0317 -0.0106 -0.0510
v  0.0317 -0.0106 -0.0762
v  0.0317 0.0105 -0.0510
v  0.0317 0.0106 -0.0259
v  0.0319 -0.0106 0.0231
v  0.0319 0.0106 0.0231
v  0.0220 0.0106 0.0231
v  0.0220 -0.0106 0.0231
v  -0.0305 0.0106 -0.1410
v  -0.0305 -0.0106 -0.1410
v  0.0481 -0.0106 -0.1154
v  0.0317 -0.0106 -0.1154
v  -0.0305 0.0105 -0.1204
v  -0.0044 0.0105 -0.0762
v  0.0056 0.0105 -0.0762
v  -0.0305 0.0105 -0.0762
v  -0.0205 0.0105 -0.0762
v  0.0217 0.0105 -0.0762
v  0.0317 0.0105 -0.1154
v  -0.0305 -0.0106 -0.1204
v  0.0317 -0.0106 -0.0259
v  -0.0205 -0.0106 -0.0259
v  -0.0044 -0.0106 -0.0259
v  0.0056 -0.0106 -0.0259
v  0.0217 -0.0106 -0.0259
v  -0.1006 -0.0106 -0.0401
v  -0.1006 0.0106 -0.0401
v  -0.0889 0.0106 -0.0507
v  -0.0889 -0.0106 -0.0507
v  -0.0906 -0.0106 -0.0236
v  -0.0734 -0.0106 -0.0391
v  -0.0906 0.0106 -0.0236
v  -0.0734 0.0106 -0.0391
v  -0.0460 0.0106 -0.0983
v  0.0481 0.0106 -0.1154
v  0.0217 -0.0106 -0.0991
v  0.0056 -0.0106 -0.0991
v  -0.0205 0.0105 -0.1008
v  -0.0044 0.0105 -0.1008
v  -0.0044 -0.0106 -0.1008
v  -0.0205 -0.0106 -0.1008
v  0.0056 0.0105 -0.0991
v  0.0217 0.0105 -0.0991
v  0.0317 -0.0106 -0.0958
v  -0.0305 0.0105 -0.0983
# 120 vertices

vn 0.0000 -1.0000 -0.0000
vn 0.0001 1.0000 -0.0014
vn 0.0011 1.0000 -0.0011
vn 0.0005 1.0000 -0.0004
vn 0.0000 1.0000 -0.0000
vn 0.0000 0.0000 1.0000
vn 1.0000 0.0000 -0.0000
vn 0.0000 0.0000 -1.0000
vn -1.0000 0.0000 -0.0000
vn -0.0043 1.0000 0.0003
vn -0.0037 1.0000 0.0008
vn -0.0033 1.0000 -0.0010
vn -0.0048 1.0000 -0.0005
vn -0.9828 0.0000 -0.1849
vn -0.9957 0.0000 -0.0928
vn 0.0000 1.0000 -0.0017
vn 0.0000 1.0000 0.0017
vn 0.0000 1.0000 0.0013
vn -0.0000 1.0000 0.0013
vn 0.0000 1.0000 0.0019
vn 0.0000 1.0000 0.0014
vn -0.0010 1.0000 -0.0011
vn -0.0027 1.0000 -0.0000
vn -0.0013 1.0000 -0.0012
vn 0.0012 1.0000 0.0012
vn 0.0028 1.0000 -0.0000
vn 0.0025 1.0000 0.0006
vn 0.0000 1.0000 0.0021
vn 0.9495 0.0000 0.3138
vn -0.6403 0.0000 0.7681
vn 0.0037 1.0000 -0.0008
vn 0.0046 1.0000 -0.0002
vn -0.6717 0.0000 -0.7408
vn 0.0000 1.0000 -0.0008
vn 0.0000 1.0000 -0.0009
vn -0.0000 1.0000 -0.0009
vn -0.6520 0.0000 0.7582
vn 0.4232 0.0000 -0.9061
vn -0.8547 0.0000 0.5191
vn 0.6000 0.0000 -0.8000
vn -0.0014 1.0000 0.0014
vn 0.0000 1.0000 0.0028
vn -0.0020 1.0000 0.0013
vn -0.0030 1.0000 0.0003
vn -0.0000 1.0000 0.0009
vn 0.0000 1.0000 0.0009
vn 0.0039 1.0000 0.0003
vn 0.0045 1.0000 0.0007
vn -1.0000 0.0000 0.0000
vn 1.0000 0.0000 0.0000
vn 1.0000 -0.0000 0.0000
# 51 vertex normals

vt 1.0000 0.2500 0.0000
vt 0.7979 0.2500 0.0000
vt 0.7979 0.0000 0.0000
vt 1.0000 0.0000 0.0000
vt 0.2021 0.0000 0.0000
vt 0.2021 0.2500 0.0000
vt 0.0000 0.2500 0.0000
vt 0.0000 0.0000 0.0000
vt 0.2021 1.0000 0.0000
vt 0.0000 1.0000 0.0000
vt 0.2500 0.0000 0.0000
vt 0.2500 1.0000 0.0000
vt 1.0000 0.6250 0.0000
vt 0.7979 0.6250 0.0000
vt 0.7979 0.5000 0.0000
vt 1.0000 0.5000 0.0000
vt 0.6250 0.0000 0.0000
vt 0.6250 1.0000 0.0000
vt 0.5000 1.0000 0.0000
vt 0.5000 0.0000 0.0000
vt 0.7500 0.0000 0.0000
vt 0.7500 1.0000 0.0000
vt 0.2979 0.5000 0.0000
vt 0.2979 0.2500 0.0000
vt 0.4521 0.2500 0.0000
vt 0.4521 0.5000 0.0000
vt 0.7021 0.0000 0.0000
vt 0.7021 0.2500 0.0000
vt 0.5479 0.2500 0.0000
vt 0.5479 0.0000 0.0000
vt 0.7021 1.0000 0.0000
vt 0.5479 1.0000 0.0000
vt 0.2979 1.0000 0.0000
vt 0.2979 0.7500 0.0000
vt 0.4521 0.7500 0.0000
vt 0.4521 1.0000 0.0000
vt 0.5479 0.5000 0.0000
vt 0.7021 0.5000 0.0000
vt 0.4521 0.0000 0.0000
vt 0.2979 0.0000 0.0000
vt 0.5479 0.7500 0.0000
vt 0.7021 0.7500 0.0000
vt 0.0000 0.5000 0.0000
vt 0.2021 0.5000 0.0000
vt 1.0000 1.0000 0.0000
vt 0.7979 1.0000 0.0000
vt 0.0000 0.7500 0.0000
vt 0.2021 0.7500 0.0000
vt 0.5000 0.7500 0.0000
vt 0.7979 0.7500 0.0000
vt 0.3750 0.0000 0.0000
vt 0.3750 1.0000 0.0000
vt 1.0000 0.7500 0.0000
vt 0.2979 0.6250 0.0000
vt 0.4521 0.6250 0.0000
vt 0.5479 0.6250 0.0000
vt 0.7021 0.6250 0.0000
vt 0.0000 0.6250 0.0000
vt 0.2021 0.6250 0.0000
vt 0.4521 0.3750 0.0000
vt 0.4760 0.6250 0.0000
vt 0.2021 0.3750 0.0000
vt 0.3510 0.6250 0.0000
vt 0.7021 0.3750 0.0000
vt 0.6010 0.6250 0.0000
# 65 texture coords

g HandRight
usemtl wire_177088027
s 1
f 1/1/1 2/2/1 3/3/1 
f 3/3/1 4/4/1 1/1/1 
f 5/5/2 6/6/3 7/7/4 
f 7/7/4 8/8/5 5/5/2 
s 2
f 9/5/6 10/9/6 11/10/6 
f 11/10/6 12/8/6 9/5/6 
s 4
f 13/11/7 14/12/7 15/10/7 
f 15/10/7 16/8/7 13/11/7 
s 2
f 17/5/8 18/9/8 19/10/8 
f 19/10/8 20/8/8 17/5/8 
s 4
f 21/11/9 22/12/9 23/10/9 
f 23/10/9 24/8/9 21/11/9 
s 1
f 25/13/1 26/14/1 27/15/1 
f 27/15/1 28/16/1 25/13/1 
f 29/13/10 30/14/11 31/15/12 
f 31/15/12 32/16/13 29/13/10 
s 4
f 33/17/7 29/18/7 32/19/7 
f 32/19/7 34/20/7 33/17/7 
f 1/21/14 7/22/14 35/19/15 
f 35/19/15 28/20/15 1/21/14 
s 1
f 36/23/1 37/24/1 38/25/1 
f 38/25/1 39/26/1 36/23/1 
f 40/27/16 41/28/16 42/29/16 
f 42/29/16 43/30/16 40/27/16 
s 2
f 44/27/6 45/31/6 46/32/6 
f 46/32/6 47/30/6 44/27/6 
f 48/27/8 49/31/8 50/32/8 
f 50/32/8 51/30/8 48/27/8 
s 1
f 52/33/1 53/34/1 54/35/1 
f 54/35/1 55/36/1 52/33/1 
f 49/33/17 56/34/18 57/35/19 
f 57/35/19 50/36/17 49/33/17 
f 58/37/1 59/29/1 60/28/1 
f 60/28/1 61/38/1 58/37/1 
f 62/39/16 63/25/16 64/24/16 
f 64/24/16 65/40/16 62/39/16 
s 2
f 66/39/6 67/36/6 68/33/6 
f 68/33/6 69/40/6 66/39/6 
f 55/39/8 70/36/8 71/33/8 
f 71/33/8 52/40/8 55/39/8 
s 1
f 51/32/1 72/41/1 73/42/1 
f 73/42/1 48/31/1 51/32/1 
f 70/32/20 74/41/21 75/42/21 
f 75/42/21 71/31/20 70/32/20 
f 34/43/1 13/7/1 76/6/1 
f 76/6/1 77/44/1 34/43/1 
f 15/4/22 14/1/23 78/2/24 
f 78/2/24 79/3/16 15/4/22 
s 2
f 80/4/6 81/45/6 82/46/6 
f 82/46/6 83/3/6 80/4/6 
f 24/4/8 23/45/8 84/46/8 
f 84/46/8 85/3/8 24/4/8 
s 1
f 20/10/1 86/47/1 87/48/1 
f 87/48/1 17/9/1 20/10/1 
f 23/10/25 22/47/26 88/48/27 
f 88/48/27 84/9/28 23/10/25 
f 39/26/1 38/25/1 59/29/1 
f 59/29/1 58/37/1 39/26/1 
f 43/30/16 42/29/16 63/25/16 
f 63/25/16 62/39/16 43/30/16 
s 2
f 66/39/6 47/30/6 46/32/6 
f 46/32/6 67/36/6 66/39/6 
s 1
f 61/38/1 60/28/1 2/2/1 
f 2/2/1 27/15/1 61/38/1 
f 65/40/16 64/24/16 6/6/3 
f 6/6/3 5/5/2 65/40/16 
s 2
f 9/5/6 69/40/6 68/33/6 
f 68/33/6 10/9/6 9/5/6 
s 1
f 77/44/1 76/6/1 37/24/1 
f 37/24/1 36/23/1 77/44/1 
f 79/3/16 78/2/24 41/28/16 
f 41/28/16 40/27/16 79/3/16 
s 2
f 44/27/6 83/3/6 82/46/6 
f 82/46/6 45/31/6 44/27/6 
s off
f 39/26/8 58/37/8 89/37/8 
f 89/37/8 90/26/8 39/26/8 
f 61/38/8 27/15/8 91/15/8 
f 91/15/8 92/38/8 61/38/8 
f 77/44/8 36/23/8 93/23/8 
f 93/23/8 31/44/8 77/44/8 
f 54/25/9 74/49/9 70/32/9 
f 70/32/9 55/39/9 54/25/9 
f 50/32/7 57/49/7 72/41/7 
f 72/41/7 51/32/7 50/32/7 
f 87/6/9 94/49/9 18/46/9 
f 18/46/9 17/5/9 87/6/9 
f 84/46/7 88/49/7 95/50/7 
f 95/50/7 85/46/7 84/46/7 
f 73/28/9 56/49/9 49/33/9 
f 49/33/9 48/27/9 73/28/9 
f 71/33/7 75/49/7 53/34/7 
f 53/34/7 52/33/7 71/33/7 
f 96/3/1 16/4/1 80/4/1 
f 80/4/1 83/3/1 96/3/1 
f 16/4/29 15/45/29 81/45/29 
f 81/45/29 80/4/29 16/4/29 
f 15/45/5 79/46/5 82/46/5 
f 82/46/5 81/45/5 15/45/5 
f 79/46/5 40/31/5 45/31/5 
f 45/31/5 82/46/5 79/46/5 
f 40/31/5 43/32/5 46/32/5 
f 46/32/5 45/31/5 40/31/5 
f 43/32/5 62/36/5 67/36/5 
f 67/36/5 46/32/5 43/32/5 
f 62/36/5 65/33/5 68/33/5 
f 68/33/5 67/36/5 62/36/5 
f 65/33/5 5/9/5 10/9/5 
f 10/9/5 68/33/5 65/33/5 
f 5/9/5 8/10/5 11/10/5 
f 11/10/5 10/9/5 5/9/5 
f 8/10/30 4/8/30 12/8/30 
f 12/8/30 11/10/30 8/10/30 
f 4/8/1 3/5/1 9/5/1 
f 9/5/1 12/8/1 4/8/1 
f 3/5/1 97/40/1 69/40/1 
f 69/40/1 9/5/1 3/5/1 
f 97/40/1 98/39/1 66/39/1 
f 66/39/1 69/40/1 97/40/1 
f 98/39/1 99/30/1 47/30/1 
f 47/30/1 66/39/1 98/39/1 
f 99/30/1 100/27/1 44/27/1 
f 44/27/1 47/30/1 99/30/1 
f 100/27/1 96/3/1 83/3/1 
f 83/3/1 44/27/1 100/27/1 
s 1
f 28/16/1 27/15/1 2/2/1 
f 2/2/1 1/1/1 28/16/1 
f 6/6/3 91/44/31 35/43/32 
f 35/43/32 7/7/4 6/6/3 
s 4
f 34/20/7 32/19/7 14/12/7 
f 14/12/7 13/11/7 34/20/7 
f 101/4/33 102/45/33 103/22/33 
f 103/22/33 104/21/33 101/4/33 
s 1
f 100/40/1 99/39/1 38/25/1 
f 38/25/1 37/24/1 100/40/1 
f 93/38/34 90/37/34 42/29/16 
f 42/29/16 41/28/16 93/38/34 
f 98/30/1 97/27/1 60/28/1 
f 60/28/1 59/29/1 98/30/1 
f 89/26/35 92/23/36 64/24/16 
f 64/24/16 63/25/16 89/26/35 
f 16/8/1 96/5/1 76/6/1 
f 76/6/1 13/7/1 16/8/1 
f 32/16/13 31/15/12 78/2/24 
f 78/2/24 14/1/23 32/16/13 
f 99/39/1 98/30/1 59/29/1 
f 59/29/1 38/25/1 99/39/1 
f 90/37/34 89/26/35 63/25/16 
f 63/25/16 42/29/16 90/37/34 
f 97/27/1 3/3/1 2/2/1 
f 2/2/1 60/28/1 97/27/1 
f 92/23/36 91/44/31 6/6/3 
f 6/6/3 64/24/16 92/23/36 
f 96/5/1 100/40/1 37/24/1 
f 37/24/1 76/6/1 96/5/1 
f 31/15/12 93/38/34 41/28/16 
f 41/28/16 78/2/24 31/15/12 
s off
f 1/21/1 4/4/1 105/4/1 
f 105/4/1 106/21/1 1/21/1 
f 4/4/37 8/45/37 107/45/37 
f 107/45/37 105/4/37 4/4/37 
f 8/45/5 7/22/5 108/22/5 
f 108/22/5 107/45/5 8/45/5 
f 7/22/38 1/21/38 106/21/38 
f 106/21/38 108/22/38 7/22/38 
f 106/21/1 105/4/1 101/4/1 
f 101/4/1 104/21/1 106/21/1 
f 105/4/39 107/45/39 102/45/39 
f 102/45/39 101/4/39 105/4/39 
f 107/45/5 108/22/5 103/22/5 
f 103/22/5 102/45/5 107/45/5 
f 108/22/40 106/21/40 104/21/40 
f 104/21/40 103/22/40 108/22/40 
s 4
f 25/51/9 109/52/9 22/12/9 
f 22/12/9 21/11/9 25/51/9 
s 1
f 24/45/1 85/46/1 95/50/1 
f 95/50/1 21/53/1 24/45/1 
f 19/45/41 18/46/42 94/50/43 
f 94/50/43 110/53/44 19/45/41 
s 4
f 20/4/7 19/45/7 110/22/7 
f 110/22/7 86/21/7 20/4/7 
s 1
f 111/54/1 112/55/1 54/35/1 
f 54/35/1 53/34/1 111/54/1 
f 113/54/45 114/55/45 57/35/19 
f 57/35/19 56/34/18 113/54/45 
f 115/56/1 116/57/1 73/42/1 
f 73/42/1 72/41/1 115/56/1 
f 117/56/46 118/57/46 75/42/21 
f 75/42/21 74/41/21 117/56/46 
f 33/58/1 119/59/1 87/48/1 
f 87/48/1 86/47/1 33/58/1 
f 109/58/47 120/59/48 88/48/27 
f 88/48/27 22/47/26 109/58/47 
s off
f 112/60/49 117/61/49 74/49/49 
f 74/49/9 54/25/9 112/60/9 
f 114/61/7 115/56/7 72/41/7 
f 72/41/7 57/49/7 114/61/7 
f 119/62/9 30/63/9 94/49/9 
f 94/49/9 87/6/9 119/62/9 
f 120/63/7 26/14/7 95/50/7 
f 95/50/7 88/49/7 120/63/7 
f 116/64/9 113/65/9 56/49/9 
f 56/49/9 73/28/9 116/64/9 
f 118/65/7 111/54/7 53/34/7 
f 53/34/7 75/49/7 118/65/7 
s 1
f 21/53/1 95/50/1 26/14/1 
f 26/14/1 25/13/1 21/53/1 
f 110/53/44 94/50/43 30/14/11 
f 30/14/11 29/13/10 110/53/44 
s 4
f 86/21/7 110/22/7 29/18/7 
f 29/18/7 33/17/7 86/21/7 
f 28/20/15 35/19/15 109/52/9 
f 109/52/9 25/51/9 28/20/15 
s 1
f 36/23/1 39/26/1 112/55/1 
f 112/55/1 111/54/1 36/23/1 
f 92/23/36 89/26/35 114/55/45 
f 114/55/45 113/54/45 92/23/36 
f 58/37/1 61/38/1 116/57/1 
f 116/57/1 115/56/1 58/37/1 
f 90/37/34 93/38/34 118/57/46 
f 118/57/46 117/56/46 90/37/34 
f 34/43/1 77/44/1 119/59/1 
f 119/59/1 33/58/1 34/43/1 
f 35/43/32 91/44/31 120/59/48 
f 120/59/48 109/58/47 35/43/32 
s off
f 39/26/49 90/26/49 117/61/49 
f 117/61/9 112/60/9 39/26/9 
f 89/26/50 58/37/50 115/56/50 
f 115/56/51 114/61/51 89/26/51 
f 77/44/9 31/44/9 30/63/9 
f 30/63/9 119/62/9 77/44/9 
f 91/44/7 27/15/7 26/14/7 
f 26/14/7 120/63/7 91/44/7 
f 61/38/9 92/38/9 113/65/9 
f 113/65/9 116/64/9 61/38/9 
f 93/38/7 36/23/7 111/54/7 
f 111/54/7 118/65/7 93/38/7 
# 236 faces

